<svg width="23" height="23" viewBox="0 0 23 23" fill="none" xmlns="http://www.w3.org/2000/svg">
<g clip-path="url(#clip0_0_702)">
<path d="M22.9879 11.7152C22.9879 10.7729 22.9096 10.0852 22.7403 9.37215H11.7291V13.6252H18.1924C18.0621 14.6822 17.3585 16.2739 15.7947 17.3435L15.7728 17.4859L19.2543 20.1215L19.4955 20.145C21.7108 18.1458 22.9879 15.2042 22.9879 11.7152Z" fill="#4285F4"/>
<path d="M11.7291 22.921C14.8956 22.921 17.5539 21.9022 19.4955 20.145L15.7947 17.3435C14.8044 18.0184 13.4752 18.4895 11.7291 18.4895C8.62772 18.4895 5.99548 16.4904 5.05716 13.7271L4.91962 13.7385L1.29947 16.4763L1.25213 16.6049C3.1807 20.3487 7.14213 22.921 11.7291 22.921Z" fill="#34A853"/>
<path d="M5.05716 13.7271C4.80957 13.0141 4.66629 12.25 4.66629 11.4605C4.66629 10.6709 4.80957 9.90695 5.04413 9.19386L5.03757 9.04199L1.37206 6.26022L1.25213 6.31596C0.457272 7.86951 0.00118256 9.61409 0.00118256 11.4605C0.00118256 13.3069 0.457272 15.0514 1.25213 16.6049L5.05716 13.7271Z" fill="#FBBC05"/>
<path d="M11.7291 4.43136C13.9313 4.43136 15.4168 5.36093 16.2638 6.13775L19.5737 2.97973C17.5409 1.13332 14.8956 0 11.7291 0C7.14213 0 3.1807 2.57222 1.25213 6.31596L5.04413 9.19385C5.99548 6.4306 8.62772 4.43136 11.7291 4.43136Z" fill="#EB4335"/>
</g>
<defs>
<clipPath id="clip0_0_702">
<rect width="23" height="23" fill="white"/>
</clipPath>
</defs>
</svg>
