<svg width="502" height="409" viewBox="0 0 502 409" fill="none" xmlns="http://www.w3.org/2000/svg">
<path d="M72.6946 388.779C79.8632 388.779 156.728 389.921 231.805 391.056C306.882 392.19 380.166 393.339 380.166 393.339L405.708 399.556L431.243 405.828C436.762 406.953 442.407 407.332 448.027 406.956C457.628 406.365 469.648 403.456 479.283 394.195L480.01 393.515L480.744 392.836C482.885 390.967 490.046 383.928 495.115 371.017C500.184 358.107 503.079 339.292 496.671 313.94C491.725 294.37 486.153 274.753 480.112 255.279C474.072 235.805 467.562 216.467 460.753 197.461C456.637 185.953 450.943 175.073 443.834 165.131C436.718 155.199 428.241 146.318 418.652 138.746C413.441 134.615 408.019 130.759 402.405 127.195C392.723 120.97 379.418 113.442 364.354 107.822C314.18 89.0275 268.661 91.6979 235.685 99.0636C202.709 106.429 182.29 118.49 182.29 118.49C172.634 124.2 163.5 130.751 154.995 138.067C143.546 147.885 133.364 159.09 124.683 171.423C117.621 181.11 111.877 191.692 107.6 202.89C101.485 218.396 95.1111 240.867 88.6491 276.174C87.6842 281.446 83.2131 309.598 79.2313 336.431C75.2495 363.264 71.7365 388.779 72.6946 388.779Z" fill="#B00808" stroke="black" stroke-width="2.03848" stroke-miterlimit="10" stroke-linecap="round"/>
<path d="M292.524 370.63L293.51 381.318L294.488 392.014L336.42 392.612L378.345 393.21C375.282 392.24 372.193 391.248 369.076 390.233C365.96 389.219 362.829 388.179 359.686 387.115C356.32 385.987 352.99 384.854 349.697 383.717C346.404 382.58 343.14 381.429 339.906 380.265L316.212 375.454L292.524 370.63Z" fill="black" stroke="black" stroke-width="2.03848" stroke-miterlimit="10" stroke-linecap="round"/>
<path d="M271.406 140.737L242.174 265.77L212.942 390.811L253.718 391.409L294.488 392.014L282.95 266.375L271.406 140.737Z" fill="#FFF8F8" stroke="black" stroke-width="2.03848" stroke-miterlimit="10" stroke-linecap="round"/>
<path d="M263.259 113.863L267.336 127.303L271.413 140.737L281.184 127.711L290.948 114.685L277.107 114.277L263.259 113.863Z" fill="#FFF8F8" stroke="black" stroke-width="2.03848" stroke-miterlimit="10" stroke-linecap="round"/>
<path d="M271.406 140.737L241.413 163.16L211.42 185.584C215.13 171.237 218.836 156.895 222.537 142.558L233.646 99.5324C235.64 99.0432 237.703 98.5766 239.837 98.1327C241.977 97.6842 244.179 97.2697 246.448 96.8756C248.378 96.5494 250.269 96.2573 252.122 95.9991C253.975 95.7409 255.787 95.5144 257.558 95.3196C259.868 102.889 262.181 110.459 264.495 118.028L271.406 140.737Z" stroke="black" stroke-width="2.03848" stroke-miterlimit="10" stroke-linecap="round"/>
<path d="M271.406 140.737L288.76 117.6C294.549 109.899 300.334 102.185 306.114 94.4566C307.971 94.6152 309.874 94.8009 311.822 95.0138C313.77 95.2267 315.765 95.4804 317.808 95.7748C320.146 96.1078 322.408 96.4543 324.603 96.8688C326.798 97.2833 328.925 97.6842 330.984 98.1191C329.172 114.314 327.36 130.501 325.548 146.683C323.736 162.864 321.924 179.049 320.112 195.239L295.752 167.985L271.406 140.737Z" stroke="black" stroke-width="2.03848" stroke-miterlimit="10" stroke-linecap="round"/>
<path d="M253.379 236.097H252.02L250.906 211.968L249.818 187.846C249.79 187.235 249.527 186.658 249.084 186.237C248.641 185.815 248.052 185.581 247.44 185.583H237.322C236.709 185.588 236.121 185.831 235.685 186.263C235.242 186.683 234.977 187.257 234.944 187.867L233.762 211.995L232.573 236.124H231.214C228.992 236.123 226.791 236.56 224.738 237.41C222.685 238.26 220.819 239.506 219.248 241.078C217.677 242.649 216.43 244.515 215.58 246.568C214.731 248.621 214.293 250.821 214.294 253.044V354.906C214.293 357.129 214.731 359.329 215.58 361.382C216.43 363.436 217.677 365.301 219.248 366.872C220.819 368.444 222.685 369.69 224.738 370.54C226.791 371.39 228.992 371.827 231.214 371.826H253.372C255.594 371.827 257.795 371.39 259.848 370.54C261.901 369.69 263.767 368.444 265.338 366.872C266.909 365.301 268.155 363.436 269.005 361.382C269.855 359.329 270.292 357.129 270.291 354.906V253.016C270.292 250.794 269.855 248.594 269.005 246.541C268.155 244.487 266.909 242.622 265.338 241.051C263.767 239.479 261.901 238.233 259.848 237.383C257.795 236.533 255.594 236.096 253.372 236.097H253.379Z" fill="#14AF6C" stroke="black" stroke-width="2.03848" stroke-miterlimit="10" stroke-linecap="round"/>
<path d="M214.301 257.644V305.555V353.459H242.303H270.298V305.555V257.644H242.303H214.301Z" fill="#F7CE21" stroke="black" stroke-width="2.03848" stroke-miterlimit="10" stroke-linecap="round"/>
<path d="M239.626 280.57C239.331 279.641 239.165 278.676 239.13 277.702C239.051 276.765 239.161 275.821 239.454 274.927C239.747 274.033 240.217 273.207 240.835 272.498" stroke="black" stroke-width="2.03848" stroke-miterlimit="10" stroke-linecap="round"/>
<path d="M239.626 280.862C239.626 280.862 239.945 280.38 240.373 279.775C240.81 279.141 241.287 278.535 241.8 277.961C242.652 277.078 243.706 276.415 244.871 276.031C245.498 275.81 246.148 275.659 246.808 275.582C248.595 275.44 250.38 275.879 251.897 276.833C252.737 277.338 253.506 277.95 254.187 278.654C255.81 280.501 256.767 282.838 256.905 285.292C257.074 287.797 256.889 290.314 256.355 292.767C256.124 293.956 255.838 295.145 255.519 296.321C255.2 297.496 254.839 298.672 254.493 299.827C254.251 300.667 253.944 301.487 253.576 302.28C253.211 303.079 252.659 303.779 251.965 304.318C251.206 304.876 250.326 305.246 249.397 305.399C248.028 305.65 246.616 305.354 245.462 304.576C245.035 304.301 244.645 303.972 244.301 303.598C244.04 304.06 243.725 304.489 243.363 304.875C242.84 305.436 242.209 305.885 241.508 306.194C240.3 306.691 238.961 306.77 237.703 306.418C236.899 306.198 236.127 305.876 235.406 305.46C234.734 305.064 234.151 304.535 233.694 303.904C232.484 302.279 231.42 300.551 230.514 298.74C229.381 296.724 228.378 294.638 227.51 292.495C226.886 290.927 226.623 289.239 226.742 287.555C226.79 286.768 226.915 285.987 227.116 285.224C227.421 284.092 227.94 283.029 228.645 282.092C229.016 281.585 229.432 281.112 229.888 280.679C230.481 280.114 231.191 279.687 231.968 279.428C233.657 279.013 235.432 279.122 237.057 279.741C237.947 280.033 238.807 280.409 239.626 280.862Z" fill="#EF3F3F" stroke="black" stroke-width="2.03848" stroke-miterlimit="10" stroke-linecap="round"/>
<path d="M265.447 273C265.448 273.82 265.165 274.614 264.646 275.249C264.126 275.883 263.403 276.317 262.6 276.477C261.796 276.638 260.962 276.515 260.239 276.129C259.516 275.743 258.949 275.118 258.636 274.36C258.322 273.603 258.281 272.761 258.519 271.977C258.757 271.193 259.26 270.515 259.942 270.061C260.624 269.606 261.442 269.402 262.258 269.483C263.073 269.565 263.835 269.926 264.414 270.507C264.741 270.834 265.001 271.223 265.179 271.651C265.356 272.078 265.447 272.537 265.447 273Z" fill="#FFF8F8" stroke="black" stroke-width="2.03848" stroke-miterlimit="10" stroke-linecap="round"/>
<path d="M236.439 267.055C236.442 267.874 236.16 268.669 235.643 269.304C235.125 269.939 234.403 270.375 233.6 270.537C232.796 270.699 231.962 270.578 231.238 270.193C230.514 269.809 229.947 269.186 229.631 268.429C229.316 267.673 229.273 266.831 229.509 266.046C229.745 265.262 230.247 264.583 230.927 264.127C231.608 263.67 232.425 263.464 233.241 263.543C234.057 263.623 234.819 263.982 235.399 264.561C235.729 264.887 235.991 265.275 236.17 265.704C236.348 266.132 236.44 266.591 236.439 267.055Z" fill="#FFF8F8" stroke="black" stroke-width="2.03848" stroke-miterlimit="10" stroke-linecap="round"/>
<path d="M234.822 191.705H242.378H249.927" fill="#FFF8F8"/>
<path d="M234.822 191.705H242.378H249.927" stroke="black" stroke-width="2.03848" stroke-miterlimit="10" stroke-linecap="round"/>
<path d="M234.822 197.135H242.378H249.927" fill="#FFF8F8"/>
<path d="M234.822 197.135H242.378H249.927" stroke="black" stroke-width="2.03848" stroke-miterlimit="10" stroke-linecap="round"/>
<path d="M350.302 280.257L345.104 330.248L339.906 380.245C323.17 376.331 306.359 373.198 289.548 370.052C272.738 366.906 255.92 363.794 239.191 359.86L237.404 359.466L233.701 358.664L229.753 357.788L227.606 357.312C223.841 356.544 220.149 355.455 216.571 354.057C212.236 352.375 208.351 349.71 205.223 346.27C204.515 345.462 203.862 344.609 203.266 343.715C202.453 342.495 201.739 341.211 201.133 339.876L200.895 337.722L200.677 335.534C200.073 335.065 199.468 334.59 198.856 334.1C198.245 333.611 197.633 333.101 197.015 332.585C195.538 331.348 194.131 330.112 192.795 328.875C191.436 327.645 190.186 326.415 188.976 325.199C187.76 324.132 185.314 321.951 182.603 319.24C179.709 316.408 177.044 313.352 174.632 310.101C174.09 309.369 173.621 308.586 173.233 307.763C172.696 306.618 172.391 305.378 172.336 304.114C172.281 303.188 172.347 302.258 172.533 301.349C172.642 300.727 172.876 300.134 173.22 299.605C173.565 299.076 174.013 298.622 174.537 298.271C175.485 297.72 176.594 297.514 177.676 297.686C178.308 297.768 178.926 297.937 179.511 298.189C177.694 295.904 176.325 293.297 175.475 290.504C174.795 288.085 174.904 285.911 175.903 284.3C176.069 284.027 176.26 283.77 176.474 283.532C176.83 283.129 177.25 282.787 177.717 282.52C179.218 281.747 180.961 281.591 182.576 282.085C184.651 282.674 186.573 283.708 188.209 285.116C187.475 283.654 186.905 282.116 186.51 280.529C185.973 278.266 185.83 275.677 187.352 273.986C187.484 273.839 187.627 273.702 187.78 273.578C188.118 273.288 188.496 273.048 188.902 272.864C191.538 271.696 195.601 273.462 199.203 275.691C201.845 277.368 204.363 279.232 206.738 281.27C208.703 282.907 210.819 284.354 213.058 285.591C215.906 287.167 218.898 288.468 221.993 289.478C227.748 291.377 233.757 292.394 239.816 292.495C245.883 292.604 251.935 291.835 257.782 290.212L269.809 286.896L281.836 283.58C282.917 283.28 283.836 282.564 284.391 281.589C284.946 280.613 285.093 279.458 284.799 278.375L283.44 273.517L282.115 268.665C281.877 267.784 281.355 267.007 280.63 266.452C279.905 265.898 279.018 265.599 278.106 265.601L274.205 265.682L270.312 265.764L270.047 256.679L269.789 247.594H296.445C302.561 247.583 308.549 249.338 313.691 252.649L331.996 266.45L350.302 280.257Z" fill="#FFC0C0" stroke="black" stroke-width="2.03848" stroke-miterlimit="10" stroke-linecap="round"/>
<path d="M188.229 285.116L198.292 294.962L208.369 304.801C211.664 308.034 215.801 310.277 220.308 311.276L241.773 316.033L263.238 320.789" stroke="black" stroke-width="2.03848" stroke-miterlimit="10" stroke-linecap="round"/>
<path d="M179.531 298.189L192.347 310.339L205.162 322.495C207.879 325.066 211.207 326.902 214.831 327.829L238.172 333.754L261.512 339.679" stroke="black" stroke-width="2.03848" stroke-miterlimit="10" stroke-linecap="round"/>
<path d="M200.698 335.534C205.141 337.647 209.212 339.38 212.772 340.78C216.333 342.18 219.39 343.246 221.796 344.041C221.796 344.041 224.147 344.823 230.188 346.386C236.228 347.949 245.952 350.313 260.697 353.459" stroke="black" stroke-width="2.03848" stroke-miterlimit="10" stroke-linecap="round"/>
<path d="M380.716 239.019C383.706 248.577 386.698 258.138 389.692 267.7C392.686 277.263 395.678 286.824 398.668 296.382L374.485 288.323L350.302 280.257" stroke="black" stroke-width="2.03848" stroke-miterlimit="10" stroke-linecap="round"/>
<path d="M158.854 244.401C157.233 268.64 155.611 292.876 153.989 317.106C152.367 341.337 150.746 365.572 149.124 389.812" stroke="black" stroke-width="2.03848" stroke-miterlimit="10" stroke-linecap="round"/>
<path d="M380.172 393.339L360.039 386.789L339.906 380.245" fill="black"/>
<path d="M380.172 393.339L360.039 386.789L339.906 380.245" stroke="black" stroke-width="2.03848" stroke-miterlimit="10" stroke-linecap="round"/>
<path d="M192.204 357.998C192.204 359.053 191.785 360.064 191.039 360.809C190.294 361.555 189.283 361.973 188.229 361.973C187.174 361.973 186.163 361.555 185.418 360.809C184.672 360.064 184.254 359.053 184.254 357.998C184.254 356.944 184.672 355.933 185.418 355.188C186.163 354.442 187.174 354.023 188.229 354.023C189.283 354.023 190.294 354.442 191.039 355.188C191.785 355.933 192.204 356.944 192.204 357.998Z" fill="black" stroke="black" stroke-width="2.03848" stroke-miterlimit="10" stroke-linecap="round"/>
<path d="M208.654 259.975C208.658 260.898 208.341 261.794 207.757 262.51C207.174 263.225 206.36 263.716 205.455 263.899C204.55 264.082 203.609 263.945 202.794 263.511C201.979 263.078 201.339 262.375 200.984 261.523C200.629 260.67 200.581 259.721 200.847 258.837C201.114 257.953 201.679 257.189 202.446 256.675C203.214 256.161 204.135 255.93 205.054 256.02C205.973 256.11 206.833 256.516 207.486 257.168C207.856 257.536 208.149 257.973 208.35 258.455C208.551 258.937 208.654 259.453 208.654 259.975Z" fill="black" stroke="black" stroke-width="2.03848" stroke-miterlimit="10" stroke-linecap="round"/>
<path d="M138.802 393.339H6.55941C5.35128 393.335 4.19366 392.854 3.33938 391.999C2.4851 391.145 2.00358 389.987 2 388.779C2.00358 387.571 2.4851 386.414 3.33938 385.559C4.19366 384.705 5.35128 384.223 6.55941 384.22H138.802C140.011 384.223 141.168 384.705 142.023 385.559C142.877 386.414 143.358 387.571 143.362 388.779C143.358 389.987 142.877 391.145 142.023 391.999C141.168 392.854 140.011 393.335 138.802 393.339Z" fill="#F7CE21" stroke="black" stroke-width="2.03848" stroke-miterlimit="10" stroke-linecap="round"/>
<path d="M98.8008 326.028H12.8109C12.8109 318.241 15.904 310.772 21.4101 305.264C26.9161 299.757 34.3842 296.662 42.1718 296.66H69.4331C77.2219 296.66 84.6917 299.755 90.1992 305.262C95.7067 310.77 98.8008 318.239 98.8008 326.028Z" fill="#F9851C" stroke="black" stroke-width="2.03848" stroke-miterlimit="10" stroke-linecap="round"/>
<path d="M84.1169 384.186H27.4947C23.6003 384.186 19.8654 382.639 17.1117 379.885C14.3579 377.131 12.8109 373.396 12.8109 369.502H98.8008C98.8008 373.396 97.2537 377.131 94.5 379.885C91.7462 382.639 88.0113 384.186 84.1169 384.186Z" fill="#F9851C" stroke="black" stroke-width="2.03848" stroke-miterlimit="10" stroke-linecap="round"/>
<path d="M44.6518 308.354C44.4378 308.568 44.1708 308.721 43.8783 308.797C43.5858 308.873 43.2782 308.871 42.9871 308.789C42.1554 308.621 41.3808 308.242 40.7379 307.688C40.0689 307.163 39.545 306.475 39.2159 305.691C39.0499 305.429 38.9707 305.122 38.9897 304.813C39.0087 304.505 39.1248 304.21 39.3216 303.971C39.5183 303.732 39.7855 303.561 40.0851 303.483C40.3846 303.405 40.7011 303.424 40.9894 303.537C41.816 303.723 42.5875 304.101 43.2423 304.639C43.897 305.177 44.417 305.86 44.7605 306.635C44.8959 306.906 44.9572 307.207 44.9381 307.509C44.919 307.811 44.8202 308.103 44.6518 308.354Z" fill="#FFF8F8" stroke="black" stroke-width="2.03848" stroke-miterlimit="10" stroke-linecap="round"/>
<path d="M52.0854 307.559C51.7919 307.487 51.5232 307.337 51.307 307.125C51.0908 306.914 50.935 306.649 50.8556 306.357C50.5846 305.554 50.5049 304.699 50.6229 303.861C50.7408 303.022 51.0532 302.222 51.5351 301.526C51.6751 301.25 51.898 301.026 52.1724 300.884C52.4468 300.742 52.7588 300.69 53.0644 300.735C53.3699 300.78 53.6537 300.92 53.8755 301.135C54.0973 301.35 54.246 301.629 54.3006 301.933C54.563 302.739 54.6352 303.594 54.5114 304.433C54.3876 305.271 54.0712 306.069 53.5871 306.764C53.4287 307.017 53.2064 307.224 52.9428 307.363C52.6792 307.503 52.3835 307.57 52.0854 307.559Z" fill="#FFF8F8" stroke="black" stroke-width="2.03848" stroke-miterlimit="10" stroke-linecap="round"/>
<path d="M58.6765 311.283C58.5126 311.027 58.4199 310.733 58.4079 310.429C58.396 310.126 58.4653 309.825 58.6086 309.557C58.9501 308.781 59.4861 308.107 60.1646 307.6C60.8222 307.061 61.6051 306.696 62.4409 306.54C62.7347 306.466 63.0427 306.471 63.3339 306.555C63.625 306.638 63.8889 306.797 64.0989 307.016C64.2629 307.27 64.3558 307.564 64.3677 307.866C64.3797 308.168 64.3103 308.468 64.1669 308.735C63.8065 309.502 63.2717 310.175 62.6051 310.699C61.9385 311.222 61.1586 311.583 60.3277 311.752C60.0357 311.828 59.7286 311.825 59.4383 311.742C59.1479 311.66 58.8849 311.501 58.6765 311.283Z" fill="#FFF8F8" stroke="black" stroke-width="2.03848" stroke-miterlimit="10" stroke-linecap="round"/>
<path d="M64.4728 301.559C64.6379 301.305 64.8677 301.098 65.1386 300.961C65.4095 300.823 65.712 300.76 66.0152 300.778C66.8638 300.774 67.7 300.982 68.4478 301.383C69.212 301.753 69.8674 302.315 70.3504 303.014C70.5423 303.247 70.6681 303.528 70.7147 303.827C70.7613 304.126 70.727 304.431 70.6154 304.712C70.4508 304.966 70.2222 305.172 69.9525 305.309C69.6829 305.447 69.3818 305.51 69.0797 305.494C68.2289 305.499 67.3902 305.291 66.6403 304.889C65.8787 304.515 65.2242 303.954 64.7378 303.258C64.5477 303.024 64.4231 302.743 64.3766 302.445C64.3301 302.146 64.3632 301.841 64.4728 301.559Z" fill="#FFF8F8" stroke="black" stroke-width="2.03848" stroke-miterlimit="10" stroke-linecap="round"/>
<path d="M98.8008 334.427H55.8024H12.8109V330.228V326.028H55.8024H98.8008V330.228V334.427Z" fill="#F7CE21" stroke="black" stroke-width="2.03848" stroke-miterlimit="10" stroke-linecap="round"/>
<path d="M94.0441 335.107C92.3299 335.112 90.6237 335.341 88.9683 335.786C87.5163 336.156 86.1282 336.743 84.8506 337.526C83.5744 336.74 82.1859 336.153 80.7328 335.786C77.406 334.925 73.9148 334.925 70.588 335.786C69.1354 336.154 67.747 336.741 66.4703 337.526C65.1935 336.741 63.8051 336.154 62.3525 335.786C59.0257 334.925 55.5345 334.925 52.2077 335.786C50.7551 336.154 49.3667 336.741 48.0899 337.526C46.8132 336.741 45.4248 336.154 43.9722 335.786C40.6454 334.925 37.1542 334.925 33.8274 335.786C32.3743 336.153 30.9858 336.74 29.7096 337.526C28.4325 336.729 27.0418 336.131 25.5851 335.752C23.9321 335.306 22.2281 335.078 20.5161 335.073C17.3338 335.007 14.1937 335.808 11.4313 337.39C9.10739 338.817 7.66687 340.787 7.66687 342.968C7.66687 345.149 9.10739 347.12 11.4313 348.547C14.1937 350.128 17.3338 350.929 20.5161 350.864C22.2266 350.87 23.9306 350.653 25.5851 350.218C27.0398 349.85 28.4304 349.264 29.7096 348.479C30.9858 349.265 32.3743 349.851 33.8274 350.218C37.1542 351.079 40.6454 351.079 43.9722 350.218C45.4248 349.85 46.8132 349.264 48.0899 348.479C49.3667 349.264 50.7551 349.85 52.2077 350.218C55.5345 351.079 59.0257 351.079 62.3525 350.218C63.8051 349.85 65.1935 349.264 66.4703 348.479C67.747 349.264 69.1354 349.85 70.588 350.218C73.9148 351.079 77.406 351.079 80.7328 350.218C82.1859 349.851 83.5744 349.265 84.8506 348.479C86.1282 349.262 87.5163 349.848 88.9683 350.218C90.6252 350.652 92.3314 350.869 94.0441 350.864C97.222 350.943 100.362 350.159 103.129 348.594C105.453 347.168 106.893 345.197 106.893 343.016C106.893 340.835 105.453 338.864 103.129 337.437C100.368 335.851 97.2277 335.046 94.0441 335.107Z" fill="#14AF6C" stroke="black" stroke-width="2.03848" stroke-miterlimit="10" stroke-linecap="round"/>
<path d="M98.7055 369.502H13.3883C12.8193 369.503 12.2557 369.392 11.7298 369.174C11.2039 368.957 10.7259 368.639 10.3233 368.237C9.92061 367.835 9.60117 367.357 9.38323 366.832C9.16528 366.306 9.0531 365.743 9.0531 365.174V355.226C9.0531 354.657 9.16528 354.093 9.38323 353.568C9.60117 353.042 9.92061 352.565 10.3233 352.163C10.7259 351.761 11.2039 351.442 11.7298 351.225C12.2557 351.008 12.8193 350.897 13.3883 350.897H98.7055C99.8534 350.897 100.954 351.353 101.766 352.165C102.578 352.977 103.034 354.078 103.034 355.226V365.174C103.034 366.322 102.578 367.423 101.766 368.234C100.954 369.046 99.8534 369.502 98.7055 369.502Z" fill="#EF3F3F" stroke="black" stroke-width="2.03848" stroke-miterlimit="10" stroke-linecap="round"/>
<path d="M102.517 376.915H98.1278H93.7383V330.051V283.179H98.1278H102.517V330.051V376.915Z" fill="#F7CE21" stroke="black" stroke-width="2.03848" stroke-miterlimit="10" stroke-linecap="round"/>
<path d="M111.297 376.915H106.907H102.518V323.473V270.038H106.907H111.297V323.473V376.915Z" fill="#F7CE21" stroke="black" stroke-width="2.03848" stroke-miterlimit="10" stroke-linecap="round"/>
<path d="M120.082 376.915H115.693H111.297V336.621V296.321H115.693H120.082V336.621V376.915Z" fill="#F7CE21" stroke="black" stroke-width="2.03848" stroke-miterlimit="10" stroke-linecap="round"/>
<path d="M146.576 370.344H142.186H137.797V330.05V289.75H142.186H146.576V330.05V370.344Z" fill="#F7CE21" stroke="black" stroke-width="2.03848" stroke-miterlimit="10" stroke-linecap="round"/>
<path d="M129.018 376.915H124.628H120.239V330.051V283.179H124.628H129.018V330.051V376.915Z" fill="#F7CE21" stroke="black" stroke-width="2.03848" stroke-miterlimit="10" stroke-linecap="round"/>
<path d="M137.797 376.915H133.407H129.018V326.762V276.608H133.407H137.797V326.762V376.915Z" fill="#F7CE21" stroke="black" stroke-width="2.03848" stroke-miterlimit="10" stroke-linecap="round"/>
<path d="M144.177 393.584L120.055 393.38L95.9332 393.176L90.375 360.859L84.8099 328.542C84.7586 328.233 84.7745 327.917 84.8566 327.614C84.9386 327.312 85.085 327.03 85.2856 326.789C85.4887 326.55 85.7417 326.358 86.0269 326.226C86.3121 326.095 86.6227 326.027 86.9367 326.028H152.848C153.16 326.027 153.469 326.094 153.753 326.224C154.037 326.355 154.288 326.546 154.49 326.785C154.692 327.023 154.84 327.303 154.922 327.604C155.005 327.905 155.02 328.221 154.968 328.529C153.156 339.374 151.344 350.216 149.532 361.056C147.72 371.896 145.935 382.739 144.177 393.584Z" fill="#D1B7E5" stroke="black" stroke-width="2.03848" stroke-miterlimit="10" stroke-linecap="round"/>
<path d="M96.1575 392.408C95.9122 392.155 95.7552 391.83 95.7099 391.481C95.6646 391.132 95.7334 390.778 95.9061 390.471L111.99 361.932L128.08 333.394L110.658 344.531L93.2425 355.661C93.0651 355.775 92.8669 355.852 92.6594 355.89C92.4518 355.927 92.239 355.923 92.033 355.878C91.7235 355.81 91.4411 355.652 91.2215 355.424C91.0018 355.195 90.8547 354.907 90.7987 354.595C90.7427 354.283 90.7804 353.962 90.9069 353.671C91.0335 353.381 91.2432 353.134 91.5097 352.963L111.609 340.114L131.709 327.271C132.008 327.08 132.362 326.991 132.717 327.019C133.071 327.048 133.407 327.191 133.672 327.428C133.939 327.672 134.118 327.996 134.182 328.352C134.247 328.707 134.189 329.073 134.019 329.391L117.711 358.338L101.403 387.277L123.956 375.291L146.501 363.305C146.687 363.204 146.89 363.141 147.1 363.12C147.31 363.099 147.523 363.12 147.724 363.183C148.131 363.309 148.473 363.589 148.676 363.964C148.874 364.34 148.916 364.78 148.791 365.187C148.73 365.389 148.63 365.576 148.496 365.738C148.362 365.901 148.196 366.034 148.01 366.132L123.025 379.443L98.0805 392.707C97.7706 392.871 97.4159 392.931 97.0692 392.877C96.7226 392.823 96.4027 392.658 96.1575 392.408Z" fill="#14AF6C" stroke="black" stroke-width="2.03848" stroke-miterlimit="10" stroke-linecap="round"/>
<path d="M334.938 72.6653L316.911 63.73L298.878 54.8015C296.766 59.7993 295.325 65.0542 294.59 70.4298C292.949 82.0244 295.134 93.8381 300.814 104.078C302.415 106.966 304.266 109.708 306.345 112.273C310.101 109.872 313.601 107.092 316.789 103.976C322.869 98.0201 327.778 90.9767 331.262 83.2111C332.783 79.8058 334.013 76.278 334.938 72.6653Z" fill="black" stroke="black" stroke-width="2.03848" stroke-miterlimit="10" stroke-linecap="round"/>
<path d="M297.505 96.9094C296.989 95.5504 296.635 94.3817 296.384 93.4576C296.132 92.5335 295.996 91.8472 295.901 91.3512C295.833 90.991 295.779 90.6717 295.731 90.3523C295.684 90.0329 295.65 89.7883 295.623 89.5641L296.003 89.9378C296.139 90.0669 296.295 90.2096 296.465 90.3523C296.465 90.3523 296.622 90.495 296.873 90.692C297.124 90.8891 297.464 91.1541 297.824 91.3715C299.769 92.7141 302.011 93.5652 304.357 93.852C306.702 94.1388 309.083 93.8527 311.294 93.0183C313.505 92.1839 315.481 90.8259 317.053 89.0608C318.624 87.2956 319.744 85.1758 320.317 82.883C320.89 80.5902 320.899 78.1927 320.343 75.8957C319.787 73.5988 318.682 71.4709 317.124 69.6943C315.565 67.9176 313.599 66.5453 311.394 65.6946C309.189 64.844 306.811 64.5405 304.463 64.8101C300.973 65.2118 297.728 66.8054 295.276 69.322C295.337 68.2144 295.453 66.9845 295.657 65.6527C295.869 64.2201 296.159 62.8001 296.526 61.3991C296.866 60.1148 297.247 58.9189 297.648 57.8181C298.049 56.7174 298.463 55.7117 298.878 54.808L268.11 39.5601L237.343 24.3191C236.482 25.3202 235.646 26.3485 234.835 27.404C234.024 28.4595 233.238 29.5512 232.477 30.6792C222.964 44.8126 219.608 61.1001 221.823 76.0286C224.038 90.957 231.839 104.499 244.701 113.143C253.743 119.2 264.448 122.288 275.326 121.976C286.357 121.64 297.085 118.289 306.345 112.286C305.043 110.673 303.829 108.99 302.71 107.245C301.704 105.688 300.896 104.275 300.257 103.066C299.904 102.386 299.462 101.523 298.986 100.497C298.511 99.4711 298.001 98.2412 297.505 96.9094Z" fill="#FFC0C0" stroke="black" stroke-width="2.03848" stroke-miterlimit="10" stroke-linecap="round"/>
<path d="M282.957 86.8803C281.947 88.3858 280.446 89.4944 278.71 90.0173C276.974 90.5401 275.111 90.4447 273.437 89.7474C271.764 89.0501 270.384 87.794 269.533 86.1932C268.682 84.5924 268.413 82.746 268.771 80.9688C269.129 79.1916 270.092 77.5935 271.496 76.4469C272.9 75.3003 274.659 74.6762 276.472 74.681C278.285 74.6858 280.04 75.3192 281.438 76.4731C282.836 77.6271 283.791 79.2303 284.139 81.0094C284.339 82.0177 284.337 83.0553 284.134 84.0628C283.931 85.0703 283.531 86.0278 282.957 86.8803Z" fill="#EF3F3F" stroke="black" stroke-width="2.03848" stroke-miterlimit="10" stroke-linecap="round"/>
<path d="M240.828 82.8712C239.819 84.3743 238.319 85.4809 236.585 86.0024C234.851 86.524 232.99 86.4282 231.318 85.7314C229.647 85.0345 228.269 83.7798 227.419 82.1809C226.569 80.5821 226.299 78.7379 226.656 76.9627C227.014 75.1874 227.975 73.5909 229.377 72.4451C230.779 71.2992 232.535 70.675 234.346 70.6786C236.157 70.6822 237.911 71.3136 239.308 72.465C240.706 73.6165 241.661 75.2169 242.011 76.9936C242.21 78.0029 242.208 79.0416 242.005 80.0502C241.802 81.0587 241.402 82.0174 240.828 82.8712Z" fill="#EF3F3F" stroke="black" stroke-width="2.03848" stroke-miterlimit="10" stroke-linecap="round"/>
<path d="M243.22 86.4115C244.642 88.0577 246.459 89.3156 248.5 90.0672C251.823 91.2563 256.525 91.1679 262.035 86.0853" stroke="black" stroke-width="2.03848" stroke-miterlimit="10" stroke-linecap="round"/>
<path d="M240.081 62.6565C239.733 63.1753 239.239 63.5792 238.662 63.817C238.084 64.0547 237.449 64.1156 236.837 63.9918C236.225 63.8681 235.663 63.5653 235.223 63.1219C234.783 62.6785 234.485 62.1145 234.366 61.5013C234.286 61.0948 234.287 60.6766 234.369 60.2704C234.45 59.8643 234.611 59.4782 234.842 59.1343C235.073 58.7904 235.37 58.4953 235.715 58.2661C236.06 58.0368 236.447 57.8778 236.853 57.7981C237.466 57.6794 238.099 57.7446 238.675 57.9855C239.25 58.2263 239.741 58.6321 240.086 59.1516C240.431 59.6711 240.615 60.2811 240.614 60.9048C240.613 61.5285 240.428 62.138 240.081 62.6565Z" fill="black"/>
<path d="M272.541 68.7787C272.134 69.3845 271.53 69.8305 270.832 70.0409C270.133 70.2512 269.383 70.2128 268.71 69.9323C268.037 69.6518 267.481 69.1464 267.139 68.5023C266.796 67.8583 266.688 67.1154 266.832 66.4002C266.975 65.6851 267.363 65.0419 267.928 64.5804C268.493 64.1188 269.2 63.8675 269.93 63.8691C270.659 63.8707 271.365 64.1253 271.928 64.5893C272.491 65.0534 272.876 65.6983 273.016 66.4141C273.177 67.2342 273.006 68.0847 272.541 68.7787Z" fill="black"/>
<path d="M244.987 44.9348L262.464 48.5158L279.94 52.0967" stroke="black" stroke-width="2.03848" stroke-miterlimit="10" stroke-linecap="round"/>
<path d="M253.916 46.7629L250.335 61.2905L246.76 75.8181L248.846 76.1578L250.933 76.5044" stroke="black" stroke-width="2.03848" stroke-miterlimit="10" stroke-linecap="round"/>
<path d="M313.446 10.8177C301.603 2.86764 287.537 0.455441 273.947 2.9288C259.657 5.66007 246.737 13.2104 237.343 24.3193L286.144 48.4889L334.938 72.6653C337.963 61.207 337.599 49.1175 333.892 37.8616C330.255 26.8338 323.065 17.323 313.446 10.8177Z" fill="#F9851C" stroke="black" stroke-width="2.03848" stroke-miterlimit="10" stroke-linecap="round"/>
<path d="M299.469 80.7376L305.394 80.1328L311.319 79.5213" stroke="black" stroke-width="2.03848" stroke-miterlimit="10" stroke-linecap="round"/>
<path d="M255.866 33.4923C253.563 38.8247 249.705 43.3384 244.797 46.4434C240.14 49.4208 234.636 50.7907 229.127 50.3438C227.071 50.1605 225.049 49.7034 223.114 48.9848C216.942 46.6859 211.901 42.0854 209.048 36.1491C207.599 33.1163 206.843 29.799 206.835 26.4377C206.827 23.0765 207.567 19.7555 209.001 16.7156C209.883 14.8502 211.027 13.1204 212.398 11.5786C215.455 8.25174 219.373 5.83634 223.719 4.60023C228.108 3.37034 232.817 3.49945 236.914 5.78255C239.353 7.1802 241.398 9.17168 242.86 11.5718C243.827 13.1415 244.594 14.8262 245.143 16.5865C244.314 17.266 243.458 18.0134 242.595 18.8084C241.732 19.6035 240.856 20.4596 239.972 21.3769C239.497 21.873 239.034 22.369 238.613 22.8582C238.192 23.3475 237.75 23.8299 237.343 24.3055L246.618 28.8989L255.866 33.4923Z" fill="black" stroke="black" stroke-width="2.03848" stroke-miterlimit="10" stroke-linecap="round"/>
<path d="M252.244 11.4227L294.603 33.5742L336.963 55.7325" stroke="black" stroke-width="2.03848" stroke-miterlimit="10" stroke-linecap="round"/>
<path d="M265.052 18.1221L260.031 25.5965L255.016 33.0709" stroke="black" stroke-width="2.03848" stroke-miterlimit="10" stroke-linecap="round"/>
<path d="M281.721 26.9827L276.978 34.0494L272.235 41.1094" stroke="black" stroke-width="2.03848" stroke-miterlimit="10" stroke-linecap="round"/>
<path d="M302.037 37.8615L297.369 44.806L292.708 51.7436" stroke="black" stroke-width="2.03848" stroke-miterlimit="10" stroke-linecap="round"/>
<path d="M322.871 48.7335L318.461 55.2974L314.051 61.8613" stroke="black" stroke-width="2.03848" stroke-miterlimit="10" stroke-linecap="round"/>
<path d="M380.831 239.379L389.753 267.918L398.668 296.416L386.634 292.427L374.6 288.439L377.638 263.936C378.643 255.782 379.654 247.612 380.668 239.427C380.675 239.411 380.686 239.397 380.701 239.387C380.715 239.377 380.732 239.372 380.75 239.372C380.767 239.372 380.784 239.377 380.799 239.387C380.813 239.397 380.825 239.411 380.831 239.427V239.379Z" fill="black" stroke="black" stroke-width="2.03848" stroke-miterlimit="10" stroke-linecap="round"/>
</svg>
