<svg width="402" height="531" viewBox="0 0 402 531" fill="none" xmlns="http://www.w3.org/2000/svg">
<path d="M274.766 498.315L191.766 508.19L108.771 518.065C110.499 521.959 113.429 525.198 117.131 527.307C120.833 529.417 125.112 530.286 129.344 529.788L160.277 526.135L191.204 522.481C193.111 522.248 194.989 521.813 196.804 521.184C198.619 520.556 200.361 519.735 202 518.736L203.484 517.83L204.972 516.925C205.162 516.809 205.377 516.739 205.6 516.723C205.822 516.706 206.045 516.743 206.25 516.83C206.456 516.917 206.637 517.051 206.78 517.223C206.923 517.394 207.023 517.596 207.071 517.814V517.814C207.238 518.557 207.674 519.211 208.296 519.651C208.917 520.09 209.68 520.283 210.436 520.191L224.716 518.507L238.98 516.822C239.645 516.74 240.268 516.459 240.769 516.015C241.27 515.571 241.623 514.985 241.783 514.335L241.93 513.708L242.083 513.087C242.119 512.937 242.196 512.8 242.306 512.692C242.416 512.584 242.554 512.509 242.705 512.476C242.855 512.442 243.012 512.453 243.157 512.506C243.302 512.559 243.429 512.653 243.522 512.776L244.166 513.866L244.809 514.957C244.996 515.276 245.272 515.533 245.604 515.698C245.935 515.863 246.307 515.927 246.674 515.884L249.624 515.535L252.568 515.186C252.954 515.143 253.316 514.981 253.604 514.722C253.895 514.466 254.1 514.128 254.193 513.752L254.471 512.585L254.755 511.418C254.791 511.268 254.868 511.132 254.978 511.024C255.088 510.916 255.226 510.841 255.377 510.807C255.527 510.774 255.684 510.784 255.829 510.837C255.974 510.891 256.101 510.984 256.194 511.107L256.603 511.805L257.012 512.503C257.362 513.104 257.88 513.589 258.502 513.899C259.124 514.209 259.823 514.331 260.513 514.248L262.569 514.008L264.624 513.763C266.377 513.556 268.063 512.967 269.563 512.038C271.064 511.108 272.342 509.861 273.307 508.384C274.273 506.906 274.903 505.235 275.152 503.488C275.401 501.741 275.264 499.96 274.75 498.272L274.766 498.315Z" fill="#EF3F3F" stroke="black" stroke-width="1.6358" stroke-miterlimit="10" stroke-linecap="round"/>
<path d="M120.047 228.719C115.91 232.966 112.038 237.464 108.455 242.188C105.761 245.742 103.248 249.429 100.925 253.235C99.3187 255.825 97.8517 258.499 96.5297 261.245C95.8363 262.703 95.2264 264.199 94.7031 265.727C93.2848 269.908 92.4017 274.252 92.0749 278.655C91.2909 288.924 93.4832 299.202 98.3891 308.257L135.434 376.961L172.485 445.664L208.816 433.859L245.153 422.054L217.11 359.349L189.061 296.643L198.713 287.81L208.358 278.9L252.857 358.346C267.692 384.824 282.527 411.305 297.362 437.791L335.411 428.936L373.465 420.081L321.795 292.009L270.132 163.931C258.863 167.37 247.608 170.801 236.369 174.226C225.129 177.65 213.86 181.06 202.562 184.455C191.697 187.726 180.828 190.998 169.955 194.27C159.083 197.541 148.206 200.793 137.327 204.024C134.333 208.119 131.503 212.247 128.673 216.375C125.843 220.502 123.041 224.619 120.047 228.719Z" fill="#14AF6C" stroke="black" stroke-width="1.6358" stroke-miterlimit="10" stroke-linecap="round"/>
<path d="M304.003 182.252L310.525 195.016L317.046 207.776L299.183 219.014L281.326 230.252L292.667 206.249L304.003 182.252Z" fill="black" stroke="black" stroke-width="1.6358" stroke-miterlimit="10" stroke-linecap="round"/>
<path d="M136.47 60.6957C128.322 62.4986 120.682 66.1079 114.115 71.2575C103.116 79.8455 92.5983 95.0529 94.3759 121.504L95.0302 134.808L95.6572 148.096L84.0431 137.006L72.4344 125.915L54.5169 146.003L36.6267 166.09L61.48 191.461L86.3059 216.838C86.7258 217.291 87.2438 217.841 87.8599 218.474C88.4761 219.106 89.1849 219.772 89.981 220.491C91.7236 222.106 93.553 223.624 95.461 225.039C97.7082 226.716 100.188 228.057 102.822 229.019C105.958 230.089 109.28 230.503 112.582 230.235C115.115 230.041 117.615 229.537 120.025 228.736L159.715 238.005L199.4 247.275C197.378 237.551 195.354 227.829 193.325 218.109C191.297 208.388 189.272 198.666 187.251 188.942C192.431 187.557 197.675 186.072 202.982 184.487C208.289 182.903 213.651 181.209 219.067 179.406L222.802 178.146L226.499 176.87C228.033 180.353 229.562 183.835 231.085 187.317C232.608 190.8 234.149 194.275 235.709 197.743C242.098 197.424 248.502 197.849 254.793 199.008C265.698 200.944 279.428 205.469 290.535 215.857L304.167 181.887L317.799 147.922C317.799 147.922 319.598 143.909 318.987 137.317C318.377 130.724 315.35 121.547 305.699 111.22C304.078 109.493 302.482 107.749 300.912 105.986C299.341 104.222 297.798 102.429 296.282 100.604L282.258 83.6296L268.229 66.6555C268.229 66.6555 267.956 66.3011 267.427 65.674C266.898 65.047 266.113 64.1527 265.077 63.0622C256.206 53.7711 244.906 47.1548 232.462 43.9653C220.019 40.7758 206.93 41.141 194.683 45.0193C190.005 46.4734 185.232 47.9274 180.364 49.3815C175.497 50.8355 170.533 52.2296 165.473 53.5637C160.504 54.9014 155.597 56.1628 150.751 57.3478C145.905 58.5328 141.145 59.6488 136.47 60.6957Z" fill="#B00808" stroke="black" stroke-width="1.6358" stroke-miterlimit="10" stroke-linecap="round"/>
<path d="M35.7052 55.0522C37.9612 51.3449 41.0536 48.2171 44.7348 45.919C47.995 43.8485 51.839 42.8918 55.6893 43.1926C56.667 43.2929 57.6328 43.4865 58.5737 43.7706C60.4056 44.3159 62.142 45.1418 63.721 46.2189C69.6862 50.2866 72.2163 56.688 72.9905 63.6183C73.7648 70.5486 72.7779 78.0024 71.6983 84.1639C71.3766 86.0178 70.9731 87.8663 70.4878 89.6875C70.0029 91.5101 69.4242 93.3064 68.7538 95.0693C67.8285 97.6968 66.6603 100.232 65.2641 102.643C63.7919 105.02 61.9107 107.071 59.3262 108.243C57.1885 109.291 54.7903 109.689 52.4286 109.388C51.2621 109.202 50.15 108.764 49.1698 108.105C48.1896 107.446 47.3646 106.581 46.7523 105.571C47.1667 106.215 46.5233 107.572 45.6618 108.843C45.0017 109.858 44.2477 110.809 43.4099 111.684C41.1034 113.816 37.8481 114.563 34.5984 114.312C31.4052 114.078 28.3544 112.897 25.8359 110.92C24.6072 109.889 23.4937 108.728 22.5153 107.458C21.5364 106.188 20.6438 104.855 19.8435 103.466C17.5286 99.4053 15.7089 95.0814 14.4235 90.5872C13.137 86.0917 12.1498 81.516 11.4682 76.8901C10.8575 72.9969 10.4158 68.7765 11.0265 64.8942C11.6372 61.0119 13.3057 57.4186 16.9208 54.8014C19.6571 52.8549 22.9741 51.8973 26.3267 52.0859C29.6559 52.2519 32.8861 53.2735 35.7052 55.0522V55.0522Z" fill="#EF3F3F" stroke="black" stroke-width="1.6358" stroke-miterlimit="10" stroke-linecap="round"/>
<path d="M187.273 188.915L206.902 182.879L226.532 176.843C215.932 159.536 205.33 142.233 194.727 124.934L162.921 73.0188C166.982 92.3357 171.042 111.651 175.103 130.964C179.163 150.278 183.22 169.594 187.273 188.915Z" fill="#FFF8F8" stroke="black" stroke-width="1.6358" stroke-miterlimit="10" stroke-linecap="round"/>
<path d="M150.647 61.9662C152.828 64.1799 155.009 66.3901 157.191 68.5966L163.701 75.227C164.403 72.2826 165.108 69.34 165.817 66.3992C166.525 63.4584 167.231 60.5158 167.932 57.5713L159.301 59.7524L150.647 61.9662Z" fill="#FFF8F8" stroke="black" stroke-width="1.6358" stroke-miterlimit="10" stroke-linecap="round"/>
<path d="M280.328 248.551L268.921 253.006L257.519 257.466C254.415 258.65 251.857 260.939 250.338 263.895C249.621 265.262 249.202 266.766 249.108 268.307C249.014 269.849 249.248 271.392 249.793 272.837L259.063 296.545L268.332 320.253C268.389 320.411 268.497 320.545 268.637 320.635C268.772 320.728 268.932 320.778 269.095 320.777C269.144 320.782 269.194 320.782 269.243 320.777C269.293 320.769 269.342 320.756 269.39 320.739C269.494 320.7 269.588 320.64 269.668 320.563C269.748 320.487 269.812 320.395 269.855 320.293C269.899 320.191 269.921 320.081 269.921 319.97C269.92 319.859 269.897 319.75 269.853 319.648L260.584 295.94L251.314 272.232C250.845 270.988 250.647 269.659 250.733 268.333C250.82 267.007 251.189 265.715 251.816 264.543C253.165 261.988 255.398 260.011 258.097 258.982L269.679 254.456L281.255 249.936L280.786 249.243L280.317 248.545L280.328 248.551Z" fill="black"/>
<path d="M136.47 60.6957L139.071 80.6088L141.672 100.516L152.659 87.8717L163.652 75.227L156.798 68.3021C154.515 65.9902 152.229 63.6819 149.938 61.3772C149.262 61.3009 148.532 61.1973 147.757 61.0501C146.983 60.9029 146.16 60.712 145.304 60.4667C144.682 60.2867 144.099 60.0959 143.548 59.9214C142.997 59.7469 142.457 59.5124 141.999 59.3052L139.235 60.0141L136.47 60.6957Z" fill="#B00808" stroke="black" stroke-width="1.6358" stroke-miterlimit="10" stroke-linecap="round"/>
<path d="M163.652 75.227L181.537 80.0036L199.421 84.7855L190.593 66.8735L181.766 48.9834L178.494 49.9376L175.222 50.8918C174.819 51.3825 174.377 51.8896 173.897 52.4131C173.423 52.9584 172.905 53.46 172.349 53.9944C171.569 54.7414 170.8 55.4066 170.059 56.0064C169.317 56.6062 168.592 57.1296 167.91 57.5986C167.183 60.5394 166.478 63.482 165.795 66.4264C165.111 69.3709 164.397 72.3044 163.652 75.227Z" fill="#B00808" stroke="black" stroke-width="1.6358" stroke-miterlimit="10" stroke-linecap="round"/>
<path d="M95.6845 148.151L102.718 154.972L109.752 161.799C109.786 161.829 109.83 161.845 109.875 161.845C109.92 161.845 109.964 161.829 109.998 161.799C110.037 161.774 110.065 161.737 110.079 161.693C110.093 161.649 110.091 161.602 110.074 161.559L102.44 142.093L94.8066 122.627C94.7882 122.584 94.7555 122.549 94.7141 122.528C94.6727 122.506 94.6252 122.5 94.5795 122.509C94.5339 122.519 94.493 122.544 94.4638 122.58C94.4346 122.617 94.419 122.662 94.4195 122.709L95.0193 135.348L95.6136 147.993C95.6105 148.016 95.6105 148.04 95.6136 148.064C95.6309 148.097 95.6551 148.127 95.6845 148.151V148.151Z" fill="black" stroke="black" stroke-width="1.6358" stroke-miterlimit="10" stroke-linecap="round"/>
<path d="M235.709 197.743C232.285 206.515 229.34 215.467 226.886 224.559C223.108 238.829 220.578 254.832 225.572 261.757C227.351 264.654 229.278 267.457 231.347 270.154C237.845 278.653 245.7 286.022 254.597 291.965C258.935 294.861 263.493 297.413 268.228 299.599C269.351 300.121 270.549 300.462 271.778 300.607C273.004 300.752 274.247 300.68 275.448 300.395C275.71 300.329 275.993 300.253 276.249 300.166C276.506 300.078 276.795 299.98 277.073 299.866C278.053 299.461 278.971 298.92 279.799 298.257C280.369 297.795 280.893 297.278 281.364 296.714C282.759 296.533 284.101 296.059 285.301 295.324C287.089 294.157 288.507 292.052 287.035 288.284C287.601 288.192 288.151 288.021 288.67 287.777C289.613 287.362 290.404 286.665 290.933 285.782C291.528 284.712 291.722 283.464 291.479 282.265C291.222 280.95 290.56 279.749 289.587 278.829C290.801 278.109 291.722 276.983 292.187 275.651C292.782 273.589 291.948 270.59 286.266 266.823C283.033 264.731 279.937 262.437 276.996 259.952C272.258 255.934 267.318 250.737 266.516 246.048C266.396 245.364 266.452 244.66 266.679 244.004C266.906 243.348 267.297 242.76 267.814 242.297C268.325 241.829 268.947 241.501 269.621 241.343C270.295 241.185 270.999 241.204 271.664 241.397C273.473 241.962 275.134 242.921 276.527 244.205C278.848 246.34 280.808 248.835 282.334 251.593C282.585 252.019 282.82 252.449 283.049 252.886C283.278 253.322 283.49 253.769 283.703 254.211C284.363 255.612 285.639 258.213 287.182 260.879C288.725 263.546 290.524 266.294 292.242 267.968C292.956 268.674 293.859 269.159 294.843 269.364C295.818 269.57 296.835 269.448 297.733 269.015C298.248 268.757 298.706 268.399 299.081 267.962C299.455 267.524 299.738 267.017 299.914 266.468C300.388 265.121 300.492 263.197 299.914 260.47C299.768 259.78 299.586 259.097 299.369 258.426C299.15 257.755 298.9 257.095 298.627 256.446L295.143 248.245L291.686 240.017C288.454 232.348 288.037 223.782 290.508 215.835V215.835C290.355 215.715 288.769 214.33 286.348 212.492C283.446 210.266 280.388 208.25 277.198 206.462C275.688 205.632 274.138 204.878 272.552 204.204C271.151 203.61 269.875 203.114 268.681 202.694C267.76 202.35 265.649 201.603 262.623 200.758C258.828 199.722 254.968 198.938 251.069 198.414C249.035 198.141 246.707 197.906 244.139 197.765C241.57 197.623 238.735 197.612 235.709 197.743Z" fill="#FFC0C0" stroke="black" stroke-width="1.6358" stroke-miterlimit="10" stroke-linecap="round"/>
<path d="M163.908 121.438C163.908 121.715 163.854 121.988 163.748 122.244C163.642 122.499 163.487 122.731 163.292 122.927C163.096 123.122 162.864 123.277 162.609 123.383C162.354 123.489 162.08 123.543 161.803 123.543C161.387 123.543 160.98 123.42 160.634 123.189C160.288 122.957 160.018 122.628 159.858 122.244C159.699 121.859 159.657 121.436 159.739 121.028C159.82 120.619 160.02 120.244 160.315 119.95C160.609 119.655 160.984 119.455 161.393 119.373C161.801 119.292 162.224 119.334 162.609 119.493C162.994 119.653 163.322 119.922 163.554 120.269C163.785 120.615 163.908 121.022 163.908 121.438Z" fill="black" stroke="black" stroke-width="1.6358" stroke-miterlimit="10" stroke-linecap="round"/>
<path d="M170.74 161.472C170.741 161.959 170.574 162.431 170.265 162.809C169.957 163.186 169.527 163.444 169.05 163.54C168.572 163.636 168.076 163.563 167.646 163.334C167.216 163.105 166.879 162.734 166.692 162.284C166.505 161.834 166.48 161.333 166.621 160.867C166.762 160.401 167.061 159.998 167.466 159.727C167.871 159.456 168.357 159.334 168.842 159.382C169.327 159.43 169.78 159.644 170.124 159.989C170.319 160.183 170.474 160.414 170.58 160.669C170.686 160.923 170.74 161.196 170.74 161.472V161.472Z" fill="black" stroke="black" stroke-width="1.6358" stroke-miterlimit="10" stroke-linecap="round"/>
<path d="M175.991 199.035C175.992 199.382 175.907 199.723 175.744 200.029C175.581 200.335 175.345 200.596 175.057 200.789C174.769 200.982 174.438 201.101 174.093 201.135C173.748 201.169 173.4 201.117 173.08 200.984C172.76 200.851 172.477 200.641 172.258 200.373C172.038 200.105 171.888 199.787 171.821 199.446C171.755 199.106 171.773 198.755 171.874 198.424C171.976 198.092 172.157 197.791 172.403 197.547C172.698 197.254 173.073 197.055 173.48 196.975C173.888 196.895 174.31 196.937 174.693 197.096C175.077 197.255 175.405 197.524 175.636 197.869C175.867 198.214 175.99 198.62 175.991 199.035V199.035Z" fill="black" stroke="black" stroke-width="1.6358" stroke-miterlimit="10" stroke-linecap="round"/>
<path d="M72.4071 125.915L72.8597 110.217L73.3122 94.5131C73.345 93.3789 73.3922 92.2429 73.454 91.1051C73.5158 89.9674 73.5812 88.8314 73.6503 87.6972C73.7756 86.2251 73.6089 84.7426 73.1596 83.3351C72.6143 81.9283 71.611 80.8378 69.708 80.8378C69.708 80.8378 68.6829 80.8378 67.4343 82.25C66.1856 83.6623 64.7079 86.3886 63.7973 91.8358C63.5193 93.5316 63.1703 95.2165 62.745 96.8741C62.3235 98.5358 61.8139 100.174 61.2182 101.781C60.6302 103.37 59.9474 104.921 59.1735 106.427C58.4173 107.927 57.5034 109.342 56.4472 110.647C55.1559 112.197 53.3678 113.251 51.3871 113.63C49.4156 114.017 47.3707 113.684 45.6236 112.692V112.692H45.5964C43.5189 111.498 41.9376 109.895 40.2309 106.961C38.5243 104.028 36.7031 99.7531 34.1403 93.2208C32.4609 88.9295 31.2395 85.6525 29.9963 83.3569C28.7531 81.0613 27.4717 79.7527 25.6832 79.3874C25.1017 79.2687 24.5039 79.2521 23.9166 79.3383C23.4487 79.403 22.9897 79.52 22.548 79.6873C22.1283 77.2146 21.484 74.7854 20.6232 72.4298C19.9089 70.5213 19.1291 69.1582 18.3712 68.5311C17.9279 68.1559 17.4145 67.8723 16.8608 67.6969C16.6432 67.628 16.418 67.5858 16.1902 67.5715C15.776 67.5648 15.3652 67.6466 14.9851 67.8114C14.7117 67.9287 14.4535 68.0789 14.2163 68.2585C14.1259 67.3327 13.8012 66.4451 13.273 65.6794C12.8007 64.9896 12.1178 64.4712 11.3264 64.2017C10.973 64.0899 10.6062 64.0257 10.2359 64.0109C9.58067 63.9685 8.92636 64.1061 8.34379 64.4089C8.25346 64.4563 8.16606 64.5092 8.08205 64.567C7.88814 64.6945 7.70569 64.8387 7.53679 64.9978C6.71889 65.8048 6.44626 67.4733 6.40809 68.9673C6.37964 69.9506 6.42154 70.9345 6.5335 71.9118C5.83763 71.7209 5.10947 71.6782 4.39606 71.7864C4.01298 71.8487 3.64384 71.9779 3.30552 72.1681C2.5503 72.639 1.97444 73.3493 1.66973 74.1855C1.14835 75.6174 0.927472 77.1412 1.02086 78.6622L1.05357 80.1235C1.05357 80.6142 1.05357 81.0995 1.05357 81.5848C0.993594 87.3374 1.09174 92.6319 1.27713 97.3975C1.46252 102.163 1.74061 106.46 2.03505 110.173C2.25163 113.485 2.65395 116.781 3.2401 120.048C3.81929 123.077 4.75455 126.028 6.02641 128.838C7.12568 131.274 8.44525 133.605 9.96868 135.801C11.1324 137.48 12.4076 139.079 13.7855 140.588C17.5915 144.841 21.4084 149.091 25.2361 153.336L36.6867 166.09L54.5769 146.003L72.4071 125.915Z" fill="#FFC0C0" stroke="black" stroke-width="1.6358" stroke-miterlimit="10" stroke-linecap="round"/>
<path d="M6.55527 71.9337L7.9566 92.1794L9.35793 112.425" stroke="black" stroke-width="1.6358" stroke-miterlimit="10" stroke-linecap="round"/>
<path d="M14.2163 68.2803L16.5827 89.4639L18.9437 110.647" stroke="black" stroke-width="1.6358" stroke-miterlimit="10" stroke-linecap="round"/>
<path d="M22.4989 79.66L24.8054 94.5022L27.1119 109.35" stroke="black" stroke-width="1.6358" stroke-miterlimit="10" stroke-linecap="round"/>
<path d="M235.692 197.743L246.227 169.809L256.762 141.875L239.967 123.914L223.173 105.947" stroke="black" stroke-width="1.6358" stroke-miterlimit="10" stroke-linecap="round"/>
<path d="M35.7053 55.0521C35.0575 52.9841 34.6907 50.8383 34.6147 48.6725C34.473 45.0519 35.16 40.5535 38.4316 37.0747" stroke="black" stroke-width="1.6358" stroke-miterlimit="10" stroke-linecap="round"/>
<path d="M51.7742 64.4526C52.0196 64.7634 52.2649 65.0633 52.4994 65.3468L53.1755 66.1374C54.7469 67.9108 56.0661 69.8925 57.096 72.0263C58.112 74.177 58.7784 76.476 59.0698 78.8367C59.0817 78.895 59.1107 78.9485 59.1531 78.9903C59.1954 79.0321 59.2493 79.0603 59.3077 79.0714C59.3662 79.0825 59.4266 79.076 59.4814 79.0526C59.5361 79.0293 59.5827 78.9902 59.6151 78.9403C60.9584 76.5984 61.8725 74.0354 62.3142 71.372C62.7627 68.702 62.6457 65.9676 61.9707 63.3457C61.4482 61.4547 60.5711 59.6802 59.3861 58.1166C58.1429 56.4808 56.5616 55.183 54.7568 54.7577C53.774 54.5405 52.7467 54.6595 51.8396 55.0958C50.915 55.5116 50.1498 56.2156 49.6585 57.1024C49.3667 57.7088 49.2151 58.3732 49.2151 59.0463C49.2151 59.7193 49.3667 60.3837 49.6585 60.9901C50.2025 62.2354 50.9144 63.4003 51.7742 64.4526V64.4526Z" fill="#FFF8F8" stroke="black" stroke-width="1.6358" stroke-miterlimit="10" stroke-linecap="round"/>
<path d="M181.498 22.0528L170.822 23.465L160.135 24.8772C160.687 27.728 161.615 30.493 162.894 33.0999C165.631 38.7375 170.129 43.331 175.708 46.1862C177.283 46.9905 178.925 47.6564 180.615 48.1765C181.571 45.986 182.302 43.7042 182.796 41.3661C183.721 36.902 183.8 32.3042 183.031 27.8108C182.684 25.8516 182.171 23.9254 181.498 22.0528Z" fill="black" stroke="black" stroke-width="1.6358" stroke-miterlimit="10" stroke-linecap="round"/>
<path d="M172.098 44.0051C171.455 43.5416 170.959 43.1436 170.571 42.8055C170.184 42.4674 169.917 42.2057 169.726 42.0149L169.355 41.6223L169.072 41.306L169.35 41.3551L169.677 41.4042C169.677 41.4042 169.792 41.4042 169.966 41.4314C170.141 41.4587 170.364 41.4642 170.593 41.4642C172.633 41.4103 174.572 40.562 175.996 39.1C177.42 37.638 178.217 35.6777 178.217 33.6369C178.217 31.596 177.42 29.6358 175.996 28.1737C174.572 26.7117 172.633 25.8634 170.593 25.8096C168.765 25.8204 167 26.4814 165.615 27.6744C164.191 28.893 163.228 30.5639 162.889 32.4073C162.589 31.8947 162.272 31.3168 161.967 30.6624C161.633 29.9635 161.338 29.2462 161.084 28.5141C160.851 27.838 160.66 27.1945 160.511 26.5838C160.359 25.9786 160.244 25.4061 160.157 24.8772L141.923 27.2927L123.695 29.7082C123.613 30.4062 123.548 31.115 123.504 31.8293C123.46 32.5436 123.439 33.2634 123.439 34.0104C123.37 42.6128 126.507 50.9326 132.239 57.3478C137.692 63.3457 145.195 67.0153 153.505 67.0153C159.332 67.0026 165.01 65.1728 169.748 61.7808C174.552 58.3377 178.323 53.6464 180.653 48.2146C179.592 47.8842 178.549 47.4984 177.529 47.0586C176.618 46.666 175.839 46.2789 175.19 45.9299C174.83 45.739 174.377 45.4828 173.859 45.1665C173.341 44.8503 172.72 44.4522 172.098 44.0051Z" fill="#FFC0C0" stroke="black" stroke-width="1.6358" stroke-miterlimit="10" stroke-linecap="round"/>
<path d="M162.643 43.8961C162.642 44.8647 162.305 45.803 161.69 46.5511C161.075 47.2992 160.219 47.811 159.269 47.9991C158.319 48.1873 157.333 48.0403 156.479 47.5831C155.625 47.1259 154.956 46.3869 154.586 45.4918C154.216 44.5967 154.167 43.601 154.449 42.6742C154.73 41.7474 155.324 40.9468 156.13 40.4089C156.935 39.8709 157.902 39.6288 158.866 39.7238C159.83 39.8188 160.731 40.245 161.416 40.9298C161.806 41.3189 162.116 41.7813 162.326 42.2904C162.537 42.7995 162.644 43.3452 162.643 43.8961Z" fill="#EF3F3F" stroke="black" stroke-width="1.09053" stroke-miterlimit="10" stroke-linecap="round"/>
<path d="M142.714 54.6923C142.709 55.6602 142.369 56.5965 141.751 57.342C141.134 58.0875 140.278 58.5961 139.328 58.7814C138.378 58.9667 137.393 58.8171 136.541 58.3582C135.688 57.8993 135.021 57.1593 134.653 56.2642C134.285 55.3691 134.238 54.374 134.521 53.4483C134.804 52.5226 135.398 51.7234 136.204 51.1866C137.009 50.6498 137.976 50.4085 138.939 50.5039C139.902 50.5993 140.802 51.0254 141.487 51.7097C141.879 52.1007 142.189 52.5658 142.4 53.0778C142.61 53.5898 142.717 54.1386 142.714 54.6923Z" fill="#EF3F3F" stroke="black" stroke-width="1.09053" stroke-miterlimit="10" stroke-linecap="round"/>
<path d="M144.835 55.5538C145.958 55.8567 147.139 55.8717 148.27 55.5974C150.107 55.134 152.174 53.6945 153.101 49.7849" stroke="black" stroke-width="1.6358" stroke-miterlimit="10" stroke-linecap="round"/>
<path d="M136.345 45.9298C136.345 46.3781 136.167 46.8081 135.85 47.1251C135.533 47.4421 135.103 47.6202 134.655 47.6202C134.206 47.6202 133.776 47.4421 133.459 47.1251C133.142 46.8081 132.964 46.3781 132.964 45.9298C132.965 45.4801 133.143 45.0488 133.461 44.7302C133.697 44.494 133.999 44.3332 134.327 44.2684C134.655 44.2035 134.995 44.2374 135.304 44.3659C135.613 44.4943 135.876 44.7114 136.062 44.9898C136.247 45.2682 136.346 45.5954 136.345 45.9298V45.9298Z" fill="black"/>
<path d="M152.605 38.9614C152.604 39.3508 152.467 39.7278 152.22 40.0281C151.972 40.3285 151.628 40.5338 151.246 40.609C150.864 40.6843 150.467 40.6249 150.124 40.4409C149.781 40.2569 149.512 39.9598 149.363 39.5999C149.214 39.2401 149.195 38.8398 149.308 38.4672C149.421 38.0945 149.659 37.7725 149.983 37.5558C150.306 37.3392 150.695 37.2414 151.082 37.2789C151.47 37.3165 151.833 37.4871 152.109 37.7618C152.266 37.9192 152.391 38.1062 152.476 38.3121C152.562 38.518 152.605 38.7386 152.605 38.9614V38.9614Z" fill="black"/>
<path d="M133.237 36.5895L142.076 32.958L150.915 29.332" stroke="black" stroke-width="1.6358" stroke-miterlimit="10" stroke-linecap="round"/>
<path d="M137.752 34.7356L140.5 42.2603L143.248 49.785L144.279 49.316L145.304 48.8417" stroke="black" stroke-width="1.6358" stroke-miterlimit="10" stroke-linecap="round"/>
<path d="M153.477 0.999939C146.012 1.04263 138.862 4.01725 133.57 9.28253C128.03 14.7638 124.539 21.9794 123.678 29.7246L152.578 25.9077L181.477 22.0908C179.401 16.0939 175.63 10.8281 170.62 6.93243C165.719 3.11426 159.69 1.02803 153.477 0.999939V0.999939Z" fill="#F9851C" stroke="black" stroke-width="1.6358" stroke-miterlimit="10" stroke-linecap="round"/>
<path d="M168.145 36.235L170.593 34.1957L173.047 32.1564" stroke="black" stroke-width="1.6358" stroke-miterlimit="10" stroke-linecap="round"/>
<path d="M134.655 28.2633C135.222 31.3212 134.855 34.4791 133.602 37.3256C132.421 40.0381 130.386 42.29 127.806 43.738C126.836 44.2707 125.8 44.6741 124.725 44.9375C123.762 45.1682 122.777 45.2943 121.786 45.3138C119.281 45.3577 116.813 44.7025 114.66 43.4217C113.106 42.5098 111.774 41.2637 110.761 39.7736C109.749 38.2836 109.08 36.5869 108.804 34.8065C108.648 33.7105 108.648 32.5981 108.804 31.5022C109.159 29.102 110.175 26.848 111.737 24.9917C112.496 24.0469 113.434 23.261 114.496 22.679C115.559 22.097 116.727 21.7304 117.931 21.6002C119.429 21.4934 120.93 21.7673 122.294 22.3962C123.194 22.8024 124.039 23.3229 124.807 23.9448C124.644 24.4901 124.485 25.079 124.338 25.6896C124.191 26.3003 124.055 26.9438 123.94 27.6144C123.875 27.9798 123.82 28.3342 123.766 28.705C123.711 29.0758 123.673 29.3975 123.64 29.7301L129.131 28.9994L134.655 28.2633Z" fill="black" stroke="black" stroke-width="1.6358" stroke-miterlimit="10" stroke-linecap="round"/>
<path d="M126.454 19.5226L151.896 16.7254L177.344 13.9227" stroke="black" stroke-width="1.6358" stroke-miterlimit="10" stroke-linecap="round"/>
<path d="M134.153 18.6774V23.4976V28.3177" stroke="black" stroke-width="1.6358" stroke-miterlimit="10" stroke-linecap="round"/>
<path d="M144.202 17.6415V22.1945V26.7529" stroke="black" stroke-width="1.6358" stroke-miterlimit="10" stroke-linecap="round"/>
<path d="M156.482 16.4092V20.8858V25.3624" stroke="black" stroke-width="1.6358" stroke-miterlimit="10" stroke-linecap="round"/>
<path d="M168.99 15.0187V19.2554V23.4867" stroke="black" stroke-width="1.6358" stroke-miterlimit="10" stroke-linecap="round"/>
<path d="M133.744 139.105L141.351 163.282L148.952 187.481C144.131 194.359 139.315 201.236 134.502 208.114L120.047 228.741" stroke="black" stroke-width="1.6358" stroke-miterlimit="10" stroke-linecap="round"/>
<path d="M209.803 281.419L202.12 267.548L194.438 253.676" stroke="black" stroke-width="1.6358" stroke-miterlimit="10" stroke-linecap="round"/>
<path d="M261.015 455.872C259.226 452.104 257.078 447.491 254.668 442.104C252.258 436.717 249.575 430.566 246.74 423.728C246.481 423.006 246.146 422.314 245.742 421.662C245.132 420.676 244.364 419.797 243.468 419.061C242.676 418.421 241.774 417.929 240.807 417.61C239.84 417.294 238.823 417.161 237.808 417.218C235.195 417.369 232.596 417.71 230.033 418.238C225.938 419.129 221.944 420.434 218.113 422.131C215.767 423.228 213.578 424.633 211.603 426.307C210.218 427.484 208.941 428.781 207.786 430.184C206.904 431.256 206.092 432.384 205.354 433.56C205.354 433.56 204.874 428.614 202.431 424.677C199.988 420.74 195.566 417.818 187.709 421.858L179.399 426.307L171.111 430.768C170.432 431.133 169.831 431.629 169.344 432.227C168.856 432.824 168.491 433.512 168.27 434.251C168.049 434.99 167.975 435.766 168.054 436.533C168.133 437.3 168.362 438.045 168.728 438.723L172.223 445.185L175.73 451.641C176.737 453.471 177.193 455.554 177.044 457.638C176.782 461.128 174.699 465.588 167.382 469.465L153.646 475.927L139.916 482.372C137.67 483.43 135.411 484.467 133.139 485.485C130.867 486.503 128.595 487.508 126.323 488.501C122.337 490.251 115.761 493.648 111.285 498.632C106.808 503.615 104.425 510.18 108.82 518.261L191.7 508.185L274.581 498.103C272.623 487.197 269.226 476.619 266.32 468.795C263.414 460.97 261.015 455.872 261.015 455.872Z" fill="#F9851C" stroke="black" stroke-width="1.6358" stroke-miterlimit="10" stroke-linecap="round"/>
<path d="M205.343 433.549C205.133 437.226 204.585 440.877 203.707 444.454C202.257 450.381 199.53 457.235 194.438 460.959" stroke="black" stroke-width="1.6358" stroke-miterlimit="10" stroke-linecap="round"/>
<path d="M174.05 464.432L180.424 467.061L186.798 469.689" stroke="black" stroke-width="1.6358" stroke-miterlimit="10" stroke-linecap="round"/>
<path d="M158.826 473.604L164.655 476.919L170.484 480.234" stroke="black" stroke-width="1.6358" stroke-miterlimit="10" stroke-linecap="round"/>
<path d="M144.682 480.654L150.805 484.596L156.929 488.544" stroke="black" stroke-width="1.6358" stroke-miterlimit="10" stroke-linecap="round"/>
<path d="M225.512 439.17C225.51 440.471 225.056 441.731 224.229 442.735C223.402 443.739 222.252 444.425 220.976 444.676C219.699 444.927 218.376 444.727 217.23 444.112C216.084 443.496 215.187 442.502 214.692 441.299C214.197 440.096 214.134 438.759 214.515 437.515C214.896 436.271 215.696 435.198 216.779 434.478C217.862 433.758 219.162 433.436 220.456 433.567C221.75 433.697 222.959 434.273 223.877 435.195C224.398 435.717 224.811 436.337 225.092 437.019C225.373 437.701 225.516 438.433 225.512 439.17V439.17Z" fill="#14AF6C" stroke="black" stroke-width="1.6358" stroke-miterlimit="10" stroke-linecap="round"/>
<path d="M386.257 448.663C384.474 444.896 382.32 440.277 379.91 434.895C377.5 429.514 374.823 423.358 371.982 416.515C371.721 415.795 371.387 415.104 370.984 414.453C370.376 413.466 369.607 412.587 368.71 411.853C367.918 411.212 367.016 410.721 366.049 410.402C365.083 410.083 364.066 409.95 363.05 410.01C360.437 410.162 357.838 410.506 355.275 411.04C353.314 411.444 351.379 411.963 349.479 412.594C347.392 413.249 345.347 414.03 343.355 414.933C341.012 416.027 338.824 417.428 336.85 419.099C335.464 420.275 334.187 421.572 333.033 422.976C332.144 424.05 331.326 425.181 330.585 426.362C330.585 426.362 330.111 421.416 327.662 417.48C325.214 413.543 320.803 410.62 312.94 414.661L304.652 419.121L296.353 423.581C295.674 423.947 295.073 424.443 294.586 425.042C294.098 425.64 293.733 426.328 293.512 427.068C293.29 427.807 293.217 428.583 293.296 429.351C293.374 430.118 293.604 430.863 293.97 431.542L297.466 437.998L300.961 444.459C301.969 446.29 302.426 448.373 302.275 450.457C302.019 453.947 299.93 458.407 292.613 462.279L278.888 468.724L265.153 475.18C262.907 476.238 260.649 477.274 258.381 478.288C256.113 479.302 253.841 480.309 251.565 481.309C247.574 483.053 240.998 486.45 236.521 491.434C232.045 496.418 229.662 502.983 234.062 511.064L316.953 501.009L399.834 490.932C397.876 480.027 394.485 469.449 391.579 461.624C388.672 453.8 386.257 448.663 386.257 448.663Z" fill="#F9851C" stroke="black" stroke-width="1.6358" stroke-miterlimit="10" stroke-linecap="round"/>
<path d="M330.585 426.362C330.377 430.04 329.829 433.69 328.949 437.267C327.499 443.194 324.773 450.048 319.68 453.773" stroke="black" stroke-width="1.6358" stroke-miterlimit="10" stroke-linecap="round"/>
<path d="M299.292 457.24L305.666 459.874L312.046 462.502" stroke="black" stroke-width="1.6358" stroke-miterlimit="10" stroke-linecap="round"/>
<path d="M284.287 466.417L290.116 469.733L295.939 473.042" stroke="black" stroke-width="1.6358" stroke-miterlimit="10" stroke-linecap="round"/>
<path d="M270.355 473.042L276.478 477.017L282.602 480.932" stroke="black" stroke-width="1.6358" stroke-miterlimit="10" stroke-linecap="round"/>
<path d="M353.241 431.978C353.24 433.279 352.787 434.54 351.961 435.544C351.134 436.549 349.985 437.236 348.708 437.488C347.432 437.74 346.108 437.542 344.961 436.927C343.815 436.312 342.917 435.318 342.422 434.115C341.926 432.912 341.863 431.575 342.243 430.33C342.623 429.086 343.423 428.012 344.507 427.292C345.59 426.571 346.89 426.249 348.184 426.38C349.479 426.511 350.688 427.086 351.605 428.009C352.126 428.53 352.538 429.149 352.819 429.83C353.1 430.512 353.243 431.242 353.241 431.978V431.978Z" fill="#14AF6C" stroke="black" stroke-width="1.6358" stroke-miterlimit="10" stroke-linecap="round"/>
<path d="M251.162 278.453C251.162 278.453 256.353 282.859 262.721 287.347C269.09 291.834 276.631 296.398 281.326 296.731" stroke="black" stroke-width="1.6358" stroke-miterlimit="10" stroke-linecap="round"/>
<path d="M256.691 270.765C256.691 270.765 263.103 275.034 270.099 279.358C277.094 283.682 284.668 288.083 287.002 288.301" stroke="black" stroke-width="1.6358" stroke-miterlimit="10" stroke-linecap="round"/>
<path d="M261.533 262.531C261.533 262.531 266.773 266.85 272.891 271.049C279.008 275.247 286.021 279.326 289.554 278.846" stroke="black" stroke-width="1.6358" stroke-miterlimit="10" stroke-linecap="round"/>
<path d="M322.602 381.247H322.406H322.204C316.752 380.62 312.629 377.015 309.98 372.348C307.389 367.694 306.182 362.397 306.501 357.081V357.042C307.897 338.256 309.532 319.492 311.408 300.749C313.284 282.006 315.416 263.286 317.804 244.587C318.51 239.383 320.692 234.489 324.091 230.486C327.526 226.517 332.177 223.834 337.635 224.112C343.693 224.423 347.93 227.869 350.651 232.52C353.372 237.171 354.582 243.033 354.582 248.158V248.295C353.263 267.106 351.589 285.887 349.56 304.637C347.532 323.387 345.151 342.089 342.417 360.745C341.634 365.975 339.467 370.902 336.141 375.014C332.766 379.022 328.164 381.737 322.602 381.247Z" fill="#F9851C" stroke="black" stroke-width="1.6358" stroke-miterlimit="10" stroke-linecap="round"/>
<path d="M353.693 261.092C350.608 261.88 347.614 262.991 344.762 264.407C342.705 265.437 340.733 266.632 338.868 267.979C336.636 269.536 334.627 271.391 332.897 273.491C331.645 275.026 330.661 276.76 329.985 278.622C329.606 279.61 329.397 280.656 329.369 281.714C329.359 282.407 329.508 283.094 329.805 283.72C330.203 284.517 330.807 285.191 331.556 285.672C332.141 286.048 332.764 286.361 333.415 286.605C334.923 287.206 336.555 287.433 338.17 287.265C339.236 287.158 340.286 286.92 341.294 286.556C340.4 287.455 336.932 290.956 333.486 294.958C330.04 298.961 326.523 303.475 325.536 306.409C325.31 307.022 325.155 307.659 325.072 308.306C324.95 309.11 325.112 309.932 325.53 310.629C325.915 311.177 326.463 311.589 327.095 311.807C327.695 312.016 328.314 312.164 328.944 312.249C330.182 312.445 331.67 312.669 333.42 312.881C335.171 313.094 337.15 313.296 339.375 313.465C337.739 316.191 336.223 318.617 334.876 320.711C333.53 322.805 332.346 324.566 331.392 325.962C331.392 325.962 329.756 328.323 327.788 331.797C325.454 335.768 323.499 339.951 321.948 344.289C321.707 344.962 321.544 345.661 321.463 346.371C321.341 347.259 321.478 348.162 321.858 348.974C322.237 349.785 322.842 350.47 323.6 350.946C324.033 351.237 324.497 351.477 324.985 351.661C325.902 351.989 326.888 352.075 327.848 351.911C329.424 351.726 331.703 351.066 334.936 349.365C336.525 348.533 338.061 347.603 339.533 346.579C341.506 345.205 343.368 343.677 345.1 342.009" fill="#F7CE21"/>
<path d="M353.693 261.092C350.608 261.88 347.614 262.991 344.762 264.407C342.705 265.437 340.733 266.632 338.868 267.979C336.636 269.536 334.627 271.391 332.897 273.491C331.645 275.026 330.661 276.76 329.985 278.622C329.606 279.61 329.397 280.656 329.369 281.714C329.359 282.407 329.508 283.094 329.805 283.72C330.203 284.517 330.807 285.191 331.556 285.672C332.141 286.048 332.764 286.361 333.415 286.605C334.923 287.206 336.555 287.433 338.17 287.265C339.236 287.158 340.286 286.92 341.294 286.556C340.4 287.455 336.932 290.956 333.486 294.958C330.04 298.961 326.523 303.475 325.536 306.409C325.31 307.022 325.155 307.659 325.072 308.306C324.95 309.11 325.112 309.932 325.53 310.629C325.915 311.177 326.463 311.589 327.095 311.807C327.695 312.016 328.314 312.164 328.944 312.249C330.182 312.445 331.67 312.669 333.42 312.881C335.171 313.094 337.15 313.296 339.375 313.465C337.739 316.191 336.223 318.617 334.876 320.711C333.53 322.805 332.346 324.566 331.392 325.962C331.392 325.962 329.756 328.323 327.788 331.797C325.454 335.768 323.499 339.951 321.948 344.289C321.707 344.962 321.544 345.661 321.463 346.371C321.341 347.259 321.478 348.162 321.858 348.974C322.237 349.785 322.842 350.47 323.6 350.946C324.033 351.237 324.497 351.477 324.985 351.661C325.902 351.989 326.888 352.075 327.848 351.911C329.424 351.726 331.703 351.066 334.936 349.365C336.525 348.533 338.061 347.603 339.533 346.579C341.506 345.205 343.368 343.677 345.1 342.009" stroke="black" stroke-width="1.6358" stroke-miterlimit="10" stroke-linecap="round"/>
<path d="M356.752 366.154L327.946 379.387L299.14 392.621L292.776 361.917L286.413 331.219L303.207 323.503L320.007 315.788L338.377 340.973L356.752 366.154Z" fill="#D1B7E5" stroke="black" stroke-width="1.6358" stroke-miterlimit="10" stroke-linecap="round"/>
<path d="M286.413 331.219L284.848 327.816L283.283 324.414L299.974 316.747L316.659 309.081L318.333 312.434L320.007 315.788L303.207 323.503L286.413 331.219Z" fill="#D1B7E5" stroke="black" stroke-width="1.6358" stroke-miterlimit="10" stroke-linecap="round"/>
<path d="M286.413 331.218L304.974 356.317L323.54 381.41" fill="#D1B7E5"/>
<path d="M286.413 331.218L304.974 356.317L323.54 381.41" stroke="black" stroke-width="1.6358" stroke-miterlimit="10" stroke-linecap="round"/>
<path d="M228.462 340.395L294.679 307.336L360.896 274.276L361.96 318.683L363.028 363.089L329.385 378.744L295.743 394.398L262.1 367.397L228.462 340.395Z" stroke="black" stroke-width="1.6358" stroke-miterlimit="10" stroke-linecap="round"/>
<path d="M341.261 362.37L334.315 365.745L327.368 369.125C326.898 369.457 326.366 369.69 325.804 369.811C325.242 369.932 324.661 369.938 324.096 369.829C322.938 369.613 321.91 368.951 321.234 367.986L312.646 355.881L304.058 343.781C303.373 342.821 303.088 341.633 303.262 340.466C303.347 339.898 303.545 339.353 303.846 338.864C304.147 338.375 304.544 337.952 305.012 337.62L311.959 334.245L318.906 330.864C319.375 330.532 319.907 330.298 320.469 330.177C321.031 330.055 321.612 330.048 322.177 330.155C323.336 330.375 324.364 331.036 325.045 331.998L333.633 344.103L342.216 356.208C342.903 357.167 343.189 358.357 343.012 359.523C342.926 360.091 342.727 360.636 342.427 361.125C342.126 361.614 341.73 362.037 341.261 362.37V362.37Z" fill="#F9851C" stroke="black" stroke-width="1.6358" stroke-miterlimit="10" stroke-linecap="round"/>
<path d="M262.596 323.35L288.458 354.55L314.314 385.756" stroke="black" stroke-width="1.6358" stroke-miterlimit="10" stroke-linecap="round"/>
<path d="M320.018 294.686L328.78 334.817L337.543 374.943" stroke="black" stroke-width="1.6358" stroke-miterlimit="10" stroke-linecap="round"/>
<path d="M251.162 358.613L306.37 330.641L361.578 302.663" stroke="black" stroke-width="1.6358" stroke-miterlimit="10" stroke-linecap="round"/>
<path d="M272.765 375.958L317.488 352.577L362.211 329.196" stroke="black" stroke-width="1.6358" stroke-miterlimit="10" stroke-linecap="round"/>
<path d="M320.77 294.391L312.526 272.979L304.271 251.561C303.696 250.128 302.824 248.833 301.712 247.763C300.6 246.692 299.274 245.87 297.82 245.35C294.699 244.206 291.266 244.257 288.18 245.492L284.238 247.024L280.312 248.556L280.781 249.254L281.249 249.947L285.006 248.48L288.758 247.013C291.441 245.936 294.425 245.876 297.149 246.844C298.405 247.28 299.552 247.979 300.514 248.895C301.476 249.811 302.231 250.923 302.727 252.155L310.983 273.568L319.238 294.98C319.318 295.181 319.472 295.343 319.669 295.433C319.817 295.497 319.98 295.516 320.138 295.488C320.297 295.46 320.444 295.385 320.56 295.274C320.677 295.163 320.758 295.02 320.793 294.863C320.829 294.706 320.817 294.542 320.759 294.391H320.77Z" fill="black"/>
<path d="M146.89 181.325L146.187 186.87L145.484 192.388L147.218 189.913L148.952 187.437L147.921 184.395L146.89 181.325Z" fill="white" stroke="black" stroke-width="1.6358" stroke-miterlimit="10"/>
<path d="M300.977 189.787L299.069 194.531L297.166 199.275" stroke="black" stroke-width="1.6358" stroke-miterlimit="10" stroke-linecap="round"/>
<path d="M400.063 491.003L317.068 500.878L234.073 510.753C235.799 514.649 238.728 517.89 242.43 520C246.133 522.11 250.414 522.978 254.646 522.476L285.579 518.823L316.506 515.17C318.414 514.947 320.292 514.517 322.106 513.888C323.921 513.26 325.663 512.439 327.303 511.44L328.786 510.535L330.274 509.63C330.465 509.514 330.68 509.446 330.902 509.43C331.124 509.414 331.346 509.451 331.551 509.538C331.756 509.625 331.937 509.759 332.08 509.929C332.223 510.1 332.324 510.302 332.374 510.518V510.518C332.54 511.261 332.976 511.916 333.598 512.355C334.219 512.795 334.982 512.987 335.738 512.896L350.018 511.211L364.299 509.526C364.963 509.445 365.587 509.163 366.087 508.719C366.588 508.275 366.942 507.689 367.102 507.04L367.249 506.413L367.402 505.791C367.438 505.642 367.515 505.505 367.625 505.398C367.735 505.291 367.874 505.217 368.024 505.184C368.174 505.152 368.33 505.162 368.475 505.215C368.62 505.267 368.746 505.359 368.841 505.48L369.484 506.571L370.133 507.661C370.317 507.982 370.592 508.24 370.924 508.403C371.261 508.573 371.641 508.637 372.014 508.588L374.964 508.239L377.914 507.89C378.298 507.847 378.658 507.685 378.945 507.427C379.235 507.171 379.441 506.832 379.534 506.456L379.817 505.289L380.095 504.122C380.131 503.973 380.209 503.836 380.319 503.728C380.429 503.62 380.567 503.545 380.717 503.512C380.868 503.478 381.025 503.489 381.17 503.542C381.315 503.595 381.441 503.689 381.535 503.812L381.944 504.51L382.353 505.208C382.702 505.808 383.22 506.294 383.842 506.604C384.464 506.914 385.163 507.035 385.853 506.952L387.909 506.713L389.965 506.467C391.717 506.26 393.403 505.672 394.904 504.742C396.404 503.813 397.682 502.565 398.648 501.088C399.613 499.611 400.243 497.939 400.492 496.192C400.741 494.445 400.604 492.664 400.09 490.976L400.063 491.003Z" fill="#EF3F3F" stroke="black" stroke-width="1.6358" stroke-miterlimit="10" stroke-linecap="round"/>
</svg>
