<svg width="565" height="401" viewBox="0 0 565 401" fill="none" xmlns="http://www.w3.org/2000/svg">
<path d="M251.2 134.793C251.2 134.793 290.611 116.148 339.657 114.225C388.702 112.302 447.282 127.135 485.619 194.004L511.731 238.851L537.844 283.698C540.055 287.485 542.32 291.235 544.639 294.95C546.959 298.665 549.285 302.386 551.618 306.114C560.227 319.738 563.849 334.823 562.972 348.786C562.096 362.75 556.796 375.613 547.561 384.799C541.381 390.835 533.753 395.18 525.41 397.418C518.77 399.22 511.902 400.042 505.025 399.857C494.964 399.631 484.901 399.429 474.835 399.252C464.769 399.076 454.706 398.987 444.645 398.987H163.729C150.732 398.987 137.736 399.048 124.739 399.171C111.743 399.293 98.7488 399.465 85.7569 399.687C81.1285 399.786 76.5113 399.193 72.0583 397.927C66.365 396.316 61.1364 393.375 56.8036 389.345C50.4462 383.304 46.2795 375.32 44.96 366.65C43.5212 357.519 44.9057 348.167 48.9283 339.844L55.5873 322.503L62.2396 305.17L76.7332 267.403L91.2268 229.637C97.6173 213.74 107.762 199.627 120.794 188.504C133.825 177.381 149.356 169.579 166.059 165.765L208.637 150.265L251.2 134.793Z" fill="#B00808" stroke="black" stroke-width="2.03848" stroke-miterlimit="10" stroke-linecap="round"/>
<path d="M306.755 168.306C307.163 159.839 307.568 151.378 307.972 142.92C308.375 134.463 308.778 125.998 309.181 117.527C311.532 117.093 313.938 116.678 316.499 116.304C319.061 115.931 321.636 115.625 324.334 115.312C326.404 115.086 328.443 114.9 330.449 114.755C332.456 114.61 334.393 114.492 336.259 114.402C331.344 123.385 326.434 132.37 321.528 141.357L306.755 168.306Z" fill="black" stroke="black" stroke-width="2.03848" stroke-miterlimit="10" stroke-linecap="round"/>
<path d="M505.004 399.85C500.431 400.027 493.908 397.003 488.533 393.932C485.222 392.05 482.011 389.997 478.912 387.783L419.116 348.576L359.287 309.403L383.103 268.395L406.947 227.381L445.358 248.826L483.777 270.264" stroke="black" stroke-width="2.03848" stroke-miterlimit="10" stroke-linecap="round"/>
<path d="M206.129 184.349L220.922 178.784L235.721 173.219L235.273 192.177L234.824 211.135C234.824 211.211 234.8 211.286 234.757 211.349C234.713 211.412 234.651 211.46 234.58 211.488C234.51 211.516 234.434 211.523 234.36 211.509C234.287 211.494 234.219 211.459 234.165 211.406L220.147 197.878L206.129 184.349Z" fill="#FFF8F8" stroke="black" stroke-width="2.03848" stroke-miterlimit="10" stroke-linecap="round"/>
<path d="M233.615 212.562L239.051 305.775L244.487 398.981H345.432L290.93 305.347L236.428 211.712C236.258 211.417 235.993 211.188 235.677 211.062C235.36 210.936 235.01 210.921 234.684 211.02C234.358 211.118 234.075 211.324 233.88 211.604C233.686 211.884 233.593 212.222 233.615 212.562Z" fill="#FFF8F8" stroke="black" stroke-width="2.03848" stroke-miterlimit="10" stroke-linecap="round"/>
<path d="M294.443 344.913L262.337 327.342L230.217 309.77C230.124 309.72 230.041 309.651 229.975 309.568C229.908 309.485 229.859 309.39 229.83 309.288C229.799 309.186 229.789 309.08 229.801 308.975C229.813 308.87 229.846 308.768 229.898 308.676L301.38 178.07L372.85 47.465L405.662 65.424L438.482 83.3694L367.013 213.982L295.544 344.587C295.493 344.681 295.424 344.763 295.342 344.83C295.259 344.896 295.163 344.945 295.061 344.975C294.855 345.036 294.633 345.014 294.443 344.913Z" fill="#F9851C" stroke="black" stroke-width="2.03848" stroke-miterlimit="10" stroke-linecap="round"/>
<path d="M254.149 325.154C253.968 325.154 253.787 325.132 253.612 325.086C253.433 325.044 253.259 324.981 253.096 324.895C252.557 324.614 252.151 324.131 251.968 323.552C251.784 322.972 251.838 322.344 252.117 321.804L312.273 206.031L372.435 90.2593C372.715 89.7187 373.199 89.3115 373.779 89.1274C374.36 88.9432 374.99 88.9972 375.53 89.2775C376.071 89.5577 376.478 90.0412 376.662 90.6217C376.846 91.2021 376.792 91.8319 376.512 92.3726L316.343 208.145L256.181 323.91C255.986 324.288 255.69 324.604 255.324 324.821C254.97 325.035 254.564 325.15 254.149 325.154Z" fill="#14AF6C" stroke="black" stroke-width="2.03848" stroke-miterlimit="10" stroke-linecap="round"/>
<path d="M276.654 337.5C276.478 337.499 276.302 337.479 276.131 337.439C275.953 337.392 275.78 337.328 275.614 337.249C275.345 337.108 275.106 336.915 274.911 336.682C274.717 336.449 274.57 336.18 274.479 335.89C274.386 335.604 274.349 335.303 274.373 335.003C274.396 334.703 274.478 334.411 274.615 334.143L333.5 218.813L392.378 103.482C392.658 102.947 393.138 102.543 393.713 102.359C394.289 102.176 394.914 102.227 395.452 102.503C395.99 102.778 396.397 103.255 396.585 103.829C396.773 104.403 396.726 105.028 396.455 105.568L337.577 220.892L278.699 336.223C278.505 336.596 278.212 336.91 277.853 337.13C277.494 337.35 277.082 337.469 276.661 337.473L276.654 337.5Z" fill="#14AF6C" stroke="black" stroke-width="2.03848" stroke-miterlimit="10" stroke-linecap="round"/>
<path d="M166.053 165.785L178.97 214.77L191.887 263.755L213.345 237.893L234.804 212.025L207.998 186.15L181.192 160.275L173.622 163.027L166.053 165.785Z" fill="#B00808" stroke="black" stroke-width="2.03848" stroke-miterlimit="10" stroke-linecap="round"/>
<path d="M236.496 140.141L235.653 176.086L234.804 212.025L268.153 213.431L301.496 214.838L280.126 173.219L258.756 131.6L247.626 135.874L236.496 140.141Z" fill="#B00808" stroke="black" stroke-width="2.03848" stroke-miterlimit="10" stroke-linecap="round"/>
<path d="M308.719 164.657L290.515 167.457L272.346 170.256C269.841 171.359 267.578 172.945 265.687 174.924C262.609 178.165 260.04 183.241 262.065 190.553C260.976 190.925 259.947 191.451 259.007 192.115C257.173 193.38 255.746 195.152 254.901 197.214C254.057 199.276 253.831 201.54 254.251 203.728C254.458 204.892 254.831 206.02 255.358 207.078C253.993 207.418 252.698 207.995 251.533 208.783C250.814 209.271 250.163 209.851 249.596 210.509C247.76 212.814 246.853 215.723 247.055 218.663C247.247 222.162 248.373 225.546 250.317 228.462C249.93 228.83 249.578 229.233 249.263 229.664C248.978 230.052 248.726 230.464 248.509 230.894C246.185 235.549 248.55 241.535 251.601 246.461C253.674 249.754 256.074 252.829 258.763 255.641L268.079 239.83C271.177 234.557 274.28 229.284 277.388 224.011L286.935 247.433L296.447 270.855C297.323 272.656 298.63 274.213 300.253 275.387C302.101 276.794 304.404 277.82 306.749 277.657C308.146 277.532 309.485 277.032 310.622 276.21C311.341 275.702 312 275.114 312.585 274.456C315.167 271.616 315.752 267.301 314.237 259.107C312.721 250.912 309.113 238.831 303.317 220.478C303.317 220.478 302.638 218.371 301.17 213.723C299.702 209.076 297.372 201.859 294.09 191.681L301.394 178.172L308.719 164.657Z" fill="#FFC0C0" stroke="black" stroke-width="2.03848" stroke-miterlimit="10" stroke-linecap="round"/>
<path d="M225.379 392.471L236.489 384.956L247.605 377.441L237.189 370.904L226.779 364.361L226.079 378.413L225.379 392.471Z" fill="#D1B7E5" stroke="black" stroke-width="2.03848" stroke-miterlimit="10" stroke-linecap="round"/>
<path d="M229.497 309.865L228.138 337.113L226.779 364.36L237.189 370.904L247.605 377.441L271.177 361.506L294.769 345.572C294.812 345.544 294.847 345.506 294.871 345.461C294.894 345.416 294.906 345.365 294.905 345.314C294.902 345.262 294.886 345.213 294.858 345.169C294.831 345.125 294.793 345.088 294.749 345.063L262.33 327.307L229.945 309.641C229.9 309.617 229.85 309.604 229.798 309.605C229.747 309.606 229.697 309.619 229.652 309.644C229.608 309.669 229.57 309.705 229.543 309.748C229.516 309.792 229.5 309.841 229.497 309.892V309.865Z" fill="#F7CE21" stroke="black" stroke-width="2.03848" stroke-miterlimit="10" stroke-linecap="round"/>
<path d="M92.178 36.0291C94.9166 46.2815 94.0155 57.1664 89.628 66.8289C85.2406 76.4914 77.6384 84.3335 68.1168 89.019C58.5953 93.7044 47.7437 94.9432 37.4111 92.5243C27.0786 90.1054 17.9045 84.1785 11.4521 75.7535C4.99983 67.3285 1.66857 56.9268 2.02605 46.3209C2.38352 35.715 6.4076 25.5612 13.4126 17.5898C20.4175 9.61835 29.9699 4.32259 40.4419 2.60491C50.9138 0.887229 61.6574 2.85393 70.8419 8.16986C76.0574 11.18 80.627 15.1907 84.2885 19.9715C87.9499 24.7524 90.6311 30.2093 92.178 36.0291Z" fill="#F7CE21" stroke="black" stroke-width="2.03848" stroke-miterlimit="10" stroke-linecap="round"/>
<path d="M37.0574 232.226H175.212C176.995 256.611 180.195 280.871 184.793 304.884C192.165 342.433 204.709 382.496 225.379 392.471H400.165V399.871L240.967 399.782L81.7749 399.694C77.3921 393.782 73.7704 388.251 70.8146 383.386C67.8588 378.521 65.5621 374.261 63.8498 370.924C53.2701 350.315 47.2702 330.025 43.6621 310.952C40.0539 291.879 38.8444 274.022 37.866 258.278C37.5126 252.597 37.3088 247.46 37.1865 243.057C37.0642 238.654 37.0574 234.964 37.0574 232.226Z" fill="#FFF8F8" stroke="black" stroke-width="2.03848" stroke-miterlimit="10" stroke-linecap="round"/>
<path d="M15.2051 292.049H150.288C157.793 309.855 166.816 326.982 177.258 343.242C194.089 369.212 217.64 395.95 244.48 398.96L163.124 399.334L81.7751 399.687C81.7751 399.687 69.2996 391.248 54.738 373.574C40.1765 355.901 23.5425 328.993 15.2051 292.049Z" fill="#D1B7E5" stroke="black" stroke-width="2.03848" stroke-miterlimit="10" stroke-linecap="round"/>
<path d="M8.25378 316.049H128.252C134.823 329.088 142.116 341.751 150.098 353.978C162.934 373.534 179.602 394.272 194.945 398.981L138.35 399.334L81.775 399.687C81.775 399.687 71.5011 400.659 57.1841 390.691C42.8672 380.723 24.4801 359.822 8.25378 316.049Z" fill="#F9851C" stroke="black" stroke-width="2.03848" stroke-miterlimit="10" stroke-linecap="round"/>
<path d="M262.038 190.546L269.689 207.268L277.333 223.991" stroke="black" stroke-width="2.03848" stroke-miterlimit="10" stroke-linecap="round"/>
<path d="M250.887 94.5743L232.161 100.982L213.427 107.383C215.46 112.317 218.135 116.962 221.384 121.197C228.344 130.381 238.111 137.042 249.202 140.168C252.327 141.054 255.524 141.661 258.756 141.983C259.678 137.694 260.161 133.323 260.196 128.936C260.228 124.374 259.791 119.82 258.892 115.346C258.148 111.638 257.086 108.001 255.719 104.475C254.393 101.043 252.776 97.731 250.887 94.5743Z" fill="black" stroke="black" stroke-width="2.03848" stroke-miterlimit="10" stroke-linecap="round"/>
<path d="M241.877 137.518C240.518 136.92 239.513 136.377 238.697 135.908C237.882 135.439 237.297 135.065 236.89 134.787C236.591 134.583 236.312 134.393 236.074 134.216L235.449 133.747H235.972L236.584 133.713C236.584 133.713 236.795 133.713 237.107 133.659C237.42 133.604 237.841 133.564 238.256 133.482C240.538 133.052 242.683 132.076 244.505 130.636C246.328 129.196 247.775 127.337 248.722 125.216C249.669 123.095 250.089 120.776 249.944 118.458C249.8 116.14 249.096 113.891 247.892 111.904C246.689 109.918 245.023 108.252 243.035 107.05C241.048 105.848 238.799 105.145 236.48 105.002C234.162 104.859 231.844 105.279 229.723 106.228C227.603 107.176 225.744 108.624 224.306 110.447C222.164 113.152 221.02 116.511 221.064 119.96C220.337 119.145 219.556 118.207 218.768 117.147C217.916 116.006 217.126 114.82 216.403 113.593C215.724 112.465 215.166 111.371 214.677 110.325C214.188 109.279 213.773 108.287 213.427 107.383L181.491 118.309L149.554 129.235C149.659 130.526 149.797 131.822 149.969 133.122C150.141 134.422 150.368 135.727 150.648 137.036C153.937 153.459 162.974 167.104 174.934 175.903C186.893 184.702 201.678 188.637 216.627 185.647C227.122 183.517 236.692 178.168 244.004 170.345C251.417 162.414 256.519 152.606 258.756 141.983C256.727 141.774 254.71 141.456 252.715 141.031C250.928 140.651 249.386 140.236 248.095 139.842C247.415 139.625 246.471 139.333 245.417 138.952C244.364 138.572 243.128 138.096 241.877 137.518Z" fill="#FFC0C0" stroke="black" stroke-width="2.03848" stroke-miterlimit="10" stroke-linecap="round"/>
<path d="M229.144 137.729C229.492 139.475 229.225 141.289 228.387 142.86C227.549 144.432 226.192 145.664 224.548 146.347C222.903 147.03 221.072 147.122 219.367 146.607C217.663 146.092 216.189 145.002 215.198 143.522C214.207 142.043 213.759 140.265 213.932 138.493C214.104 136.72 214.885 135.062 216.143 133.801C217.401 132.54 219.056 131.754 220.828 131.577C222.601 131.4 224.379 131.843 225.862 132.83C226.705 133.389 227.43 134.11 227.993 134.951C228.557 135.791 228.948 136.736 229.144 137.729Z" fill="#EF3F3F" stroke="black" stroke-width="2.03848" stroke-miterlimit="10" stroke-linecap="round"/>
<path d="M192.335 170.467C192.684 172.213 192.417 174.027 191.579 175.598C190.741 177.169 189.384 178.402 187.739 179.085C186.095 179.768 184.264 179.86 182.559 179.345C180.855 178.83 179.381 177.74 178.39 176.26C177.399 174.78 176.951 173.003 177.123 171.23C177.296 169.458 178.077 167.8 179.335 166.539C180.592 165.278 182.248 164.492 184.02 164.315C185.792 164.138 187.571 164.58 189.053 165.568C189.897 166.127 190.621 166.848 191.184 167.689C191.748 168.53 192.139 169.474 192.335 170.467Z" fill="#EF3F3F" stroke="black" stroke-width="2.03848" stroke-miterlimit="10" stroke-linecap="round"/>
<path d="M178.168 153.881C178.33 154.689 178.166 155.529 177.713 156.218C177.254 156.901 176.543 157.375 175.736 157.537C174.929 157.698 174.091 157.535 173.405 157.081C172.719 156.623 172.243 155.912 172.08 155.104C171.998 154.704 171.997 154.292 172.077 153.892C172.156 153.492 172.314 153.111 172.542 152.773C172.768 152.433 173.059 152.141 173.397 151.914C173.736 151.687 174.117 151.529 174.517 151.449C174.917 151.369 175.329 151.368 175.729 151.447C176.129 151.526 176.51 151.684 176.85 151.91C177.188 152.135 177.479 152.425 177.706 152.764C177.932 153.102 178.089 153.481 178.168 153.881Z" fill="black"/>
<path d="M204.94 135.466C205.082 136.172 204.974 136.905 204.636 137.541C204.297 138.177 203.749 138.675 203.084 138.952C202.419 139.228 201.679 139.266 200.99 139.057C200.3 138.849 199.704 138.409 199.304 137.811C198.903 137.212 198.722 136.494 198.791 135.777C198.861 135.06 199.177 134.39 199.686 133.88C200.194 133.37 200.864 133.053 201.58 132.981C202.297 132.91 203.016 133.089 203.615 133.489C204.301 133.947 204.777 134.658 204.94 135.466Z" fill="black"/>
<path d="M168.9 138.103C175.612 130.982 183.929 125.567 193.158 122.311C195.403 121.524 197.693 120.866 200.014 120.341" stroke="black" stroke-width="2.03848" stroke-miterlimit="10" stroke-linecap="round"/>
<path d="M176.191 132.701L183.855 145.265L191.52 157.828L193.205 156.612L194.89 155.389" stroke="black" stroke-width="2.03848" stroke-miterlimit="10" stroke-linecap="round"/>
<path d="M192.804 66.7353C179.045 69.4941 167.615 77.648 159.93 88.8461C151.932 100.718 148.25 114.975 149.5 129.235L200.197 111.908L250.887 94.581C244.982 84.5312 236.289 76.4094 225.862 71.1996C215.641 66.0927 204.014 64.5225 192.804 66.7353Z" fill="#F9851C" stroke="black" stroke-width="2.03848" stroke-miterlimit="10" stroke-linecap="round"/>
<path d="M231.95 124.941L235.633 120.388L239.309 115.829" stroke="black" stroke-width="2.03848" stroke-miterlimit="10" stroke-linecap="round"/>
<path d="M168.743 122.651C170.865 127.957 171.339 133.78 170.102 139.36C168.945 144.675 166.082 149.467 161.948 153.004C160.393 154.312 158.672 155.41 156.832 156.272C150.947 159.003 144.231 159.337 138.105 157.203C134.985 156.113 132.147 154.341 129.796 152.018C127.446 149.694 125.642 146.877 124.515 143.77C123.822 141.86 123.41 139.859 123.292 137.831C123.084 133.392 124.11 128.982 126.255 125.09C128.443 121.17 131.792 117.976 136.23 116.699C138.892 115.961 141.697 115.912 144.383 116.556C146.15 116.964 147.858 117.594 149.466 118.431C149.371 119.491 149.296 120.599 149.255 121.754C149.215 122.909 149.201 124.112 149.255 125.362C149.255 126.042 149.296 126.721 149.33 127.346C149.364 127.971 149.412 128.624 149.466 129.235L159.101 125.946L168.743 122.651Z" fill="black" stroke="black" stroke-width="2.03848" stroke-miterlimit="10" stroke-linecap="round"/>
<path d="M150.818 109.89L195.644 95.6613L240.464 81.4327" stroke="black" stroke-width="2.03848" stroke-miterlimit="10" stroke-linecap="round"/>
<path d="M164.381 105.589L166.12 114.273L167.86 122.957" stroke="black" stroke-width="2.03848" stroke-miterlimit="10" stroke-linecap="round"/>
<path d="M182.116 100.092L183.76 108.3L185.404 116.508" stroke="black" stroke-width="2.03848" stroke-miterlimit="10" stroke-linecap="round"/>
<path d="M203.785 93.4393L205.402 101.505L207.019 109.571" stroke="black" stroke-width="2.03848" stroke-miterlimit="10" stroke-linecap="round"/>
<path d="M225.814 86.427L227.343 94.0509L228.872 101.682" stroke="black" stroke-width="2.03848" stroke-miterlimit="10" stroke-linecap="round"/>
<path d="M198.784 166.268C200.78 166.469 202.795 166.162 204.641 165.378C207.631 164.066 210.756 161.029 211.212 154.118" stroke="black" stroke-width="2.03848" stroke-miterlimit="10" stroke-linecap="round"/>
<path d="M442.471 67.7749C442.461 76.5778 439.399 85.1049 433.807 91.9035C428.215 98.7021 420.439 103.352 411.803 105.06C403.167 106.768 394.207 105.429 386.448 101.272C378.688 97.1141 372.611 90.3949 369.25 82.2588C365.889 74.1227 365.453 65.0731 368.016 56.6516C370.579 48.2301 375.983 40.9579 383.307 36.0738C390.631 31.1897 399.421 28.9959 408.181 29.8662C416.941 30.7364 425.128 34.617 431.347 40.8466C434.884 44.3812 437.687 48.5798 439.596 53.201C441.505 57.8222 442.482 62.775 442.471 67.7749Z" fill="#F7CE21" stroke="black" stroke-width="2.03848" stroke-miterlimit="10" stroke-linecap="round"/>
<path d="M424.552 67.7749C424.546 72.4351 422.925 76.949 419.964 80.5479C417.004 84.1469 412.887 86.6081 408.315 87.5126C403.744 88.4171 399 87.7088 394.892 85.5083C390.784 83.3079 387.566 79.7514 385.786 75.4446C384.006 71.1379 383.774 66.3472 385.129 61.8885C386.485 57.4298 389.344 53.579 393.22 50.9918C397.096 48.4046 401.749 47.241 406.387 47.6994C411.024 48.1578 415.36 50.2096 418.654 53.5055C420.531 55.3769 422.018 57.6013 423.03 60.0504C424.042 62.4995 424.56 65.1248 424.552 67.7749Z" fill="#D1B7E5" stroke="black" stroke-width="2.03848" stroke-miterlimit="10" stroke-linecap="round"/>
<path d="M255.46 207.037L262.88 220.933L270.307 234.822" fill="#B00808"/>
<path d="M255.46 207.037L262.88 220.933L270.307 234.822" stroke="black" stroke-width="2.03848" stroke-miterlimit="10" stroke-linecap="round"/>
<path d="M250.174 228.543L256.799 238.056L263.417 247.569" fill="#FFC0C0"/>
<path d="M250.174 228.543L256.799 238.056L263.417 247.569" stroke="black" stroke-width="2.03848" stroke-miterlimit="10" stroke-linecap="round"/>
<path d="M406.954 227.381C402.197 223.046 393.642 216.795 385.06 210.543C376.478 204.292 367.883 198.041 363.16 193.706C361.128 191.622 358.582 190.113 355.779 189.329C352.977 188.545 350.017 188.515 347.199 189.241L323.654 195.296L300.117 201.357C299.132 201.608 298.14 201.839 297.154 202.07C296.169 202.301 295.17 202.519 294.185 202.75C291.52 203.316 289.003 204.437 286.799 206.038C285.032 207.27 283.789 209.116 283.313 211.216C283.187 211.909 283.171 212.618 283.265 213.316C283.311 213.683 283.393 214.045 283.51 214.396C284.128 216.258 285.664 217.794 287.852 218.888C290.433 220.088 293.241 220.718 296.087 220.736L297.603 220.777L299.118 220.817H299.797L301.231 220.872C309.283 221.225 315.501 221.497 320.366 222.353C325.231 223.209 328.703 224.643 331.238 227.327C332.026 228.108 332.6 229.079 332.902 230.147C333.614 232.145 334.525 234.066 335.62 235.882C338.397 240.732 341.796 245.198 345.731 249.166L334.18 272.18L322.628 295.188C324.164 296.132 325.822 297.07 327.596 297.987C329.369 298.905 331.272 299.795 333.29 300.638C338.168 302.668 343.24 304.193 348.429 305.19C352.565 305.98 356.757 306.448 360.965 306.59L383.987 266.982L406.954 227.381Z" fill="#FFC0C0" stroke="black" stroke-width="2.03848" stroke-miterlimit="10" stroke-linecap="round"/>
<path d="M332.678 230.5C335.198 235.881 338.415 240.907 342.245 245.449C348.54 253.041 356.752 258.81 366.028 262.158C369.363 263.322 372.807 264.144 376.308 264.611C379.193 264.998 382.103 265.159 385.013 265.093" stroke="black" stroke-width="2.03848" stroke-miterlimit="10" stroke-linecap="round"/>
<path d="M65.338 103.469L49.0301 80.6309L32.7223 57.7999C32.2589 57.1568 31.8776 56.4583 31.5875 55.7207C31.2965 54.9881 31.1156 54.2164 31.0507 53.4308C30.9009 51.5652 31.3444 49.6999 32.3178 48.1013C33.2912 46.5027 34.7447 45.2525 36.4709 44.5292C38.1972 43.8058 40.1078 43.6464 41.93 44.0735C43.7522 44.5006 45.393 45.4926 46.6179 46.9077L51.9315 51.7321L57.252 56.5565C57.8537 57.1055 58.3184 57.788 58.6087 58.5492C58.899 59.3103 59.0068 60.1289 58.9235 60.9392C58.8505 61.7437 58.578 62.5174 58.1308 63.1901C57.6835 63.8628 57.0755 64.4134 56.3618 64.7919C55.6266 65.1815 54.8055 65.3808 53.9734 65.3719C53.1414 65.363 52.3248 65.146 51.598 64.7407C50.8713 64.3355 50.2575 63.7548 49.8125 63.0517C49.3676 62.3485 49.1056 61.5453 49.0505 60.715L48.5477 53.159L48.0516 45.603C47.9329 43.6426 48.3263 41.6849 49.1932 39.9225C50.0078 38.2545 51.302 36.868 52.91 35.9406C54.3068 35.1629 55.8846 34.7691 57.483 34.7991C58.272 34.801 59.0575 34.9038 59.8205 35.1049C60.3523 35.2576 60.8669 35.4648 61.3561 35.7232C61.7977 35.9507 62.2184 36.2167 62.6132 36.5182C63.3749 37.1027 64.034 37.81 64.5633 38.611C65.0974 39.4222 65.5073 40.3085 65.7796 41.2407C68.4161 50.21 71.0548 59.1748 73.6957 68.135L81.6118 95.0294" stroke="black" stroke-width="2.03848" stroke-miterlimit="10" stroke-linecap="round"/>
<path d="M96.3774 108.456L81.809 116.039L67.2475 123.623L59.6643 109.061L52.0812 94.4994L66.6427 86.9163L81.2111 79.3331L88.7942 93.8947L96.3774 108.456Z" fill="#F9851C" stroke="black" stroke-width="2.03848" stroke-miterlimit="10" stroke-linecap="round"/>
<path d="M57.0685 104.073L71.7591 96.7349L86.4498 89.4032" stroke="black" stroke-width="2.03848" stroke-miterlimit="10" stroke-linecap="round"/>
<path d="M62.2871 114.089L76.9778 106.751L91.6684 99.4191" stroke="black" stroke-width="2.03848" stroke-miterlimit="10" stroke-linecap="round"/>
<path d="M409.522 342.311L418.729 348.474C424.199 352.143 431.415 356.974 438.373 361.622C468.74 381.918 475.868 386.553 476.466 386.818C477.064 387.083 471.118 382.999 475.338 385.866C476.5 386.655 478.484 388 481.188 389.678C483.893 391.357 487.304 393.361 491.306 395.454C493.188 396.432 494.914 397.282 496.422 397.995C497.931 398.709 499.229 399.3 500.241 399.742L469.399 399.246L438.557 398.75C433.719 389.345 428.878 379.939 424.036 370.53L409.522 342.311Z" fill="black" stroke="black" stroke-width="2.03848" stroke-miterlimit="10" stroke-linecap="round"/>
<path d="M214.086 329.128C214.087 330.05 213.769 330.943 213.185 331.656C212.602 332.369 211.789 332.857 210.885 333.038C209.982 333.219 209.044 333.081 208.231 332.647C207.418 332.214 206.78 331.512 206.427 330.661C206.074 329.81 206.026 328.863 206.293 327.981C206.559 327.1 207.123 326.337 207.889 325.825C208.654 325.312 209.574 325.081 210.491 325.17C211.408 325.26 212.265 325.665 212.917 326.315C213.288 326.684 213.582 327.122 213.783 327.605C213.983 328.088 214.086 328.606 214.086 329.128Z" fill="black" stroke="black" stroke-width="2.03848" stroke-miterlimit="10" stroke-linecap="round"/>
</svg>
