<svg width="499" height="475" viewBox="0 0 499 475" fill="none" xmlns="http://www.w3.org/2000/svg">
<path d="M98.6744 56.5565L113.182 62.7467L127.689 68.9368L132.86 56.1012L138.024 43.2656L122.09 40.5L106.162 37.7345L102.418 47.1455L98.6744 56.5565Z" fill="#D1B7E5" stroke="black" stroke-width="2.03848" stroke-miterlimit="10" stroke-linecap="round"/>
<path d="M104.858 43.238L119.019 47.4781L133.172 51.7249" fill="#D1B7E5"/>
<path d="M104.858 43.238L119.019 47.4781L133.172 51.7249" stroke="black" stroke-width="2.03848" stroke-miterlimit="10" stroke-linecap="round"/>
<path d="M36.793 25.1774L42.4532 27.875L48.1134 30.5658V25.1774V19.7822L42.4532 22.4798L36.793 25.1774Z" fill="#F9851C" stroke="black" stroke-width="2.03848" stroke-miterlimit="10" stroke-linecap="round"/>
<path d="M162.207 459.822L282.396 462.54L402.578 465.258C402.578 465.258 425.382 475.029 448.587 473.562C471.791 472.094 495.41 459.394 497.041 414.446C497.041 414.446 497.041 407.834 493.759 387.3C490.477 366.766 483.9 332.329 470.758 276.61C468.407 266.601 464.929 256.89 460.389 247.664C455.854 238.44 450.229 229.794 443.633 221.911C442.913 221.055 442.177 220.199 441.425 219.343C440.673 218.486 439.905 217.644 439.121 216.815C425.055 201.823 407.743 190.25 388.513 182.983C376.909 178.526 364.792 175.545 352.445 174.109C352.445 174.109 306.518 167.919 257.499 173.864C208.481 179.81 156.33 197.884 143.956 246.414C140.305 259.098 136.658 271.766 133.016 284.418C129.374 297.07 125.727 309.736 122.076 322.415C118.561 310.497 115.043 298.576 111.524 286.653L100.964 250.898L59.7395 262.511L18.5146 274.123C21.6131 287.283 24.7139 300.445 27.8169 313.609L37.1124 353.101C41.8688 375.123 44.9129 388.142 46.734 395.664C48.555 403.186 49.1598 405.177 49.1598 405.177C50.6983 412.945 53.3508 420.449 57.0351 427.458C62.6613 438.276 72.0791 450.703 87.6123 459.394C105.565 469.396 123.544 469.852 137.365 467.636C145.994 466.305 154.37 463.67 162.207 459.822Z" fill="#B00808" stroke="black" stroke-width="2.03848" stroke-miterlimit="10" stroke-linecap="round"/>
<path d="M306.199 417.836L324.633 425.059L330.919 427.519L341.111 433.322C346.547 436.413 352.663 439.906 355.462 441.476C360.728 444.445 367.238 447.999 375.072 452.008C382.907 456.017 392.06 460.488 402.605 465.305L376.363 464.592L350.121 463.913L328.174 440.891L306.199 417.836Z" fill="black" stroke="black" stroke-width="2.03848" stroke-miterlimit="10" stroke-linecap="round"/>
<path d="M228.906 178.824L217.756 213.254L206.605 247.684L232.82 230.941L259.042 214.199L243.971 196.511L228.906 178.824Z" fill="#B00808" stroke="black" stroke-width="2.03848" stroke-miterlimit="10" stroke-linecap="round"/>
<path d="M211.668 379.024C211.667 379.881 211.37 380.711 210.826 381.373C210.281 382.035 209.525 382.488 208.684 382.655C207.843 382.821 206.971 382.691 206.216 382.286C205.46 381.882 204.869 381.228 204.541 380.436C204.214 379.644 204.172 378.763 204.422 377.943C204.672 377.123 205.198 376.415 205.911 375.94C206.624 375.465 207.48 375.252 208.333 375.337C209.185 375.422 209.982 375.801 210.587 376.408C211.278 377.103 211.667 378.043 211.668 379.024Z" fill="black" stroke="black" stroke-width="2.03848" stroke-miterlimit="10" stroke-linecap="round"/>
<path d="M259.042 214.199L279.529 192.747L300.015 171.289L304.024 213.37L308.033 255.451L283.538 234.828L259.042 214.199Z" fill="#B00808" stroke="black" stroke-width="2.03848" stroke-miterlimit="10" stroke-linecap="round"/>
<path d="M240.288 192.19L249.665 203.198L259.042 214.199L269.839 202.892L280.636 191.592L260.462 191.891L240.288 192.19Z" fill="#FFF8F8" stroke="black" stroke-width="2.03848" stroke-miterlimit="10" stroke-linecap="round"/>
<path d="M258.892 215.028L238.283 337.894L217.681 460.753L255.903 461.704L294.131 462.649L276.661 338.845L259.191 215.028C259.188 214.991 259.17 214.957 259.143 214.933C259.115 214.909 259.079 214.897 259.042 214.899C259.005 214.898 258.97 214.911 258.943 214.935C258.915 214.959 258.897 214.992 258.892 215.028Z" fill="#FFF8F8" stroke="black" stroke-width="2.03848" stroke-miterlimit="10" stroke-linecap="round"/>
<path d="M380.243 298.442C381.996 308.309 383.747 318.177 385.496 328.048C387.244 337.919 388.995 347.785 390.748 357.647" stroke="black" stroke-width="2.03848" stroke-miterlimit="10" stroke-linecap="round"/>
<path d="M239.024 329.856H229.436H219.849L219.054 334.578L218.259 339.301H229.327H240.396L239.71 334.578L239.024 329.856Z" fill="#F7CE21" stroke="black" stroke-width="2.03848" stroke-miterlimit="10" stroke-linecap="round"/>
<path d="M253.253 427.634L246.825 383.467L240.397 339.3H229.328H218.259L210.934 382.788L203.609 426.269L228.431 426.955L253.253 427.634Z" fill="#14AF6C" stroke="black" stroke-width="2.03848" stroke-miterlimit="10" stroke-linecap="round"/>
<path d="M207.02 406.02C211.706 403.903 216.657 402.429 221.738 401.638C230.252 400.279 241.076 400.652 250.317 407.468" stroke="black" stroke-width="2.03848" stroke-miterlimit="10" stroke-linecap="round"/>
<path d="M291.324 329.856H281.737H272.149L271.354 334.578L270.559 339.301H281.628H292.697L292.011 334.578L291.324 329.856Z" fill="#F7CE21" stroke="black" stroke-width="2.03848" stroke-miterlimit="10" stroke-linecap="round"/>
<path d="M305.546 427.634L299.125 383.467L292.697 339.3H281.628H270.559L263.228 382.788L255.903 426.269L280.725 426.955L305.546 427.634Z" fill="#14AF6C" stroke="black" stroke-width="2.03848" stroke-miterlimit="10" stroke-linecap="round"/>
<path d="M253.803 426.269C253.803 430.203 250.969 433.743 246.396 436.339C241.823 438.935 235.525 440.511 228.526 440.511C221.527 440.511 215.228 438.914 210.655 436.339C206.082 433.764 203.255 430.224 203.255 426.269C203.255 422.314 206.082 418.794 210.655 416.206C215.228 413.617 221.527 412.033 228.526 412.033C235.525 412.033 241.823 413.63 246.396 416.206C250.969 418.781 253.803 422.341 253.803 426.269Z" fill="black" stroke="black" stroke-width="2.03848" stroke-miterlimit="10" stroke-linecap="round"/>
<path d="M306.199 426.269C306.199 430.203 303.379 433.743 298.833 436.339C294.287 438.935 287.995 440.511 281.051 440.511C274.106 440.511 267.821 438.914 263.268 436.339C258.716 433.764 255.903 430.224 255.903 426.269C255.903 422.314 258.716 418.794 263.268 416.206C267.821 413.617 274.106 412.033 281.051 412.033C287.995 412.033 294.28 413.63 298.833 416.206C303.386 418.781 306.199 422.341 306.199 426.269Z" fill="black" stroke="black" stroke-width="2.03848" stroke-miterlimit="10" stroke-linecap="round"/>
<path d="M259.314 406.02C264.002 403.904 268.955 402.429 274.038 401.638C282.552 400.279 293.377 400.652 302.611 407.468" stroke="black" stroke-width="2.03848" stroke-miterlimit="10" stroke-linecap="round"/>
<path d="M121.893 321.389L123.605 329.856L125.317 338.329" stroke="black" stroke-width="2.03848" stroke-miterlimit="10" stroke-linecap="round"/>
<path d="M172.76 313.052C170.998 337.513 169.24 361.975 167.487 386.437C165.734 410.899 163.978 435.36 162.221 459.822" stroke="black" stroke-width="2.03848" stroke-miterlimit="10" stroke-linecap="round"/>
<path d="M265.076 371.828L255.121 371.984L245.173 372.14L244.025 364.238L242.877 356.342H255.284H267.698L266.387 364.081L265.076 371.828Z" fill="black" stroke="black" stroke-width="2.03848" stroke-miterlimit="10" stroke-linecap="round"/>
<path d="M344.142 342.773C335.685 339.118 326.86 336.385 317.818 334.619C303.189 331.813 285.617 331.575 273.855 341.829L253.619 357.892L233.371 373.969C231.466 375.44 229.814 377.212 228.478 379.214C226.576 382.218 225.76 386.009 230.211 389.135C229.113 390.896 228.288 392.814 227.765 394.822C227.085 397.792 227.466 401.019 231.753 402.039C230.822 403.763 230.232 405.65 230.014 407.597C229.824 410.417 230.979 413.332 236.381 413.712C235.589 414.973 235.059 416.38 234.825 417.85C234.595 419.023 234.824 420.239 235.463 421.248C237.203 423.633 239.602 423.728 241.98 422.892C244.358 422.056 246.695 420.283 248.326 418.931C250.827 416.851 253.232 414.718 255.685 412.639C258.13 410.527 260.684 408.545 263.336 406.7C267.79 403.653 272.464 400.941 277.32 398.587C281.385 396.613 285.567 394.89 289.843 393.429C291.483 392.865 293.158 392.411 294.858 392.07C296.556 391.733 298.278 391.531 300.009 391.466C302.726 391.364 305.587 391.595 306.504 392.825C307.422 394.054 306.43 396.31 301.517 400.238C301.938 403.037 302.355 405.832 302.767 408.623C303.179 411.413 303.596 414.206 304.018 417.001L317.492 422.247L330.953 427.52L337.564 385.146L344.176 342.773" fill="#FFC0C0"/>
<path d="M344.142 342.773C335.685 339.118 326.86 336.385 317.818 334.619C303.189 331.813 285.617 331.575 273.855 341.829L253.619 357.892L233.371 373.969C231.466 375.44 229.814 377.212 228.478 379.214C226.576 382.218 225.76 386.009 230.211 389.135C229.113 390.896 228.288 392.814 227.765 394.822C227.085 397.792 227.466 401.019 231.753 402.039C230.822 403.763 230.232 405.65 230.014 407.597C229.824 410.417 230.979 413.332 236.381 413.712C235.589 414.973 235.059 416.38 234.825 417.85C234.595 419.023 234.824 420.239 235.463 421.248C237.203 423.633 239.602 423.728 241.98 422.892C244.358 422.056 246.695 420.283 248.326 418.931C250.827 416.851 253.232 414.718 255.685 412.639C258.13 410.527 260.684 408.545 263.336 406.7C267.79 403.653 272.464 400.941 277.32 398.587C281.385 396.613 285.567 394.89 289.843 393.429C291.483 392.865 293.158 392.411 294.858 392.07C296.556 391.733 298.278 391.531 300.009 391.466C302.726 391.364 305.587 391.595 306.504 392.825C307.422 394.054 306.43 396.31 301.517 400.238C301.938 403.037 302.355 405.832 302.767 408.623C303.179 411.413 303.596 414.206 304.018 417.001L317.492 422.247L330.953 427.52L337.564 385.146L344.176 342.773" stroke="black" stroke-width="2.03848" stroke-miterlimit="10" stroke-linecap="round"/>
<path d="M230.19 389.114L250.67 373.534L271.15 357.946" stroke="black" stroke-width="2.03848" stroke-miterlimit="10" stroke-linecap="round"/>
<path d="M231.733 402.018L251.921 387.082L272.115 372.14" stroke="black" stroke-width="2.03848" stroke-miterlimit="10" stroke-linecap="round"/>
<path d="M236.36 413.658L254.238 400.367L272.115 387.083" stroke="black" stroke-width="2.03848" stroke-miterlimit="10" stroke-linecap="round"/>
<path d="M227.67 329.855C223.068 311.102 219.78 292.05 217.83 272.839C214.657 241.243 214.963 203.483 228.899 178.824" stroke="black" stroke-width="2.03848" stroke-miterlimit="10" stroke-linecap="round"/>
<path d="M281.628 329.856C290.728 310.806 298.229 291.033 304.051 270.74C313.394 237.832 319 198.19 304.14 171.255" stroke="black" stroke-width="2.03848" stroke-miterlimit="10" stroke-linecap="round"/>
<path d="M220.745 315.145C220.745 316.002 220.447 316.832 219.903 317.494C219.359 318.156 218.603 318.609 217.762 318.776C216.921 318.942 216.049 318.812 215.294 318.407C214.538 318.003 213.947 317.349 213.619 316.557C213.292 315.764 213.25 314.883 213.5 314.064C213.749 313.244 214.276 312.536 214.989 312.061C215.702 311.586 216.558 311.373 217.411 311.458C218.263 311.543 219.06 311.922 219.665 312.529C220.009 312.872 220.281 313.28 220.467 313.729C220.652 314.178 220.747 314.659 220.745 315.145Z" fill="black" stroke="black" stroke-width="2.03848" stroke-miterlimit="10" stroke-linecap="round"/>
<path d="M395.634 81.2766C395.634 82.3977 394.954 83.4306 393.724 84.1916C392.285 85.0048 390.666 85.4484 389.013 85.4828C387.36 85.5171 385.724 85.1412 384.252 84.3886C383.022 83.6752 382.254 82.6763 382.214 81.5552C382.173 80.434 382.893 79.4012 384.116 78.6401C385.557 77.827 387.177 77.3834 388.831 77.349C390.485 77.3146 392.122 77.6905 393.595 78.4431C394.845 79.1565 395.634 80.1554 395.634 81.2766Z" fill="black" stroke="black" stroke-width="2.03848" stroke-miterlimit="10" stroke-linecap="round"/>
<path d="M395.192 81.4327L399.588 63.0863L403.978 44.74C403.993 44.668 404.032 44.6033 404.089 44.5564C404.146 44.5095 404.217 44.4832 404.29 44.4818C404.364 44.4791 404.436 44.501 404.495 44.5442C404.554 44.5873 404.597 44.6491 404.617 44.7196L409.312 52.826L413.98 60.8848" stroke="black" stroke-width="3.39747" stroke-miterlimit="10" stroke-linecap="round"/>
<path d="M340.928 140.086C344.058 138.471 346.987 136.491 349.652 134.188C352.882 131.394 355.602 128.061 357.691 124.336C358.664 122.638 359.522 120.876 360.259 119.063C361.002 117.234 361.461 115.302 361.618 113.335C361.701 111.238 361.123 109.168 359.967 107.416C358.778 105.677 356.977 104.528 354.64 105.058C353.972 105.204 353.355 105.523 352.85 105.983C352.345 106.444 351.971 107.03 351.765 107.681C351.331 109 351.288 110.416 351.643 111.758C352.139 113.742 354.049 116.698 356.794 119.192C359.539 121.686 363.106 123.731 366.932 123.901C371.287 124.084 375.915 121.862 379.699 117.751C383.484 113.64 386.413 107.722 387.398 100.513" stroke="black" stroke-width="2.03848" stroke-miterlimit="10" stroke-linecap="round"/>
<path d="M100.876 250.518C94.3869 228.094 88.3462 206.894 82.3123 185.708C76.2784 164.521 70.2445 143.321 63.7485 120.891C63.5815 120.303 63.3702 119.728 63.1166 119.172C62.8614 118.618 62.5542 118.09 62.1993 117.595C60.8733 115.741 58.9565 114.392 56.7633 113.77C54.8763 113.19 52.8366 113.381 51.0895 114.3C49.6984 115.142 48.6365 116.434 48.0794 117.962C47.4332 119.681 47.255 121.54 47.563 123.351L51.0963 145.584L54.6365 167.823C53.5292 167.155 52.3359 166.64 51.0895 166.294C48.8627 165.622 46.4771 165.693 44.2946 166.498C41.7018 167.563 39.6089 169.571 38.4374 172.118C37.1058 174.95 36.7382 178.141 37.3909 181.203C35.9602 179.431 34.0635 178.095 31.9142 177.343C29.8868 176.622 27.6851 176.551 25.6153 177.139C22.9446 177.977 20.7126 179.835 19.4047 182.31C17.9578 184.976 17.5395 188.081 18.2292 191.035C17.0689 190.337 15.8214 189.795 14.5192 189.424C12.3646 188.743 10.0365 188.861 7.96207 189.757C7.56836 189.949 7.19307 190.177 6.84091 190.437C6.12877 190.951 5.48488 191.554 4.92473 192.231C2.74355 194.86 2.07765 198.197 2.0029 201.064C1.97119 203.168 2.19942 205.268 2.6824 207.316L10.5373 240.522L18.3923 273.729L59.6172 262.117L100.876 250.518Z" fill="#FFC0C0" stroke="black" stroke-width="2.03848" stroke-miterlimit="10" stroke-linecap="round"/>
<path d="M3.31433 209.857C4.46947 212.127 5.645 214.396 6.84091 216.652C8.03681 218.908 9.2599 221.15 10.4966 223.379C11.5022 225.186 12.4535 227.028 13.4388 228.849C14.4241 230.67 15.4773 232.471 16.6052 234.197C17.7344 235.962 19.0315 237.614 20.4783 239.13C21.8808 240.675 23.7196 241.758 25.7512 242.235C27.2929 242.506 28.8807 242.221 30.232 241.431C31.5832 240.64 32.6103 239.396 33.1305 237.92C33.5981 236.269 33.6564 234.53 33.3004 232.851C33.015 231.078 32.4986 229.311 32.1249 227.816C29.8146 221.687 27.5066 215.558 25.2008 209.429L18.2768 191.042" stroke="black" stroke-width="2.03848" stroke-miterlimit="10" stroke-linecap="round"/>
<path d="M31.9278 227.327C32.8786 230.17 34.4341 232.773 36.4872 234.957C38.2539 236.71 40.1701 237.6 41.9571 237.41C42.7581 237.313 43.5245 237.027 44.1927 236.574C44.6445 236.275 45.0616 235.927 45.4361 235.535C47.4746 233.496 48.1541 230.527 48.2832 227.544C48.2895 224.779 48.0048 222.021 47.4338 219.315C46.0409 211.841 44.1859 204.366 42.358 197.687C40.5302 191.008 38.7295 185.225 37.4385 181.203" stroke="black" stroke-width="2.03848" stroke-miterlimit="10" stroke-linecap="round"/>
<path d="M48.5618 224.65C49.1468 226.14 49.921 227.549 50.8653 228.842C52.3058 230.799 54.4258 232.756 57.2525 233.041C57.6426 233.088 58.036 233.099 58.4281 233.075C59.0073 233.045 59.5771 232.916 60.1132 232.695C61.7508 232.015 63.0078 230.453 63.7757 228.305C64.6038 225.758 64.8522 223.058 64.5027 220.403C62.8583 211.646 61.2162 202.883 59.5764 194.113C57.9365 185.343 56.2944 176.58 54.6501 167.824" stroke="black" stroke-width="2.03848" stroke-miterlimit="10" stroke-linecap="round"/>
<path d="M84.0382 191.756C77.2976 191.355 70.5774 190.797 63.864 190.172C57.1506 189.547 50.4372 188.813 43.7238 188.134C40.7476 187.835 35.9708 186.931 31.7172 187.169C27.4635 187.407 23.7399 188.786 22.8837 193.04C22.1295 196.723 23.7671 198.972 26.2404 200.514C28.7138 202.057 32.0229 202.926 34.5914 203.823C38.9538 205.352 42.2357 206.501 44.5392 207.404C46.8427 208.308 48.1745 208.96 48.6162 209.49C50.6547 211.767 50.7498 214.328 50.512 217.597C50.2741 220.865 49.649 224.847 50.145 229.963C50.4443 233.008 51.0918 236.008 52.0748 238.906C53.4394 242.902 55.312 246.707 57.6466 250.226" fill="#FFC0C0"/>
<path d="M84.0382 191.756C77.2976 191.355 70.5774 190.797 63.864 190.172C57.1506 189.547 50.4372 188.813 43.7238 188.134C40.7476 187.835 35.9708 186.931 31.7172 187.169C27.4635 187.407 23.7399 188.786 22.8837 193.04C22.1295 196.723 23.7671 198.972 26.2404 200.514C28.7138 202.057 32.0229 202.926 34.5914 203.823C38.9538 205.352 42.2357 206.501 44.5392 207.404C46.8427 208.308 48.1745 208.96 48.6162 209.49C50.6547 211.767 50.7498 214.328 50.512 217.597C50.2741 220.865 49.649 224.847 50.145 229.963C50.4443 233.008 51.0918 236.008 52.0748 238.906C53.4394 242.902 55.312 246.707 57.6466 250.226" stroke="black" stroke-width="2.03848" stroke-miterlimit="10" stroke-linecap="round"/>
<path d="M115.254 2C114.806 2 114.357 1.99999 113.895 2.04756C113.433 2.09512 113.005 2.12231 112.536 2.18347C111.877 2.28805 111.224 2.4264 110.579 2.59796C109.066 2.99339 107.596 3.53736 106.19 4.22195C103.136 5.90683 100.18 7.76252 97.3359 9.7802C93.0959 12.6477 87.7415 16.4664 81.7076 21.0462C81.1187 16.9436 79.1683 13.1578 76.1697 10.2966C73.1082 7.21389 68.9625 5.45072 64.6183 5.38388C62.3058 5.42048 60.0241 5.92042 57.9081 6.8541C55.7921 7.78779 53.8849 9.13627 52.2991 10.8198C49.1326 14.0882 47.1553 18.4302 47.1553 22.7178C47.1829 26.5687 48.7285 30.2532 51.4565 32.9713C54.321 35.8331 58.0683 37.6432 62.0906 38.1083C63.2198 44.6354 66.545 50.5808 71.5152 54.9597C76.1425 58.9484 81.8707 61.0752 87.5512 60.7558C93.3745 60.4025 97.9339 57.4875 101.107 54.5385C103.151 52.6533 104.92 50.4893 106.36 48.1104C109.497 48.6675 112.729 48.3007 115.661 47.0545C118.594 45.8083 121.101 43.7365 122.878 41.0913C123.674 39.9206 124.318 38.6533 124.794 37.3201C126.301 37.2972 127.798 37.0849 129.252 36.6882C132.012 35.9583 134.549 34.557 136.637 32.6092C138.725 30.6613 140.298 28.2273 141.218 25.5241C141.787 23.9308 142.133 22.2659 142.244 20.5774C145.435 20.6998 148.612 20.0908 151.532 18.7971C156.248 16.6567 161.106 12.0021 161.725 2H115.254Z" fill="#D1B7E5" stroke="black" stroke-width="2.03848" stroke-miterlimit="10" stroke-linecap="round"/>
<path d="M60.1336 18.9465C60.1336 19.4872 59.9188 20.0057 59.5366 20.3879C59.1543 20.7702 58.6358 20.985 58.0951 20.985C57.5545 20.985 57.036 20.7702 56.6537 20.3879C56.2714 20.0057 56.0566 19.4872 56.0566 18.9465C56.056 18.6761 56.1091 18.4083 56.2129 18.1587C56.3168 17.9091 56.4692 17.6826 56.6614 17.4924C56.8521 17.3014 57.0789 17.1502 57.3285 17.0476C57.5781 16.9449 57.8456 16.8929 58.1155 16.8944C58.3854 16.8929 58.6529 16.9449 58.9025 17.0476C59.1522 17.1502 59.3789 17.3014 59.5696 17.4924C59.9392 17.8856 60.1414 18.407 60.1336 18.9465Z" fill="black"/>
<path d="M142.25 20.5771H127.689H113.134" stroke="black" stroke-width="2.03848" stroke-miterlimit="10" stroke-linecap="round"/>
<path d="M124.801 37.3197H116.138H107.467" stroke="black" stroke-width="2.03848" stroke-miterlimit="10" stroke-linecap="round"/>
<path d="M104.015 51.7251L117.374 56.5563L130.726 61.3943" fill="#D1B7E5"/>
<path d="M104.015 51.7251L117.374 56.5563L130.726 61.3943" stroke="black" stroke-width="2.03848" stroke-miterlimit="10" stroke-linecap="round"/>
<path d="M402.578 465.306C394.456 461.569 386.193 457.58 377.79 453.34C369.387 449.1 360.866 444.586 352.228 439.798C348.567 437.764 344.962 435.725 341.41 433.682C337.859 431.639 334.361 429.585 330.919 427.519C333.12 413.39 335.324 399.266 337.53 385.146C339.736 371.026 341.94 356.902 344.142 342.773L381.949 355.432L419.756 368.097" stroke="black" stroke-width="2.03848" stroke-miterlimit="10" stroke-linecap="round"/>
<path d="M325.32 149.402L307.096 141.676L288.872 133.95C287.088 138.981 285.973 144.224 285.556 149.545C284.617 161.028 287.446 172.504 293.614 182.235C295.354 184.979 297.332 187.565 299.526 189.961C303.086 187.378 306.374 184.439 309.338 181.189C314.965 174.987 319.379 167.784 322.35 159.955C323.638 156.528 324.632 152.998 325.32 149.402Z" fill="black" stroke="black" stroke-width="2.03848" stroke-miterlimit="10" stroke-linecap="round"/>
<path d="M289.959 175.366C289.374 174.007 288.96 172.933 288.661 172.043C288.362 171.153 288.185 170.48 288.063 170.005C287.975 169.651 287.9 169.325 287.839 169.026C287.778 168.727 287.73 168.482 287.689 168.265L288.077 168.605L288.559 168.992C288.559 168.992 288.722 169.121 288.98 169.298C289.239 169.475 289.592 169.719 289.952 169.937C291.94 171.13 294.187 171.825 296.501 171.962C298.816 172.099 301.129 171.675 303.244 170.725C305.359 169.775 307.213 168.328 308.647 166.506C310.082 164.685 311.055 162.544 311.483 160.265C311.912 157.987 311.782 155.638 311.107 153.42C310.431 151.202 309.23 149.181 307.604 147.528C305.978 145.875 303.977 144.639 301.77 143.927C299.564 143.214 297.218 143.046 294.933 143.436C291.534 144.028 288.442 145.77 286.174 148.369C286.174 147.275 286.215 146.059 286.337 144.748C286.464 143.327 286.668 141.913 286.949 140.514C287.2 139.237 287.506 138.034 287.839 136.934C288.172 135.833 288.518 134.82 288.872 133.91L257.771 120.721L226.671 107.532C225.892 108.556 225.131 109.613 224.388 110.705C223.645 111.797 222.938 112.916 222.268 114.062C213.767 128.487 211.396 144.68 214.426 159.207C217.457 173.735 225.91 186.598 239.044 194.337C248.273 199.755 258.962 202.158 269.622 201.214C280.432 200.24 290.77 196.33 299.519 189.907C298.146 188.392 296.856 186.804 295.653 185.15C294.579 183.676 293.703 182.337 293.003 181.182C292.616 180.543 292.133 179.721 291.61 178.736C291.087 177.751 290.523 176.657 289.959 175.366Z" fill="#FFC0C0" stroke="black" stroke-width="2.03848" stroke-miterlimit="10" stroke-linecap="round"/>
<path d="M280.33 167.042C279.426 168.576 278.017 169.749 276.345 170.361C274.672 170.973 272.839 170.987 271.158 170.399C269.477 169.811 268.051 168.658 267.124 167.137C266.198 165.616 265.827 163.821 266.075 162.058C266.324 160.294 267.176 158.671 268.487 157.465C269.798 156.26 271.486 155.546 273.264 155.445C275.042 155.345 276.8 155.864 278.239 156.914C279.677 157.964 280.707 159.481 281.153 161.205C281.406 162.184 281.463 163.204 281.322 164.205C281.181 165.207 280.844 166.171 280.33 167.042Z" fill="#EF3F3F" stroke="black" stroke-width="2.03848" stroke-miterlimit="10" stroke-linecap="round"/>
<path d="M231.074 166.865C230.175 168.403 228.77 169.581 227.1 170.199C225.429 170.817 223.596 170.837 221.913 170.255C220.229 169.673 218.8 168.525 217.868 167.008C216.936 165.49 216.559 163.696 216.801 161.931C217.044 160.167 217.89 158.541 219.197 157.33C220.504 156.12 222.19 155.401 223.968 155.294C225.746 155.188 227.506 155.701 228.948 156.747C230.39 157.792 231.424 159.305 231.876 161.028C232.392 163.004 232.104 165.103 231.074 166.865Z" fill="#EF3F3F" stroke="black" stroke-width="2.03848" stroke-miterlimit="10" stroke-linecap="round"/>
<path d="M231.583 145.061C231.383 145.425 231.112 145.745 230.785 146.002C230.459 146.259 230.084 146.448 229.684 146.558C229.283 146.668 228.864 146.696 228.452 146.641C228.04 146.586 227.644 146.449 227.286 146.238C226.928 146.027 226.616 145.746 226.368 145.413C226.121 145.079 225.943 144.699 225.845 144.295C225.747 143.891 225.731 143.472 225.798 143.062C225.866 142.652 226.014 142.259 226.236 141.908C226.655 141.199 227.338 140.685 228.135 140.478C228.932 140.272 229.779 140.39 230.489 140.807C231.197 141.229 231.709 141.912 231.916 142.709C232.018 143.104 232.041 143.515 231.984 143.918C231.927 144.322 231.791 144.71 231.583 145.061Z" fill="black"/>
<path d="M263.812 149.199C263.611 149.563 263.34 149.883 263.014 150.14C262.687 150.397 262.313 150.587 261.912 150.696C261.511 150.806 261.093 150.834 260.681 150.78C260.269 150.725 259.872 150.588 259.514 150.376C259.156 150.165 258.844 149.885 258.597 149.551C258.349 149.217 258.171 148.837 258.073 148.433C257.976 148.029 257.96 147.61 258.027 147.2C258.094 146.79 258.243 146.397 258.464 146.046C258.883 145.339 259.565 144.826 260.361 144.62C261.156 144.414 262.001 144.531 262.711 144.945C263.063 145.152 263.37 145.426 263.616 145.752C263.862 146.078 264.041 146.449 264.143 146.844C264.245 147.239 264.269 147.65 264.212 148.054C264.155 148.458 264.019 148.847 263.812 149.199Z" fill="black"/>
<path d="M235.212 127.122C238.166 126.874 241.134 126.838 244.093 127.013C253.27 127.562 262.205 130.172 270.233 134.65" stroke="black" stroke-width="2.03848" stroke-miterlimit="10" stroke-linecap="round"/>
<path d="M244.242 127.958L241.572 142.438L238.895 156.911L240.967 157.122L243.033 157.339" stroke="black" stroke-width="2.03848" stroke-miterlimit="10" stroke-linecap="round"/>
<path d="M300.634 89.9131C288.539 82.7852 274.589 81.2359 261.393 84.4771C247.516 87.9764 235.259 96.1314 226.671 107.58L275.995 128.481L325.32 149.396C327.625 137.969 326.57 126.119 322.282 115.279C318.07 104.662 310.456 95.7415 300.634 89.9131Z" fill="#F9851C" stroke="black" stroke-width="2.03848" stroke-miterlimit="10" stroke-linecap="round"/>
<path d="M290.951 159.385L296.733 158.447L302.516 157.509" stroke="black" stroke-width="2.03848" stroke-miterlimit="10" stroke-linecap="round"/>
<path d="M245.404 115.51C243.445 120.88 239.915 125.537 235.273 128.875C230.874 132.071 225.55 133.741 220.114 133.632C218.082 133.568 216.067 133.239 214.12 132.653C212.381 132.119 210.704 131.399 209.119 130.506C205.091 128.244 201.777 124.899 199.552 120.85C197.952 117.956 197.016 114.741 196.813 111.439C196.609 108.138 197.143 104.833 198.377 101.763C199.139 99.8793 200.169 98.1148 201.434 96.5246C204.245 93.0673 207.962 90.4605 212.17 88.9958C216.41 87.5349 221.004 87.3922 225.196 89.3967C227.675 90.6244 229.8 92.4622 231.373 94.7375C232.416 96.2203 233.265 97.8301 233.901 99.5279C233.126 100.248 232.331 101.03 231.529 101.859C230.727 102.688 229.919 103.585 229.103 104.536C228.662 105.045 228.24 105.562 227.839 106.065C227.439 106.567 227.051 107.07 226.678 107.566L236.048 111.535L245.404 115.51Z" fill="black" stroke="black" stroke-width="2.03848" stroke-miterlimit="10" stroke-linecap="round"/>
<path d="M240.566 94.0442L283.442 113.355L326.325 132.66" stroke="black" stroke-width="2.03848" stroke-miterlimit="10" stroke-linecap="round"/>
<path d="M253.538 99.8876L249.033 107.511L244.535 115.142" stroke="black" stroke-width="2.03848" stroke-miterlimit="10" stroke-linecap="round"/>
<path d="M270.416 107.627L266.163 114.837L261.909 122.046" stroke="black" stroke-width="2.03848" stroke-miterlimit="10" stroke-linecap="round"/>
<path d="M290.992 117.133L286.813 124.22L282.641 131.3" stroke="black" stroke-width="2.03848" stroke-miterlimit="10" stroke-linecap="round"/>
<path d="M312.083 126.599L308.128 133.305L304.18 140.005" stroke="black" stroke-width="2.03848" stroke-miterlimit="10" stroke-linecap="round"/>
<path d="M238.671 168.061C240.025 169.542 241.731 170.657 243.631 171.302C246.729 172.321 251.105 172.131 256.038 167.3" stroke="black" stroke-width="2.03848" stroke-miterlimit="10" stroke-linecap="round"/>
<path d="M380.297 298.755L385.516 328.136C387.246 337.935 388.984 347.731 390.728 357.524C390.734 357.535 390.737 357.546 390.737 357.558C390.737 357.57 390.734 357.582 390.728 357.592C390.716 357.599 390.703 357.602 390.69 357.602C390.677 357.602 390.664 357.599 390.653 357.592L377.471 353.393L364.323 349.194C364.303 349.188 364.287 349.174 364.277 349.157C364.267 349.139 364.264 349.118 364.268 349.099L372.211 323.91C374.857 315.52 377.502 307.124 380.148 298.721C380.155 298.705 380.166 298.691 380.18 298.681C380.195 298.672 380.212 298.667 380.229 298.667C380.25 298.67 380.268 298.681 380.281 298.697C380.294 298.714 380.299 298.734 380.297 298.755Z" fill="black" stroke="black" stroke-width="2.03848" stroke-miterlimit="10" stroke-linecap="round"/>
</svg>
