<svg width="546" height="409" viewBox="0 0 546 409" fill="none" xmlns="http://www.w3.org/2000/svg">
<path d="M220.939 407.821C237.886 407.277 253.188 406.951 266.465 406.754C279.742 406.557 291.002 406.503 299.842 406.489C350.403 406.428 388.326 406.374 414.038 406.367C439.75 406.36 453.251 406.367 454.97 406.489C466.929 407.169 474.397 407.4 480.179 407.101C485.31 406.851 490.391 405.982 495.312 404.512C517.586 398.322 529.579 380.927 536.156 360.304C542.734 339.681 543.902 315.831 544.521 296.744C544.67 292.056 544.901 284.88 544.894 276.495C544.888 268.11 544.623 258.523 543.8 249.01C542.244 231.098 540.308 208.818 534.342 186.884C528.376 164.95 518.374 143.396 500.7 126.891C488.272 115.306 474.744 108.742 457.756 104.386C440.769 100.031 420.302 97.8767 394.02 95.1112C370.87 92.6128 347.506 92.8797 324.419 95.9062C311.572 97.5814 298.884 100.309 286.483 104.06C280.728 105.82 275.366 107.458 270.005 109.462C264.324 111.563 258.815 114.103 253.528 117.059C232.538 128.814 217.813 145.475 207.512 161.905C197.211 178.336 191.347 194.46 188.065 205.196L182.289 229.23L176.521 253.27L152.263 223.461L128.045 193.679L91.3528 226.369L54.6601 259.053L57.3781 262.532C58.241 263.619 59.036 264.638 59.7699 265.569L60.9182 267.043C61.5977 267.906 62.4811 269.041 63.3033 270.101C66.0212 273.594 80.2906 294.692 97.0129 317.727C113.735 340.762 132.775 365.733 145.067 376.986C145.95 377.794 147.139 378.847 148.641 380.003C150.371 381.335 152.187 382.551 154.077 383.645C156.418 384.969 158.86 386.105 161.381 387.042C166.778 389.187 172.521 390.329 178.328 390.412C188.773 390.298 198.871 386.648 206.975 380.057C215.523 373.112 221.606 363.598 224.323 352.925C223.761 362.071 223.199 371.219 222.638 380.369L220.939 407.821Z" fill="#B00808" stroke="black" stroke-width="2.03848" stroke-miterlimit="10" stroke-linecap="round"/>
<path d="M322.693 169.298L311.264 287.897L299.849 406.489H340.55H381.245L351.966 287.897L322.693 169.298Z" fill="#FFF8F8" stroke="black" stroke-width="2.03848" stroke-miterlimit="10" stroke-linecap="round"/>
<path d="M308.329 142.608L315.504 155.953L322.693 169.298L327.511 154.254L332.328 139.21L320.329 140.909L308.329 142.608Z" fill="#FFF8F8" stroke="black" stroke-width="2.03848" stroke-miterlimit="10" stroke-linecap="round"/>
<path d="M176.5 253.236L186.53 266.201L196.559 279.165C196.625 279.252 196.72 279.312 196.827 279.334C196.933 279.356 197.045 279.339 197.14 279.287C197.235 279.234 197.309 279.149 197.347 279.047C197.385 278.945 197.385 278.833 197.347 278.731C194.629 271.36 191.929 263.988 189.247 256.613C186.566 249.238 183.866 241.868 181.148 234.502L178.824 243.866L176.5 253.236Z" fill="black" stroke="black" stroke-width="2.03848" stroke-miterlimit="10" stroke-linecap="round"/>
<path d="M230.996 250.049C229.895 267.834 228.796 285.614 227.7 303.39C226.604 321.165 225.505 338.945 224.404 356.73" stroke="black" stroke-width="2.03848" stroke-miterlimit="10" stroke-linecap="round"/>
<path d="M286.463 104.053L277.147 107.016L273.96 108.035C273.96 108.035 273.043 121.163 271.711 140.27C270.379 159.377 268.619 184.471 266.954 208.41L294.814 188.854L322.673 169.298L304.564 136.682L286.463 104.053Z" fill="#B00808" stroke="black" stroke-width="2.03848" stroke-miterlimit="10" stroke-linecap="round"/>
<path d="M349.132 93.7115L335.909 131.525C331.506 144.123 327.099 156.721 322.686 169.319L356.906 187.244L391.125 205.176C389.318 198.51 381.734 170.521 374.593 144.218L360.772 93.2562L355.037 93.4873L349.132 93.7115Z" fill="#B00808" stroke="black" stroke-width="2.03848" stroke-miterlimit="10" stroke-linecap="round"/>
<path d="M360.677 54.6063L341.495 59.4987L322.313 64.3911C323.937 69.4696 326.222 74.3128 329.108 78.7963C335.318 88.5001 344.52 95.9163 355.322 99.9218C358.369 101.051 361.509 101.911 364.706 102.49C365.966 98.2818 366.795 93.9561 367.18 89.5799C367.902 81.2376 367.051 72.8339 364.672 64.8055C363.625 61.301 362.289 57.8895 360.677 54.6063Z" fill="black" stroke="black" stroke-width="2.03848" stroke-miterlimit="10" stroke-linecap="round"/>
<path d="M348.269 96.6942C346.999 96.0147 346 95.3352 345.225 94.8324C344.451 94.3296 343.866 93.8811 343.513 93.5753L342.745 92.9366L342.161 92.4202L342.684 92.4542H343.296H343.819C344.138 92.4542 344.559 92.4202 344.981 92.3658C347.295 92.1244 349.516 91.325 351.453 90.0362C353.39 88.7475 354.986 87.0078 356.102 84.9667C357.219 82.9255 357.824 80.6438 357.865 78.3175C357.906 75.9911 357.381 73.6896 356.337 71.6106C355.292 69.5315 353.759 67.737 351.868 66.3811C349.977 65.0252 347.785 64.1484 345.481 63.826C343.177 63.5036 340.829 63.7452 338.639 64.53C336.448 65.3149 334.481 66.6196 332.906 68.3321C330.559 70.86 329.153 74.118 328.924 77.5597C328.245 76.6899 327.565 75.6979 326.886 74.5835C326.127 73.3756 325.433 72.1281 324.807 70.8463C324.236 69.6708 323.753 68.5292 323.346 67.4488C322.938 66.3684 322.612 65.3492 322.34 64.4115L289.602 72.7557L256.871 81.0998C256.871 82.3977 256.905 83.7023 256.979 85.0137C257.054 86.3251 257.163 87.6433 257.319 88.9684C259.29 105.596 267.213 119.919 278.431 129.636C289.65 139.353 304.15 144.476 319.296 142.682C329.936 141.406 339.913 136.84 347.835 129.622C355.848 122.299 361.705 112.923 364.774 102.511C362.769 102.137 360.785 101.661 358.829 101.084C357.076 100.561 355.567 100.024 354.317 99.5277C353.637 99.2559 352.734 98.889 351.721 98.4269C350.709 97.9649 349.499 97.3669 348.269 96.6942Z" fill="#FFC0C0" stroke="black" stroke-width="2.03848" stroke-miterlimit="10" stroke-linecap="round"/>
<path d="M335.556 95.8924C335.765 97.6611 335.354 99.4475 334.394 100.947C333.434 102.447 331.983 103.568 330.289 104.118C328.595 104.668 326.763 104.614 325.105 103.965C323.446 103.316 322.064 102.112 321.194 100.558C320.323 99.0043 320.019 97.1967 320.332 95.4435C320.645 93.6902 321.556 92.0996 322.91 90.9427C324.264 89.7859 325.977 89.1342 327.758 89.0988C329.538 89.0634 331.276 89.6465 332.675 90.7486C333.471 91.3731 334.136 92.1493 334.63 93.0322C335.125 93.9151 335.44 94.8872 335.556 95.8924Z" fill="#EF3F3F" stroke="black" stroke-width="2.03848" stroke-miterlimit="10" stroke-linecap="round"/>
<path d="M296.261 125.586C296.47 127.355 296.059 129.141 295.099 130.641C294.139 132.141 292.688 133.262 290.994 133.812C289.3 134.362 287.468 134.308 285.809 133.659C284.151 133.01 282.769 131.806 281.899 130.252C281.028 128.698 280.724 126.891 281.036 125.137C281.349 123.384 282.26 121.794 283.615 120.637C284.969 119.48 286.682 118.828 288.462 118.793C290.243 118.757 291.981 119.34 293.38 120.443C294.175 121.068 294.839 121.845 295.333 122.727C295.828 123.61 296.143 124.582 296.261 125.586Z" fill="#EF3F3F" stroke="black" stroke-width="2.03848" stroke-miterlimit="10" stroke-linecap="round"/>
<path d="M283.459 107.926C283.523 108.339 283.504 108.759 283.402 109.164C283.3 109.569 283.117 109.948 282.865 110.281C282.613 110.613 282.296 110.891 281.934 111.099C281.572 111.306 281.172 111.438 280.758 111.488C280.344 111.537 279.924 111.502 279.523 111.386C279.123 111.269 278.75 111.073 278.427 110.809C278.103 110.545 277.837 110.219 277.643 109.85C277.448 109.481 277.331 109.076 277.296 108.66C277.232 108.248 277.251 107.827 277.354 107.422C277.456 107.018 277.638 106.638 277.89 106.306C278.142 105.973 278.459 105.695 278.821 105.488C279.183 105.28 279.583 105.148 279.997 105.099C280.412 105.049 280.832 105.084 281.232 105.201C281.633 105.317 282.006 105.513 282.329 105.777C282.652 106.041 282.919 106.367 283.113 106.737C283.307 107.106 283.425 107.51 283.459 107.926Z" fill="black"/>
<path d="M311.611 91.7001C311.683 92.3099 311.573 92.9274 311.294 93.4746C311.015 94.0218 310.581 94.4741 310.045 94.7743C309.51 95.0745 308.897 95.2092 308.285 95.1613C307.673 95.1134 307.088 94.8851 306.606 94.5052C306.123 94.1254 305.764 93.611 305.574 93.0271C305.384 92.4432 305.371 91.8161 305.538 91.225C305.704 90.6338 306.041 90.1053 306.508 89.706C306.975 89.3068 307.549 89.0549 308.159 88.9821C308.564 88.9337 308.975 88.9657 309.367 89.0761C309.76 89.1866 310.127 89.3733 310.448 89.6257C310.769 89.8782 311.036 90.1913 311.236 90.5472C311.435 90.9031 311.563 91.2949 311.611 91.7001Z" fill="black"/>
<path d="M275.496 91.435C277.696 89.4589 280.035 87.6423 282.494 85.9991C290.13 80.8784 298.82 77.5433 307.921 76.2416" stroke="black" stroke-width="2.03848" stroke-miterlimit="10" stroke-linecap="round"/>
<path d="M283.174 86.6514L289.813 99.7928L296.458 112.927L298.232 111.84L300.005 110.76" stroke="black" stroke-width="2.03848" stroke-miterlimit="10" stroke-linecap="round"/>
<path d="M304.992 22.2218C291.056 23.8797 279.015 31.096 270.461 41.6485C261.555 52.8435 256.758 66.7543 256.871 81.0591L308.791 67.8362L360.711 54.6064C355.621 44.1137 347.595 35.3235 337.608 29.3021C327.82 23.397 316.348 20.9068 304.992 22.2218Z" fill="#F9851C" stroke="black" stroke-width="2.03848" stroke-miterlimit="10" stroke-linecap="round"/>
<path d="M339.375 83.3625L343.404 79.1157L347.44 74.8621" stroke="black" stroke-width="2.03848" stroke-miterlimit="10" stroke-linecap="round"/>
<path d="M276.556 76.0446C278.247 81.5023 278.261 87.3419 276.596 92.8077C275.028 98.0143 271.796 102.563 267.396 105.759C265.745 106.942 263.944 107.902 262.042 108.613C255.957 110.858 249.239 110.656 243.301 108.049C240.274 106.714 237.582 104.722 235.42 102.218C233.259 99.7132 231.682 96.7587 230.805 93.5688C230.269 91.6106 230.02 89.585 230.065 87.5553C230.22 83.1247 231.598 78.8234 234.046 75.1273C236.54 71.3901 240.162 68.4751 244.653 67.551C247.371 67.0283 250.176 67.2037 252.807 68.0606C254.535 68.6096 256.186 69.3768 257.72 70.3437C257.543 71.3833 257.38 72.4841 257.244 73.6324C257.108 74.7808 257.007 75.9835 256.932 77.2337C256.898 77.9132 256.871 78.5927 256.857 79.2179C256.843 79.843 256.857 80.4953 256.857 81.1069L266.716 78.5927L276.556 76.0446Z" fill="black" stroke="black" stroke-width="2.03848" stroke-miterlimit="10" stroke-linecap="round"/>
<path d="M259.704 61.8974L305.516 51.2837L351.334 40.67" stroke="black" stroke-width="2.03848" stroke-miterlimit="10" stroke-linecap="round"/>
<path d="M273.559 58.6903L274.605 67.483L275.645 76.2756" stroke="black" stroke-width="2.03848" stroke-miterlimit="10" stroke-linecap="round"/>
<path d="M291.681 54.6199L292.666 62.9369L293.652 71.2471" stroke="black" stroke-width="2.03848" stroke-miterlimit="10" stroke-linecap="round"/>
<path d="M313.812 49.7208L314.777 57.8884L315.749 66.0559" stroke="black" stroke-width="2.03848" stroke-miterlimit="10" stroke-linecap="round"/>
<path d="M336.331 44.4819L337.241 52.2078L338.158 59.9336" stroke="black" stroke-width="2.03848" stroke-miterlimit="10" stroke-linecap="round"/>
<path d="M320.73 107.559C320.547 107.312 320.314 107.105 320.046 106.954C319.777 106.803 319.48 106.711 319.174 106.683C318.869 106.652 318.562 106.687 318.272 106.785C317.982 106.884 317.717 107.043 317.495 107.254L313.805 110.706C312.582 111.861 311.355 113.011 310.123 114.157C309.456 116.821 309.283 119.585 309.613 122.311C309.84 124.407 310.296 126.471 310.972 128.468C312.759 128.48 314.53 128.138 316.184 127.462C317.813 126.797 319.27 125.77 320.444 124.459C322.386 122.202 323.462 119.329 323.481 116.352C323.544 113.2 322.578 110.113 320.73 107.559Z" fill="#EF3F3F" stroke="black" stroke-width="2.03848" stroke-miterlimit="10" stroke-linecap="round"/>
<path d="M301.887 121.883C301.663 122.096 301.487 122.354 301.37 122.639C301.253 122.925 301.198 123.232 301.208 123.541C301.212 123.851 301.282 124.156 301.415 124.437C301.547 124.717 301.739 124.965 301.976 125.165C304.508 127.297 307.709 128.471 311.02 128.481C310.343 126.485 309.887 124.42 309.661 122.325C309.331 119.599 309.503 116.835 310.17 114.171L306.052 118.037L301.887 121.883Z" fill="black" stroke="black" stroke-width="2.03848" stroke-miterlimit="10" stroke-linecap="round"/>
<path d="M294.888 263.041C294.88 263.899 294.574 264.727 294.023 265.384C293.472 266.041 292.711 266.487 291.868 266.645C291.025 266.803 290.153 266.664 289.402 266.251C288.65 265.838 288.065 265.177 287.747 264.38C287.428 263.584 287.396 262.702 287.655 261.885C287.915 261.067 288.45 260.365 289.169 259.899C289.889 259.432 290.748 259.229 291.6 259.325C292.452 259.421 293.244 259.81 293.842 260.425C294.524 261.124 294.9 262.065 294.888 263.041Z" fill="black" stroke="black" stroke-width="2.03848" stroke-miterlimit="10" stroke-linecap="round"/>
<path d="M288.759 334.062C288.76 334.671 288.611 335.271 288.324 335.809C288.037 336.347 287.622 336.806 287.116 337.145C286.61 337.483 286.027 337.692 285.421 337.752C284.815 337.812 284.203 337.722 283.64 337.489C283.077 337.256 282.58 336.887 282.193 336.416C281.807 335.945 281.542 335.386 281.424 334.788C281.305 334.19 281.336 333.573 281.513 332.99C281.69 332.407 282.009 331.876 282.44 331.446C282.958 330.929 283.617 330.577 284.335 330.435C285.053 330.292 285.797 330.366 286.473 330.645C287.149 330.925 287.727 331.399 288.134 332.007C288.541 332.615 288.758 333.33 288.759 334.062Z" fill="black" stroke="black" stroke-width="2.03848" stroke-miterlimit="10" stroke-linecap="round"/>
<path d="M454.97 406.489C430.869 404.253 408.33 360.963 391.777 318.155C375.225 275.347 364.801 233.177 364.801 233.177L409.886 211.624L454.97 190.077L474.676 237.22L494.381 284.357" stroke="black" stroke-width="2.03848" stroke-miterlimit="10" stroke-linecap="round"/>
<path d="M392.735 162.857L370.625 160.356L348.487 157.855C347.634 157.759 346.808 157.496 346.057 157.08C345.305 156.665 344.643 156.105 344.108 155.434C343.573 154.763 343.176 153.993 342.938 153.168C342.701 152.342 342.628 151.479 342.725 150.626L347.991 103.992L353.257 57.3584C353.453 55.6357 354.324 54.0612 355.68 52.9798C357.035 51.8984 358.763 51.3985 360.487 51.5895L382.604 54.0628L404.735 56.5634C405.588 56.6597 406.414 56.9231 407.165 57.3385C407.917 57.754 408.579 58.3134 409.114 58.9848C409.649 59.6561 410.047 60.4263 410.284 61.2513C410.521 62.0764 410.594 62.9401 410.497 63.7932L405.231 110.461L399.965 157.101C399.869 157.954 399.606 158.78 399.19 159.531C398.775 160.283 398.215 160.945 397.544 161.48C396.873 162.015 396.102 162.412 395.277 162.65C394.452 162.887 393.589 162.96 392.735 162.863V162.857Z" fill="#D1B7E5" stroke="black" stroke-width="2.03848" stroke-miterlimit="10" stroke-linecap="round"/>
<path d="M400.237 74.1352C400.242 75.1862 399.882 76.2063 399.22 77.0221C398.557 77.8378 397.633 78.3988 396.603 78.6096C395.573 78.8204 394.503 78.668 393.573 78.1782C392.643 77.6884 391.912 76.8916 391.503 75.9234C391.095 74.9551 391.034 73.8752 391.332 72.8674C391.63 71.8596 392.268 70.9861 393.137 70.3957C394.007 69.8052 395.054 69.5342 396.1 69.6288C397.147 69.7234 398.129 70.1777 398.878 70.9144C399.306 71.335 399.646 71.8362 399.88 72.389C400.113 72.9418 400.234 73.5353 400.237 74.1352Z" fill="black" stroke="black" stroke-width="2.03848" stroke-miterlimit="10" stroke-linecap="round"/>
<path d="M398.572 90.5584C398.579 91.6129 398.219 92.637 397.555 93.4562C396.891 94.2754 395.963 94.8391 394.93 95.0512C393.897 95.2634 392.823 95.1109 391.889 94.6198C390.956 94.1286 390.222 93.3291 389.812 92.3575C389.402 91.3859 389.342 90.3022 389.641 89.2911C389.94 88.2799 390.581 87.4037 391.454 86.8117C392.326 86.2198 393.377 85.9486 394.428 86.0445C395.478 86.1404 396.462 86.5974 397.213 87.3376C397.641 87.7587 397.981 88.2599 398.214 88.8126C398.447 89.3653 398.569 89.9585 398.572 90.5584Z" fill="black" stroke="black" stroke-width="2.03848" stroke-miterlimit="10" stroke-linecap="round"/>
<path d="M410.987 73.5441C411.416 73.0492 411.92 72.6249 412.482 72.287C413.031 71.9589 413.641 71.7441 414.275 71.6551C414.603 71.621 414.933 71.621 415.261 71.6551C416.053 71.7357 416.824 71.9663 417.53 72.3346C420.928 74.1013 422.701 80.1012 423.605 85.6663C424.161 89.1992 424.479 92.7655 424.556 96.3411C424.632 104.59 425.314 112.823 426.595 120.973C427.804 128.909 429.482 136.961 431.426 146.291C431.426 146.291 431.718 147.65 433.77 154.316C435.822 160.981 439.661 172.893 446.728 194.039C443.303 195.669 439.872 197.307 436.434 198.951L426.119 203.891C417.797 207.896 409.505 211.903 401.243 215.912C392.98 219.921 384.756 223.939 376.57 227.966C365.916 215.055 356.865 203.504 349.812 194.181C342.759 184.859 337.656 177.663 334.904 173.416C333.678 171.434 332.603 169.363 331.69 167.219C330.141 163.584 328.693 158.895 329.128 154.648C329.225 153.688 329.387 152.734 329.611 151.795C329.808 150.966 330.025 150.279 330.202 149.756C329.044 148.591 328.054 147.272 327.259 145.835C325.764 143.22 325.085 140.217 325.309 137.213C325.449 135.521 325.879 133.866 326.58 132.32C327.056 131.273 327.644 130.279 328.333 129.358C327.777 128.491 327.345 127.551 327.049 126.565C326.423 124.586 326.413 122.464 327.02 120.479C327.627 118.494 328.821 116.74 330.446 115.448C331.318 114.718 332.297 114.124 333.348 113.689C332.687 111.967 332.533 110.092 332.906 108.287C333.244 106.582 334.118 105.03 335.4 103.856C336.94 102.514 338.922 101.788 340.965 101.818C343.148 101.826 345.264 102.576 346.965 103.945C347.23 104.155 347.482 104.382 347.719 104.624C347.964 104.869 348.188 105.127 348.398 105.392C350.42 107.793 352.616 110.042 354.969 112.119C357.898 114.702 361.065 117.003 364.428 118.989C371.509 123.134 379.335 125.846 387.463 126.973C392.721 127.717 398.048 127.847 403.336 127.36C404.695 116.536 405.333 110.869 405.687 107.906C406.04 104.943 406.047 104.692 406.047 104.692C406.285 101.036 406.597 97.6253 407.059 93.528C407.521 89.4306 408.112 84.6946 408.914 78.3141C409.018 77.4323 409.247 76.5698 409.594 75.7524C409.94 74.9481 410.41 74.2029 410.987 73.5441Z" fill="#FFC0C0" stroke="black" stroke-width="2.03848" stroke-miterlimit="10" stroke-linecap="round"/>
<path d="M333.327 113.661C336.402 118.023 339.783 122.16 343.445 126.042C349.608 132.599 357.993 139.903 366.853 142.859" stroke="black" stroke-width="2.03848" stroke-miterlimit="10" stroke-linecap="round"/>
<path d="M328.34 129.33C331.458 133.485 334.809 137.46 338.376 141.235C344.294 147.5 352.007 154.397 359.189 156.911" stroke="black" stroke-width="2.03848" stroke-miterlimit="10" stroke-linecap="round"/>
<path d="M330.208 149.729C330.208 149.729 333.653 153.677 338.362 158.229C343.071 162.782 348.956 167.926 353.889 170.324" stroke="black" stroke-width="2.03848" stroke-miterlimit="10" stroke-linecap="round"/>
<path d="M205.657 2H109.59C106.611 2.0036 103.754 3.18884 101.647 5.29575C99.5404 7.40266 98.3552 10.2592 98.3516 13.2388V66.749C98.3516 69.7297 99.5356 72.5883 101.643 74.696C103.751 76.8037 106.61 77.9878 109.59 77.9878H153.323L166.369 91.0273L179.408 104.06L177.105 91.0273L174.801 77.9878H205.657C208.638 77.9878 211.497 76.8037 213.604 74.696C215.712 72.5883 216.896 69.7297 216.896 66.749V13.2388C216.892 10.2592 215.707 7.40266 213.6 5.29575C211.493 3.18884 208.637 2.0036 205.657 2Z" fill="#14AF6C" stroke="black" stroke-width="2.03848" stroke-miterlimit="10" stroke-linecap="round"/>
<path d="M137.089 42.2739C137.091 43.9136 136.524 45.5032 135.485 46.7717C134.446 48.0402 132.999 48.9092 131.391 49.2305C129.783 49.5519 128.114 49.3058 126.667 48.5341C125.22 47.7624 124.086 46.5129 123.457 44.9985C122.828 43.4841 122.744 41.7985 123.219 40.229C123.693 38.6595 124.698 37.3032 126.06 36.3912C127.423 35.4791 129.06 35.0678 130.692 35.2274C132.324 35.3869 133.85 36.1074 135.01 37.266C135.669 37.9228 136.192 38.7032 136.549 39.5626C136.906 40.422 137.09 41.3434 137.089 42.2739Z" fill="#F7CE21" stroke="black" stroke-width="2.03848" stroke-miterlimit="10" stroke-linecap="round"/>
<path d="M192.319 42.2735C192.31 43.9103 191.733 45.4933 190.688 46.7526C189.642 48.0119 188.192 48.8696 186.585 49.1795C184.978 49.4895 183.313 49.2324 181.874 48.4522C180.435 47.6719 179.311 46.4168 178.694 44.9008C178.077 43.3847 178.005 41.7016 178.489 40.1383C178.974 38.575 179.986 37.2282 181.353 36.3275C182.72 35.4269 184.357 35.0281 185.985 35.1991C187.613 35.3702 189.131 36.1005 190.28 37.2656C190.933 37.9255 191.448 38.7074 191.798 39.5667C192.148 40.426 192.325 41.3458 192.319 42.2735Z" fill="#F7CE21" stroke="black" stroke-width="2.03848" stroke-miterlimit="10" stroke-linecap="round"/>
<path d="M164.738 42.2737C164.737 43.9099 164.168 45.4951 163.129 46.7593C162.091 48.0234 160.646 48.8883 159.041 49.2066C157.436 49.525 155.77 49.277 154.327 48.5051C152.885 47.7332 151.754 46.4849 151.129 44.9731C150.503 43.4612 150.421 41.7792 150.896 40.2135C151.371 38.6478 152.375 37.2954 153.735 36.3864C155.096 35.4775 156.729 35.0684 158.358 35.2288C159.986 35.3891 161.508 36.109 162.666 37.2658C163.993 38.5946 164.738 40.3958 164.738 42.2737Z" fill="#F7CE21" stroke="black" stroke-width="2.03848" stroke-miterlimit="10" stroke-linecap="round"/>
<path d="M59.0768 163.094C56.5799 160.635 54.3396 157.928 52.3906 155.015C50.6646 152.481 49.3532 150.191 48.1913 148.431C44.5589 142.947 41.2158 137.277 38.1756 131.443C35.1305 125.615 32.4989 119.58 30.3002 113.383C29.7632 111.742 29.0477 110.165 28.1666 108.68C27.0091 106.607 25.1843 104.986 22.9889 104.08C22.4425 103.877 21.8749 103.735 21.2969 103.659C20.3535 103.53 19.3932 103.621 18.4906 103.924C17.0883 104.429 15.8933 105.385 15.0931 106.642C14.1759 108.073 13.6187 109.705 13.4692 111.398C12.5468 111.57 11.6542 111.875 10.8191 112.302C10.244 112.595 9.70568 112.956 9.21552 113.376C7.52541 114.899 6.41792 116.962 6.08306 119.213C5.66551 121.816 5.89896 124.482 6.76255 126.972C6.3792 127.171 6.01125 127.398 5.66177 127.652C5.34102 127.891 5.0389 128.155 4.75804 128.44C1.42173 131.783 1.61878 137.545 2.71956 142.648C3.52737 146.175 4.69073 149.61 6.19177 152.902L7.30614 155.321C7.67307 156.123 8.0468 156.931 8.41372 157.74C8.08706 157.916 7.77367 158.116 7.47602 158.338C7.09265 158.627 6.73771 158.953 6.41601 159.31C5.2133 160.668 3.94265 163.087 4.58138 168.238C5.2201 173.389 7.775 181.257 14.203 193.481C18.8436 202.231 24.0199 210.687 29.7023 218.799C38.6383 231.55 48.3985 243.702 58.9205 255.179L93.4456 224.419L128.045 193.678C116.589 170.317 106.75 150.238 99.5882 135.616C92.4263 120.993 87.9553 111.82 87.2146 110.243C87.1149 110.029 87.0037 109.82 86.8817 109.618C85.9448 108.02 84.586 106.71 82.9542 105.833C81.857 105.263 80.6168 105.027 79.3868 105.154C78.9887 105.199 78.5967 105.288 78.2181 105.419C77.4834 105.652 76.8022 106.029 76.2136 106.526C74.1751 108.259 73.7199 110.678 73.9169 113.179C74.2251 115.635 74.8156 118.047 75.6768 120.368C78.3399 128.357 80.4045 136.534 81.8534 144.829C83.5318 155.307 83.5453 165.758 78.0618 169.155C77.1181 169.712 76.0618 170.051 74.9701 170.147C73.9008 170.239 72.8255 170.239 71.7561 170.147C69.827 170.015 67.9483 169.473 66.2454 168.557C63.5991 167.1 61.1833 165.259 59.0768 163.094Z" fill="#FFC0C0" stroke="black" stroke-width="2.03848" stroke-miterlimit="10" stroke-linecap="round"/>
<path d="M8.45453 157.767C8.45453 157.767 10.9619 164.61 14.57 172.431C18.1781 180.252 22.7783 189.044 27.0387 192.952" stroke="black" stroke-width="2.03848" stroke-miterlimit="10" stroke-linecap="round"/>
<path d="M6.78302 126.993C6.78302 126.993 12.185 140.44 18.5858 154.288C24.9867 168.136 32.3728 182.358 36.3138 183.914" stroke="black" stroke-width="2.03848" stroke-miterlimit="10" stroke-linecap="round"/>
<path d="M13.476 111.419C13.476 111.419 18.6266 125.641 25.2856 140.637C31.9447 155.634 40.119 171.418 46.1597 174.537" stroke="black" stroke-width="2.03848" stroke-miterlimit="10" stroke-linecap="round"/>
<path d="M381.293 288.842V347.665V406.489H451.056C449.099 406.489 447.088 405.429 445.206 404.09C443.324 402.752 441.571 401.121 440.137 400.014C431.908 393.47 425.134 385.167 419.297 376.177C413.46 367.187 408.561 357.498 404.097 348.195C401.283 342.338 399.014 337.12 396.901 331.887C394.787 326.655 392.824 321.423 390.636 315.539C389.345 312.08 387.918 308.064 386.314 303.627C384.711 299.19 383.053 294.203 381.293 288.842Z" fill="black" stroke="black" stroke-width="2.03848" stroke-miterlimit="10" stroke-linecap="round"/>
</svg>
