<svg width="663" height="422" viewBox="0 0 663 422" fill="none" xmlns="http://www.w3.org/2000/svg">
<path d="M414.324 140.264C410.974 139.584 406.945 138.81 402.324 138.096C397.704 137.383 392.492 136.737 386.791 136.241C378.053 135.501 370.395 135.344 363.994 135.439C357.593 135.535 352.443 135.874 348.746 136.119C328.259 137.478 304.28 141.745 284.554 145.897C264.829 150.049 249.37 154.051 245.925 154.988C242.559 199.16 239.198 243.327 235.842 287.49C232.485 331.652 229.124 375.819 225.758 419.991L342.271 420.426L458.79 420.861C451.379 374.125 443.968 327.376 436.557 280.613C429.146 233.851 421.735 187.067 414.324 140.264Z" fill="#B00808" stroke="black" stroke-width="2.03848" stroke-miterlimit="10" stroke-linecap="round"/>
<path d="M414.324 140.264C416.349 153.777 418.428 167.356 420.562 181C422.695 194.644 424.892 208.354 427.153 222.13C428.648 231.276 430.161 240.385 431.692 249.459C433.223 258.532 434.768 267.572 436.326 276.577C446.016 281.123 454.428 285.098 461.467 288.428C468.507 291.757 474.099 294.441 478.196 296.405C486.962 300.604 493.2 303.621 498.683 305.626C503.794 307.592 509.204 308.665 514.678 308.799C520.779 308.963 526.868 308.186 532.733 306.496C535.793 305.633 538.763 304.474 541.6 303.037C547.472 299.975 552.762 295.907 557.228 291.017C561.176 286.629 564.597 281.795 567.421 276.611C574.845 263.307 582.057 249.896 589.056 236.379C596.055 222.861 602.77 209.197 609.203 195.385C611.853 189.684 614.448 184.071 617.357 178.649C620.235 173.149 623.601 167.919 627.413 163.02C632.848 155.994 637.827 148.627 642.321 140.964C646.921 133.32 651.291 125.519 655.87 117.984C656.925 116.317 657.782 114.534 658.425 112.67C659.313 110.268 659.378 107.638 658.609 105.196C658.285 104.277 657.827 103.411 657.25 102.627C656.788 102.022 656.272 101.46 655.707 100.949C656.923 99.4309 658.018 97.8201 658.982 96.1311C660.389 93.6442 661.646 90.6 661.395 87.9772C661.328 87.2822 661.177 86.5977 660.946 85.9387C660.851 85.6608 660.74 85.3886 660.613 85.1233C660.036 84.0349 659.204 83.1024 658.188 82.4053C657.515 81.9315 656.784 81.5456 656.013 81.257C657.386 79.3199 658.269 77.0795 658.588 74.7271C658.886 72.7626 658.456 70.7571 657.379 69.0873C657.126 68.7174 656.837 68.3737 656.516 68.0612C656.012 67.556 655.408 67.1624 654.742 66.9061C652.969 66.2266 650.74 66.6615 648.45 68.0205C645.763 69.7333 643.485 72.0159 641.778 74.7067C641.676 73.7938 641.447 72.8995 641.098 72.0498C640.521 70.606 639.478 69.396 638.136 68.6116C637.869 68.4583 637.592 68.3243 637.307 68.2107C636.871 68.0402 636.413 67.9304 635.948 67.8845C634.534 67.8121 633.138 68.2271 631.993 69.0601C630.97 69.7686 630.032 70.5941 629.2 71.5198C627.406 73.3681 623.866 77.4926 619.11 83.3227C614.353 89.1527 608.238 96.7155 601.382 105.461C600.342 106.82 597.767 110.176 595.151 113.051C592.535 115.925 589.885 118.31 588.702 117.746C588.376 117.582 588.079 117.364 587.826 117.1C587.705 116.977 587.594 116.846 587.493 116.706C587.184 116.219 586.989 115.669 586.922 115.096C586.851 114.52 586.892 113.936 587.044 113.377L590.102 101.689L593.16 90.0089C593.525 88.6298 593.737 87.2147 593.792 85.7892C593.853 83.6624 593.473 81.2842 591.753 80.0407C591.452 79.8388 591.131 79.6681 590.795 79.5311C590.361 79.3567 589.903 79.2512 589.436 79.2185C587.228 79.0826 584.979 80.924 582.438 84.4574C579.896 87.9908 577.049 93.2093 573.652 99.8276C570.383 106.194 567.937 110.971 566.116 114.722C564.677 117.565 563.433 120.503 562.392 123.515C561.197 127.288 560.24 131.132 559.525 135.025C558.603 140.084 558.085 145.207 557.976 150.348L539.29 177.636L520.597 204.932C515.392 201.878 510.139 198.737 504.839 195.507C499.539 192.277 494.196 188.948 488.81 185.519C478.258 178.805 471.021 173.39 464.104 168.348C456.837 162.896 449.237 157.903 441.347 153.399C435.782 150.26 430.605 147.623 426.025 145.449C421.445 143.274 417.49 141.569 414.324 140.264Z" fill="#FFC0C0" stroke="black" stroke-width="2.03848" stroke-miterlimit="10" stroke-linecap="round"/>
<path d="M641.777 74.7271L629.037 93.2636L616.29 111.807" stroke="black" stroke-width="2.03848" stroke-miterlimit="10" stroke-linecap="round"/>
<path d="M655.959 81.2977L641.771 100.718L627.583 120.138" stroke="black" stroke-width="2.03848" stroke-miterlimit="10" stroke-linecap="round"/>
<path d="M655.653 101.003L646.881 113.152L638.115 125.295" stroke="black" stroke-width="2.03848" stroke-miterlimit="10" stroke-linecap="round"/>
<path d="M406.279 115.632C405.883 115.633 405.493 115.535 405.144 115.347C404.784 115.155 404.482 114.872 404.267 114.525C401.152 109.604 398.642 104.324 396.793 98.8014C395.007 93.4149 393.913 87.8231 393.538 82.1606C393.266 78.0837 392.859 72.3148 393.803 66.1925C394.748 60.0703 396.949 53.6287 401.903 48.2878C403.247 46.8039 404.738 45.4607 406.354 44.2788C409.05 42.2961 412.112 40.8666 415.364 40.0728C416.508 39.7751 417.67 39.5481 418.843 39.3933C420.587 39.1784 422.351 39.1784 424.095 39.3933C425.979 35.4836 428.307 31.8037 431.033 28.4262C432.951 26.056 434.992 23.7879 437.148 21.6313C441.022 17.6718 445.302 14.1303 449.916 11.0652C454.64 7.94664 459.669 5.31704 464.926 3.21702C465.219 3.08254 465.536 3.00897 465.858 3.00077C466.18 2.99257 466.5 3.04991 466.8 3.16932C467.099 3.28872 467.371 3.4677 467.599 3.69538C467.827 3.92306 468.006 4.1947 468.126 4.49381C468.246 4.79292 468.304 5.11326 468.296 5.43538C468.288 5.75751 468.215 6.0747 468.081 6.3677C467.947 6.66071 467.755 6.92343 467.516 7.13989C467.277 7.35635 466.997 7.52205 466.693 7.62694C461.744 9.6081 457.009 12.085 452.559 15.0198C448.203 17.9039 444.165 21.2406 440.512 24.9744C438.601 26.8847 436.786 28.8895 435.076 30.9811C432.645 33.9394 430.544 37.1544 428.811 40.5688L429.429 40.827L430.054 41.1192C433.615 42.8965 436.574 45.6828 438.562 49.1304C440.518 52.3557 441.349 56.1385 440.926 59.8868C440.702 61.7859 440.103 63.6218 439.166 65.2888C438.328 66.7227 437.122 67.9072 435.674 68.7202C433.942 69.6565 431.975 70.0651 430.014 69.8958C428.017 69.7505 426.102 69.0439 424.489 67.8573C422.023 66.0159 420.915 63.3115 420.446 60.6275C420.105 58.2943 420.045 55.9285 420.27 53.5811C420.386 51.9189 420.613 50.2663 420.949 48.6344C421.277 47.0628 421.701 45.5129 422.22 43.9935C421.099 43.9624 419.977 44.0352 418.87 44.2109C417.898 44.3604 417.083 44.5574 416.498 44.7001C413.83 45.3558 411.319 46.5362 409.112 48.1723C407.772 49.1615 406.534 50.2814 405.416 51.5154C401.162 56.1088 399.26 61.8438 398.485 67.3477C397.71 72.8516 398.064 78.1448 398.308 81.8344C398.659 87.1066 399.68 92.3127 401.346 97.3269C403.069 102.474 405.405 107.395 408.304 111.984C408.502 112.296 408.624 112.65 408.661 113.017C408.698 113.385 408.649 113.757 408.517 114.102C408.385 114.447 408.174 114.757 407.901 115.006C407.628 115.255 407.3 115.437 406.945 115.537C406.729 115.601 406.504 115.633 406.279 115.632ZM426.922 44.9651C426.408 46.3833 425.988 47.8338 425.665 49.3071C425.322 50.828 425.095 52.3726 424.985 53.9277C424.819 55.6723 424.819 57.4287 424.985 59.1733C425.23 61.1167 425.855 63.0057 427.282 64.0725C428.111 64.6631 429.077 65.0326 430.088 65.1461C431.245 65.3422 432.433 65.1122 433.433 64.4986C434.432 63.8851 435.176 62.9297 435.524 61.8098C435.831 60.9834 436.039 60.1235 436.143 59.2481C436.426 56.4922 435.775 53.7209 434.294 51.3796C432.774 48.8206 430.553 46.7503 427.893 45.4136L427.377 45.1758C427.262 45.0806 427.092 45.0059 426.922 44.9447V44.9651Z" fill="#F9851C" stroke="black" stroke-width="2.03848" stroke-miterlimit="10" stroke-linecap="round"/>
<path d="M480.941 107.22C480.94 109.588 480.117 111.881 478.614 113.71C477.111 115.539 475.02 116.79 472.698 117.25C470.376 117.71 467.967 117.352 465.88 116.235C463.793 115.118 462.157 113.312 461.252 111.124C460.347 108.937 460.229 106.503 460.917 104.238C461.605 101.973 463.057 100.017 465.025 98.7022C466.994 97.3876 469.357 96.7962 471.713 97.0286C474.069 97.261 476.271 98.303 477.945 99.977C478.898 100.927 479.653 102.056 480.167 103.299C480.682 104.542 480.945 105.875 480.941 107.22Z" fill="#14AF6C" stroke="black" stroke-width="2.03848" stroke-miterlimit="10" stroke-linecap="round"/>
<path d="M227.212 45.7532L214.172 48.7294L201.133 51.7056L208.247 63.0327L215.362 74.3599L204.028 67.2456L192.7 60.1313L189.724 73.1708L186.748 86.2103L183.772 73.1708L180.796 60.1313L169.469 67.2456L158.141 74.3599L165.256 63.0327L172.37 51.7056L159.331 48.7294L146.291 45.7532L159.331 42.777L172.37 39.8008L165.256 28.4737L158.141 17.1397L169.469 24.254L180.796 31.3683L183.772 18.3288L186.748 5.28934L189.724 18.3288L192.7 31.3683L204.028 24.254L215.362 17.1397L208.247 28.4737L201.133 39.8008L214.172 42.777L227.212 45.7532Z" fill="#D1B7E5" stroke="black" stroke-width="2.03848" stroke-miterlimit="10" stroke-linecap="round"/>
<path d="M175.326 131.804C173.195 131.8 171.145 132.621 169.604 134.094C168.993 133.389 168.241 132.819 167.396 132.423C166.164 131.854 164.787 131.676 163.451 131.913C162.115 132.15 160.883 132.79 159.922 133.748C159.162 134.505 158.597 135.436 158.276 136.459C157.955 137.483 157.887 138.569 158.078 139.625C158.27 140.681 158.714 141.674 159.373 142.521C160.033 143.367 160.888 144.04 161.865 144.484C161.412 145.403 161.18 146.415 161.186 147.439C161.188 149.117 161.826 150.731 162.97 151.958C164.114 153.185 165.681 153.933 167.354 154.052C169.028 154.17 170.684 153.651 171.99 152.599C173.296 151.546 174.156 150.038 174.395 148.377L174.877 148.425H175.367C177.572 148.425 179.688 147.548 181.248 145.989C182.807 144.429 183.684 142.313 183.684 140.108C183.684 137.902 182.807 135.786 181.248 134.227C179.688 132.667 177.572 131.791 175.367 131.791L175.326 131.804Z" fill="#F7CE21" stroke="black" stroke-width="2.03848" stroke-miterlimit="10" stroke-linecap="round"/>
<path d="M468.942 202.642C468.45 201.639 467.714 200.777 466.801 200.134C465.888 199.492 464.827 199.09 463.718 198.966C462.608 198.842 461.485 199 460.453 199.425C459.421 199.85 458.512 200.529 457.812 201.398C457.229 202.128 456.804 202.97 456.561 203.872C454.539 203.233 452.348 203.401 450.446 204.34C448.464 205.314 446.949 207.034 446.235 209.124C445.522 211.214 445.668 213.502 446.641 215.484C447.614 217.467 449.335 218.981 451.424 219.695C453.514 220.408 455.802 220.262 457.784 219.289L458.212 219.058L458.627 218.807C459.129 219.557 459.779 220.197 460.536 220.688C461.294 221.179 462.144 221.51 463.034 221.661C463.924 221.812 464.836 221.779 465.713 221.566C466.59 221.353 467.415 220.963 468.136 220.42C468.857 219.877 469.46 219.193 469.908 218.409C470.356 217.626 470.64 216.759 470.741 215.862C470.843 214.965 470.76 214.056 470.499 213.192C470.237 212.328 469.802 211.527 469.22 210.836C468.903 210.448 468.54 210.099 468.14 209.797C468.932 208.822 469.435 207.645 469.594 206.399C469.752 205.11 469.525 203.803 468.942 202.642Z" fill="#F7CE21" stroke="black" stroke-width="2.03848" stroke-miterlimit="10" stroke-linecap="round"/>
<path d="M111.066 207.86C123.976 220.859 134.705 232.804 142.248 241.495C149.79 250.186 154.105 255.642 154.112 255.642C164.752 240.747 174.496 227.368 183.18 215.552C191.864 203.735 199.386 193.495 205.604 184.866C208.383 180.993 212.297 175.475 217.787 170.168C223.886 164.122 231.269 159.529 239.388 156.728C240.747 156.273 241.977 155.92 243.084 155.634C244.192 155.349 245.157 155.138 245.945 154.955C244.265 177.283 242.591 199.609 240.924 221.932L235.875 288.944L213.323 314.812L190.77 340.674C187.283 344.686 183.204 348.143 178.675 350.927C174.156 353.715 169.216 355.753 164.046 356.961C162.483 357.321 160.859 357.641 159.187 357.838C157.465 358.061 155.732 358.193 153.996 358.232C131.96 358.742 116.339 346.497 103.795 330.162C91.2516 313.827 81.7795 293.395 72.0355 277.535L42.8173 229.971L13.599 182.406C12.7565 181.047 11.9479 179.613 11.1189 178.2C10.2899 176.787 9.43375 175.407 8.49605 174.123C6.58476 171.58 5.22407 168.666 4.50063 165.568C3.97742 162.918 4.28319 160.594 5.51987 158.964C5.76562 158.642 6.04588 158.348 6.35564 158.087C6.74143 157.765 7.16327 157.489 7.61271 157.265C5.15824 154.173 3.37204 150.605 2.36702 146.787C1.64675 143.614 1.9797 140.916 3.42703 139.197C3.75525 138.803 4.13992 138.46 4.56858 138.178C5.15254 137.799 5.78902 137.508 6.45757 137.315C4.59267 134.578 3.27301 131.507 2.57086 128.271C2.08842 125.594 2.44856 123.385 3.71241 122.02C4.13649 121.579 4.64485 121.227 5.2073 120.987C5.45338 120.874 5.71077 120.787 5.97513 120.729C6.21861 120.672 6.46633 120.636 6.71578 120.62C7.30942 120.573 7.90665 120.612 8.48926 120.735C9.49491 120.96 10.9762 122.013 12.7089 123.766C14.8274 125.984 16.7337 128.395 18.4031 130.968C18.912 130.213 19.5173 129.528 20.2037 128.93C20.9826 128.258 21.9168 127.791 22.9217 127.571C25.1165 127.095 27.2841 128.04 29.6215 129.915C31.959 131.791 34.4595 134.59 37.327 137.825C40.7244 141.704 44.2986 145.503 47.7912 149.335C51.2838 153.168 54.7356 157.041 57.9836 161.07C59.8214 163.278 61.7862 165.376 63.868 167.355C67.2655 170.569 71.5735 173.933 75.2155 174.517C75.7239 174.612 76.2416 174.646 76.758 174.619C77.4913 174.608 78.2034 174.371 78.7965 173.94C79.2338 173.575 79.5745 173.108 79.7885 172.581C79.9302 172.239 80.035 171.884 80.1011 171.521C80.5768 169.183 78.5247 165.813 75.9766 161.682C73.4285 157.55 70.3775 152.665 68.8487 147.283C68.4509 145.991 68.2225 144.652 68.1692 143.301C68.1012 142.023 68.4862 140.763 69.2564 139.741C69.6623 139.243 70.1696 138.838 70.7445 138.552C71.1219 138.358 71.5211 138.209 71.9336 138.11C73.3041 137.837 74.7272 138.066 75.9426 138.755C77.3791 139.553 78.5883 140.703 79.4556 142.099L87.2358 153.65L95.016 165.201C98.2378 169.811 101.122 174.648 103.646 179.675C107.838 188.08 111.854 198.741 111.066 207.86Z" fill="#FFC0C0" stroke="black" stroke-width="2.03848" stroke-miterlimit="10" stroke-linecap="round"/>
<path d="M7.60571 157.272L18.1515 172.479L28.6904 187.679" stroke="black" stroke-width="2.03848" stroke-miterlimit="10" stroke-linecap="round"/>
<path d="M6.45117 137.322L20.7613 157.714L35.0782 178.099" stroke="black" stroke-width="2.03848" stroke-miterlimit="10" stroke-linecap="round"/>
<path d="M295.066 339.111L314.901 379.82L334.735 420.494H309.24H283.746C285.635 406.931 287.522 393.369 289.406 379.806C291.29 366.243 293.177 352.678 295.066 339.111Z" fill="black" stroke="black" stroke-width="2.03848" stroke-miterlimit="10" stroke-linecap="round"/>
<path d="M18.397 130.975L31.8645 150.654L45.3253 170.338" stroke="black" stroke-width="2.03848" stroke-miterlimit="10" stroke-linecap="round"/>
<path d="M265.875 275.436C265.543 269.401 265.883 263.348 266.887 257.388C267.697 252.542 269.323 247.869 271.698 243.568C273.842 239.751 277.045 236.637 280.919 234.598C284.832 232.528 289.589 231.371 295.188 231.126C300.787 230.881 305.627 231.627 309.709 233.362C313.752 235.059 317.216 237.891 319.684 241.516C322.417 245.602 324.441 250.121 325.67 254.881C327.195 260.702 328.061 266.676 328.252 272.691C328.587 278.734 328.247 284.797 327.24 290.765C326.43 295.64 324.806 300.345 322.436 304.681C320.304 308.528 317.101 311.673 313.215 313.732C309.301 315.829 304.545 317 298.946 317.245C293.347 317.49 288.506 316.745 284.425 315.01C280.384 313.308 276.921 310.477 274.45 306.856C271.72 302.748 269.706 298.208 268.491 293.429C266.953 287.547 266.076 281.512 265.875 275.436ZM314.581 273.309C314.434 269.046 313.948 264.802 313.127 260.616C312.518 257.396 311.473 254.273 310.021 251.334C308.831 248.929 306.896 246.972 304.504 245.756C301.778 244.501 298.777 243.965 295.786 244.199C292.757 244.225 289.783 245.018 287.143 246.503C284.847 247.892 283.068 249.994 282.081 252.489C280.887 255.541 280.116 258.742 279.791 262.002C278.963 270.593 279.343 279.256 280.919 287.741C281.527 290.998 282.574 294.157 284.031 297.132C285.226 299.559 287.179 301.529 289.596 302.745C292.358 304.012 295.399 304.552 298.429 304.314C301.433 304.287 304.379 303.487 306.984 301.99C309.275 300.548 311.037 298.403 312.005 295.875C313.199 292.784 313.967 289.545 314.289 286.247C314.726 281.948 314.824 277.623 314.581 273.309Z" fill="#FFF8F8" stroke="black" stroke-width="2.03848" stroke-miterlimit="10" stroke-linecap="round"/>
<path d="M388.945 227.097L364.341 228.177L339.729 229.251C338.668 229.298 337.668 229.765 336.95 230.548C336.231 231.332 335.853 232.368 335.897 233.43L336.067 237.248L336.23 241.067C336.272 241.953 336.663 242.786 337.318 243.384C337.972 243.982 338.837 244.298 339.723 244.261L356.662 243.52L373.609 242.779C374.037 242.761 374.463 242.849 374.848 243.037C375.233 243.224 375.566 243.504 375.816 243.852C376.066 244.2 376.226 244.604 376.281 245.029C376.335 245.454 376.284 245.886 376.13 246.286L363.131 279.934L350.139 313.603C349.985 314.003 349.934 314.435 349.988 314.86C350.043 315.284 350.203 315.689 350.453 316.037C350.703 316.385 351.036 316.665 351.421 316.852C351.806 317.039 352.232 317.128 352.66 317.109L358.735 316.844L364.803 316.579C365.31 316.56 365.8 316.389 366.209 316.09C366.621 315.791 366.935 315.377 367.113 314.901L381.138 277.101L395.156 239.3L395.21 239.151L395.264 239.001L395.129 235.808L394.993 232.607C394.924 231.071 394.248 229.626 393.114 228.587C391.981 227.549 390.481 227.003 388.945 227.069V227.097Z" fill="#FFF8F8" stroke="black" stroke-width="2.03848" stroke-miterlimit="10" stroke-linecap="round"/>
<path d="M149.695 420.922L225.846 420.589L301.99 420.277C301.8 399.627 300.59 381.281 298.892 365.883C297.193 350.486 295.018 338.024 292.885 329.191C290.89 320.957 288.247 312.893 284.982 305.075C282.013 298.015 278.901 292.219 276.19 288.496C275.999 288.237 275.605 287.701 275.062 286.933C274.518 286.165 273.818 285.166 273.023 283.991C271.664 281.918 269.993 279.234 268.267 276.075C266.292 272.481 264.522 268.779 262.967 264.985L262.906 264.842L262.851 264.707C260.192 258.21 257.877 251.578 255.914 244.838C254.065 238.492 252.645 232.458 251.551 226.825C253.058 226.327 254.446 225.525 255.628 224.467C257.769 222.619 260.113 219.439 260.915 214.105C261.193 212.226 261.227 210.319 261.017 208.431C260.806 206.541 260.382 204.681 259.753 202.886C257.178 195.615 252.936 189.048 247.366 183.711C240.224 176.916 229.522 170.801 213.547 168.966C201.679 167.735 189.7 169.758 178.893 174.816C168.055 180.076 159.527 188.746 158.121 201.154C157.916 202.996 157.498 204.809 156.877 206.556C155.535 210.339 153.114 213.646 149.913 216.068C147.815 217.64 145.458 218.829 142.948 219.581C142.533 219.711 142.119 219.819 141.704 219.914C141.29 220.01 140.862 220.105 140.44 220.193C138.517 220.587 133 222.028 129.052 226.009C125.104 229.991 122.746 236.542 127.143 247.148C127.709 248.624 128.538 249.984 129.589 251.164C131.26 252.965 133.822 254.358 137.383 252.7C138.064 254.56 139.111 256.265 140.461 257.715C142.662 260.038 146.189 261.995 151.489 260.541L153.392 260.018C154.03 259.848 154.669 259.685 155.308 259.542L164.821 257.395L174.334 255.248C174.021 263.354 173.783 269.592 173.62 273.805C173.457 278.018 173.382 280.192 173.382 280.192C172.981 280.546 172.492 281.001 171.942 281.551C171.391 282.102 170.793 282.761 170.168 283.508C169.106 284.865 168.158 286.309 167.335 287.823C165.336 291.379 163.899 295.223 163.074 299.218C162.205 303.54 160.356 317.605 157.999 338.765C155.641 359.924 152.678 388.191 149.695 420.922Z" fill="#F9851C" stroke="black" stroke-width="2.03848" stroke-miterlimit="10" stroke-linecap="round"/>
<path d="M137.349 252.686C139.857 252.043 142.266 251.063 144.51 249.771C149.426 247.131 153.351 242.965 155.695 237.9" stroke="black" stroke-width="2.03848" stroke-miterlimit="10" stroke-linecap="round"/>
<path d="M155.695 237.9C155.43 238.498 155.117 239.151 154.737 239.837C154.321 240.578 153.867 241.297 153.378 241.991C152.315 243.503 151.082 244.887 149.702 246.116C150.992 247.119 152.378 247.993 153.84 248.725C154.914 249.261 156.027 249.715 157.169 250.084C158.284 250.482 159.432 250.778 160.601 250.967C161.614 251.134 162.654 250.944 163.543 250.43C164.087 250.078 164.55 249.615 164.902 249.071C165.243 248.578 165.475 248.017 165.581 247.427C165.826 245.898 164.956 244.159 163.224 242.48C161.026 240.492 158.471 238.938 155.695 237.9Z" fill="#EF3F3F" stroke="black" stroke-width="2.03848" stroke-miterlimit="10" stroke-linecap="round"/>
<path d="M176.08 208.105C176.079 208.918 175.796 209.705 175.279 210.332C174.762 210.959 174.044 211.388 173.247 211.546C172.45 211.703 171.623 211.579 170.906 211.195C170.19 210.811 169.629 210.19 169.319 209.439C169.01 208.688 168.97 207.852 169.207 207.075C169.444 206.297 169.943 205.626 170.619 205.176C171.295 204.725 172.107 204.523 172.916 204.603C173.724 204.684 174.48 205.043 175.054 205.618C175.711 206.279 176.08 207.173 176.08 208.105Z" fill="black"/>
<path d="M215.396 199.292C218.04 205.429 221.446 211.209 225.534 216.497C231.928 224.528 240.965 231.445 251.551 226.832" stroke="black" stroke-width="2.03848" stroke-miterlimit="10" stroke-linecap="round"/>
<path d="M222.815 284.188C231.387 282.357 239.621 279.202 247.223 274.838C252.688 271.703 257.797 267.982 262.457 263.742C261.279 260.815 260.192 257.93 259.195 255.085C258.203 252.245 257.293 249.445 256.477 246.707C252.744 250.809 248.57 254.487 244.029 257.674C228.635 268.533 209.687 273.129 191.029 270.53C185.144 269.739 179.374 268.257 173.837 266.113C173.681 270.068 173.566 273.221 173.477 275.531C173.389 277.841 173.335 279.309 173.307 279.886C179.564 282.38 186.091 284.134 192.754 285.112C202.749 286.605 212.931 286.292 222.815 284.188Z" fill="#F7CE21" stroke="black" stroke-width="2.03848" stroke-miterlimit="10" stroke-linecap="round"/>
<path d="M292.884 329.245C291.118 322.531 289.011 316.402 287.353 311.945C285.695 307.487 284.472 304.708 284.472 304.708C282.943 301.229 281.421 298.104 280.001 295.386C278.581 292.668 277.283 290.351 276.189 288.482C276.189 288.482 274.117 285.615 271.433 281.239C268.192 276.049 265.362 270.615 262.966 264.985L262.905 264.842L262.851 264.707C262.783 264.543 262.715 264.38 262.654 264.217C262.593 264.054 262.525 263.898 262.457 263.735C257.797 267.978 252.689 271.701 247.223 274.838C230.752 284.301 211.568 287.922 192.781 285.112C186.127 284.132 179.609 282.378 173.362 279.886V280.179C172.961 280.532 172.471 280.987 171.921 281.538C171.371 282.088 170.773 282.747 170.148 283.495C169.085 284.852 168.137 286.295 167.314 287.809C165.316 291.366 163.879 295.209 163.054 299.204C162.184 303.526 160.336 317.592 157.978 338.751C155.62 359.91 152.712 388.184 149.729 420.915L185.633 420.745L221.538 420.569L240.095 420.46C247.229 420.426 255.41 420.385 264.937 420.351L286.103 420.311C292.348 420.311 297.716 420.311 302.024 420.311C301.67 398.805 300.406 379.867 298.721 364.388C297.036 348.909 294.903 336.896 292.884 329.245Z" fill="#14AF6C" stroke="black" stroke-width="2.03848" stroke-miterlimit="10" stroke-linecap="round"/>
<path d="M162.259 355.011C162.194 350.947 162.499 346.885 163.17 342.876C163.686 339.685 164.661 336.586 166.064 333.675C167.203 331.276 169.011 329.256 171.269 327.859C173.688 326.571 176.381 325.886 179.12 325.861C181.86 325.836 184.565 326.473 187.006 327.716C189.287 329.08 191.124 331.077 192.293 333.465C193.727 336.356 194.739 339.438 195.296 342.617C196.013 346.597 196.365 350.634 196.349 354.678C196.414 358.749 196.111 362.818 195.446 366.834C194.929 370.044 193.954 373.163 192.551 376.096C191.419 378.518 189.612 380.562 187.346 381.98C184.957 383.355 182.241 384.06 179.484 384.019C176.739 384.123 174.017 383.48 171.609 382.157C169.325 380.796 167.488 378.798 166.323 376.409C164.882 373.505 163.87 370.409 163.319 367.215C162.597 363.188 162.243 359.103 162.259 355.011ZM188.875 354.76C188.877 351.888 188.696 349.019 188.331 346.171C188.066 344.01 187.557 341.886 186.816 339.838C186.276 338.269 185.259 336.908 183.908 335.945C182.49 335.046 180.828 334.607 179.151 334.688C177.465 334.647 175.806 335.121 174.395 336.047C173.052 337.02 172.047 338.388 171.521 339.961C170.8 342.017 170.317 344.148 170.08 346.314C169.749 349.185 169.604 352.074 169.645 354.964C169.642 357.878 169.824 360.79 170.189 363.682C170.453 365.867 170.961 368.017 171.704 370.089C172.247 371.67 173.271 373.041 174.633 374.01C176.052 374.907 177.711 375.35 179.389 375.281C181.063 375.323 182.71 374.848 184.105 373.922C185.449 372.927 186.449 371.537 186.966 369.947C187.684 367.865 188.164 365.708 188.399 363.519C188.745 360.612 188.904 357.687 188.875 354.76Z" fill="#FFF8F8" stroke="black" stroke-width="2.03848" stroke-miterlimit="10" stroke-linecap="round"/>
<path d="M230.358 325.413L216.911 325.542L203.457 325.671C203.154 325.681 202.857 325.759 202.587 325.899C202.318 326.039 202.084 326.237 201.901 326.479C201.482 327.029 201.261 327.705 201.276 328.396V330.971V333.553C201.27 334.129 201.461 334.691 201.819 335.143C201.968 335.347 202.162 335.515 202.386 335.632C202.61 335.75 202.857 335.815 203.11 335.822L212.372 335.734L221.633 335.646C221.882 335.654 222.124 335.731 222.333 335.867C222.542 336.004 222.708 336.195 222.816 336.42C222.95 336.672 223.031 336.949 223.052 337.233C223.073 337.517 223.034 337.803 222.938 338.072L215.192 360.447L207.439 382.83C207.345 383.098 207.308 383.382 207.329 383.665C207.35 383.947 207.429 384.223 207.561 384.474C207.667 384.701 207.834 384.893 208.042 385.031C208.251 385.169 208.493 385.247 208.743 385.256L212.066 385.222H215.382C215.67 385.218 215.947 385.112 216.163 384.923C216.404 384.717 216.582 384.449 216.68 384.148L225.071 359.007L233.463 333.865V333.77L233.497 333.668V331.514V329.354C233.498 328.367 233.165 327.409 232.553 326.636C232.304 326.279 231.977 325.983 231.596 325.771C231.216 325.559 230.793 325.436 230.358 325.413Z" fill="#FFF8F8" stroke="black" stroke-width="2.03848" stroke-miterlimit="10" stroke-linecap="round"/>
<path d="M192.13 270.665L191.946 277.814L191.756 284.955" stroke="black" stroke-width="2.03848" stroke-miterlimit="10" stroke-linecap="round"/>
<path d="M210.122 270.7L210.571 278.269L211.026 285.839" stroke="black" stroke-width="2.03848" stroke-miterlimit="10" stroke-linecap="round"/>
<path d="M226.308 267.391C226.72 269.837 227.132 272.279 227.545 274.716C227.957 277.153 228.369 279.594 228.781 282.041" stroke="black" stroke-width="2.03848" stroke-miterlimit="10" stroke-linecap="round"/>
<path d="M241.651 259.835L243.54 267.832L245.429 275.857" stroke="black" stroke-width="2.03848" stroke-miterlimit="10" stroke-linecap="round"/>
<path d="M101.845 307.922C100.5 307.925 99.164 307.695 97.8971 307.243C96.6405 306.796 95.4856 306.103 94.4996 305.204C93.3168 304.116 92.4047 302.767 91.836 301.263C91.2003 299.581 90.8846 297.795 90.9051 295.997C90.9051 291.411 92.8756 287.47 95.3082 284.371C97.3217 281.859 99.6856 279.648 102.327 277.807C102.769 277.501 103.224 277.202 103.686 276.931C104.148 276.659 104.638 276.394 105.134 276.149C104.382 275.338 103.571 274.539 102.701 273.751C101.831 272.962 100.896 272.176 99.8948 271.393C94.9346 267.549 89.1459 264.915 82.989 263.701C77.153 262.476 71.0975 262.809 65.4309 264.666C61.0097 266.152 57.0568 268.774 53.9678 272.269C50.7902 275.945 48.5435 280.331 47.4175 285.057C47.2605 285.667 46.8688 286.19 46.3278 286.512C45.7868 286.834 45.1404 286.929 44.5296 286.777C44.2269 286.701 43.942 286.567 43.6914 286.381C43.4407 286.195 43.2291 285.962 43.0688 285.694C42.9085 285.427 42.8025 285.13 42.757 284.821C42.7115 284.513 42.7274 284.198 42.8037 283.895C44.1194 278.409 46.7394 273.32 50.4412 269.062C54.0742 264.991 58.7036 261.935 63.8748 260.195C70.2864 258.058 77.1454 257.637 83.7704 258.972C90.7279 260.343 97.2644 263.335 102.851 267.703C104.246 268.79 105.535 269.898 106.717 271.026C107.859 272.11 108.938 273.258 109.951 274.464C115.768 272.996 122.692 273.309 130.132 275.313C137.573 277.318 145.523 281.014 153.398 286.294C153.661 286.465 153.887 286.687 154.064 286.946C154.24 287.205 154.364 287.496 154.427 287.803C154.49 288.111 154.492 288.427 154.432 288.735C154.372 289.043 154.251 289.335 154.078 289.596C153.728 290.123 153.185 290.49 152.567 290.617C151.948 290.744 151.304 290.622 150.775 290.276C144.532 285.981 137.691 282.627 130.472 280.321C124.01 278.358 118.024 277.78 112.968 278.67C113.714 279.915 114.359 281.217 114.898 282.564C115.418 283.859 115.821 285.198 116.101 286.566C116.824 290.15 116.561 293.863 115.34 297.309C114.228 300.6 112.143 303.477 109.36 305.558C108.256 306.35 107.034 306.963 105.738 307.372C104.477 307.758 103.164 307.944 101.845 307.922ZM108.191 280.009C107.642 280.244 107.104 280.507 106.581 280.797C106.062 281.085 105.559 281.401 105.073 281.741C103.022 283.183 101.162 284.877 99.5346 286.783C97.4962 289.27 95.6683 292.45 95.6819 296.011C95.6717 297.147 95.8531 298.278 96.2187 299.354C96.5135 300.255 97.0298 301.068 97.7204 301.719C98.8861 302.704 100.381 303.214 101.906 303.146C103.572 303.129 105.193 302.606 106.554 301.644C108.587 300.096 110.095 297.962 110.875 295.528C111.766 292.942 111.954 290.166 111.419 287.483C111.149 286.19 110.745 284.929 110.216 283.719C109.656 282.423 108.979 281.181 108.191 280.009Z" fill="#D1B7E5" stroke="black" stroke-width="2.03848" stroke-miterlimit="10" stroke-linecap="round"/>
<path d="M129.032 238.234L133.741 235.835L138.449 233.436C139.11 233.102 139.656 232.58 140.021 231.936C140.385 231.292 140.551 230.555 140.497 229.817C140.443 229.079 140.172 228.373 139.719 227.789C139.265 227.205 138.648 226.767 137.947 226.533L134.549 225.377L131.152 224.222C129.02 225.717 127.315 227.743 126.207 230.099C125.098 232.455 124.625 235.06 124.832 237.656C125.383 238.156 126.068 238.484 126.803 238.6C127.566 238.711 128.344 238.583 129.032 238.234Z" fill="black" stroke="black" stroke-width="2.03848" stroke-miterlimit="10" stroke-linecap="round"/>
<path d="M266.133 420.331H225.758L229.312 397.711L232.872 375.063C233.607 369.894 235.99 365.099 239.667 361.392C243.038 358 247.612 356.075 252.394 356.038C258.598 356.038 264.04 359.34 267.655 364.423C271.5 370 273.03 376.853 271.923 383.537L269.028 401.937L266.133 420.331Z" fill="#F9851C" stroke="black" stroke-width="2.03848" stroke-miterlimit="10" stroke-linecap="round"/>
<path d="M205.366 220.818C204.979 222.387 204.06 223.773 202.766 224.74C201.472 225.708 199.883 226.197 198.269 226.124C196.655 226.051 195.116 225.421 193.914 224.341C192.713 223.261 191.923 221.798 191.679 220.201C191.435 218.604 191.752 216.971 192.576 215.582C193.401 214.192 194.681 213.131 196.2 212.58C197.719 212.029 199.382 212.021 200.905 212.558C202.429 213.095 203.72 214.143 204.557 215.525C205.035 216.31 205.352 217.182 205.491 218.091C205.629 218.999 205.587 219.926 205.366 220.818Z" fill="#EF3F3F" stroke="black" stroke-width="2.03848" stroke-miterlimit="10" stroke-linecap="round"/>
<path d="M361.874 88.7858L342.121 87.5423L322.361 86.2784C322.346 91.611 323.032 96.9225 324.4 102.077C326.299 109.243 329.666 115.937 334.286 121.734C336.808 124.888 339.683 127.742 342.855 130.242C345.412 132.252 348.141 134.034 351.009 135.569C353.502 131.96 355.62 128.106 357.328 124.065C360.579 116.346 362.352 108.085 362.553 99.712C362.635 96.0573 362.408 92.4022 361.874 88.7858Z" fill="black" stroke="black" stroke-width="2.03848" stroke-miterlimit="10" stroke-linecap="round"/>
<path d="M337.12 125.01C336.128 123.95 335.374 123.046 334.796 122.292C334.219 121.537 333.824 120.974 333.553 120.559C333.356 120.253 333.172 119.975 333.023 119.716C332.873 119.458 332.73 119.234 332.622 119.037L333.104 119.234C333.281 119.295 333.478 119.37 333.682 119.431L334.191 119.587C334.49 119.676 334.871 119.784 335.313 119.866C338.935 120.345 342.605 119.427 345.575 117.298C348.545 115.169 350.593 111.989 351.303 108.404C352.012 104.819 351.33 101.098 349.395 97.9982C347.46 94.8982 344.417 92.6514 340.884 91.7145C337.583 91.0868 334.165 91.6528 331.242 93.3113C328.231 94.9935 325.891 97.6619 324.617 100.867C324.25 99.8344 323.89 98.6793 323.564 97.3951C323.213 96.0134 322.936 94.6139 322.735 93.2026C322.552 91.9048 322.443 90.6749 322.389 89.5265C322.334 88.3782 322.334 87.3046 322.389 86.3261L288.679 84.2061L254.962 82.0861C254.559 83.3227 254.192 84.5753 253.862 85.8437C253.529 87.1143 253.23 88.3986 252.971 89.71C249.737 106.14 252.876 122.203 260.555 134.903C268.233 147.603 280.477 156.926 295.44 159.875C305.946 161.918 316.829 160.638 326.574 156.212C336.454 151.707 344.914 144.585 351.036 135.617C349.246 134.644 347.506 133.58 345.824 132.43C344.316 131.397 343.045 130.391 342.006 129.562C341.428 129.087 340.701 128.468 339.879 127.714C339.057 126.96 338.092 126.043 337.12 125.01Z" fill="#FFC0C0" stroke="black" stroke-width="2.03848" stroke-miterlimit="10" stroke-linecap="round"/>
<path d="M325.283 120.355C324.94 122.105 324 123.681 322.625 124.816C321.25 125.95 319.523 126.573 317.74 126.577C315.957 126.581 314.228 125.967 312.847 124.839C311.466 123.711 310.519 122.139 310.168 120.391C309.816 118.643 310.081 116.827 310.919 115.253C311.756 113.679 313.113 112.444 314.759 111.758C316.405 111.073 318.238 110.979 319.945 111.494C321.652 112.008 323.128 113.099 324.121 114.579C324.687 115.417 325.081 116.359 325.28 117.351C325.48 118.342 325.481 119.363 325.283 120.355Z" fill="#EF3F3F" stroke="black" stroke-width="2.03848" stroke-miterlimit="10" stroke-linecap="round"/>
<path d="M278.765 136.561C278.42 138.308 277.48 139.882 276.105 141.014C274.731 142.146 273.006 142.766 271.225 142.769C269.444 142.772 267.717 142.158 266.339 141.031C264.96 139.904 264.015 138.333 263.664 136.587C263.313 134.841 263.578 133.028 264.415 131.455C265.251 129.883 266.606 128.649 268.25 127.964C269.894 127.279 271.724 127.185 273.43 127.698C275.135 128.211 276.61 129.3 277.603 130.778C278.167 131.618 278.56 132.562 278.759 133.554C278.959 134.546 278.961 135.568 278.765 136.561Z" fill="#EF3F3F" stroke="black" stroke-width="2.03848" stroke-miterlimit="10" stroke-linecap="round"/>
<path d="M272.011 115.795C271.85 116.603 271.376 117.314 270.692 117.772C270.008 118.231 269.17 118.4 268.362 118.242C267.759 118.123 267.205 117.828 266.77 117.394C266.335 116.961 266.039 116.408 265.918 115.805C265.797 115.203 265.858 114.579 266.092 114.011C266.326 113.443 266.724 112.957 267.234 112.615C267.744 112.28 268.342 112.102 268.952 112.104C269.563 112.106 270.159 112.289 270.667 112.628C271.174 112.967 271.571 113.449 271.806 114.012C272.042 114.576 272.106 115.196 271.99 115.795H272.011Z" fill="black"/>
<path d="M303.784 109.007C303.645 109.714 303.266 110.351 302.711 110.809C302.155 111.268 301.458 111.519 300.738 111.521C300.018 111.523 299.319 111.275 298.761 110.819C298.203 110.364 297.821 109.729 297.679 109.023C297.537 108.317 297.644 107.583 297.982 106.947C298.321 106.312 298.869 105.813 299.534 105.536C300.199 105.259 300.939 105.222 301.628 105.43C302.318 105.638 302.914 106.078 303.315 106.677C303.543 107.015 303.702 107.395 303.783 107.795C303.863 108.195 303.864 108.607 303.784 109.007Z" fill="black"/>
<path d="M269.476 97.6667C272.182 96.4561 274.971 95.4389 277.821 94.6225C286.655 92.0993 295.944 91.5954 305 93.148" stroke="black" stroke-width="2.03848" stroke-miterlimit="10" stroke-linecap="round"/>
<path d="M278.276 95.4649L280.559 110.006L282.835 124.547L284.86 124.058L286.885 123.576" stroke="black" stroke-width="2.03848" stroke-miterlimit="10" stroke-linecap="round"/>
<path d="M318.841 40.8608C305.075 38.1429 291.397 41.3161 280.008 48.7294C268.082 56.6413 259.231 68.4062 254.935 82.0586L308.404 85.422L361.874 88.7855C360.257 77.2409 355.329 66.4124 347.686 57.6104C340.191 48.9879 330.045 43.0968 318.841 40.8608Z" fill="#F9851C" stroke="black" stroke-width="2.03848" stroke-miterlimit="10" stroke-linecap="round"/>
<path d="M332.764 109.606L337.908 106.799L343.052 104" stroke="black" stroke-width="2.03848" stroke-miterlimit="10" stroke-linecap="round"/>
<path d="M275.239 83.3364C275.172 89.0495 273.389 94.6106 270.122 99.2977C267.031 103.775 262.559 107.117 257.388 108.811C255.453 109.426 253.445 109.785 251.416 109.877C244.933 110.148 238.598 107.89 233.749 103.578C231.28 101.378 229.332 98.6562 228.045 95.6101C226.758 92.5639 226.165 89.2697 226.308 85.966C226.401 83.9351 226.785 81.9281 227.45 80.0068C228.957 75.8281 231.591 72.1477 235.06 69.3728C238.58 66.5801 242.895 64.9085 247.481 65.4249C250.228 65.7625 252.844 66.7912 255.085 68.4147C256.561 69.4685 257.897 70.7061 259.06 72.0975C258.571 73.0352 258.075 74.0273 257.592 75.0805C257.11 76.1337 256.641 77.2413 256.192 78.4101C255.948 79.042 255.724 79.6603 255.513 80.2719C255.302 80.8834 255.105 81.4814 254.915 82.0725L265.107 82.7112L275.239 83.3364Z" fill="black" stroke="black" stroke-width="2.03848" stroke-miterlimit="10" stroke-linecap="round"/>
<path d="M263.551 64.6906L310.409 68.6724L357.267 72.6543" stroke="black" stroke-width="2.03848" stroke-miterlimit="10" stroke-linecap="round"/>
<path d="M277.725 65.8936L276.013 74.5843L274.301 83.2751" stroke="black" stroke-width="2.03848" stroke-miterlimit="10" stroke-linecap="round"/>
<path d="M296.214 67.5924L294.597 75.8075L292.98 84.0226" stroke="black" stroke-width="2.03848" stroke-miterlimit="10" stroke-linecap="round"/>
<path d="M318.78 69.7324L317.19 77.8048L315.6 85.8772" stroke="black" stroke-width="2.03848" stroke-miterlimit="10" stroke-linecap="round"/>
<path d="M341.815 71.6694L340.314 79.3001L338.812 86.9376" stroke="black" stroke-width="2.03848" stroke-miterlimit="10" stroke-linecap="round"/>
<path d="M307.582 126.898C307.486 126.607 307.328 126.34 307.121 126.114C306.914 125.888 306.661 125.709 306.379 125.587C306.097 125.466 305.793 125.406 305.486 125.41C305.18 125.415 304.877 125.484 304.599 125.614L300.033 127.768L295.467 129.922C294.008 132.253 292.992 134.833 292.471 137.532C292.053 139.601 291.862 141.708 291.9 143.818C293.597 144.38 295.39 144.6 297.173 144.463C298.929 144.331 300.632 143.801 302.153 142.914C304.695 141.36 306.601 138.951 307.528 136.119C308.548 133.133 308.567 129.896 307.582 126.898Z" fill="#EF3F3F" stroke="black" stroke-width="2.03848" stroke-miterlimit="10" stroke-linecap="round"/>
<path d="M285.254 134.74C284.975 134.872 284.726 135.061 284.523 135.295C284.321 135.529 284.169 135.803 284.079 136.099C283.99 136.395 283.965 136.708 284.006 137.015C284.047 137.322 284.153 137.616 284.317 137.879C285.206 139.306 286.346 140.56 287.68 141.582C288.951 142.559 290.377 143.312 291.9 143.811C291.862 141.701 292.053 139.594 292.471 137.526C292.993 134.826 294.008 132.246 295.467 129.915L290.357 132.321L285.254 134.74Z" fill="black" stroke="black" stroke-width="2.03848" stroke-miterlimit="10" stroke-linecap="round"/>
<path d="M500.198 283.97L520.889 293.483L541.58 302.996C538.172 304.829 534.547 306.224 530.789 307.147C529.127 307.554 527.441 307.856 525.741 308.051C524.09 308.248 522.343 308.371 520.305 308.534C517.295 308.778 514.522 308.88 512.062 308.887C509.603 308.894 507.449 308.833 505.668 308.738C504.762 304.602 503.856 300.464 502.95 296.323C502.044 292.183 501.127 288.065 500.198 283.97Z" fill="black" stroke="black" stroke-width="2.03848" stroke-miterlimit="10" stroke-linecap="round"/>
<path d="M497.48 282.91C497.575 282.557 497.657 282.231 497.732 281.843C497.806 281.456 497.861 281.109 497.908 280.736C498.174 278.57 497.967 276.372 497.301 274.294C496.636 272.216 495.529 270.307 494.055 268.698C492.582 267.089 490.777 265.818 488.765 264.973C486.754 264.128 484.583 263.729 482.402 263.803C481.641 263.829 480.882 263.91 480.133 264.047C479.429 261.374 477.954 258.966 475.893 257.123C474.069 255.506 471.855 254.394 469.469 253.898C467.083 253.401 464.608 253.538 462.291 254.293C459.974 255.049 457.895 256.397 456.261 258.205C454.626 260.013 453.493 262.217 452.973 264.598L452.443 264.496L451.913 264.414C450.091 264.189 448.242 264.325 446.473 264.814C444.703 265.304 443.047 266.137 441.6 267.266C440.152 268.396 438.941 269.8 438.036 271.397C437.132 272.995 436.55 274.755 436.326 276.577C436.273 277.003 436.243 277.432 436.237 277.861C436.237 278.283 436.237 278.704 436.237 279.119C433.403 279.865 430.819 281.352 428.749 283.427C426.68 285.503 425.2 288.092 424.462 290.928C421.987 290.967 419.568 291.662 417.45 292.944C415.333 294.225 413.595 296.046 412.412 298.22C411.23 300.394 410.647 302.843 410.723 305.317C410.798 307.79 411.53 310.199 412.843 312.297C414.156 314.395 416.002 316.106 418.194 317.256C420.385 318.405 422.843 318.952 425.315 318.839C427.787 318.727 430.185 317.959 432.263 316.615C434.341 315.271 436.025 313.399 437.141 311.191L437.78 311.306C437.997 311.347 438.208 311.374 438.459 311.401C441.856 311.818 445.298 311.164 448.305 309.533C449.957 312.254 452.192 314.574 454.849 316.328C459.117 319.14 464.251 320.329 469.321 319.681C474.391 319.033 479.061 316.59 482.484 312.794C484.452 314.828 486.879 316.362 489.561 317.265C492.243 318.169 495.103 318.418 497.901 317.989C500.699 317.561 503.354 316.469 505.643 314.804C507.932 313.139 509.789 310.95 511.059 308.42C512.328 305.89 512.973 303.093 512.94 300.263C512.906 297.433 512.195 294.651 510.867 292.152C509.538 289.653 507.63 287.509 505.302 285.898C502.974 284.288 500.294 283.259 497.487 282.896L497.48 282.91Z" fill="#F7CE21" stroke="black" stroke-width="2.03848" stroke-miterlimit="10" stroke-linecap="round"/>
<path d="M500.511 420.922H462.317H424.129L419.944 369.186L415.765 317.442H461.821H507.877L504.194 369.186L500.511 420.922Z" fill="#EF3F3F" stroke="black" stroke-width="2.03848" stroke-miterlimit="10" stroke-linecap="round"/>
<path d="M446.328 420.827L443.128 369.213L439.927 317.592L442.299 317.442L444.677 317.299L447.884 369.036L451.091 420.78L448.706 420.807L446.328 420.827Z" fill="#FFF8F8" stroke="black" stroke-width="2.03848" stroke-miterlimit="10" stroke-linecap="round"/>
<path d="M477.096 420.834H474.718H472.333L474.283 369.097L476.233 317.354L478.611 317.442L480.982 317.537L479.039 369.186L477.096 420.834Z" fill="#FFF8F8" stroke="black" stroke-width="2.03848" stroke-miterlimit="10" stroke-linecap="round"/>
<path d="M472.339 295.046C472.352 294.238 472.259 293.431 472.06 292.647C471.739 291.282 471.012 290.045 469.974 289.101C468.572 287.923 466.776 287.318 464.946 287.409C462.88 287.485 460.894 288.223 459.279 289.515C458.952 288.061 458.249 286.719 457.241 285.621C456.134 284.413 454.66 283.605 453.047 283.321C451.433 283.037 449.771 283.294 448.319 284.052C446.592 284.917 445.203 286.332 444.371 288.074" stroke="black" stroke-width="2.03848" stroke-miterlimit="10" stroke-linecap="round"/>
<path d="M514.651 317.442H408.997C408.594 317.442 408.208 317.282 407.923 316.999C407.638 316.715 407.476 316.329 407.475 315.927V310.314C407.476 309.912 407.638 309.526 407.923 309.242C408.208 308.958 408.594 308.799 408.997 308.799H514.651C514.85 308.798 515.048 308.836 515.232 308.912C515.416 308.988 515.584 309.1 515.725 309.241C515.866 309.381 515.977 309.549 516.053 309.733C516.129 309.917 516.167 310.115 516.166 310.314V315.947C516.167 316.146 516.129 316.344 516.053 316.528C515.977 316.712 515.866 316.88 515.725 317.02C515.584 317.161 515.416 317.273 515.232 317.349C515.048 317.425 514.85 317.463 514.651 317.462V317.442Z" fill="#FFF8F8" stroke="black" stroke-width="2.03848" stroke-miterlimit="10" stroke-linecap="round"/>
<path d="M520.617 204.932L516.663 210.707L512.701 216.476" fill="black"/>
<path d="M520.617 204.932L516.663 210.707L512.701 216.476" stroke="black" stroke-width="2.03848" stroke-miterlimit="10" stroke-linecap="round"/>
</svg>
