<svg width="516" height="596" viewBox="0 0 516 596" fill="none" xmlns="http://www.w3.org/2000/svg">
<path d="M119.359 462.829L164.097 482.331L208.828 501.805L234.322 429.364L259.79 356.944H338.767L338.693 320.652L338.625 284.354L273.563 284.428L208.495 284.496C200.033 284.506 191.786 287.168 184.916 292.108C178.045 297.048 172.896 304.018 170.192 312.036C161.716 337.164 153.245 362.305 144.779 387.46L119.359 462.829Z" fill="#14AF6C" stroke="black" stroke-width="2.03848" stroke-miterlimit="10" stroke-linecap="round"/>
<path d="M140.328 297.346L105.348 438.463L70.3743 579.58" stroke="black" stroke-width="2.03848" stroke-miterlimit="10" stroke-linecap="round"/>
<path d="M236.361 467.967L227.167 404.828C224.114 383.786 221.063 362.736 218.015 341.676C216.064 328.365 217.335 316.1 220.964 306.342C224.592 296.585 230.674 289.355 238.399 286.032C240.5 285.144 242.71 284.541 244.97 284.238C248.335 283.806 251.746 283.902 255.081 284.524H433.869C434.134 286.596 434.433 289.219 434.678 292.297C434.923 295.375 435.106 298.909 435.154 302.802C435.269 313.096 435.405 324.193 433.632 334.528C431.858 344.863 428.196 354.444 420.721 361.707C418.751 363.611 416.583 365.296 414.252 366.736C410.628 368.952 406.716 370.66 402.626 371.812C400.517 372.42 398.37 372.888 396.198 373.211C394.026 373.536 391.837 373.736 389.641 373.809L357.854 374.89L326.054 375.97L329.846 419.03L333.637 462.082L285.006 465.025L236.361 467.967Z" fill="#14AF6C" stroke="black" stroke-width="2.03848" stroke-miterlimit="10" stroke-linecap="round"/>
<path d="M446.325 297.346H84.4942C84.1829 297.35 83.8739 297.293 83.5851 297.176C83.2963 297.06 83.0335 296.888 82.8121 296.669C82.5907 296.45 82.4152 296.189 82.2956 295.902C82.1761 295.614 82.115 295.306 82.116 294.994V286.881C82.116 286.257 82.3635 285.658 82.8042 285.216C83.2449 284.775 83.8429 284.525 84.467 284.523H446.325C446.949 284.525 447.547 284.775 447.987 285.216C448.428 285.658 448.676 286.257 448.676 286.881V294.994C448.677 295.303 448.616 295.61 448.499 295.895C448.381 296.181 448.208 296.44 447.989 296.659C447.771 296.877 447.511 297.051 447.225 297.168C446.94 297.286 446.634 297.346 446.325 297.346Z" fill="#D1B7E5" stroke="black" stroke-width="2.03848" stroke-miterlimit="10" stroke-linecap="round"/>
<path d="M355.619 70.055C369.63 69.0086 384.117 68.961 398.216 70.9791C412.316 72.9972 426.008 77.0946 438.422 84.2564C449.892 90.9019 458.949 100.123 466.424 110.634C473.898 121.146 479.789 132.935 484.906 144.731C491.518 159.938 500.67 177.286 506.99 195.136C513.309 212.987 516.781 231.346 512.031 248.572C508.05 263.004 498.217 271.994 486.082 277.375C473.946 282.757 459.5 284.524 446.324 284.524H179.467C178.492 275.794 176.227 267.257 172.747 259.192C166.984 245.888 156.439 231.333 137.223 226.203L149.508 222.126L176.565 213.252L206.049 203.514L215.874 200.266C215.874 200.266 216.554 193.736 217.6 185.27C218.646 176.803 220.141 166.4 221.792 158.668C223.771 149.014 226.686 139.577 230.497 130.489C235.077 119.814 241.674 108.542 251.35 98.7229C259.287 90.6709 269.296 85.9756 279.964 82.8023C290.632 79.6291 301.952 77.9711 312.525 76.0074C319.381 74.7367 326.475 73.5272 333.691 72.5012C340.908 71.4752 348.233 70.6054 355.619 70.055Z" fill="#B00808" stroke="black" stroke-width="2.03848" stroke-miterlimit="10" stroke-linecap="round"/>
<path d="M313.661 118.585L295.94 201.544L278.225 284.503L308.422 284.429L338.625 284.354L326.435 201.456L314.238 118.557C314.231 118.488 314.199 118.424 314.148 118.378C314.096 118.331 314.029 118.306 313.96 118.306C313.922 118.304 313.884 118.31 313.848 118.323C313.812 118.336 313.779 118.356 313.751 118.382C313.724 118.408 313.701 118.44 313.686 118.474C313.67 118.509 313.662 118.547 313.661 118.585Z" fill="#FFF8F8" stroke="black" stroke-width="2.03848" stroke-miterlimit="10" stroke-linecap="round"/>
<path d="M137.223 226.203C122.682 228.465 109.744 233.059 99.3547 239.113C88.9652 245.167 81.1511 252.703 76.8499 260.857C74.6608 265.255 72.985 269.89 71.8556 274.671C70.7956 278.884 70.3063 282.098 70.2452 282.546C69.5799 286.569 69.2322 290.638 69.2056 294.716C69.2735 299.235 70.1365 303.413 72.8816 304.813C73.4603 305.101 74.0915 305.267 74.7366 305.302C75.2897 305.329 75.8439 305.291 76.3878 305.187C76.438 307.034 77.1632 308.799 78.4263 310.147C79.5967 311.425 81.2156 312.202 82.9449 312.315C84.3393 312.378 85.7174 311.994 86.8792 311.221C88.1031 310.419 89.0647 309.275 89.6447 307.932C90.0963 309.108 90.8233 310.159 91.7648 310.997C92.6343 311.779 93.7182 312.283 94.8768 312.444C95.7054 312.519 96.5408 312.429 97.3341 312.178C98.1274 311.927 98.8628 311.521 99.4974 310.983C100.97 309.763 101.964 308.061 102.304 306.179C102.307 306.16 102.317 306.142 102.332 306.13C102.347 306.117 102.366 306.111 102.385 306.111C102.395 306.11 102.405 306.111 102.414 306.114C102.424 306.117 102.433 306.122 102.44 306.128C102.448 306.134 102.454 306.142 102.459 306.151C102.463 306.16 102.466 306.169 102.467 306.179C102.773 307.765 103.501 309.239 104.573 310.446C105.438 311.465 106.647 312.131 107.971 312.315C109.622 312.471 111.47 311.595 112.863 309.998C113.639 309.08 114.224 308.016 114.583 306.869C114.943 305.722 115.069 304.515 114.956 303.318L115.364 295.762L115.771 288.2C115.827 287.206 116.261 286.272 116.983 285.588C117.706 284.905 118.663 284.524 119.658 284.523H179.453C178.407 275.68 176.084 267.035 172.557 258.859C166.754 245.446 156.181 230.864 137.223 226.203Z" fill="#FFC0C0" stroke="black" stroke-width="2.03848" stroke-miterlimit="10" stroke-linecap="round"/>
<path d="M347.227 284.523H288.111C288.113 275.828 291.569 267.488 297.718 261.34C303.868 255.192 312.208 251.738 320.904 251.738H347.227C349.38 251.737 351.512 252.16 353.501 252.984C355.491 253.807 357.298 255.014 358.821 256.536C360.343 258.058 361.551 259.865 362.375 261.854C363.199 263.843 363.623 265.974 363.623 268.127C363.624 270.281 363.201 272.413 362.377 274.403C361.554 276.393 360.346 278.2 358.823 279.723C357.3 281.246 355.493 282.454 353.503 283.277C351.513 284.101 349.381 284.524 347.227 284.523Z" fill="#F9851C" stroke="black" stroke-width="2.03848" stroke-miterlimit="10" stroke-linecap="round"/>
<path d="M318.58 251.738C321.352 254.229 323.654 257.198 325.375 260.503C328.371 266.157 330.586 274.358 327.481 284.523" stroke="black" stroke-width="2.03848" stroke-miterlimit="10" stroke-linecap="round"/>
<path d="M154.013 260.171L136.475 267.156L118.944 274.141C117.344 274.907 116.072 276.221 115.356 277.844C115.052 278.488 114.892 279.191 114.886 279.903C114.88 280.615 115.029 281.32 115.322 281.969C115.865 282.941 116.745 283.681 117.796 284.048C118.392 284.29 119.018 284.45 119.658 284.524" stroke="black" stroke-width="2.03848" stroke-miterlimit="10" stroke-linecap="round"/>
<path d="M199.587 532.75C200.742 527.687 202.665 521.456 204.928 514.274C207.19 507.092 209.779 498.958 212.28 490.077C212.577 489.169 212.784 488.234 212.898 487.285C213.059 485.848 212.983 484.395 212.674 482.983C212.393 481.747 211.889 480.573 211.186 479.518C210.491 478.452 209.599 477.529 208.556 476.8C205.635 474.827 202.503 473.184 199.22 471.901C196.162 470.657 193.356 469.754 191.413 469.054C188.865 468.08 186.26 467.266 183.612 466.614C180.474 465.882 177.252 465.566 174.031 465.677C171.764 465.756 169.508 466.038 167.291 466.519C165.601 466.884 163.937 467.361 162.31 467.946C162.31 467.946 165.653 462.734 166.299 457C166.944 451.265 164.872 444.986 154.068 442.873L142.516 440.834L130.965 438.796C130.018 438.63 129.047 438.653 128.108 438.862C127.17 439.072 126.282 439.465 125.495 440.019C124.709 440.572 124.039 441.276 123.525 442.088C123.011 442.901 122.662 443.807 122.498 444.755L120.915 453.792L119.359 462.809C118.933 465.385 117.767 467.782 116.002 469.706C113.06 472.927 107.577 475.679 97.4318 473.831L79.0243 469.55L60.6169 465.276C57.5999 464.596 54.5898 463.842 51.5864 463.095C48.583 462.347 45.5797 461.573 42.5831 460.791C37.3306 459.432 28.273 457.679 20.0511 459.106C11.8292 460.533 4.42272 465.12 2.49976 476.42L91.4115 530.48L180.316 584.541C186.826 572.31 191.644 559.399 194.837 549.479C198.031 539.558 199.587 532.75 199.587 532.75Z" fill="#F9851C" stroke="black" stroke-width="2.03848" stroke-miterlimit="10" stroke-linecap="round"/>
<path d="M162.296 467.966C159.255 471.414 155.902 474.573 152.281 477.404C146.294 482.086 138.337 486.693 130.469 486.401" stroke="black" stroke-width="2.03848" stroke-miterlimit="10" stroke-linecap="round"/>
<path d="M107.862 474.062L112.068 481.536L116.281 489.011" stroke="black" stroke-width="2.03848" stroke-miterlimit="10" stroke-linecap="round"/>
<path d="M86.0906 471.459L89.2434 479.199C90.2898 481.781 91.3385 484.361 92.3895 486.938" stroke="black" stroke-width="2.03848" stroke-miterlimit="10" stroke-linecap="round"/>
<path d="M67.3438 467.212L70.2996 475.794L73.2825 484.37" stroke="black" stroke-width="2.03848" stroke-miterlimit="10" stroke-linecap="round"/>
<path d="M180.147 490.94C179.143 492.213 177.73 493.099 176.147 493.447C174.564 493.795 172.909 493.583 171.464 492.847C170.02 492.112 168.875 490.898 168.225 489.413C167.576 487.928 167.461 486.264 167.901 484.704C168.341 483.144 169.308 481.784 170.638 480.857C171.968 479.931 173.578 479.494 175.194 479.621C176.81 479.748 178.331 480.432 179.5 481.555C180.668 482.679 181.41 484.173 181.601 485.783C181.71 486.696 181.637 487.621 181.388 488.506C181.138 489.391 180.716 490.218 180.147 490.94Z" fill="#14AF6C" stroke="black" stroke-width="2.03848" stroke-miterlimit="10" stroke-linecap="round"/>
<path d="M180.466 584.826L91.6287 530.48L2.77126 476.12C1.45905 481.264 1.82834 486.693 3.82506 491.612C5.82178 496.531 9.34102 500.682 13.8674 503.456L46.9384 523.78L80.0297 544.063C82.0719 545.309 84.2402 546.337 86.4985 547.127C88.7582 547.911 91.0954 548.451 93.4701 548.738L95.6241 548.996L97.7781 549.254C98.0544 549.287 98.3189 549.386 98.5494 549.542C98.7798 549.698 98.9697 549.907 99.1031 550.151C99.238 550.393 99.3127 550.663 99.321 550.94C99.3292 551.217 99.2708 551.492 99.1507 551.741C98.7417 552.597 98.664 553.574 98.9325 554.483C99.201 555.393 99.7967 556.171 100.605 556.667L115.887 566.031L131.162 575.394C131.873 575.832 132.701 576.04 133.535 575.992C134.369 575.943 135.167 575.64 135.823 575.122L136.455 574.626L137.087 574.13C137.237 574.01 137.418 573.936 137.609 573.915C137.8 573.894 137.993 573.928 138.166 574.013C138.338 574.097 138.483 574.23 138.583 574.394C138.683 574.558 138.735 574.747 138.731 574.939L138.514 576.515L138.29 578.092C138.226 578.548 138.297 579.013 138.493 579.429C138.69 579.846 139.004 580.196 139.397 580.436L142.55 582.373L145.71 584.302C146.123 584.562 146.606 584.687 147.094 584.659C147.581 584.631 148.047 584.452 148.428 584.146L149.603 583.222L150.779 582.298C150.929 582.177 151.11 582.102 151.302 582.082C151.493 582.061 151.687 582.096 151.859 582.182C152.032 582.267 152.177 582.399 152.278 582.562C152.379 582.726 152.431 582.914 152.43 583.106L152.287 584.105L152.151 585.104C152.03 585.961 152.162 586.835 152.532 587.617C152.901 588.399 153.492 589.057 154.23 589.507L156.432 590.866L158.634 592.225C160.508 593.376 162.613 594.101 164.798 594.349C166.984 594.597 169.198 594.363 171.283 593.661C173.368 592.96 175.273 591.81 176.865 590.291C178.456 588.772 179.695 586.923 180.493 584.873L180.466 584.826Z" fill="#EF3F3F" stroke="black" stroke-width="2.03848" stroke-miterlimit="10" stroke-linecap="round"/>
<path d="M106.686 268.651C106.007 271.96 105.327 275.446 104.736 279.149C104.145 282.852 103.663 286.712 103.282 290.761C103.028 293.479 102.836 296.127 102.705 298.705C102.573 301.282 102.494 303.774 102.467 306.179" stroke="black" stroke-width="2.03848" stroke-miterlimit="10" stroke-linecap="round"/>
<path d="M89.6448 307.932C89.6855 303.318 89.8826 298.48 90.2767 293.445C90.6708 288.41 91.2688 283.192 92.1045 277.817C92.3627 276.166 92.6413 274.542 92.9267 272.938C93.2121 271.335 93.5179 269.765 93.8373 268.216" stroke="black" stroke-width="2.03848" stroke-miterlimit="10" stroke-linecap="round"/>
<path d="M81.7964 267.869C81.3434 269.591 80.9108 271.353 80.4986 273.156C80.0864 274.959 79.6968 276.811 79.3299 278.714C78.399 283.511 77.7263 288.139 77.2506 292.562C76.775 296.986 76.5032 301.205 76.3809 305.187" stroke="black" stroke-width="2.03848" stroke-miterlimit="10" stroke-linecap="round"/>
<path d="M395.886 284.523L367.259 284.442L338.625 284.353C335.771 284.353 332.904 284.415 330.036 284.462C327.169 284.51 324.301 284.55 321.447 284.462C319.434 284.444 317.46 283.903 315.719 282.892C314.848 282.387 314.118 281.67 313.596 280.808C313.075 279.946 312.779 278.966 312.736 277.959C312.687 276.814 312.962 275.679 313.531 274.684C314.091 273.684 314.861 272.817 315.787 272.143C317.27 271.175 318.98 270.611 320.748 270.505C322.541 270.301 324.403 270.288 326.075 270.009C327.334 269.801 328.584 269.554 329.826 269.269C331.069 268.976 332.306 268.65 333.522 268.27C336.39 267.42 339.149 266.239 341.744 264.75C344.345 263.271 346.596 261.248 348.342 258.818C348.937 257.965 349.444 257.054 349.857 256.1C350.272 255.143 350.586 254.146 350.795 253.124C351.071 251.788 351.05 250.408 350.734 249.081C350.424 247.759 349.788 246.535 348.885 245.52L348.58 245.201C348.471 245.092 348.369 244.997 348.267 244.909C345.597 242.476 341.363 241.708 336.301 242.517C331.239 243.326 325.341 245.711 319.314 249.577L317.955 250.44C317.502 250.725 317.049 251.004 316.596 251.276L306.56 257.167L296.517 263.058C296.238 263.221 295.953 263.398 295.674 263.574C295.396 263.751 295.117 263.928 294.838 264.104C292.624 265.591 290.121 266.593 287.493 267.047C285.305 267.346 283.47 266.965 282.295 265.878C281.882 265.494 281.55 265.032 281.316 264.519C281.176 264.209 281.066 263.886 280.99 263.554C280.523 261.984 280.627 260.299 281.283 258.798C282.01 257.296 283.498 255.849 286.114 254.361C292.039 250.623 298.501 246.546 304.99 242.51C311.479 238.474 317.9 234.39 323.805 230.694L321.685 229.953L319.565 229.219L318.954 231.672L318.342 234.118L301.409 244.759L284.442 255.38C284.897 252.75 285.393 250.352 285.889 248.211C286.386 246.071 286.882 244.189 287.33 242.599C288.94 236.857 290.293 232.128 292.005 228.479C293.717 224.83 295.79 222.275 298.834 220.889C299.986 220.367 301.212 220.03 302.469 219.89C303.432 219.779 304.404 219.766 305.371 219.849C305.913 218.946 306.529 218.089 307.212 217.287C308.105 216.244 309.118 215.309 310.229 214.501C312.632 212.795 315.414 211.699 318.335 211.308C320.717 210.99 323.127 210.948 325.518 211.186C334.249 211.865 343.864 213.122 351.692 214.264C359.519 215.405 365.553 216.438 367.109 216.703C369.357 217.947 371.518 219.341 373.578 220.875C375.812 222.542 377.912 224.382 379.857 226.379C390.002 236.782 394.228 249.665 395.811 260.768C396.895 268.648 396.92 276.637 395.886 284.523Z" fill="#FFC0C0" stroke="black" stroke-width="2.03848" stroke-miterlimit="10" stroke-linecap="round"/>
<path d="M410.454 160.896L418.207 180.575L425.96 200.253L396.531 208.488L367.109 216.717" stroke="black" stroke-width="2.03848" stroke-miterlimit="10" stroke-linecap="round"/>
<path d="M207.911 84.9833C205.818 87.0761 202.359 87.4091 198.466 86.2539C194.572 85.0988 190.237 82.4623 186.384 78.6096C182.532 74.7569 179.888 70.4557 178.733 66.5282C177.578 62.6007 177.911 59.1761 180.004 57.0832C182.097 54.9904 185.549 54.6575 189.449 55.8126C193.349 56.9677 197.678 59.6042 201.53 63.4569C205.383 67.3096 208.026 71.6516 209.175 75.5451C210.323 79.4386 209.997 82.8972 207.911 84.9833Z" fill="#F7CE21" stroke="black" stroke-width="2.03848" stroke-miterlimit="10" stroke-linecap="round"/>
<path d="M204.948 87.5858C203.236 89.3198 201.045 90.5029 198.656 90.9833C196.273 91.4675 193.799 91.2163 191.562 90.263C189.688 89.4646 187.895 88.4884 186.208 87.348C184.221 86.0104 182.397 84.4461 180.772 82.6867C179.169 80.9334 177.77 79.005 176.6 76.9381C175.59 75.1597 174.735 73.2979 174.045 71.3731C173.382 69.5218 173.268 67.5184 173.719 65.6042C174.166 63.6859 175.143 61.9318 176.538 60.5419L178.19 58.884L179.848 57.2328C179.637 57.503 179.444 57.7867 179.27 58.0822C179.04 58.4693 178.84 58.8737 178.672 59.2917C177.102 63.2667 178.869 67.7922 181.132 71.4274C182.685 73.8879 184.508 76.1671 186.568 78.2224C189.513 81.0802 192.905 83.4374 196.611 85.2008C200.314 86.8859 204.004 87.5382 206.626 85.9686C206.862 85.8165 207.089 85.6509 207.306 85.4726C207.544 85.2891 207.761 85.1056 207.863 85.0173L206.463 86.288L204.948 87.5858Z" fill="#F9851C" stroke="black" stroke-width="2.03848" stroke-miterlimit="10" stroke-linecap="round"/>
<path d="M176.844 77.2849L179.426 74.9814L182.008 72.6847" stroke="black" stroke-width="2.03848" stroke-miterlimit="10" stroke-linecap="round"/>
<path d="M181.39 82.6119L183.612 80.6278L185.834 78.6505" stroke="black" stroke-width="2.03848" stroke-miterlimit="10" stroke-linecap="round"/>
<path d="M196.209 84.9561L193.797 87.1916L191.385 89.4272" stroke="black" stroke-width="2.03848" stroke-miterlimit="10" stroke-linecap="round"/>
<path d="M475.339 185.522C477.425 187.608 477.758 191.066 476.603 194.96C475.448 198.853 472.825 203.195 468.959 207.048C465.092 210.901 460.805 213.537 456.877 214.692C452.95 215.847 449.525 215.514 447.432 213.422C445.34 211.329 445.007 207.877 446.162 203.977C447.317 200.076 449.96 195.748 453.813 191.895C457.666 188.042 462.001 185.406 465.894 184.251C469.788 183.096 473.246 183.429 475.339 185.522Z" fill="#F7CE21" stroke="black" stroke-width="2.03848" stroke-miterlimit="10" stroke-linecap="round"/>
<path d="M477.934 188.477C479.668 190.192 480.85 192.385 481.332 194.776C481.814 197.157 481.56 199.629 480.605 201.863C479.806 203.737 478.83 205.53 477.69 207.217C476.352 209.204 474.788 211.028 473.029 212.653C471.277 214.258 469.349 215.658 467.28 216.825C465.502 217.835 463.64 218.69 461.715 219.38C459.864 220.046 457.86 220.159 455.946 219.706C454.029 219.259 452.276 218.284 450.884 216.893L449.226 215.235L447.575 213.577C447.847 213.785 448.131 213.978 448.424 214.155C448.811 214.385 449.216 214.585 449.634 214.753C453.609 216.323 458.134 214.563 461.769 212.293C464.228 210.737 466.506 208.914 468.564 206.857C471.426 203.897 473.783 200.489 475.543 196.767C477.228 193.07 477.88 189.374 476.31 186.751C476.157 186.516 475.991 186.289 475.814 186.072C475.631 185.834 475.448 185.616 475.366 185.521L476.664 186.996L477.934 188.477Z" fill="#F9851C" stroke="black" stroke-width="2.03848" stroke-miterlimit="10" stroke-linecap="round"/>
<path d="M467.633 216.581L465.337 213.999L463.033 211.424" stroke="black" stroke-width="2.03848" stroke-miterlimit="10" stroke-linecap="round"/>
<path d="M472.961 212.035L470.984 209.813L469 207.591" stroke="black" stroke-width="2.03848" stroke-miterlimit="10" stroke-linecap="round"/>
<path d="M475.305 197.215L477.541 199.627L479.776 202.04" stroke="black" stroke-width="2.03848" stroke-miterlimit="10" stroke-linecap="round"/>
<path d="M326.055 375.97L325.355 366.457L324.655 356.944" stroke="black" stroke-width="2.03848" stroke-miterlimit="10" stroke-linecap="round"/>
<path d="M360.98 399.548V452.196V504.843" stroke="black" stroke-width="2.03848" stroke-miterlimit="10" stroke-linecap="round"/>
<path d="M414.001 529.447V513.587C414.001 512.44 413.775 511.304 413.336 510.244C412.897 509.185 412.253 508.222 411.441 507.411C410.63 506.6 409.666 505.957 408.606 505.519C407.546 505.08 406.41 504.855 405.263 504.856H316.698C315.551 504.855 314.415 505.08 313.355 505.519C312.295 505.957 311.332 506.6 310.521 507.411C309.71 508.222 309.067 509.185 308.629 510.245C308.19 511.305 307.965 512.441 307.966 513.587V529.46" stroke="black" stroke-width="2.03848" stroke-miterlimit="10" stroke-linecap="round"/>
<path d="M429.283 544.729C429.284 548.267 428.059 551.695 425.816 554.43C423.573 557.166 420.451 559.038 416.982 559.73C413.513 560.421 409.911 559.888 406.791 558.221C403.671 556.554 401.225 553.857 399.871 550.589C398.516 547.322 398.337 543.685 399.363 540.3C400.389 536.915 402.558 533.99 405.499 532.025C408.44 530.059 411.972 529.174 415.492 529.521C419.012 529.867 422.304 531.424 424.805 533.925C426.226 535.342 427.353 537.026 428.122 538.88C428.89 540.734 429.285 542.722 429.283 544.729Z" fill="black" stroke="black" stroke-width="2.03848" stroke-miterlimit="10" stroke-linecap="round"/>
<path d="M323.248 544.729C323.25 548.267 322.025 551.695 319.781 554.43C317.538 557.166 314.416 559.038 310.947 559.73C307.478 560.421 303.876 559.888 300.756 558.221C297.636 556.554 295.19 553.857 293.836 550.589C292.482 547.322 292.302 543.685 293.329 540.3C294.355 536.915 296.523 533.99 299.464 532.025C302.405 530.059 305.937 529.174 309.457 529.521C312.978 529.867 316.269 531.424 318.77 533.925C320.192 535.342 321.319 537.026 322.087 538.88C322.856 540.734 323.25 542.722 323.248 544.729Z" fill="black" stroke="black" stroke-width="2.03848" stroke-miterlimit="10" stroke-linecap="round"/>
<path d="M306.158 95.3798L310.079 106.184L314 116.988L320.156 106.034L326.312 95.0808L316.235 95.2303L306.158 95.3798Z" fill="#FFF8F8" stroke="black" stroke-width="2.03848" stroke-miterlimit="10" stroke-linecap="round"/>
<path d="M362.924 144.31L338.462 130.652L314 116.988L329.71 88.7818L345.413 60.5692C348.335 74.526 351.254 88.4828 354.172 102.44C357.089 116.396 360.006 130.353 362.924 144.31Z" fill="#B00808" stroke="black" stroke-width="2.03848" stroke-miterlimit="10" stroke-linecap="round"/>
<path d="M314 116.988L303.203 86.1592L292.405 55.3237L281.513 98.0435L270.628 140.763L292.317 128.872L314 116.988Z" fill="#B00808" stroke="black" stroke-width="2.03848" stroke-miterlimit="10" stroke-linecap="round"/>
<path d="M271.117 255.713C271.115 256.631 270.795 257.52 270.212 258.228C269.629 258.937 268.818 259.421 267.917 259.599C267.017 259.776 266.083 259.637 265.274 259.203C264.465 258.769 263.831 258.069 263.481 257.22C263.131 256.372 263.085 255.429 263.352 254.551C263.619 253.673 264.182 252.914 264.946 252.405C265.709 251.895 266.626 251.666 267.539 251.757C268.452 251.847 269.306 252.251 269.955 252.9C270.324 253.269 270.617 253.708 270.816 254.191C271.016 254.673 271.118 255.191 271.117 255.713Z" fill="black" stroke="black" stroke-width="2.03848" stroke-miterlimit="10" stroke-linecap="round"/>
<path d="M243.516 231.17L239.188 257.759L234.853 284.354" fill="black"/>
<path d="M243.516 231.17L239.188 257.759L234.853 284.354" stroke="black" stroke-width="2.03848" stroke-miterlimit="10" stroke-linecap="round"/>
<path d="M305.371 219.863C305.14 220.359 304.861 220.984 304.548 221.718C304.236 222.452 303.91 223.294 303.577 224.232C303.006 225.842 302.585 227.276 302.265 228.533C301.946 229.79 301.715 230.871 301.531 231.768C301.079 233.933 300.607 236.245 300.118 238.705C299.629 241.165 299.117 243.779 298.583 246.547" stroke="black" stroke-width="2.03848" stroke-miterlimit="10" stroke-linecap="round"/>
<path d="M296.102 239.867H204.649H113.196V174.779V109.683H204.649H296.102V174.779V239.867Z" fill="#F7CE21" stroke="black" stroke-width="2.03848" stroke-miterlimit="10" stroke-linecap="round"/>
<path d="M209.875 274.141L214.019 257.004L218.171 239.867H201.789H185.413L181.261 257.004L177.116 274.141H177.109L175.852 279.332L174.602 284.524H190.978H207.36H232.006H256.651V279.332V274.141H233.263H209.875Z" fill="#F7CE21" stroke="black" stroke-width="2.03848" stroke-miterlimit="10" stroke-linecap="round"/>
<path d="M201.985 162.697C201.738 161.227 201.688 159.73 201.836 158.246C202.087 155.759 202.977 152.763 205.539 150.704" stroke="black" stroke-width="2.03848" stroke-miterlimit="10" stroke-linecap="round"/>
<path d="M202.081 162.018C202.081 162.018 202.658 161.338 203.44 160.523C204.237 159.653 205.088 158.834 205.988 158.07C207.474 156.918 209.214 156.14 211.064 155.8C212.06 155.597 213.077 155.508 214.094 155.535C216.843 155.69 219.466 156.735 221.569 158.512C222.74 159.451 223.778 160.546 224.653 161.766C226.869 164.946 227.562 168.629 227.371 172.421C227.093 176.263 226.274 180.046 224.939 183.66C224.334 185.419 223.648 187.159 222.9 188.878C222.153 190.597 221.385 192.276 220.597 193.981C220.054 195.206 219.413 196.385 218.681 197.508C217.952 198.627 216.97 199.558 215.813 200.226C214.54 200.907 213.125 201.279 211.682 201.313C210.959 201.337 210.236 201.273 209.528 201.123C208.179 200.796 206.929 200.148 205.886 199.234C205.296 198.726 204.775 198.143 204.337 197.501C203.841 198.146 203.271 198.73 202.638 199.24C201.727 199.98 200.675 200.525 199.546 200.844C197.607 201.345 195.556 201.18 193.723 200.375C192.547 199.879 191.443 199.228 190.441 198.439C189.504 197.7 188.731 196.775 188.171 195.721C186.681 192.995 185.432 190.144 184.441 187.2C183.151 183.901 182.071 180.524 181.207 177.089C180.593 174.577 180.553 171.96 181.091 169.431C181.335 168.249 181.693 167.093 182.158 165.979C182.86 164.325 183.872 162.821 185.141 161.549C185.812 160.857 186.541 160.225 187.322 159.66C188.338 158.939 189.496 158.446 190.72 158.213C193.39 157.757 196.217 158.702 198.377 159.769C199.68 160.401 200.919 161.154 202.081 162.018Z" fill="#EF3F3F" stroke="black" stroke-width="2.03848" stroke-miterlimit="10" stroke-linecap="round"/>
<path d="M211.593 171.259C211.763 171.551 211.933 171.836 212.103 172.101C212.273 172.366 212.429 172.618 212.578 172.849C213.695 174.533 214.575 176.362 215.194 178.285C215.8 180.223 216.092 182.247 216.057 184.278C216.056 184.332 216.073 184.385 216.105 184.429C216.137 184.474 216.182 184.506 216.234 184.522C216.285 184.54 216.34 184.541 216.391 184.525C216.443 184.509 216.488 184.477 216.519 184.434C217.923 182.598 218.991 180.527 219.672 178.319C220.367 176.125 220.598 173.811 220.352 171.524C220.136 169.853 219.603 168.238 218.782 166.767C218.032 165.268 216.793 164.069 215.269 163.37C214.463 163.075 213.582 163.053 212.762 163.309C211.933 163.555 211.206 164.063 210.689 164.756C210.368 165.232 210.158 165.774 210.076 166.342C209.994 166.911 210.041 167.49 210.214 168.038C210.519 169.171 210.983 170.256 211.593 171.259Z" fill="#FFF8F8" stroke="black" stroke-width="2.03848" stroke-miterlimit="10" stroke-linecap="round"/>
<path d="M360.709 42.1752L345.298 40.49L329.887 38.8049C329.679 42.9769 330.024 47.1582 330.913 51.2396C332.803 60.0733 337.525 68.0488 344.36 73.9551C346.282 75.6189 348.347 77.1105 350.53 78.4126C352.612 75.6794 354.409 72.7399 355.891 69.6403C358.716 63.7201 360.401 57.3211 360.858 50.7776C361.054 47.9111 361.004 45.0331 360.709 42.1752Z" fill="black" stroke="black" stroke-width="2.03848" stroke-miterlimit="10" stroke-linecap="round"/>
<path d="M340.065 69.6403C339.325 68.7774 338.768 68.0435 338.34 67.4456C337.911 66.8476 337.66 66.3788 337.436 66.0458C337.212 65.7129 337.157 65.5702 337.048 65.3663C336.94 65.1625 336.838 64.979 336.763 64.8295L337.13 64.9926L337.572 65.1761L337.966 65.312C338.197 65.3935 338.516 65.4886 338.836 65.5702C340.598 66.0241 342.444 66.0444 344.216 65.6292C345.988 65.2141 347.633 64.3758 349.01 63.1862C350.387 61.9966 351.456 60.4911 352.124 58.7985C352.793 57.1058 353.041 55.2764 352.848 53.4667C352.656 51.6571 352.027 49.9211 351.017 48.4073C350.007 46.8935 348.645 45.6469 347.048 44.7742C345.451 43.9014 343.667 43.4286 341.847 43.3961C340.028 43.3636 338.227 43.7723 336.6 44.5874C334.189 45.8 332.269 47.806 331.164 50.268C330.913 49.4458 330.675 48.5217 330.485 47.5092C330.26 46.4159 330.094 45.3113 329.989 44.2001C329.893 43.1808 329.853 42.216 329.853 41.3122C329.853 40.4085 329.887 39.5727 329.948 38.8049L303.631 35.9035L277.328 33.0292C276.974 33.9805 276.648 34.9454 276.329 35.9239C276.01 36.9023 275.745 37.908 275.493 38.9204C272.448 50.9227 273.984 63.6287 279.801 74.5599C285.353 84.7523 294.594 92.5121 306.193 95.3524C314.329 97.3291 322.88 96.7211 330.654 93.6129C338.538 90.4496 345.406 85.191 350.516 78.4058C349.147 77.5697 347.822 76.6625 346.548 75.6878C345.413 74.8317 344.455 74.0163 343.667 73.3096C343.232 72.9223 342.688 72.4059 342.07 71.7875C341.452 71.1692 340.779 70.4761 340.065 69.6403Z" fill="#FFC0C0" stroke="black" stroke-width="2.03848" stroke-miterlimit="10" stroke-linecap="round"/>
<path d="M330.96 65.5634C330.622 66.9178 329.824 68.113 328.703 68.9453C327.583 69.7775 326.208 70.1954 324.813 70.1277C323.419 70.0599 322.091 69.5107 321.056 68.5737C320.021 67.6367 319.343 66.3698 319.138 64.989C318.933 63.6081 319.212 62.1988 319.929 61.001C320.647 59.8033 321.757 58.8913 323.071 58.4205C324.385 57.9496 325.822 57.9491 327.137 58.419C328.452 58.8888 329.563 59.8 330.281 60.9972C330.69 61.6754 330.962 62.4283 331.078 63.2122C331.195 63.996 331.155 64.7952 330.96 65.5634Z" fill="#EF3F3F" stroke="black" stroke-width="2.03848" stroke-miterlimit="10" stroke-linecap="round"/>
<path d="M293.975 76.5376C293.638 77.8907 292.841 79.0848 291.722 79.9166C290.603 80.7483 289.229 81.1661 287.836 81.0989C286.443 81.0316 285.117 80.4834 284.083 79.5476C283.049 78.6119 282.372 77.3465 282.166 75.9672C281.96 74.5879 282.24 73.18 282.956 71.9834C283.672 70.7868 284.781 69.8756 286.094 69.4051C287.406 68.9346 288.842 68.9338 290.155 69.403C291.468 69.8722 292.578 70.7823 293.296 71.9782C294.115 73.3487 294.359 74.9877 293.975 76.5376Z" fill="#EF3F3F" stroke="black" stroke-width="2.03848" stroke-miterlimit="10" stroke-linecap="round"/>
<path d="M289.436 60.0732C289.28 60.6983 288.883 61.2364 288.332 61.57C287.781 61.9035 287.12 62.0054 286.494 61.8535C286.184 61.7779 285.891 61.6417 285.633 61.4527C285.376 61.2638 285.158 61.0257 284.992 60.7523C284.827 60.4789 284.717 60.1756 284.669 59.8596C284.622 59.5437 284.637 59.2214 284.714 58.9113C284.789 58.6008 284.926 58.3083 285.115 58.0506C285.303 57.7929 285.542 57.5751 285.815 57.4097C286.088 57.2443 286.392 57.1345 286.708 57.0866C287.024 57.0388 287.346 57.0539 287.656 57.131C287.966 57.2045 288.259 57.3399 288.516 57.529C288.772 57.7182 288.989 57.9572 289.151 58.2318C289.319 58.5041 289.431 58.8074 289.48 59.1236C289.529 59.4399 289.514 59.7627 289.436 60.0732Z" fill="black"/>
<path d="M314.544 55.9011C314.389 56.5275 313.993 57.0672 313.442 57.4021C312.89 57.737 312.229 57.8399 311.602 57.6882C311.291 57.6126 310.999 57.4764 310.741 57.2874C310.483 57.0984 310.266 56.8604 310.1 56.587C309.935 56.3136 309.825 56.0102 309.777 55.6943C309.729 55.3783 309.744 55.0561 309.821 54.7459C309.976 54.1195 310.372 53.5798 310.924 53.2449C311.475 52.91 312.137 52.8071 312.764 52.9589C313.074 53.0345 313.367 53.1707 313.624 53.3596C313.882 53.5486 314.1 53.7866 314.265 54.06C314.431 54.3334 314.54 54.6368 314.588 54.9527C314.636 55.2687 314.621 55.591 314.544 55.9011Z" fill="black"/>
<path d="M288.111 45.797C293.099 43.8237 298.381 42.6983 303.74 42.4675C306.027 42.3686 308.318 42.4322 310.596 42.6577C312.451 42.8443 314.293 43.1392 316.113 43.5411" stroke="black" stroke-width="2.03848" stroke-miterlimit="10" stroke-linecap="round"/>
<path d="M295.076 44.3835L296.333 55.8465L297.597 67.3096L299.194 66.997L300.798 66.6913" stroke="black" stroke-width="2.03848" stroke-miterlimit="10" stroke-linecap="round"/>
<path d="M328.772 3.12479C318.322 0.623148 307.308 2.33159 298.107 7.88125C288.483 13.6401 281.131 22.5303 277.28 33.0633L319.001 37.6227L360.708 42.1753C359.858 33.0851 356.393 24.4356 350.733 17.2718C345.179 10.2567 337.456 5.28133 328.772 3.12479Z" fill="#F9851C" stroke="black" stroke-width="2.03848" stroke-miterlimit="10" stroke-linecap="round"/>
<path d="M337.205 57.4165L341.329 55.412L345.454 53.4007" stroke="black" stroke-width="2.03848" stroke-miterlimit="10" stroke-linecap="round"/>
<path d="M293.133 34.7826C292.878 39.2516 291.282 43.5399 288.553 47.0882C285.975 50.4782 282.356 52.9295 278.252 54.0666C276.714 54.4775 275.128 54.6854 273.536 54.685C272.112 54.6827 270.692 54.5208 269.303 54.2025C265.77 53.4162 262.529 51.6554 259.946 49.1199C258.091 47.3112 256.663 45.1111 255.766 42.68C254.869 40.249 254.526 37.6484 254.762 35.068C254.903 33.482 255.277 31.9253 255.869 30.4474C257.193 27.2342 259.378 24.4481 262.182 22.3954C263.571 21.3284 265.157 20.5461 266.849 20.0937C268.541 19.6412 270.305 19.5275 272.041 19.759C274.178 20.1185 276.188 21.0191 277.878 22.375C278.998 23.2506 280.001 24.2669 280.861 25.3988C280.44 26.0783 280.019 26.8733 279.604 27.6819C279.19 28.4905 278.782 29.3331 278.388 30.23C278.177 30.7192 277.973 31.1949 277.783 31.6637C277.593 32.1326 277.416 32.6014 277.253 33.0227L285.183 33.8925L293.133 34.7826Z" fill="black" stroke="black" stroke-width="2.03848" stroke-miterlimit="10" stroke-linecap="round"/>
<path d="M284.66 19.7725L321.182 24.5833L357.705 29.3873" stroke="black" stroke-width="2.03848" stroke-miterlimit="10" stroke-linecap="round"/>
<path d="M295.708 21.2263L294.057 27.9669L292.406 34.7075" stroke="black" stroke-width="2.03848" stroke-miterlimit="10" stroke-linecap="round"/>
<path d="M310.113 23.2243L308.557 29.598L306.994 35.9648" stroke="black" stroke-width="2.03848" stroke-miterlimit="10" stroke-linecap="round"/>
<path d="M327.699 25.7113L326.163 31.9695L324.627 38.2276" stroke="black" stroke-width="2.03848" stroke-miterlimit="10" stroke-linecap="round"/>
<path d="M345.658 28.0555L344.204 33.9806L342.75 39.899" stroke="black" stroke-width="2.03848" stroke-miterlimit="10" stroke-linecap="round"/>
<path d="M316.874 70.0414C316.81 69.8093 316.697 69.5936 316.543 69.4085C316.389 69.2234 316.197 69.0732 315.98 68.9678C315.764 68.8624 315.527 68.8043 315.287 68.7972C315.046 68.7902 314.807 68.8344 314.584 68.927L310.935 70.4491L307.28 71.9711C306.057 73.7421 305.17 75.7229 304.664 77.8148C304.259 79.4181 304.031 81.0609 303.984 82.7139C305.285 83.2064 306.671 83.4373 308.061 83.3934C309.438 83.3518 310.788 82.9987 312.009 82.3606C314.052 81.239 315.629 79.4279 316.46 77.2508C317.38 74.9571 317.526 72.4254 316.874 70.0414Z" fill="#EF3F3F" stroke="black" stroke-width="2.03848" stroke-miterlimit="10" stroke-linecap="round"/>
<path d="M299.112 75.3688C298.889 75.4635 298.689 75.6037 298.524 75.7805C298.359 75.9572 298.233 76.1664 298.154 76.3948C298.07 76.6237 298.037 76.868 298.057 77.1108C298.077 77.3536 298.149 77.5892 298.269 77.8014C299.544 80.0567 301.568 81.7947 303.991 82.7141C304.037 81.0612 304.265 79.4183 304.67 77.815C305.176 75.7231 306.063 73.7423 307.286 71.9713L303.209 73.6701L299.112 75.3688Z" fill="black" stroke="black" stroke-width="2.03848" stroke-miterlimit="10" stroke-linecap="round"/>
<path d="M498.883 23.2243H434.508C432.508 23.2243 430.589 24.019 429.175 25.4335C427.76 26.8479 426.966 28.7664 426.966 30.7667V93.8169C426.966 95.8173 427.76 97.7357 429.175 99.1502C430.589 100.565 432.508 101.359 434.508 101.359H444.775L441.643 113.944L438.51 126.528L451.957 113.944L465.398 101.359H498.883C500.884 101.359 502.802 100.565 504.216 99.1502C505.631 97.7357 506.426 95.8173 506.426 93.8169V30.7667C506.426 28.7664 505.631 26.8479 504.216 25.4335C502.802 24.019 500.884 23.2243 498.883 23.2243Z" fill="#D1B7E5" stroke="black" stroke-width="2.03848" stroke-miterlimit="10" stroke-linecap="round"/>
<path d="M491.368 62.6759C491.366 68.3802 489.385 73.9072 485.764 78.3152C482.144 82.7232 477.107 85.7395 471.511 86.8503C465.916 87.9611 460.109 87.0977 455.079 84.4072C450.049 81.7166 446.107 77.3654 443.926 72.0947C441.744 66.8241 441.457 60.96 443.114 55.5015C444.771 50.043 448.269 45.3278 453.012 42.1591C457.755 38.9904 463.45 37.5642 469.127 38.1235C474.804 38.6828 480.112 41.193 484.145 45.2265C486.44 47.5153 488.26 50.2353 489.499 53.2299C490.739 56.2246 491.374 59.4348 491.368 62.6759Z" fill="#F9851C" stroke="black" stroke-width="2.03848" stroke-miterlimit="10" stroke-linecap="round"/>
<path d="M485.341 62.6757C485.336 66.9917 483.835 71.1726 481.093 74.5056C478.351 77.8386 474.537 80.1176 470.303 80.9539C466.069 81.7903 461.676 81.1324 457.872 79.0923C454.069 77.0522 451.091 73.7562 449.445 69.7661C447.8 65.776 447.589 61.3388 448.849 57.2107C450.109 53.0827 452.761 49.5193 456.354 47.1279C459.947 44.7366 464.258 43.6653 468.553 44.0967C472.847 44.5281 476.859 46.4354 479.905 49.4935C481.635 51.2241 483.006 53.2796 483.939 55.5419C484.872 57.8042 485.348 60.2286 485.341 62.6757Z" fill="#F7CE21" stroke="black" stroke-width="2.03848" stroke-miterlimit="10" stroke-linecap="round"/>
<path d="M469.292 62.5467H459.915V54.1074H469.292C470.41 54.1092 471.481 54.5546 472.271 55.3457C473.061 56.1369 473.504 57.2091 473.504 58.3271C473.504 59.4462 473.06 60.5195 472.269 61.3108C471.477 62.1022 470.404 62.5467 469.285 62.5467H469.292Z" stroke="black" stroke-width="2.03848" stroke-miterlimit="10" stroke-linecap="round"/>
<path d="M469.292 71.1147H459.915V62.6754H469.292C470.411 62.6754 471.484 63.12 472.275 63.9113C473.067 64.7027 473.511 65.776 473.511 66.8951V66.8951C473.511 68.0142 473.067 69.0875 472.275 69.8788C471.484 70.6702 470.411 71.1147 469.292 71.1147Z" stroke="black" stroke-width="2.03848" stroke-miterlimit="10" stroke-linecap="round"/>
<path d="M463.522 49.412V51.7563V54.1073" stroke="black" stroke-width="2.03848" stroke-miterlimit="10" stroke-linecap="round"/>
<path d="M467.565 49.412V51.7563V54.1073" stroke="black" stroke-width="2.03848" stroke-miterlimit="10" stroke-linecap="round"/>
<path d="M463.522 71.2441V73.5951V75.9394" stroke="black" stroke-width="2.03848" stroke-miterlimit="10" stroke-linecap="round"/>
<path d="M467.565 71.2441V73.5951V75.9394" stroke="black" stroke-width="2.03848" stroke-miterlimit="10" stroke-linecap="round"/>
<path d="M347.18 497.422C343.382 487.149 339.97 478.22 337.205 471.119C334.439 464.019 332.313 458.739 331.089 455.749C330.596 454.496 329.982 453.295 329.255 452.161C328.245 450.587 326.919 449.241 325.361 448.207C324.631 447.728 323.849 447.331 323.031 447.024C321.623 446.511 320.158 446.169 318.668 446.005C316.958 445.86 315.236 445.935 313.545 446.229C309.537 446.883 305.592 447.881 301.756 449.212C299.153 450.027 296.602 451 294.118 452.127C291.198 453.491 288.472 455.237 286.012 457.319C284.285 458.784 282.693 460.4 281.255 462.15C280.155 463.485 279.143 464.89 278.225 466.356C278.225 466.356 277.634 460.193 274.583 455.287C271.532 450.381 266.028 446.739 256.236 451.774L245.874 457.332L235.546 462.884C233.837 463.806 232.564 465.369 232.007 467.229C231.451 469.09 231.655 471.095 232.576 472.804L236.932 480.85L241.288 488.902C242.543 491.183 243.111 493.779 242.925 496.376C242.606 500.725 240.003 506.283 230.884 511.107L213.775 519.159L196.665 527.177C193.866 528.496 191.053 529.787 188.226 531.051C185.399 532.314 182.566 533.569 179.725 534.815C174.758 536.996 166.564 541.229 160.985 547.433C155.406 553.637 152.437 561.825 157.914 571.895L261.197 559.331L364.48 546.774L355.816 522.088C352.944 513.875 350.065 505.653 347.18 497.422Z" fill="#F9851C" stroke="black" stroke-width="2.03848" stroke-miterlimit="10" stroke-linecap="round"/>
<path d="M278.198 466.356C277.938 470.939 277.256 475.489 276.159 479.946C274.352 487.332 270.948 495.873 264.608 500.514" stroke="black" stroke-width="2.03848" stroke-miterlimit="10" stroke-linecap="round"/>
<path d="M239.201 504.843L247.144 508.152L255.088 511.427" stroke="black" stroke-width="2.03848" stroke-miterlimit="10" stroke-linecap="round"/>
<path d="M220.495 516.306L227.759 520.383L235.002 524.534" stroke="black" stroke-width="2.03848" stroke-miterlimit="10" stroke-linecap="round"/>
<path d="M203.141 524.534L210.765 529.447L218.395 534.36" stroke="black" stroke-width="2.03848" stroke-miterlimit="10" stroke-linecap="round"/>
<path d="M306.431 473.362C306.428 474.983 305.862 476.553 304.832 477.804C303.801 479.055 302.368 479.909 300.777 480.222C299.187 480.535 297.537 480.287 296.109 479.52C294.681 478.752 293.563 477.514 292.947 476.015C292.33 474.515 292.252 472.849 292.726 471.299C293.2 469.749 294.197 468.411 295.548 467.514C296.898 466.617 298.517 466.215 300.13 466.378C301.743 466.542 303.249 467.259 304.392 468.408C305.041 469.059 305.555 469.832 305.905 470.682C306.255 471.532 306.433 472.443 306.431 473.362Z" fill="#14AF6C" stroke="black" stroke-width="2.03848" stroke-miterlimit="10" stroke-linecap="round"/>
<path d="M364.785 546.883L261.346 559.216L157.913 571.528C160.069 576.381 163.721 580.417 168.335 583.044C172.95 585.672 178.284 586.753 183.557 586.131L222.098 581.578L260.646 577.025C263.021 576.745 265.359 576.207 267.618 575.422C269.879 574.641 272.05 573.621 274.093 572.378L275.941 571.243L277.81 570.122C278.047 569.978 278.315 569.893 278.592 569.873C278.868 569.853 279.146 569.899 279.401 570.007C279.656 570.115 279.882 570.283 280.061 570.495C280.239 570.707 280.364 570.959 280.426 571.229C280.633 572.153 281.174 572.967 281.946 573.516C282.717 574.064 283.665 574.307 284.605 574.199L302.401 572.092L320.197 569.986C321.027 569.891 321.809 569.542 322.435 568.988C323.061 568.434 323.501 567.7 323.696 566.887L323.88 566.113L324.07 565.331C324.115 565.145 324.212 564.975 324.349 564.842C324.486 564.708 324.658 564.616 324.845 564.575C325.033 564.535 325.228 564.548 325.408 564.613C325.588 564.678 325.746 564.793 325.864 564.944L326.666 566.303L327.467 567.662C327.699 568.062 328.044 568.384 328.459 568.586C328.878 568.801 329.352 568.882 329.818 568.817L333.488 568.382L337.164 567.954C337.645 567.897 338.098 567.695 338.462 567.375C338.826 567.054 339.084 566.631 339.202 566.16L339.549 564.706L339.902 563.252C339.947 563.066 340.044 562.896 340.181 562.762C340.318 562.629 340.49 562.536 340.678 562.496C340.865 562.455 341.06 562.469 341.24 562.534C341.42 562.599 341.578 562.714 341.696 562.865L342.206 563.735L342.715 564.611C343.149 565.359 343.795 565.962 344.57 566.344C345.345 566.732 346.217 566.886 347.078 566.785L349.639 566.48L352.201 566.174C354.381 565.913 356.478 565.176 358.343 564.017C360.207 562.858 361.796 561.305 362.995 559.466C364.195 557.627 364.977 555.547 365.286 553.373C365.596 551.199 365.425 548.984 364.785 546.883Z" fill="#EF3F3F" stroke="black" stroke-width="2.03848" stroke-miterlimit="10" stroke-linecap="round"/>
<path d="M425.261 399.807H328.331L326.489 378.369L324.655 356.937L374.937 357.073L425.22 357.202C426.139 357.201 427.05 357.382 427.899 357.733C428.749 358.085 429.521 358.6 430.171 359.25C430.821 359.9 431.336 360.672 431.688 361.522C432.039 362.371 432.22 363.282 432.219 364.201V392.801C432.22 393.72 432.039 394.631 431.688 395.48C431.336 396.33 430.821 397.102 430.171 397.752C429.521 398.402 428.749 398.918 427.899 399.269C427.05 399.62 426.139 399.801 425.22 399.8L425.261 399.807Z" fill="#D1B7E5" stroke="black" stroke-width="2.03848" stroke-miterlimit="10" stroke-linecap="round"/>
<path d="M392.42 297.346L427.401 438.463L462.374 579.58" stroke="black" stroke-width="2.03848" stroke-miterlimit="10" stroke-linecap="round"/>
<path d="M325.083 357.134L373.619 378.11L422.135 399.08C423.268 399.57 424.506 399.769 425.736 399.659C426.966 399.549 428.149 399.134 429.178 398.451C430.207 397.768 431.049 396.838 431.627 395.747C432.206 394.656 432.502 393.438 432.49 392.203L432.348 377.777L432.198 363.359C432.177 361.733 431.517 360.18 430.362 359.036C429.206 357.892 427.647 357.248 426.021 357.243L375.583 357.107L325.144 356.971C325.121 356.969 325.099 356.976 325.081 356.99C325.064 357.004 325.052 357.024 325.049 357.046C325.046 357.062 325.048 357.079 325.054 357.095C325.06 357.11 325.07 357.124 325.083 357.134Z" fill="black" stroke="black" stroke-width="2.03848" stroke-miterlimit="10" stroke-linecap="round"/>
<path d="M410.61 161.291C413.161 167.759 415.706 174.224 418.248 180.683L425.892 200.076C425.909 200.12 425.909 200.168 425.892 200.212C425.881 200.233 425.865 200.252 425.847 200.267C425.828 200.283 425.806 200.294 425.783 200.3L408.952 205.009L392.114 209.725C392.085 209.732 392.055 209.731 392.026 209.723C391.998 209.715 391.972 209.699 391.951 209.677C391.929 209.655 391.914 209.626 391.908 209.594C391.902 209.563 391.905 209.53 391.917 209.501L401.104 185.392L410.311 161.297C410.323 161.265 410.344 161.237 410.372 161.218C410.4 161.198 410.433 161.188 410.467 161.189C410.498 161.19 410.528 161.201 410.554 161.219C410.579 161.237 410.599 161.262 410.61 161.291Z" fill="black" stroke="black" stroke-width="2.03848" stroke-miterlimit="10" stroke-linecap="round"/>
</svg>
