<svg width="514" height="390" viewBox="0 0 514 390" fill="none" xmlns="http://www.w3.org/2000/svg">
<path d="M363.287 124.974C395.488 125.525 425.304 133.244 448.366 149.294C471.428 165.343 487.73 189.744 492.928 223.637C495.949 239.945 498.975 256.266 502.006 272.601C505.036 288.936 508.065 305.244 511.091 321.525C511.091 321.525 515.038 339.491 508.624 356.818C502.21 374.145 485.426 390.792 443.963 388.258H197.987V364.666C192.051 367.024 185.822 368.561 179.47 369.232C170.1 370.224 158.406 369.49 146.909 363.422L146.277 363.083L145.659 362.736C141.423 360.339 137.573 357.317 134.237 353.774C130.901 350.22 128.078 346.218 125.852 341.882C113.168 317.24 100.497 292.597 87.8407 267.954C75.184 243.311 62.4978 218.668 49.7822 194.025L89.9879 168.102L130.166 142.172L156.055 183.316C164.662 197.037 173.289 210.754 181.937 224.466C181.937 224.466 183.595 200.847 195.275 177.506C206.956 154.166 228.605 131.09 268.695 132.184L315.987 128.576L363.287 124.974Z" fill="#B00808" stroke="black" stroke-width="2.03848" stroke-miterlimit="10" stroke-linecap="round"/>
<path d="M299.53 181.658L274.13 284.798L248.67 387.966L288.617 388.258L328.571 388.557C323.738 354.066 318.904 319.579 314.071 285.097C309.238 250.615 304.404 216.135 299.571 181.658H299.53Z" fill="#FFF8F8" stroke="black" stroke-width="2.03848" stroke-miterlimit="10" stroke-linecap="round"/>
<path d="M198.578 387.626C203.561 382.385 208.544 377.148 213.527 371.916C218.51 366.684 223.492 361.447 228.475 356.206L242.874 372.269L257.204 388.326H228.041H198.877C198.797 388.329 198.718 388.307 198.651 388.264C198.583 388.221 198.53 388.158 198.499 388.084C198.469 388.011 198.461 387.929 198.477 387.851C198.494 387.773 198.533 387.701 198.591 387.646L198.578 387.626Z" fill="black" stroke="black" stroke-width="2.03848" stroke-miterlimit="10" stroke-linecap="round"/>
<path d="M197.939 364.666V329.047V293.428" stroke="black" stroke-width="2.03848" stroke-miterlimit="10" stroke-linecap="round"/>
<path d="M283.113 146.915C285.858 152.687 288.599 158.458 291.335 164.229L299.557 181.536C303.457 176.553 307.355 171.554 311.251 166.539L322.952 151.543L303.029 149.232L283.113 146.915Z" fill="#FFF8F8" stroke="black" stroke-width="2.03848" stroke-miterlimit="10" stroke-linecap="round"/>
<path d="M260.541 132.299C258.027 146.831 255.51 161.366 252.992 175.902C250.473 190.439 247.959 204.973 245.449 219.505L272.5 200.52L299.557 181.535L289.018 156.645C285.508 148.351 281.997 140.052 278.486 131.749L269.524 132.027L260.541 132.299Z" fill="#B00808" stroke="black" stroke-width="2.03848" stroke-miterlimit="10" stroke-linecap="round"/>
<path d="M299.557 181.536L318.332 154.254L337.106 126.972L345.314 126.347L353.529 125.722L355.16 176.813C355.704 193.841 356.25 210.872 356.798 227.904L328.177 204.72L299.557 181.536Z" fill="#B00808" stroke="black" stroke-width="2.03848" stroke-miterlimit="10" stroke-linecap="round"/>
<path d="M276.611 325.228L270.903 329.339L265.188 333.416C264.712 333.76 264.174 334.006 263.602 334.141C263.031 334.276 262.439 334.297 261.859 334.203C261.28 334.109 260.725 333.902 260.226 333.593C259.727 333.284 259.293 332.88 258.951 332.403L239.245 305.027L219.54 277.65C219.196 277.173 218.95 276.634 218.814 276.062C218.679 275.49 218.658 274.898 218.752 274.318C218.846 273.738 219.053 273.182 219.362 272.682C219.671 272.183 220.076 271.749 220.552 271.405L226.267 267.328L232.002 263.197C232.964 262.505 234.162 262.224 235.332 262.415C236.501 262.607 237.547 263.254 238.24 264.216L257.945 291.593L277.65 318.97C278.342 319.932 278.623 321.13 278.432 322.3C278.241 323.469 277.593 324.515 276.631 325.208L276.611 325.228Z" fill="#D1B7E5" stroke="black" stroke-width="2.03848" stroke-miterlimit="10" stroke-linecap="round"/>
<path d="M130.132 142.172L110.135 108.035C103.476 96.6554 96.8121 85.2761 90.144 73.8969C87.6967 69.8232 84.1466 66.5252 79.904 64.3839L71.2337 60.0284L62.5701 55.6728C61.0431 54.9015 59.3671 54.4703 57.6574 54.409C55.9467 54.352 54.2437 54.6625 52.6631 55.3195L38.5976 61.1767L24.5321 67.0408C23.8621 67.3878 23.2291 67.8021 22.6431 68.2775C21.7854 68.9755 21.0445 69.8059 20.4483 70.7372C19.4988 72.2349 18.9426 73.948 18.8311 75.7179C18.758 76.7272 18.8197 77.7418 19.0146 78.7348C17.9594 78.6454 16.897 78.6956 15.8549 78.8843C14.2682 79.1524 12.7879 79.8584 11.5809 80.9228C11.5198 80.9772 11.3363 81.147 11.0985 81.4053C10.8055 81.7305 10.5353 82.0756 10.2899 82.4381C9.1469 84.3498 8.66904 86.5862 8.93091 88.7981C9.06546 90.2881 9.37565 91.7569 9.85502 93.1741C8.99989 93.4997 8.18024 93.9118 7.40884 94.404C6.37672 95.0645 5.45877 95.8884 4.69086 96.8433C3.54554 98.304 2.75053 100.008 2.367 101.824C1.84951 104.431 1.87959 107.118 2.45533 109.713L5.73049 125.824L8.95808 141.894C9.17856 142.912 9.6718 143.852 10.385 144.612C11.0742 145.351 11.9647 145.873 12.9467 146.113C13.9171 146.34 14.9324 146.278 15.8685 145.937C16.3814 145.763 16.8666 145.515 17.3091 145.203C17.3597 146.586 17.93 147.898 18.9059 148.879C19.3477 149.333 19.8758 149.695 20.4592 149.942C21.0426 150.19 21.6696 150.318 22.3033 150.32C23.3077 150.3 24.2784 149.954 25.0689 149.334C25.9112 148.679 26.546 147.794 26.8967 146.786C27.2276 147.349 27.6398 147.859 28.1198 148.301C29.0124 149.164 30.1674 149.705 31.4018 149.837C32.1645 149.905 32.9329 149.812 33.6577 149.565C34.1117 149.416 34.5453 149.21 34.9487 148.954C35.7361 153.099 36.8726 157.17 38.3462 161.123C42.3365 171.861 48.8475 181.483 57.3312 189.18L93.7453 165.683L130.132 142.172Z" fill="#FFC0C0" stroke="black" stroke-width="2.03848" stroke-miterlimit="10" stroke-linecap="round"/>
<path d="M9.88208 93.2218L13.5853 119.212L17.2886 145.196" stroke="black" stroke-width="2.03848" stroke-miterlimit="10" stroke-linecap="round"/>
<path d="M19.0144 78.7689C19.0144 78.7689 20.5093 94.6759 22.2352 111.126C23.9611 127.577 25.9316 144.578 26.8761 146.779" stroke="black" stroke-width="2.03848" stroke-miterlimit="10" stroke-linecap="round"/>
<path d="M34.9487 148.947C36.0526 148.555 36.9835 147.788 37.5784 146.779C38.8422 144.924 40.0245 141.534 39.6712 135.377C39.5217 132.809 39.413 130.24 39.3179 127.672C39.2227 125.103 39.1616 122.528 39.0868 119.96L38.9374 114.469L38.7879 108.972" stroke="black" stroke-width="2.03848" stroke-miterlimit="10" stroke-linecap="round"/>
<path d="M44.1082 91.523L52.1602 89.3961L60.2054 87.2625C60.794 87.1051 61.4153 87.1187 61.9966 87.3016C62.5778 87.4845 63.0949 87.8292 63.4873 88.2954L70.024 96.0416L76.5676 103.808L60.3413 97.652L44.1082 91.523Z" fill="black" stroke="black" stroke-width="2.03848" stroke-miterlimit="10" stroke-linecap="round"/>
<path d="M231.092 293.652L229.665 291.749L228.231 289.847L237.139 283.154L246.047 276.461L247.474 278.363L248.901 280.266L239.993 286.959L231.092 293.652Z" fill="#14AF6C" stroke="black" stroke-width="2.03848" stroke-miterlimit="10" stroke-linecap="round"/>
<path d="M238.994 304.755L237.628 302.811L236.255 300.868L245.666 294.243L255.077 287.618L256.443 289.561L257.816 291.505L248.405 298.13L238.994 304.755Z" fill="#14AF6C" stroke="black" stroke-width="2.03848" stroke-miterlimit="10" stroke-linecap="round"/>
<path d="M368.03 96.4493L348.875 91.5094L329.706 86.5695C328.685 91.8038 328.36 97.1502 328.741 102.47C329.257 109.867 331.302 117.077 334.748 123.643C336.624 127.212 338.904 130.555 341.543 133.604C343.668 136.069 346.005 138.343 348.528 140.399C351.653 137.322 354.456 133.934 356.893 130.288C359.43 126.491 361.568 122.443 363.273 118.207C366.085 111.282 367.694 103.929 368.03 96.4629V96.4493Z" fill="black" stroke="black" stroke-width="2.03848" stroke-miterlimit="10" stroke-linecap="round"/>
<path d="M336.909 127.38C336.134 126.15 335.55 125.124 335.135 124.288C334.721 123.452 334.456 122.814 334.239 122.358C334.103 122.025 333.98 121.679 333.872 121.434L333.607 120.7L334.048 120.979L334.578 121.285L335.04 121.529C335.326 121.672 335.72 121.856 336.1 122.012C338.244 122.906 340.572 123.267 342.885 123.065C345.199 122.863 347.429 122.103 349.385 120.852C351.341 119.6 352.964 117.893 354.117 115.877C355.269 113.86 355.916 111.595 356.002 109.275C356.088 106.954 355.611 104.647 354.611 102.551C353.611 100.455 352.119 98.6322 350.261 97.2389C348.403 95.8455 346.235 94.9229 343.943 94.5499C341.651 94.1769 339.303 94.3646 337.099 95.0971C333.827 96.1879 331.028 98.3681 329.169 101.274C329.006 100.193 328.87 98.9838 328.796 97.6656C328.72 96.2419 328.72 94.8152 328.796 93.3915C328.864 92.0869 328.986 90.857 329.149 89.7155C329.312 88.5739 329.509 87.5275 329.727 86.5694L297.016 78.1369L264.298 69.7112C263.678 70.8437 263.082 72.0033 262.511 73.1902C261.947 74.3725 261.41 75.582 260.914 76.8187C254.643 92.3451 254.697 108.755 259.854 122.637C265.012 136.519 275.265 148.016 289.405 153.724C299.335 157.711 310.262 158.502 320.662 155.987C331.199 153.414 340.833 148.009 348.521 140.358C346.943 139.065 345.432 137.69 343.996 136.24C342.712 134.943 341.652 133.747 340.789 132.707C340.313 132.136 339.708 131.389 339.043 130.492C338.377 129.595 337.656 128.569 336.909 127.38Z" fill="#FFC0C0" stroke="black" stroke-width="2.03848" stroke-miterlimit="10" stroke-linecap="round"/>
<path d="M326.146 120.564C325.477 122.214 324.258 123.58 322.696 124.431C321.133 125.282 319.324 125.565 317.576 125.232C315.828 124.899 314.25 123.97 313.11 122.603C311.97 121.237 311.339 119.518 311.325 117.738C311.311 115.959 311.914 114.23 313.031 112.845C314.149 111.461 315.712 110.506 317.454 110.145C319.196 109.783 321.01 110.037 322.586 110.863C324.162 111.689 325.403 113.035 326.098 114.673C326.495 115.603 326.703 116.603 326.712 117.614C326.72 118.625 326.527 119.628 326.146 120.564Z" fill="#EF3F3F" stroke="black" stroke-width="2.03848" stroke-miterlimit="10" stroke-linecap="round"/>
<path d="M277.412 127.692C276.746 129.346 275.527 130.717 273.962 131.573C272.398 132.428 270.585 132.715 268.833 132.384C267.082 132.052 265.499 131.124 264.355 129.756C263.211 128.388 262.577 126.666 262.56 124.883C262.544 123.1 263.146 121.367 264.265 119.979C265.383 118.59 266.948 117.632 268.694 117.269C270.439 116.905 272.257 117.158 273.837 117.985C275.417 118.811 276.661 120.16 277.358 121.801C277.755 122.731 277.964 123.73 277.973 124.741C277.983 125.752 277.792 126.755 277.412 127.692Z" fill="#EF3F3F" stroke="black" stroke-width="2.03848" stroke-miterlimit="10" stroke-linecap="round"/>
<path d="M274.681 106.057C274.49 106.532 274.185 106.953 273.793 107.281C273.401 107.61 272.933 107.837 272.432 107.941C271.931 108.045 271.412 108.024 270.921 107.879C270.43 107.735 269.982 107.471 269.618 107.111C269.254 106.752 268.984 106.308 268.833 105.819C268.681 105.33 268.653 104.811 268.751 104.309C268.848 103.806 269.069 103.336 269.392 102.939C269.715 102.542 270.132 102.232 270.604 102.035C271.366 101.722 272.22 101.722 272.982 102.035C273.745 102.344 274.354 102.944 274.676 103.702C274.997 104.46 275.004 105.315 274.695 106.078L274.681 106.057Z" fill="black"/>
<path d="M307.168 105.371C307.016 105.75 306.791 106.095 306.505 106.387C306.219 106.678 305.879 106.911 305.503 107.07C305.127 107.231 304.723 107.316 304.314 107.32C303.905 107.324 303.5 107.247 303.121 107.093C302.742 106.94 302.397 106.713 302.106 106.425C301.815 106.138 301.584 105.796 301.426 105.419C301.268 105.043 301.186 104.64 301.186 104.233C301.186 103.826 301.268 103.422 301.426 103.047C301.568 102.655 301.788 102.296 302.073 101.991C302.357 101.686 302.7 101.442 303.08 101.272C303.461 101.102 303.872 101.011 304.289 101.004C304.706 100.996 305.12 101.073 305.507 101.229C305.893 101.385 306.245 101.617 306.54 101.912C306.834 102.207 307.067 102.558 307.223 102.945C307.379 103.331 307.456 103.745 307.449 104.162C307.442 104.579 307.351 104.99 307.181 105.371H307.168Z" fill="black"/>
<path d="M275.612 87.7788C278.496 87.0941 281.425 86.6172 284.378 86.3518C288.221 86.0089 292.089 86.0316 295.929 86.4198C298.836 86.7074 301.718 87.207 304.552 87.9147C306.855 88.4878 309.124 89.1934 311.347 90.0279" stroke="black" stroke-width="2.03848" stroke-miterlimit="10" stroke-linecap="round"/>
<path d="M284.67 87.2692L284.167 101.98L283.671 116.691L285.75 116.596L287.829 116.501" stroke="black" stroke-width="2.03848" stroke-miterlimit="10" stroke-linecap="round"/>
<path d="M334.789 41.2812C321.777 36.0219 307.745 36.5248 295.174 41.6957C281.969 47.2223 271.058 57.111 264.264 69.7112L316.15 83.0769L368.03 96.4493C368.616 84.8038 365.812 73.2382 359.957 63.1541C354.22 53.278 345.368 45.585 334.789 41.2812Z" fill="#F9851C" stroke="black" stroke-width="2.03848" stroke-miterlimit="10" stroke-linecap="round"/>
<path d="M335.516 111.419L341.101 109.632L346.68 107.844" stroke="black" stroke-width="2.03848" stroke-miterlimit="10" stroke-linecap="round"/>
<path d="M283.963 74.7869C282.825 80.3849 280.029 85.5109 275.938 89.498C272.063 93.3003 267.053 95.7338 261.669 96.4288C259.654 96.6707 257.616 96.6455 255.608 96.3541C253.808 96.0931 252.043 95.6375 250.342 94.9951C246.026 93.3478 242.259 90.5228 239.47 86.8412C237.446 84.2217 236.031 81.1845 235.327 77.9501C234.623 74.7157 234.648 71.3651 235.4 68.1415C235.87 66.165 236.625 64.2675 237.642 62.5085C239.92 58.6822 243.212 55.5613 247.155 53.4916C251.13 51.4192 255.689 50.5902 260.065 51.956C262.697 52.804 265.071 54.3075 266.962 56.3251C268.216 57.6354 269.296 59.1016 270.176 60.6875C269.497 61.5164 268.817 62.3998 268.178 63.3443C267.54 64.2888 266.819 65.2876 266.174 66.3476C265.814 66.9252 265.494 67.4892 265.148 68.0464C264.801 68.6035 264.516 69.1607 264.224 69.7043L274.131 72.2592L283.963 74.7869Z" fill="black" stroke="black" stroke-width="2.03848" stroke-miterlimit="10" stroke-linecap="round"/>
<path d="M275.999 54.2729L321.267 67.0067L366.542 79.7404" stroke="black" stroke-width="2.03848" stroke-miterlimit="10" stroke-linecap="round"/>
<path d="M289.691 58.126L286.375 66.3411L283.059 74.5493" stroke="black" stroke-width="2.03848" stroke-miterlimit="10" stroke-linecap="round"/>
<path d="M307.528 63.2762L304.395 71.0361L301.263 78.7959" stroke="black" stroke-width="2.03848" stroke-miterlimit="10" stroke-linecap="round"/>
<path d="M329.292 69.6295L326.214 77.2534L323.129 84.8774" stroke="black" stroke-width="2.03848" stroke-miterlimit="10" stroke-linecap="round"/>
<path d="M351.552 75.8604L348.637 83.0766L345.729 90.2928" stroke="black" stroke-width="2.03848" stroke-miterlimit="10" stroke-linecap="round"/>
<path d="M307.528 123.663C307.49 123.357 307.387 123.064 307.226 122.801C307.066 122.539 306.851 122.314 306.597 122.141C306.342 121.97 306.055 121.854 305.753 121.802C305.451 121.749 305.141 121.76 304.844 121.835L299.951 123.092L295.066 124.349C293.191 126.36 291.705 128.701 290.683 131.253C289.888 133.21 289.305 135.246 288.943 137.327C290.504 138.198 292.223 138.75 293.999 138.951C295.749 139.152 297.522 138.953 299.183 138.367C301.967 137.321 304.289 135.32 305.734 132.72C307.31 129.98 307.94 126.797 307.528 123.663Z" fill="#EF3F3F" stroke="black" stroke-width="2.03848" stroke-miterlimit="10" stroke-linecap="round"/>
<path d="M284.126 127.156C283.826 127.233 283.545 127.373 283.303 127.566C283.06 127.759 282.862 128.001 282.719 128.277C282.574 128.551 282.489 128.853 282.47 129.162C282.452 129.471 282.499 129.781 282.611 130.071C283.218 131.638 284.102 133.083 285.22 134.338C286.284 135.537 287.543 136.548 288.943 137.328C289.305 135.246 289.888 133.21 290.683 131.253C291.705 128.701 293.191 126.36 295.066 124.349L289.63 125.749L284.126 127.156Z" fill="black" stroke="black" stroke-width="2.03848" stroke-miterlimit="10" stroke-linecap="round"/>
<path d="M323.129 294.454H298.511C295.263 294.451 292.118 293.317 289.616 291.247L276.91 280.701L264.203 270.162C263.354 269.482 262.532 268.715 261.716 267.967C260.901 267.22 260.099 266.452 259.29 265.691C257.483 263.996 255.115 263.029 252.638 262.973C251.573 262.915 250.507 263.078 249.507 263.451C248.508 263.824 247.596 264.399 246.829 265.14C245.532 266.601 244.844 268.502 244.906 270.454C244.929 272.718 245.696 274.912 247.087 276.699L255.988 288.828L264.896 300.963C265.299 301.553 265.624 302.192 265.861 302.866C266.191 303.723 266.191 304.672 265.861 305.53C265.625 306.077 265.242 306.547 264.754 306.889C264.345 307.166 263.905 307.394 263.442 307.568C260.636 308.71 255.968 309.328 250.994 309.763C246.02 310.198 240.659 310.442 236.48 310.911C235.531 310.989 234.591 311.158 233.673 311.414C232.507 311.748 231.425 312.327 230.5 313.113C229.335 314.14 228.451 315.447 227.932 316.911C227.599 317.836 227.371 318.796 227.252 319.772C226.999 321.636 227.171 323.534 227.755 325.323C228.135 326.417 228.648 327.46 229.284 328.428C228.299 329.294 227.445 330.299 226.749 331.411C225.468 333.391 224.787 335.699 224.787 338.057C224.787 340.415 225.468 342.723 226.749 344.702C227.382 345.705 228.145 346.619 229.019 347.42C228.226 348.712 227.633 350.117 227.259 351.586C226.493 354.383 226.612 357.349 227.6 360.075C228.588 362.802 230.397 365.156 232.777 366.813C233.967 367.677 235.276 368.363 236.663 368.852C237.266 371.058 238.112 373.191 239.184 375.212C240.554 377.782 242.377 380.084 244.566 382.007C247.915 384.856 251.959 386.767 256.287 387.544C259.709 388.149 263.183 388.4 266.656 388.292C275.136 388.258 284.54 388.292 294.869 388.292C305.197 388.292 316.449 388.333 328.606 388.292L325.888 341.366L323.129 294.454Z" fill="#FFC0C0" stroke="black" stroke-width="2.03848" stroke-miterlimit="10" stroke-linecap="round"/>
<path d="M229.284 328.428C229.284 328.428 233.001 330.406 239.442 331.398C245.884 332.39 255.071 332.383 265.99 328.428" stroke="black" stroke-width="2.03848" stroke-miterlimit="10" stroke-linecap="round"/>
<path d="M228.964 347.454C232.983 349.257 237.193 350.597 241.515 351.45C248.989 352.965 258.74 353.488 268.049 349.561" stroke="black" stroke-width="2.03848" stroke-miterlimit="10" stroke-linecap="round"/>
<path d="M55.0889 248.153C54.7311 207.383 54.3687 166.614 54.0017 125.844C53.6348 85.0744 53.2724 44.3047 52.9146 3.53512C52.9132 3.20456 53.019 2.88247 53.2162 2.61712C53.4133 2.35177 53.6911 2.15746 54.008 2.06332C54.3249 1.96917 54.6637 1.98026 54.9738 2.09493C55.2838 2.2096 55.5483 2.42167 55.7277 2.69935L140.705 135.194L225.689 267.743" stroke="black" stroke-width="2.03848" stroke-miterlimit="10" stroke-linecap="round"/>
<path d="M236.609 368.844C238.567 369.452 240.559 369.947 242.575 370.326C248.65 371.454 254.878 371.477 260.962 370.394C263.664 369.925 266.324 369.243 268.919 368.355" stroke="black" stroke-width="2.03848" stroke-miterlimit="10" stroke-linecap="round"/>
<path d="M396.324 237.763L402.929 266.105L409.533 294.447H366.175H322.816" stroke="black" stroke-width="2.03848" stroke-miterlimit="10" stroke-linecap="round"/>
<path d="M76.5675 103.835L56.108 96.0756L35.628 88.3158C34.4075 87.8525 33.1147 87.6087 31.8093 87.5955C30.3974 87.5394 29.0096 87.974 27.8818 88.8254C27.1036 89.4881 26.5327 90.3609 26.2374 91.3395C26.0482 91.9185 25.9318 92.5188 25.8909 93.1266C25.7618 95.2194 26.6655 97.088 28.0585 98.8343C29.6209 100.651 31.3398 102.327 33.1955 103.842C38.1694 108.191 41.8998 111.453 44.611 113.946C46.5445 115.601 48.3314 117.42 49.9518 119.382C51.8967 121.941 53.2161 124.92 53.8045 128.08C54.377 131.466 55.4104 134.758 56.8758 137.864C58.524 141.27 60.6496 144.423 63.1883 147.228C66.8354 151.218 71.0588 154.639 75.7182 157.38" fill="#FFC0C0"/>
<path d="M76.5675 103.835L56.108 96.0756L35.628 88.3158C34.4075 87.8525 33.1147 87.6087 31.8093 87.5955C30.3974 87.5394 29.0096 87.974 27.8818 88.8254C27.1036 89.4881 26.5327 90.3609 26.2374 91.3395C26.0482 91.9185 25.9318 92.5188 25.8909 93.1266C25.7618 95.2194 26.6655 97.088 28.0585 98.8343C29.6209 100.651 31.3398 102.327 33.1955 103.842C38.1694 108.191 41.8998 111.453 44.611 113.946C46.5445 115.601 48.3314 117.42 49.9518 119.382C51.8967 121.941 53.2161 124.92 53.8045 128.08C54.377 131.466 55.4104 134.758 56.8758 137.864C58.524 141.27 60.6496 144.423 63.1883 147.228C66.8354 151.218 71.0588 154.639 75.7182 157.38" stroke="black" stroke-width="2.03848" stroke-miterlimit="10" stroke-linecap="round"/>
<path d="M68.1758 385.778L62.9573 371.033C61.2133 366.118 59.4715 361.205 57.732 356.294C60.3616 352.815 62.801 346.462 64.5269 338.94C66.3749 330.948 67.2578 322.763 67.1566 314.56C66.9757 306.142 65.6942 297.783 63.3446 289.697C61.1362 282.495 58.1873 277.371 55.0616 277.303C52.133 277.235 49.2927 281.625 46.9756 287.591C44.5971 293.972 42.9202 300.593 41.9745 307.337C40.7521 316.761 40.9054 326.312 42.4298 335.692C43.8295 344.376 46.2417 351.681 48.9597 355.737C47.0617 360.743 45.1636 365.748 43.2656 370.754L37.5782 385.764C37.4917 385.987 37.4614 386.227 37.4899 386.464C37.5183 386.701 37.6046 386.927 37.7413 387.123C37.8738 387.328 38.0547 387.497 38.268 387.616C38.4813 387.734 38.7204 387.798 38.9644 387.803H66.776C67.0147 387.803 67.2499 387.746 67.4617 387.636C67.6735 387.526 67.8555 387.366 67.9923 387.171C68.1381 386.973 68.2314 386.741 68.2635 386.498C68.2956 386.254 68.2654 386.006 68.1758 385.778Z" fill="#F7CE21" stroke="black" stroke-width="2.03848" stroke-miterlimit="10" stroke-linecap="round"/>
<path d="M41.9746 307.317C42.4537 307.991 43.023 308.597 43.6666 309.117C44.7807 310.113 46.2124 310.68 47.7061 310.717C49.1997 310.754 50.658 310.26 51.8205 309.321C53.0791 308.361 54.0421 307.066 54.5996 305.584C54.6319 305.492 54.693 305.413 54.7739 305.36C54.8548 305.306 54.951 305.279 55.0481 305.285C55.1457 305.287 55.24 305.321 55.3171 305.381C55.3942 305.441 55.4499 305.524 55.4762 305.618C55.8584 306.843 56.5623 307.944 57.5146 308.805C58.3825 309.605 59.4694 310.128 60.6363 310.308C61.8032 310.487 62.997 310.314 64.065 309.81C65.1366 309.318 66.0702 308.569 66.7829 307.629" stroke="black" stroke-width="2.03848" stroke-miterlimit="10" stroke-linecap="round"/>
<path d="M55.2859 291.641C55.2856 292.12 55.095 292.579 54.7559 292.918C54.5889 293.088 54.3896 293.224 54.1697 293.316C53.9498 293.408 53.7136 293.456 53.4751 293.456C53.2365 293.456 53.0004 293.408 52.7805 293.316C52.5605 293.224 52.3613 293.088 52.1942 292.918C51.9818 292.708 51.8248 292.448 51.7371 292.162C51.6495 291.876 51.6339 291.572 51.6917 291.279C51.7496 290.985 51.8792 290.711 52.0688 290.48C52.2585 290.248 52.5024 290.067 52.7789 289.953C53.0554 289.839 53.3558 289.795 53.6534 289.825C53.951 289.855 54.2366 289.958 54.4848 290.125C54.7329 290.292 54.936 290.518 55.0757 290.782C55.2155 291.047 55.2877 291.342 55.2859 291.641Z" fill="black"/>
<path d="M51.6643 321.178C51.6643 321.178 52.7991 327.171 54.6813 333.409C56.5634 339.647 59.1931 346.17 62.1557 347.203" stroke="black" stroke-width="2.03848" stroke-miterlimit="10" stroke-linecap="round"/>
<path d="M58.9009 318.236C60.0839 319.957 61.1182 321.775 61.9926 323.672C63.5486 326.967 65.1115 331.432 65.1658 336.1" stroke="black" stroke-width="2.03848" stroke-miterlimit="10" stroke-linecap="round"/>
<path d="M53.4309 358.788L50.1285 372.969L46.8262 387.144" stroke="black" stroke-width="2.03848" stroke-miterlimit="10" stroke-linecap="round"/>
<path d="M53.4312 358.788L55.9453 372.969L58.4594 387.144" stroke="black" stroke-width="2.03848" stroke-miterlimit="10" stroke-linecap="round"/>
<path d="M60.9395 270.454C60.9396 271.745 60.4921 272.996 59.6731 273.994C58.8542 274.991 57.7145 275.674 56.4485 275.926C55.1824 276.178 53.8682 275.983 52.7299 275.374C51.5916 274.765 50.6997 273.78 50.2061 272.588C49.7125 271.395 49.6479 270.068 50.0232 268.833C50.3985 267.597 51.1905 266.531 52.2642 265.814C53.338 265.098 54.627 264.776 55.9115 264.903C57.1961 265.031 58.3967 265.599 59.3087 266.513C60.3523 267.559 60.9386 268.976 60.9395 270.454Z" fill="#F9851C" stroke="black" stroke-width="2.03848" stroke-miterlimit="10" stroke-linecap="round"/>
<path d="M55.2861 264.875C53.6642 264.875 52.1087 264.231 50.9618 263.084C49.815 261.937 49.1707 260.382 49.1707 258.76V247.616C49.1707 245.994 49.815 244.439 50.9618 243.292C52.1087 242.145 53.6642 241.501 55.2861 241.501C56.908 241.501 58.4635 242.145 59.6104 243.292C60.7572 244.439 61.4015 245.994 61.4015 247.616V258.753C61.4015 260.375 60.7572 261.93 59.6104 263.077C58.4635 264.224 56.908 264.869 55.2861 264.869V264.875Z" fill="#14AF6C" stroke="black" stroke-width="2.03848" stroke-miterlimit="10" stroke-linecap="round"/>
<path d="M396.358 237.913C398.555 247.331 400.752 256.753 402.949 266.18L409.533 294.447H392.077H374.614C378.238 285.015 381.849 275.582 385.445 266.146L396.27 237.852C396.27 237.852 396.27 237.852 396.317 237.852C396.325 237.851 396.333 237.852 396.34 237.855C396.347 237.858 396.353 237.863 396.357 237.869C396.361 237.876 396.364 237.883 396.364 237.891C396.364 237.899 396.362 237.906 396.358 237.913Z" fill="black" stroke="black" stroke-width="2.03848" stroke-miterlimit="10" stroke-linecap="round"/>
</svg>
