<svg width="336" height="545" viewBox="0 0 336 545" fill="none" xmlns="http://www.w3.org/2000/svg">
<path d="M197.715 329.203C197.628 335.618 198.068 342.029 199.029 348.372C200.157 355.788 202.052 363.067 204.682 370.092C205.178 371.418 205.696 372.71 206.225 373.991C206.754 375.272 207.299 376.486 207.856 377.683C212.163 391.981 216.47 406.275 220.777 420.566L233.692 463.449L268.705 455.763L303.719 448.072L291.355 384.839C287.238 363.766 283.117 342.692 278.992 321.618L238.337 325.41L197.715 329.203Z" fill="#FFC0C0" stroke="black" stroke-width="1.67076" stroke-miterlimit="10" stroke-linecap="round"/>
<path d="M240.498 31.2841C235.501 30.9475 230.483 31.1454 225.528 31.8744C220.562 32.605 215.684 33.8422 210.97 35.5668L171.139 50.1303L131.319 64.6881L130.289 65.0836L129.264 65.5068C129.231 65.6628 127.716 72.2288 128.195 88.5132C128.674 104.798 131.135 130.783 139.055 169.773L141.06 177.57C141.728 180.169 142.394 182.768 143.059 185.367L200.466 170.72L257.874 156.112L244.341 118.136L230.807 80.1705C229.666 77.0054 228.736 73.7682 228.023 70.4801C227.322 67.1873 226.861 63.8483 226.642 60.489C225.734 46.811 229.059 39.5265 232.679 35.6503C236.299 31.7742 240.225 31.3119 240.498 31.2841Z" fill="#B00808" stroke="black" stroke-width="1.67076" stroke-miterlimit="10" stroke-linecap="round"/>
<path d="M129.264 65.5069C128.341 65.8544 127.439 66.2561 126.563 66.7099C125.833 67.0886 125.276 67.4283 124.892 67.6566C113.258 75.0414 106.714 93.7316 102.498 111.057C98.2823 128.383 96.4055 144.356 94.0887 146.305C93.5318 146.784 92.9247 147.229 92.4736 147.552C92.0225 147.875 91.7107 148.109 91.7107 148.109C90.89 148.658 90.0403 149.161 89.1655 149.619C88.4694 149.981 87.957 150.209 87.7398 150.309C85.3896 151.373 80.8396 153.996 75.3985 157.265C69.9574 160.534 63.6252 164.449 57.694 168.119C56.3073 168.972 55.522 169.467 54.9094 169.851C54.2968 170.236 53.8401 170.509 53.1272 170.926C51.3061 172.007 49.1341 173.249 46.6391 174.574C44.1441 175.9 41.3372 177.309 38.2352 178.745C30.3603 182.332 22.5969 187.272 16.7993 191.31C11.0018 195.347 7.18133 198.499 7.18133 198.499C6.70841 198.763 6.27837 199.098 5.90598 199.491C5.14577 200.247 4.6815 201.251 4.59722 202.32C4.59722 202.387 4.59722 202.448 4.59722 202.509V202.693C4.61334 203.315 4.78744 203.922 5.10312 204.458C5.41879 204.994 5.86565 205.441 6.40163 205.756C6.93726 206.084 7.54407 206.277 8.17045 206.32C8.79683 206.362 9.42425 206.253 9.99934 206.001L14.2542 204.163L18.5035 202.32C17.0277 204.252 15.0228 206.915 12.8953 209.844C10.7679 212.773 8.52908 215.97 6.59099 218.966C6.59099 218.966 6.34595 219.312 5.96167 219.946C5.5774 220.581 5.03718 221.506 4.45241 222.67C3.5102 224.551 2.73136 226.509 2.12449 228.523C1.66982 230.036 1.31082 231.576 1.04963 233.134C0.905573 234.001 1.07752 234.89 1.53416 235.64C1.98492 236.387 2.69135 236.945 3.52236 237.211C4.24578 237.413 5.01734 237.352 5.69992 237.038C6.52226 236.676 7.24878 236.127 7.82178 235.434C8.10581 235.106 7.53218 236.153 7.04766 237.595C6.56314 239.038 6.1733 240.864 6.81376 242.095C6.99789 242.442 7.24975 242.749 7.55446 242.997C7.78886 243.19 8.04491 243.354 8.31744 243.487C8.75219 243.599 9.19966 243.653 9.64848 243.649C10.1835 243.649 10.71 243.515 11.18 243.259C11.978 242.736 12.5871 241.971 12.9176 241.076C13.2685 240.302 13.4745 239.661 13.7474 239.7C14.0203 239.739 14.0036 240.157 14.115 240.736C14.2159 241.449 14.5194 242.118 14.9893 242.663C15.2354 242.922 15.5166 243.145 15.8247 243.326C16.3856 243.672 17.0484 243.813 17.7015 243.727C18.1134 243.666 18.5059 243.512 18.8488 243.276C19.0722 243.127 19.2761 242.951 19.4558 242.752L22.0622 239.21L24.6742 235.668C24.7004 236.07 24.7829 236.465 24.9192 236.843C25.1565 237.525 25.6078 238.111 26.2057 238.514C26.6357 238.799 27.1292 238.973 27.6426 239.021C27.9774 239.061 28.3158 239.061 28.6506 239.021C29.7889 238.86 30.832 238.297 31.5911 237.434C32.0437 236.949 32.4295 236.406 32.7384 235.819C33.6156 234.428 34.5772 233.093 35.6177 231.82C39.4222 227.219 44.231 223.552 49.6743 221.099C52.1635 219.996 54.7259 219.065 57.3431 218.315C62.4222 216.761 67.4011 214.89 72.38 213.08C77.3583 211.215 82.4293 209.607 87.5727 208.262C93.6209 206.753 101.039 204.08 109.905 199.201C118.771 194.323 129.074 187.239 140.887 176.924C139.015 168.676 137.456 161.047 136.153 154.152C134.85 147.257 133.803 141.103 132.967 135.807C131.586 127.08 130.405 119.545 129.565 112.049C128.672 104.246 128.214 96.4001 128.194 88.5467C128.194 83.7182 128.311 79.3185 128.518 75.448C128.724 71.5774 129.002 68.2024 129.264 65.5069Z" fill="#FFC0C0" stroke="black" stroke-width="1.67076" stroke-miterlimit="10" stroke-linecap="round"/>
<path d="M257.873 156.112L200.466 170.72L143.059 185.334L130.706 189.466L118.348 193.598L135.718 239.388L153.089 285.184L168.905 280.567L184.727 275.95L186.142 293.215L187.562 310.479L238.927 305.283L290.292 300.087C289.278 279.854 287.006 247.787 282.071 218.821C277.137 189.856 269.524 163.953 257.873 156.112Z" fill="#B00808" stroke="black" stroke-width="1.67076" stroke-miterlimit="10" stroke-linecap="round"/>
<path d="M97.9482 200.421L115.591 245.698L133.235 290.976L143.165 288.08L153.089 285.184L135.719 239.389L118.348 193.599L108.151 197.012L97.9482 200.421Z" fill="#F7CE21" stroke="black" stroke-width="1.67076" stroke-miterlimit="10" stroke-linecap="round"/>
<path d="M187.562 310.446L188.364 320.203L189.172 329.983L240.119 325.227L291.066 320.476C291.066 320.476 291.027 318.482 290.91 314.907C290.793 311.332 290.604 306.247 290.292 300.015L238.927 305.211L187.562 310.446Z" fill="#F7CE21" stroke="black" stroke-width="1.67076" stroke-miterlimit="10" stroke-linecap="round"/>
<path d="M281.113 213.386L253.117 222.096L225.121 230.812L254.933 236.169L284.739 241.521L282.923 227.454L281.113 213.386Z" fill="black" stroke="black" stroke-width="1.67076" stroke-miterlimit="10" stroke-linecap="round"/>
<path d="M193.844 25.4087L182.009 26.5225L170.169 27.6363C170.661 30.8026 171.567 33.8903 172.865 36.82C174.665 40.8943 177.292 44.5506 180.578 47.5574C182.373 49.1896 184.348 50.6116 186.465 51.7955C188.166 52.7497 189.947 53.5529 191.789 54.1959C192.931 51.8197 193.825 49.3319 194.457 46.7721C195.106 44.1091 195.479 41.3862 195.57 38.6467C195.658 36.371 195.548 34.0921 195.242 31.8355C194.958 29.6576 194.491 27.5076 193.844 25.4087Z" fill="black" stroke="black" stroke-width="1.67076" stroke-miterlimit="10" stroke-linecap="round"/>
<path d="M182.572 49.2391C181.882 48.6822 181.347 48.2366 180.94 47.8523C180.534 47.4681 180.239 47.1673 180.038 46.9446C179.838 46.7218 179.76 46.6327 179.643 46.4935L179.342 46.137L179.648 46.2039L180.01 46.2707L180.322 46.3152C180.512 46.3152 180.768 46.3598 181.018 46.3709C182.412 46.4386 183.801 46.1678 185.066 45.5817C186.332 44.9957 187.437 44.1118 188.287 43.0057C189.137 41.8995 189.706 40.6041 189.946 39.23C190.186 37.8559 190.09 36.4442 189.666 35.1154C189.241 33.7866 188.501 32.5804 187.509 31.5999C186.517 30.6193 185.303 29.8936 183.969 29.4848C182.635 29.0759 181.222 28.9962 179.851 29.2523C178.48 29.5084 177.191 30.0927 176.095 30.9554C174.465 32.2384 173.326 34.0438 172.871 36.0679C172.559 35.511 172.236 34.8315 171.918 34.102C171.583 33.3236 171.289 32.528 171.038 31.7184C170.805 30.9665 170.626 30.2481 170.482 29.5687C170.337 28.8892 170.242 28.2543 170.17 27.6696L149.965 29.5798L129.737 31.4678C129.615 32.2419 129.514 33.016 129.436 33.8012C129.359 34.5865 129.303 35.3829 129.269 36.1793C128.84 45.6653 131.959 54.9713 138.019 62.2821C143.772 69.0988 151.908 73.4818 161.064 73.8215C167.491 74.0497 173.83 72.2685 179.197 68.7257C184.633 65.1233 188.98 60.1025 191.767 54.2068C190.612 53.7992 189.48 53.3307 188.375 52.8034C187.384 52.3355 186.537 51.8733 185.841 51.4612C185.452 51.2328 184.961 50.9377 184.404 50.5645C183.848 50.1914 183.235 49.757 182.572 49.2391Z" fill="#FFC0C0" stroke="black" stroke-width="1.67076" stroke-miterlimit="10" stroke-linecap="round"/>
<path d="M172.141 48.7268C172.096 49.7972 171.682 50.8191 170.969 51.6186C170.256 52.4182 169.288 52.9459 168.23 53.1121C167.171 53.2782 166.088 53.0725 165.165 52.5299C164.241 51.9873 163.534 51.1414 163.163 50.1361C162.793 49.1308 162.782 48.0282 163.134 47.0161C163.485 46.0039 164.176 45.1447 165.089 44.5846C166.002 44.0245 167.081 43.7982 168.143 43.9442C169.204 44.0902 170.182 44.5994 170.91 45.3852C171.327 45.8325 171.651 46.3583 171.862 46.9321C172.073 47.5058 172.168 48.1159 172.141 48.7268Z" fill="#EF3F3F" stroke="black" stroke-width="1.67076" stroke-miterlimit="10" stroke-linecap="round"/>
<path d="M149.719 59.815C149.674 60.8824 149.26 61.9011 148.548 62.6979C147.837 63.4946 146.871 64.0203 145.816 64.1855C144.76 64.3506 143.68 64.1451 142.759 63.6037C141.838 63.0624 141.133 62.2188 140.763 61.2163C140.394 60.2138 140.384 59.1143 140.733 58.1049C141.083 57.0954 141.772 56.2383 142.682 55.6793C143.593 55.1204 144.669 54.894 145.727 55.0388C146.786 55.1836 147.762 55.6905 148.488 56.4734C148.905 56.9207 149.229 57.4465 149.44 58.0203C149.652 58.594 149.746 59.2041 149.719 59.815Z" fill="#EF3F3F" stroke="black" stroke-width="1.67076" stroke-miterlimit="10" stroke-linecap="round"/>
<path d="M152.014 60.8511C153.24 61.234 154.542 61.301 155.801 61.046C157.845 60.6061 160.184 59.1024 161.37 54.8308" stroke="black" stroke-width="1.67076" stroke-miterlimit="10" stroke-linecap="round"/>
<path d="M143.059 49.8854C143.043 50.3169 142.878 50.7294 142.592 51.0528C142.306 51.3762 141.916 51.5903 141.49 51.6587C141.064 51.7271 140.627 51.6455 140.254 51.4279C139.881 51.2103 139.595 50.8701 139.445 50.4653C139.295 50.0605 139.29 49.6161 139.431 49.208C139.572 48.7999 139.85 48.4532 140.218 48.2271C140.585 48.0011 141.02 47.9095 141.448 47.9682C141.876 48.0269 142.27 48.232 142.563 48.5488C142.73 48.7277 142.86 48.938 142.945 49.1674C143.03 49.3969 143.069 49.6409 143.059 49.8854Z" fill="black"/>
<path d="M161.276 42.8567C161.262 43.2254 161.14 43.5817 160.924 43.8808C160.708 44.1799 160.408 44.4082 160.062 44.537C159.717 44.6657 159.34 44.6891 158.981 44.6041C158.622 44.5192 158.297 44.3297 158.045 44.0597C157.709 43.6959 157.531 43.2139 157.55 42.7191C157.569 42.2243 157.783 41.7571 158.146 41.4199C158.416 41.1701 158.755 41.006 159.118 40.9483C159.482 40.8905 159.855 40.9417 160.189 41.0953C160.524 41.2489 160.806 41.4982 160.999 41.8116C161.192 42.1251 161.289 42.4887 161.276 42.8567Z" fill="black"/>
<path d="M140.012 39.4543L149.909 35.8176L159.811 32.1809" stroke="black" stroke-width="1.67076" stroke-miterlimit="10" stroke-linecap="round"/>
<path d="M145.069 37.5995L147.793 46.009L150.51 54.424L151.669 53.9451L152.822 53.4717" stroke="black" stroke-width="1.67076" stroke-miterlimit="10" stroke-linecap="round"/>
<path d="M163.809 1.01551C155.571 0.756736 147.561 3.74482 141.505 9.3359C135.163 15.1477 131.009 22.9605 129.737 31.4679L161.782 28.4383L193.822 25.4086C191.779 18.7097 187.836 12.7473 182.472 8.24433C177.22 3.83978 170.658 1.29792 163.809 1.01551Z" fill="#F9851C" stroke="black" stroke-width="1.67076" stroke-miterlimit="10" stroke-linecap="round"/>
<path d="M178.529 40.501L181.319 38.3569L184.109 36.2072" stroke="black" stroke-width="1.67076" stroke-miterlimit="10" stroke-linecap="round"/>
<path d="M141.922 30.3207C142.424 33.7166 141.89 37.1847 140.391 40.2728C138.971 43.2207 136.623 45.6212 133.708 47.1062C132.628 47.6527 131.48 48.0535 130.294 48.298C126.467 49.0676 122.491 48.3143 119.211 46.1984C117.54 45.125 116.128 43.693 115.078 42.0064C114.028 40.3198 113.366 38.4207 113.141 36.4468C113.004 35.2334 113.044 34.0067 113.258 32.8045C113.761 30.182 114.979 27.7496 116.778 25.7762C117.655 24.7593 118.724 23.9259 119.925 23.3238C121.125 22.7216 122.433 22.3627 123.772 22.2676C125.438 22.2217 127.088 22.5992 128.568 23.3647C129.543 23.8505 130.453 24.4587 131.274 25.1747C131.068 25.7762 130.868 26.4111 130.684 27.0794C130.5 27.7477 130.322 28.455 130.166 29.1901C130.077 29.5874 129.999 29.9772 129.932 30.3596C129.865 30.7383 129.804 31.117 129.748 31.4735L135.835 30.9166L141.922 30.3207Z" fill="black" stroke="black" stroke-width="1.67076" stroke-miterlimit="10" stroke-linecap="round"/>
<path d="M133.235 20.3517L161.415 18.3134L189.595 16.2751" stroke="black" stroke-width="1.67076" stroke-miterlimit="10" stroke-linecap="round"/>
<path d="M141.761 19.7392L141.561 25.0522L141.366 30.3708" stroke="black" stroke-width="1.67076" stroke-miterlimit="10" stroke-linecap="round"/>
<path d="M152.894 19.0096L152.705 24.033L152.515 29.062" stroke="black" stroke-width="1.67076" stroke-miterlimit="10" stroke-linecap="round"/>
<path d="M166.483 18.1573L166.299 23.0972L166.115 28.0315" stroke="black" stroke-width="1.67076" stroke-miterlimit="10" stroke-linecap="round"/>
<path d="M180.339 17.1384L180.161 21.811L179.988 26.4835" stroke="black" stroke-width="1.67076" stroke-miterlimit="10" stroke-linecap="round"/>
<path d="M25.3145 207.872C25.3145 207.872 22.9364 209.783 19.5615 214.182C16.1865 218.582 11.8036 225.471 7.79932 235.429" stroke="black" stroke-width="1.67076" stroke-miterlimit="10" stroke-linecap="round"/>
<path d="M31.7916 211.698C29.4291 214.302 27.2093 217.031 25.142 219.874C21.4162 224.936 16.8995 231.931 13.7251 239.695" stroke="black" stroke-width="1.67076" stroke-miterlimit="10" stroke-linecap="round"/>
<path d="M37.7397 215.998C37.7397 215.998 35.1166 219.222 32.1705 223.288C29.2244 227.353 25.9497 232.271 24.6521 235.663" stroke="black" stroke-width="1.67076" stroke-miterlimit="10" stroke-linecap="round"/>
<path d="M324.876 141.304L310.859 107.571L296.841 73.8439C290.915 59.531 282.89 49.8629 274.185 43.4138C266.359 37.6419 257.286 33.7886 247.698 32.164C246.503 31.9524 245.305 31.7667 244.106 31.6071C242.907 31.4474 241.704 31.3323 240.497 31.2618C240.224 31.2618 236.309 31.7574 232.7 35.628C229.092 39.4986 225.756 46.7664 226.663 60.4667C226.889 63.8208 227.356 67.1542 228.061 70.4411C228.775 73.7292 229.705 76.9664 230.846 80.1315L244.379 118.113L257.912 156.09L233.725 169.773L209.544 183.451C206.308 182.226 201.942 183.067 198.405 184.214C196.236 184.915 194.126 185.786 192.095 186.821L177.409 193.504L162.729 200.187C161.766 200.65 160.868 201.24 160.061 201.941C158.719 203.012 157.825 204.545 157.555 206.241C157.529 206.485 157.518 206.73 157.522 206.976C157.527 207.258 157.553 207.539 157.6 207.817C157.738 208.291 157.941 208.744 158.201 209.164C158.529 209.697 158.982 210.14 159.521 210.456C160.412 210.924 161.441 211.058 162.423 210.835C163.219 210.667 163.994 210.412 164.734 210.072C165.08 209.922 165.417 209.751 165.742 209.56C166.032 209.387 166.265 209.226 166.455 209.092L170.966 206.976L175.405 204.921C175.572 204.826 175.778 204.715 176.012 204.598C176.245 204.481 176.518 204.347 176.819 204.213C177.779 203.745 178.775 203.355 179.799 203.049C180.601 202.775 181.479 202.827 182.244 203.194C182.445 203.316 182.632 203.459 182.8 203.623C183.115 203.925 183.333 204.312 183.43 204.737C183.466 205.14 183.417 205.547 183.286 205.931C183.156 206.314 182.947 206.666 182.672 206.965C182.167 207.582 181.595 208.142 180.968 208.635C177.955 211.108 172.553 214.494 166.917 217.663C161.905 220.537 156.73 223.116 151.418 225.387C151.162 225.488 150.911 225.593 150.661 225.705C150.41 225.816 150.159 225.933 149.914 226.061C146.612 227.81 146.049 229.815 146.317 231.385C146.519 232.392 146.988 233.325 147.675 234.087C146.803 234.165 145.986 234.55 145.369 235.173C144.753 235.795 144.376 236.616 144.306 237.489C144.295 237.675 144.295 237.861 144.306 238.046C144.313 238.233 144.333 238.419 144.367 238.603C144.74 240.53 146.239 241.533 147.642 242.05C148.516 242.367 149.432 242.554 150.36 242.607C150.293 243.342 150.39 244.082 150.644 244.775C150.899 245.467 151.304 246.095 151.83 246.612C152.735 247.408 153.83 247.957 155.01 248.204C155.559 248.331 156.118 248.411 156.681 248.444C157.238 248.475 157.796 248.466 158.352 248.416L163.241 247.987L168.131 247.558C168.688 249.385 170.604 250.059 172.687 250.198C174.572 250.276 176.46 250.106 178.301 249.691C178.883 249.569 179.468 249.452 180.055 249.341L181.809 249.012C196.968 246.227 207.801 243.003 215.341 240.101C222.882 237.2 227.148 234.627 229.164 233.229C229.515 232.978 229.855 232.711 230.178 232.432C230.501 232.154 230.818 231.876 231.136 231.564C232.377 230.497 233.781 229.638 235.296 229.019C236.621 228.436 237.976 227.925 239.356 227.487L240.831 227.008C241.327 226.852 241.817 226.685 242.307 226.518L279.866 213.831L317.419 201.072C318.336 200.76 319.23 200.388 320.098 199.958C320.969 199.537 321.802 199.042 322.587 198.477C332.462 191.421 333.035 177.125 331.136 164.594C329.866 156.634 327.768 148.828 324.876 141.304Z" fill="#FFC0C0" stroke="black" stroke-width="1.67076" stroke-miterlimit="10" stroke-linecap="round"/>
<path d="M147.67 234.092C147.67 234.092 155.094 232.421 163.993 229.793C172.893 227.164 183.263 223.589 189.172 219.768" stroke="black" stroke-width="1.67076" stroke-miterlimit="10" stroke-linecap="round"/>
<path d="M150.343 242.63C150.343 242.63 157.973 241.271 167.218 239.015C176.463 236.76 187.311 233.597 193.783 229.982" stroke="black" stroke-width="1.67076" stroke-miterlimit="10" stroke-linecap="round"/>
<path d="M168.131 247.581C171.045 247.156 173.929 246.553 176.769 245.776C183.988 243.865 191.003 241.253 197.715 237.979" stroke="black" stroke-width="1.67076" stroke-miterlimit="10" stroke-linecap="round"/>
<path d="M257.873 156.112L266.728 151.1L275.583 146.06L262.774 140.051L249.965 134.041L253.93 145.063C255.248 148.75 256.563 152.433 257.873 156.112Z" fill="black" stroke="black" stroke-width="1.67076" stroke-miterlimit="10" stroke-linecap="round"/>
<path d="M149.508 125.871C148.525 122.774 147.894 119.576 147.625 116.337C147.397 113.705 147.617 111.053 148.277 108.496C148.885 106.221 150.138 104.17 151.886 102.592C156.039 99.1885 161.373 97.5721 166.717 98.0978C169.051 98.4448 171.235 99.4603 173.004 101.022C174.972 102.787 176.631 104.868 177.911 107.181C180.995 112.907 182.901 119.192 183.519 125.665C183.751 128.311 183.534 130.977 182.878 133.551C182.285 135.837 181.043 137.903 179.303 139.499C177.252 141.192 174.886 142.462 172.341 143.236C169.797 144.01 167.124 144.273 164.478 144.01C162.143 143.665 159.959 142.649 158.19 141.086C156.214 139.314 154.551 137.22 153.273 134.894C151.686 132.035 150.424 129.009 149.508 125.871ZM174.569 118.253C173.922 116.052 173.101 113.907 172.113 111.837C171.365 110.24 170.402 108.752 169.251 107.415C168.309 106.32 167.036 105.562 165.625 105.254C164.038 104.966 162.403 105.087 160.875 105.605C159.301 106.025 157.859 106.835 156.681 107.961C155.673 108.994 155.03 110.327 154.849 111.759C154.632 113.507 154.658 115.276 154.927 117.016C155.26 119.299 155.775 121.55 156.469 123.75C157.126 125.983 157.957 128.162 158.953 130.266C159.71 131.873 160.678 133.371 161.832 134.721C162.779 135.824 164.06 136.589 165.48 136.898C167.085 137.19 168.737 137.068 170.281 136.542C171.84 136.123 173.267 135.312 174.424 134.186C175.424 133.135 176.057 131.789 176.229 130.349C176.437 128.58 176.403 126.791 176.129 125.03C175.796 122.734 175.282 120.468 174.592 118.253H174.569Z" fill="#FFF8F8" stroke="black" stroke-width="1.67076" stroke-miterlimit="10" stroke-linecap="round"/>
<path d="M207.149 84.2472L194.473 88.0955L181.804 91.9438C181.53 92.0253 181.276 92.1602 181.055 92.3408C180.834 92.5213 180.651 92.744 180.517 92.9957C180.383 93.2475 180.3 93.5234 180.273 93.8075C180.246 94.0915 180.276 94.378 180.361 94.6504L180.974 96.5997L181.575 98.5656C181.642 98.7918 181.753 99.0024 181.902 99.1851C182.051 99.3678 182.236 99.5188 182.444 99.6293C182.652 99.741 182.88 99.8103 183.116 99.8333C183.351 99.8562 183.588 99.8323 183.814 99.763L192.541 97.1176L201.268 94.4667C201.488 94.3994 201.722 94.3881 201.948 94.4338C202.173 94.4795 202.384 94.5807 202.561 94.7282C202.738 94.8758 202.875 95.0651 202.961 95.2791C203.046 95.493 203.077 95.7248 203.05 95.9536L200.761 115.256L198.494 134.531C198.468 134.76 198.498 134.992 198.584 135.206C198.669 135.42 198.807 135.609 198.983 135.757C199.16 135.904 199.371 136.006 199.597 136.051C199.823 136.097 200.056 136.086 200.277 136.018L203.406 135.072L206.531 134.119C206.793 134.04 207.025 133.885 207.199 133.674C207.372 133.464 207.48 133.209 207.511 132.939L209.739 111.375L211.966 89.8164V89.7328V89.6382L211.471 87.9674L210.969 86.2966C210.85 85.9039 210.655 85.5385 210.395 85.2215C210.134 84.9044 209.814 84.6418 209.451 84.4488C209.089 84.2558 208.693 84.1362 208.284 84.0969C207.876 84.0575 207.463 84.0991 207.071 84.2193L207.149 84.2472Z" fill="#FFF8F8" stroke="black" stroke-width="1.67076" stroke-miterlimit="10" stroke-linecap="round"/>
<path d="M97.9482 200.421L96.4501 201.022L94.8851 201.668C93.103 202.398 86.6427 204.559 78.6008 207.449C70.5589 210.34 60.9409 213.965 52.8432 217.63C51.5223 218.203 50.2438 218.869 49.0172 219.623C47.3395 220.663 45.8107 221.926 44.4727 223.377C42.9426 225.045 41.67 226.931 40.6968 228.974C40.0697 230.307 39.5483 231.687 39.1374 233.101C38.2811 235.995 37.6883 238.961 37.3664 241.962C37.061 244.813 36.9401 247.682 37.0044 250.549C37.0934 254.593 37.5219 258.623 38.2854 262.595C39.0458 266.571 40.1165 270.482 41.4876 274.291L58.3345 321.228L75.1869 368.165C80.6595 366.205 86.1693 364.252 91.7163 362.306C97.2632 360.361 102.832 358.419 108.424 356.481C113.878 354.599 119.306 352.742 124.708 350.912C130.11 349.081 135.494 347.275 140.859 345.493L128.011 310.284C123.722 298.552 119.43 286.821 115.135 275.093L120.27 272.999L125.404 270.899C120.83 259.155 116.254 247.412 111.676 235.668C107.098 223.925 102.522 212.176 97.9482 200.421Z" fill="#FFC0C0" stroke="black" stroke-width="1.67076" stroke-miterlimit="10" stroke-linecap="round"/>
<path d="M179.398 410.112L95.8597 427.02L12.3217 443.928C14.3945 447.749 17.6377 450.804 21.5751 452.646C25.5124 454.487 29.9364 455.017 34.1975 454.159L65.3349 447.888L96.4723 441.611C98.3864 441.221 100.253 440.627 102.041 439.84C103.835 439.054 105.538 438.076 107.121 436.922L108.557 435.875L109.994 434.834C110.178 434.696 110.393 434.604 110.62 434.567C110.847 434.53 111.079 434.547 111.298 434.619C111.516 434.691 111.715 434.814 111.875 434.978C112.036 435.143 112.155 435.343 112.222 435.563C112.45 436.302 112.943 436.93 113.606 437.327C114.269 437.724 115.056 437.861 115.814 437.713L130.188 434.817L144.562 431.921C145.233 431.789 145.846 431.453 146.317 430.958C146.791 430.463 147.102 429.836 147.208 429.159L147.308 428.513L147.408 427.867C147.432 427.711 147.5 427.564 147.603 427.445C147.707 427.326 147.842 427.238 147.993 427.193C148.143 427.147 148.303 427.145 148.454 427.187C148.605 427.23 148.741 427.315 148.845 427.432L149.591 428.502L150.338 429.571C150.554 429.881 150.856 430.121 151.206 430.261C151.559 430.407 151.947 430.442 152.32 430.362L155.294 429.766L158.263 429.164C158.649 429.087 159.003 428.893 159.276 428.608C159.549 428.323 159.728 427.961 159.789 427.571L159.978 426.357L160.167 425.149C160.191 424.993 160.259 424.847 160.362 424.727C160.466 424.608 160.601 424.521 160.752 424.475C160.902 424.429 161.062 424.427 161.213 424.47C161.364 424.512 161.5 424.597 161.604 424.714L162.077 425.388L162.551 426.068C162.956 426.65 163.522 427.101 164.18 427.365C164.838 427.629 165.559 427.695 166.254 427.555L168.326 427.137L170.398 426.719C172.163 426.361 173.828 425.621 175.276 424.549C176.724 423.478 177.92 422.102 178.778 420.518C179.637 418.935 180.138 417.183 180.246 415.385C180.354 413.587 180.066 411.787 179.403 410.112H179.398Z" fill="#14AF6C" stroke="black" stroke-width="1.67076" stroke-miterlimit="10" stroke-linecap="round"/>
<path d="M162.322 368.332C160.201 364.645 157.644 360.112 154.759 354.821C151.875 349.531 148.672 343.483 145.219 336.744C144.898 336.03 144.502 335.353 144.039 334.722C143.339 333.767 142.487 332.933 141.516 332.255C140.66 331.665 139.703 331.237 138.692 330.991C137.683 330.746 136.636 330.691 135.607 330.829C132.957 331.193 130.338 331.751 127.771 332.5C125.805 333.069 123.875 333.753 121.99 334.55C119.917 335.38 117.897 336.338 115.942 337.418C113.643 338.719 111.526 340.32 109.649 342.179C108.329 343.488 107.127 344.909 106.057 346.429C105.235 347.591 104.491 348.805 103.829 350.065C103.829 350.065 102.949 345.053 100.142 341.249C97.3354 337.445 92.6071 334.811 84.9161 339.579L76.8296 344.747L68.7487 349.948C68.085 350.374 67.5121 350.926 67.0628 351.574C66.6134 352.222 66.2966 352.952 66.1304 353.723C65.9643 354.494 65.9521 355.289 66.0947 356.065C66.2372 356.84 66.5316 357.58 66.961 358.241L71.032 364.54L75.1588 370.838C76.3334 372.627 76.9641 374.719 76.9744 376.859C76.9744 380.434 75.2201 385.14 68.0637 389.668L54.5973 397.326L41.131 404.983C38.9405 406.238 36.7313 407.475 34.5037 408.692C32.276 409.91 30.0483 411.117 27.8206 412.312C23.9222 414.406 17.4786 418.394 13.3407 423.824C9.20278 429.254 7.21458 436.126 12.3327 444.007L95.9264 427.132L179.526 410.246C176.658 399.28 172.358 388.799 168.772 381.064C165.185 373.328 162.322 368.332 162.322 368.332Z" fill="#FFF8F8" stroke="black" stroke-width="1.67076" stroke-miterlimit="10" stroke-linecap="round"/>
<path d="M103.851 350.054C103.937 353.82 103.676 357.586 103.072 361.304C102.069 367.43 99.8361 374.67 94.9352 378.847" stroke="black" stroke-width="1.67076" stroke-miterlimit="10" stroke-linecap="round"/>
<path d="M87.8568 390.28C87.7568 390.289 87.6562 390.289 87.5561 390.28C87.4541 390.264 87.3536 390.24 87.2554 390.208L80.5723 388.042L73.8893 385.87C73.4069 385.705 73.0074 385.36 72.7754 384.906C72.6584 384.678 72.5878 384.43 72.5677 384.174C72.5476 383.919 72.5785 383.662 72.6585 383.419C72.7362 383.175 72.8616 382.948 73.0274 382.752C73.1931 382.556 73.396 382.395 73.6243 382.278C73.8527 382.161 74.1019 382.091 74.3577 382.07C74.6134 382.05 74.8706 382.081 75.1145 382.16L81.7976 384.332L88.4806 386.499C88.922 386.642 89.298 386.937 89.541 387.333C89.784 387.728 89.878 388.197 89.8062 388.655C89.7344 389.114 89.5015 389.531 89.1492 389.833C88.797 390.135 88.3486 390.302 87.8847 390.303L87.8568 390.28Z" fill="#D1B7E5" stroke="black" stroke-width="1.67076" stroke-miterlimit="10" stroke-linecap="round"/>
<path d="M72.302 402.304C72.1613 402.304 72.0211 402.287 71.8843 402.254C71.7414 402.226 71.6028 402.179 71.4722 402.115L65.2737 399.208L59.0752 396.3C58.8427 396.192 58.634 396.039 58.4609 395.85C58.2879 395.661 58.1541 395.439 58.0671 395.198C57.9801 394.956 57.9418 394.7 57.9542 394.444C57.9666 394.188 58.0296 393.937 58.1396 393.705C58.3594 393.238 58.7554 392.877 59.2409 392.702C59.7264 392.527 60.2617 392.551 60.7292 392.77L66.9278 395.677L73.1318 398.589C73.595 398.813 73.9509 399.211 74.122 399.696C74.293 400.181 74.2655 400.714 74.0452 401.179C73.8875 401.521 73.6316 401.808 73.3101 402.003C73.0083 402.195 72.6594 402.299 72.302 402.304Z" fill="#D1B7E5" stroke="black" stroke-width="1.67076" stroke-miterlimit="10" stroke-linecap="round"/>
<path d="M328.847 522.593L243.7 526.347L158.547 530.1C160.006 534.199 162.74 537.722 166.349 540.152C169.957 542.581 174.25 543.79 178.596 543.6L210.34 542.23L242.085 540.86C244.017 540.773 245.935 540.478 247.804 539.98C249.698 539.479 251.531 538.775 253.273 537.881L254.855 537.073L256.437 536.26C256.639 536.157 256.864 536.103 257.091 536.104C257.318 536.105 257.542 536.16 257.744 536.264C257.946 536.369 258.12 536.52 258.252 536.705C258.384 536.89 258.47 537.104 258.503 537.329C258.618 538.097 259.012 538.795 259.61 539.29C260.209 539.784 260.969 540.04 261.744 540.008L276.391 539.373L291.038 538.744C291.722 538.712 292.381 538.474 292.926 538.059C293.469 537.644 293.871 537.072 294.079 536.422L294.279 535.798L294.486 535.174C294.535 535.027 294.625 534.896 294.745 534.797C294.865 534.699 295.011 534.636 295.165 534.617C295.32 534.596 295.479 534.62 295.622 534.685C295.764 534.75 295.886 534.854 295.972 534.985L296.529 536.16L297.086 537.335C297.251 537.674 297.511 537.957 297.835 538.149C298.158 538.341 298.531 538.433 298.907 538.415L301.932 538.287L304.956 538.159C305.359 538.144 305.747 538.006 306.069 537.764C306.384 537.524 306.617 537.193 306.738 536.817L307.111 535.647L307.49 534.483C307.536 534.333 307.625 534.199 307.745 534.098C307.865 533.996 308.012 533.931 308.168 533.909C308.324 533.887 308.482 533.911 308.626 533.976C308.769 534.041 308.891 534.146 308.977 534.277L309.339 535.018L309.701 535.764C310.011 536.401 310.501 536.933 311.11 537.296C311.717 537.66 312.418 537.836 313.126 537.803L315.236 537.714L317.347 537.624C319.149 537.545 320.912 537.071 322.511 536.236C324.11 535.4 325.506 534.224 326.601 532.79C327.695 531.355 328.461 529.698 328.844 527.935C329.228 526.172 329.219 524.347 328.82 522.588L328.847 522.593Z" fill="#14AF6C" stroke="black" stroke-width="1.67076" stroke-miterlimit="10" stroke-linecap="round"/>
<path d="M318.455 478.675C316.935 474.698 315.114 469.825 313.075 464.156C311.037 458.486 308.809 452.004 306.454 444.814C305.945 442.903 304.92 441.169 303.491 439.802C301.974 438.354 299.973 437.524 297.877 437.474C295.204 437.422 292.531 437.565 289.88 437.902C287.851 438.158 285.839 438.53 283.854 439.016C281.676 439.514 279.532 440.147 277.432 440.91C274.959 441.84 272.62 443.095 270.477 444.641C268.969 445.728 267.562 446.946 266.272 448.283C265.285 449.303 264.368 450.388 263.526 451.53C263.526 451.53 263.432 446.457 261.248 442.252C259.065 438.047 254.805 434.728 246.468 438.22L237.68 442.118L228.886 446.017C228.165 446.335 227.513 446.793 226.97 447.364C226.426 447.935 226 448.607 225.716 449.343C225.433 450.079 225.297 450.863 225.317 451.651C225.337 452.44 225.513 453.216 225.834 453.936L228.88 460.786L231.932 467.642C232.816 469.59 233.115 471.753 232.795 473.868C232.238 477.405 229.777 481.782 222.024 485.146L207.545 490.626L193.065 496.101C190.688 497.003 188.307 497.881 185.919 498.735C183.532 499.589 181.141 500.43 178.746 501.258C174.541 502.722 167.58 505.663 162.596 510.386C157.611 515.108 154.698 521.602 158.541 530.179L243.75 526.464L328.959 522.749C327.845 511.466 325.205 500.445 322.833 492.247C320.46 484.049 318.455 478.675 318.455 478.675Z" fill="#FFF8F8" stroke="black" stroke-width="1.67076" stroke-miterlimit="10" stroke-linecap="round"/>
<path d="M263.526 451.547C263.029 455.281 262.188 458.961 261.015 462.541C259.065 468.461 255.746 475.227 250.255 478.613" stroke="black" stroke-width="1.67076" stroke-miterlimit="10" stroke-linecap="round"/>
<path d="M241.784 488.833C241.636 488.833 241.488 488.816 241.344 488.783C241.192 488.748 241.046 488.694 240.909 488.621L234.622 485.441L228.34 482.267C227.882 482.037 227.532 481.637 227.365 481.153C227.206 480.661 227.249 480.126 227.482 479.665C227.716 479.204 228.122 478.854 228.613 478.691C229.103 478.531 229.638 478.571 230.1 478.803L236.382 481.988L242.669 485.168C243.06 485.367 243.372 485.691 243.556 486.089C243.739 486.487 243.784 486.935 243.681 487.361C243.579 487.787 243.336 488.166 242.992 488.437C242.647 488.708 242.222 488.856 241.784 488.855V488.833Z" fill="#D1B7E5" stroke="black" stroke-width="1.67076" stroke-miterlimit="10" stroke-linecap="round"/>
<path d="M224.558 498.301C224.37 498.3 224.182 498.272 224.001 498.217C223.804 498.163 223.616 498.078 223.444 497.967L217.775 494.129L212.1 490.298C211.672 490.007 211.375 489.558 211.276 489.05C211.203 488.672 211.244 488.28 211.393 487.924C211.543 487.569 211.795 487.266 212.117 487.054C212.439 486.842 212.816 486.73 213.202 486.732C213.588 486.735 213.964 486.851 214.283 487.068L219.958 490.899L225.628 494.736C225.84 494.879 226.023 495.063 226.164 495.276C226.306 495.49 226.404 495.729 226.452 495.981C226.501 496.232 226.499 496.491 226.448 496.742C226.396 496.993 226.295 497.231 226.151 497.443C225.972 497.712 225.726 497.931 225.438 498.078C225.166 498.22 224.865 498.296 224.558 498.301Z" fill="#D1B7E5" stroke="black" stroke-width="1.67076" stroke-miterlimit="10" stroke-linecap="round"/>
<path d="M101.925 136.598C101.924 145.982 98.6701 155.075 92.7168 162.329C86.7635 169.582 78.4792 174.547 69.2756 176.378C60.072 178.208 50.5184 176.79 42.2428 172.367C33.9671 167.943 27.4813 160.786 23.8906 152.117C20.2998 143.447 19.8262 133.8 22.5505 124.821C25.2748 115.841 31.0284 108.084 38.8309 102.871C46.6335 97.6574 56.0022 95.311 65.3409 96.231C74.6795 97.1511 83.4103 101.281 90.0455 107.916C93.8173 111.679 96.8084 116.15 98.847 121.072C100.886 125.994 101.931 131.27 101.925 136.598Z" fill="#FFF8F8" stroke="black" stroke-width="1.67076" stroke-miterlimit="10" stroke-linecap="round"/>
<mask id="mask0_801_928" style="mask-type:alpha" maskUnits="userSpaceOnUse" x="19" y="95" width="84" height="83">
<path d="M101.925 136.598C101.924 145.982 98.6701 155.075 92.7168 162.329C86.7635 169.582 78.4792 174.547 69.2756 176.378C60.072 178.208 50.5184 176.79 42.2428 172.367C33.9671 167.943 27.4813 160.786 23.8906 152.117C20.2998 143.447 19.8262 133.8 22.5505 124.821C25.2748 115.841 31.0284 108.084 38.8309 102.871C46.6335 97.6574 56.0022 95.311 65.3409 96.231C74.6795 97.1511 83.4103 101.281 90.0455 107.916C93.8173 111.679 96.8084 116.15 98.847 121.072C100.886 125.994 101.931 131.27 101.925 136.598Z" fill="#FFF8F8" stroke="black" stroke-width="1.67076" stroke-miterlimit="10" stroke-linecap="round"/>
</mask>
<g mask="url(#mask0_801_928)">
<path d="M17.3227 113.575L13.2015 121.282L9.07471 128.99L15.1841 134.949L21.2991 140.908L29.1962 136.882L37.0989 132.855L35.8681 124.407L34.6429 115.964L25.9828 114.766L17.3227 113.575Z" fill="black" stroke="black" stroke-width="1.67076" stroke-miterlimit="10" stroke-linecap="round"/>
<path d="M48.2596 162.288L39.5772 162.238L30.9004 162.183L28.8064 170.191L26.7068 178.2L34.0916 183.201L41.4763 188.207L48.1371 183.29L54.7978 178.372L51.5287 170.33L48.2596 162.288Z" fill="black" stroke="black" stroke-width="1.67076" stroke-miterlimit="10" stroke-linecap="round"/>
<path d="M94.2612 164.249L86.158 162.968L78.0493 161.681L74.3235 168.994L70.5977 176.306L76.4063 182.109L82.2039 187.912L89.5162 184.186L96.8286 180.461L95.5477 172.352L94.2612 164.249Z" fill="black" stroke="black" stroke-width="1.67076" stroke-miterlimit="10" stroke-linecap="round"/>
<path d="M85.4397 117.545L86.1748 125.721L86.91 133.891L94.9129 135.718L102.916 137.544L107.121 130.499L111.331 123.454L105.934 117.278L100.532 111.096L92.986 114.321L85.4397 117.545Z" fill="black" stroke="black" stroke-width="1.67076" stroke-miterlimit="10" stroke-linecap="round"/>
<path d="M68.6486 91.7767L60.4563 92.2501L52.2584 92.7291L50.1811 100.671L48.1094 108.607L55.0152 113.034L61.9266 117.467L68.2699 112.266L74.6188 107.064L71.6337 99.4177L68.6486 91.7767Z" fill="black" stroke="black" stroke-width="1.67076" stroke-miterlimit="10" stroke-linecap="round"/>
<path d="M62.7451 128.004L56.1066 132.827L49.4681 137.65L52.0077 145.458L54.5417 153.261H62.7451H70.9541L73.4881 145.458L76.0277 137.65L69.3892 132.827L62.7451 128.004Z" fill="black" stroke="black" stroke-width="1.67076" stroke-miterlimit="10" stroke-linecap="round"/>
<path d="M37.4611 132.671L43.4647 135.161L49.4683 137.65" fill="black"/>
<path d="M37.4611 132.671L43.4647 135.161L49.4683 137.65" stroke="black" stroke-width="1.67076" stroke-miterlimit="10" stroke-linecap="round"/>
<path d="M34.8937 116.46L41.4987 112.533L48.1094 108.607" fill="black"/>
<path d="M34.8937 116.46L41.4987 112.533L48.1094 108.607" stroke="black" stroke-width="1.67076" stroke-miterlimit="10" stroke-linecap="round"/>
<path d="M61.9265 117.467L62.3386 122.736L62.7452 128.004" fill="black"/>
<path d="M61.9265 117.467L62.3386 122.736L62.7452 128.004" stroke="black" stroke-width="1.67076" stroke-miterlimit="10" stroke-linecap="round"/>
<path d="M86.9098 133.891L81.4687 135.773L76.0276 137.65" fill="black"/>
<path d="M86.9098 133.891L81.4687 135.773L76.0276 137.65" stroke="black" stroke-width="1.67076" stroke-miterlimit="10" stroke-linecap="round"/>
<path d="M70.9542 153.261L74.5018 157.471L78.0494 161.681" fill="black"/>
<path d="M70.9542 153.261L74.5018 157.471L78.0494 161.681" stroke="black" stroke-width="1.67076" stroke-miterlimit="10" stroke-linecap="round"/>
<path d="M54.5418 153.261L51.5345 157.471L48.5271 161.681" fill="black"/>
<path d="M54.5418 153.261L51.5345 157.471L48.5271 161.681" stroke="black" stroke-width="1.67076" stroke-miterlimit="10" stroke-linecap="round"/>
<path d="M74.6188 107.064L80.032 112.305L85.4397 117.546" fill="black"/>
<path d="M74.6188 107.064L80.032 112.305L85.4397 117.546" stroke="black" stroke-width="1.67076" stroke-miterlimit="10" stroke-linecap="round"/>
</g>
<path d="M12.3215 150.86C12.0391 152.598 11.9699 154.364 12.1154 156.118C12.4203 159.795 13.681 163.328 15.7726 166.367C17.8641 169.406 20.7138 171.846 24.0391 173.444" stroke="black" stroke-width="1.67076" stroke-miterlimit="10" stroke-linecap="round"/>
<path d="M3.81754 160.128C3.28353 162.657 3.57666 165.29 4.65366 167.64C5.73065 169.989 7.53447 171.93 9.79887 173.176" stroke="black" stroke-width="1.67076" stroke-miterlimit="10" stroke-linecap="round"/>
<path d="M214.974 378.847C216.743 379.765 218.611 380.476 220.543 380.969C223.577 381.744 226.728 381.952 229.838 381.581C233.042 381.191 236.145 380.207 238.988 378.68C240.805 377.707 242.506 376.534 244.062 375.182" stroke="black" stroke-width="1.67076" stroke-miterlimit="10" stroke-linecap="round"/>
<path d="M115.135 275.076L109.504 276.88L103.874 278.685" stroke="black" stroke-width="1.67076" stroke-miterlimit="10" stroke-linecap="round"/>
</svg>
