<svg width="626" height="451" viewBox="0 0 626 451" fill="none" xmlns="http://www.w3.org/2000/svg">
<path d="M623.574 271.211C621.957 259.374 616.955 247.524 610.575 236.38C604.195 225.236 596.421 214.799 589.28 205.803C587.194 203.173 573.386 186.682 560.292 170.625C547.199 154.569 534.818 138.954 535.606 138.071L520.617 154.902L505.627 171.726C497.799 164.021 489.19 154.426 478.944 144.621C468.697 134.816 456.819 124.814 442.455 116.3C439.818 114.746 437.2 113.242 434.6 111.788C432 110.334 429.417 108.936 426.854 107.596C391.326 88.9644 350.663 82.5185 311.115 89.2492L277.453 93.0747L243.737 96.9071C240.163 97.3057 236.586 97.6885 233.008 98.0554C229.429 98.4224 225.85 98.7734 222.272 99.1086C190.335 102.139 165.276 116.286 146.087 136.841C126.898 157.396 113.62 184.372 105.317 213.06C98.5566 236.827 93.3363 261.006 89.6887 285.446C85.9311 309.908 83.4306 334.553 81.6299 359.103C81.6299 359.103 79.5914 374.732 84.5789 390.693C89.5664 406.654 101.6 422.989 129.738 424.416H477.007L458.362 346.58C449.032 307.666 439.71 268.758 439.71 268.758C456.534 277.707 473.514 288.001 490.672 297.779C507.829 307.557 525.237 316.805 542.87 323.688C554.116 328.071 566.394 330.381 578.061 329.253C589.728 328.125 600.797 323.566 609.624 314.209C615.923 307.53 619.904 300.483 622.052 293.254C624.13 286.099 624.649 278.583 623.574 271.211V271.211Z" fill="#B00808" stroke="black" stroke-width="2.03848" stroke-miterlimit="10" stroke-linecap="round"/>
<path d="M257.456 117.469L268.328 116.687L279.199 115.913L277.243 127.994L275.286 140.075L266.371 128.769L257.456 117.469Z" fill="#FFF8F8" stroke="black" stroke-width="2.03848" stroke-miterlimit="10" stroke-linecap="round"/>
<path d="M385.071 289.238L361.466 325.55L337.853 361.862C335.588 353.767 333.307 345.677 331.011 337.591L324.161 313.326L354.616 301.278L385.071 289.238Z" fill="black" stroke="black" stroke-width="2.03848" stroke-miterlimit="10" stroke-linecap="round"/>
<path d="M122.298 67.4919C120.517 68.9772 118.66 70.3676 116.733 71.6572C114.761 72.9831 113.017 74.6192 111.568 76.5019C108.85 80.2527 109.346 84.717 110.61 89.2289C111.874 93.7407 113.913 98.2865 114.273 102.2C114.658 106.767 113.595 111.339 111.235 115.267C108.876 119.192 105.812 122.647 102.198 125.459C99.4802 127.627 96.0827 128.925 92.6853 130.311C89.2878 131.697 86.0942 133.219 83.7499 135.713C81.4057 138.207 80.1758 141.862 79.5439 145.586C78.9119 149.31 78.81 153.196 78.4703 156.458C78.4023 157.137 78.0965 160.841 77.75 165.23C77.4035 169.62 77.0093 174.689 76.7579 178.079C76.6755 179.12 76.2023 180.091 75.4334 180.797C74.6645 181.503 73.6568 181.891 72.613 181.885H72.5043C71.4158 181.874 70.3758 181.432 69.6118 180.657C68.8477 179.882 68.4219 178.835 68.4273 177.747C68.4273 172.99 68.4613 168.2 68.1963 163.443C67.9793 158.682 67.3266 153.951 66.2462 149.31C65.5182 146.296 64.3432 143.408 62.7604 140.741C61.1688 138.082 59.1927 135.674 56.8963 133.593C54.3618 131.276 51.3856 129.401 48.5793 127.348C45.773 125.296 43.1434 123.081 41.268 120.085C39.5863 117.317 38.6934 114.143 38.6859 110.905C38.6593 107.669 39.2616 104.459 40.4594 101.453C41.6009 98.5379 43.123 96.017 43.9656 93.3738C44.4651 91.9808 44.6723 90.4999 44.5741 89.0233C44.4759 87.5468 44.0744 86.1063 43.3948 84.7918C40.9418 79.7295 37.0959 75.7477 33.0393 71.8814C28.9827 68.0151 24.7155 64.3458 21.42 59.8475C18.9819 56.6126 17.2604 52.8957 16.37 48.9439C15.4796 44.9922 15.4407 40.8962 16.2558 36.9282C17.7575 29.2771 22.1198 21.9794 28.2557 16.2037C33.402 11.4205 39.4914 7.76598 46.1332 5.47446C52.7569 3.11504 59.8152 2.22696 66.8169 2.872C75.6504 3.74175 81.9629 7.1664 87.4396 11.8753C92.9163 16.5842 97.5572 22.5977 103.068 28.6316C106.234 32.1242 110.631 34.1899 114.837 36.439C119.043 38.6881 123.072 41.1275 125.498 45.3471C126.928 47.9067 127.718 50.7741 127.802 53.7049C127.92 56.6811 127.363 59.6455 126.171 62.3753C125.72 63.3907 125.15 64.3488 124.472 65.2291C123.82 66.0499 123.092 66.8075 122.298 67.4919Z" fill="#14AF6C" stroke="black" stroke-width="2.03848" stroke-miterlimit="10" stroke-linecap="round"/>
<path d="M355.514 424.416H244.498L259.827 282.803L275.163 141.183C275.171 141.135 275.195 141.091 275.23 141.058C275.266 141.024 275.312 141.004 275.361 141C275.409 140.996 275.458 141.009 275.498 141.036C275.539 141.063 275.569 141.103 275.585 141.149L315.552 282.783L355.514 424.416Z" fill="#FFF8F8" stroke="black" stroke-width="2.03848" stroke-miterlimit="10" stroke-linecap="round"/>
<path d="M350.872 22.618L355.894 12.5751L360.915 2.52539" stroke="black" stroke-width="3.39747" stroke-miterlimit="10" stroke-linecap="round"/>
<path d="M361.595 33.1842L371.509 25.4584L381.422 17.7325" stroke="black" stroke-width="3.39747" stroke-miterlimit="10" stroke-linecap="round"/>
<path d="M365.944 47.4196L376.775 48.9484L387.613 50.4705" stroke="black" stroke-width="3.39747" stroke-miterlimit="10" stroke-linecap="round"/>
<path d="M91.2991 78.5811C93.3154 76.5487 94.9292 74.1533 96.0555 71.5212C97.2096 68.8359 97.8038 65.9435 97.8018 63.0207C97.7845 59.97 97.137 56.9557 95.8999 54.1669C94.6628 51.3782 92.8628 48.8751 90.6128 46.8148C85.8663 42.4955 79.6795 40.1019 73.2619 40.1019C66.8443 40.1019 60.6575 42.4955 55.911 46.8148C53.6597 48.8741 51.8589 51.3769 50.6217 54.1659C49.3845 56.9549 48.7377 59.9697 48.722 63.0207C48.7246 67.5281 50.1279 71.9232 52.7378 75.5982C55.3627 79.2798 58.9632 82.1556 63.1341 83.9016L63.3243 92.1098L63.5146 100.318C63.5263 100.841 63.6499 101.355 63.8771 101.825C64.1043 102.296 64.4298 102.713 64.8317 103.047C65.2335 103.381 65.7024 103.625 66.2066 103.763C66.7108 103.9 67.2387 103.928 67.7546 103.845L80.8756 101.718L94.0034 99.5911C94.529 99.5044 95.0293 99.3041 95.4695 99.0042C95.9097 98.7043 96.2791 98.3119 96.5521 97.8546C96.8251 97.3972 96.9951 96.8858 97.0502 96.356C97.1052 95.8262 97.044 95.2908 96.8709 94.7871L94.0714 86.6875L91.2991 78.5811Z" fill="#FFF8F8" stroke="black" stroke-width="2.03848" stroke-miterlimit="10" stroke-linecap="round"/>
<path d="M74.964 88.1146L75.9289 95.2357L76.8938 102.364" stroke="black" stroke-width="2.03848" stroke-miterlimit="10" stroke-linecap="round"/>
<path d="M83.811 86.7284L84.7351 93.5641L85.6661 100.4" stroke="black" stroke-width="2.03848" stroke-miterlimit="10" stroke-linecap="round"/>
<path d="M70.0512 62.5519C70.2234 64.0895 69.9198 65.6429 69.1815 67.0026C68.9231 67.5696 68.5195 68.0584 68.0116 68.4196C67.5038 68.7807 66.9096 69.0014 66.2891 69.0593C65.6686 69.1172 65.0438 69.0103 64.4779 68.7494C63.912 68.4885 63.425 68.0828 63.066 67.5734C62.114 66.3592 61.5316 64.8967 61.3882 63.3604C61.2448 61.8242 61.5466 60.2792 62.2574 58.9098C62.5159 58.3427 62.9194 57.8539 63.4273 57.4928C63.9352 57.1317 64.5294 56.911 65.1498 56.8531C65.7703 56.7952 66.3951 56.9021 66.961 57.163C67.527 57.4239 68.014 57.8296 68.3729 58.339C69.3505 59.5384 69.9363 61.0089 70.0512 62.5519Z" fill="black" stroke="black" stroke-width="2.03848" stroke-miterlimit="10" stroke-linecap="round"/>
<path d="M88.1326 59.9631C88.4025 61.4841 88.2009 63.0513 87.555 64.4545C87.3391 65.0483 86.9683 65.5735 86.4809 65.9756C85.9936 66.3778 85.4075 66.6421 84.7835 66.7412C84.1594 66.8404 83.5203 66.7707 82.9323 66.5395C82.3443 66.3083 81.8289 65.9239 81.4396 65.4262C80.4142 64.2738 79.741 62.8513 79.5001 61.3276C79.2592 59.804 79.4607 58.2432 80.0806 56.8306C80.2972 56.2373 80.6687 55.7127 81.1564 55.3113C81.6441 54.91 82.2304 54.6464 82.8543 54.5479C83.4782 54.4495 84.1171 54.5198 84.7047 54.7515C85.2923 54.9832 85.8072 55.3679 86.196 55.8657C87.2471 57.0002 87.9232 58.4308 88.1326 59.9631Z" fill="black" stroke="black" stroke-width="2.03848" stroke-miterlimit="10" stroke-linecap="round"/>
<path d="M73.9788 70.1758L73.2993 73.1792L72.6198 76.1894C72.5188 76.6177 72.5592 77.0672 72.7349 77.4707C72.9106 77.8742 73.2121 78.21 73.5945 78.4279C73.9768 78.6459 74.4194 78.7342 74.8561 78.6798C75.2928 78.6253 75.7001 78.431 76.0173 78.1259C76.2779 77.8793 76.599 77.7058 76.9482 77.6231C77.2991 77.5448 77.6643 77.5588 78.0082 77.6639L78.5246 77.8269L79.041 77.9832C79.4397 78.1004 79.8648 78.093 80.2592 77.9618C80.6536 77.8307 80.9985 77.5821 81.2476 77.2494C81.4968 76.9168 81.6382 76.5159 81.6531 76.1005C81.668 75.6851 81.5556 75.2752 81.3309 74.9255L79.5234 72.2075L77.716 69.4895C77.4921 69.1668 77.1798 68.9156 76.8165 68.7661C76.4533 68.6167 76.0546 68.5753 75.6684 68.6471C75.2822 68.7189 74.925 68.9007 74.6397 69.1707C74.3544 69.4407 74.1532 69.7874 74.0603 70.169L73.9788 70.1758Z" fill="black" stroke="black" stroke-width="2.03848" stroke-miterlimit="10" stroke-linecap="round"/>
<path d="M219.954 99.367L228.788 147.747L237.621 196.12L256.47 168.098L275.32 140.075L266.405 128.769L257.49 117.469C249.098 116.081 241.247 112.417 234.795 106.875C231.975 104.459 229.419 101.751 227.171 98.7962L223.563 99.0816L219.954 99.367Z" fill="#B00808" stroke="black" stroke-width="2.03848" stroke-miterlimit="10" stroke-linecap="round"/>
<path d="M279.199 115.913L277.242 127.994L275.286 140.075L307.093 156.431L338.907 172.786L324.963 130.658L311.02 88.529C308.895 92.6432 306.281 96.4854 303.233 99.9716C297.987 106.08 290.031 112.923 279.199 115.913Z" fill="#B00808" stroke="black" stroke-width="2.03848" stroke-miterlimit="10" stroke-linecap="round"/>
<path d="M508.495 271.034L488.13 244.316L467.766 217.599" stroke="black" stroke-width="2.03848" stroke-miterlimit="10" stroke-linecap="round"/>
<path d="M404.845 137.432C405.082 136.591 405.515 135.818 406.109 135.176C406.705 134.537 407.443 134.046 408.263 133.743L422.627 128.524L436.992 123.299C436.992 123.299 441.293 121.797 445.336 122.619C449.379 123.441 453.164 126.581 452.131 135.863C451.974 137.276 451.811 138.689 451.662 140.103C451.512 141.516 451.383 142.936 451.268 144.356C450.921 148.691 450.364 155.14 449.637 162.424C448.91 169.708 447.993 177.815 446.919 185.466C446.138 191.029 445.024 196.541 443.583 201.97C442.146 207.405 440.436 212.764 438.459 218.027C437.661 220.008 437.162 222.096 436.978 224.224C436.89 226.154 437.345 227.784 438.745 228.661C439.821 229.812 441.291 230.518 442.862 230.638C445.37 230.747 448.754 229.103 452.294 222.077C453.671 223.553 455.548 224.466 457.56 224.638C460.706 224.768 464.898 222.6 469.05 213.379C469.05 213.379 470.932 214.962 474.017 213.162C477.102 211.361 481.403 206.163 486.248 192.6L510.914 165.325L535.586 138.057C535.586 138.057 522.384 119.711 504.329 103.906C486.275 88.1009 463.424 74.7217 444.079 84.6695L424.7 93.8087L405.32 102.907C403.88 103.587 402.446 104.266 401.006 104.912C399.565 105.557 398.111 106.209 396.643 106.821C395.241 107.409 393.897 108.125 392.627 108.961C390.992 110.04 389.497 111.318 388.177 112.767L388.143 112.807L388.102 112.841C386.794 114.3 385.7 115.939 384.854 117.706C384.011 119.477 383.403 121.35 383.047 123.278C382.367 126.873 381.837 130.168 381.402 133.117C380.967 136.066 380.641 138.682 380.39 140.904C380.138 143.126 379.948 145.049 379.812 147.02C379.676 148.99 379.588 150.947 379.574 153.061C379.561 155.174 379.506 157.409 379.574 159.584C379.617 161.76 379.872 163.926 380.335 166.052C380.81 168.303 382.003 170.339 383.733 171.855C384.592 172.593 385.654 173.053 386.78 173.174C387.906 173.295 389.042 173.072 390.039 172.535C392.233 171.468 393.681 169.531 394.795 167.35C395.787 165.154 396.667 162.909 397.431 160.623C398.879 156.839 400.183 152.999 401.406 149.126C402.63 145.253 403.744 141.332 404.845 137.432Z" fill="#FFC0C0" stroke="black" stroke-width="2.03848" stroke-miterlimit="10" stroke-linecap="round"/>
<path d="M502.318 138.349L493.953 166.345L485.596 194.347" stroke="black" stroke-width="2.03848" stroke-miterlimit="10" stroke-linecap="round"/>
<path d="M484.373 161.507L476.715 187.443L469.05 213.379" stroke="black" stroke-width="2.03848" stroke-miterlimit="10" stroke-linecap="round"/>
<path d="M468.309 169.232C468.309 169.232 465.279 181.463 461.759 194.224C458.239 206.985 454.237 220.174 452.294 222.083" stroke="black" stroke-width="2.03848" stroke-miterlimit="10" stroke-linecap="round"/>
<path d="M257.456 270.253L273.064 292.873L288.678 315.493L273.064 329.532L257.456 343.57V306.911V270.253Z" fill="#B00808" stroke="black" stroke-width="2.03848" stroke-miterlimit="10" stroke-linecap="round"/>
<path d="M219.954 379.196C219.954 379.196 210.408 389.443 199.094 400.22C187.78 410.996 174.68 422.296 167.633 424.416" stroke="black" stroke-width="2.03848" stroke-miterlimit="10" stroke-linecap="round"/>
<path d="M324.107 238.181C326.27 236.1 328.553 234.146 330.943 232.33C333.314 230.489 335.699 228.729 337.847 226.962C342.97 222.749 348.1 218.543 353.237 214.344C358.374 210.145 363.498 205.932 368.607 201.706C374.175 197.099 379.717 192.464 385.235 187.803C390.752 183.142 396.222 178.422 401.644 173.642C404.451 171.169 407.298 168.397 410.478 166.399C413.658 164.401 417.116 163.171 421.187 163.776C424.524 164.322 427.662 165.727 430.292 167.853C432.947 169.939 435.16 172.533 436.801 175.484C439.825 180.92 441.626 187.484 442.312 194.177C443.001 200.681 442.594 207.254 441.109 213.624C440.831 214.745 440.477 215.825 440.104 216.899C439.73 217.973 439.343 219.046 438.996 220.14C438.435 221.685 437.669 223.147 436.72 224.489C434.352 227.92 431.269 230.797 427.683 232.921C425.741 234.053 423.542 234.666 421.295 234.702C417.898 234.756 413.59 233.39 409.676 228.002C408.704 226.643 407.746 225.331 406.727 224.04L406.183 223.361L403.751 220.29C402.95 219.269 401.949 218.424 400.809 217.805C399.669 217.185 398.414 216.806 397.122 216.69C395.83 216.573 394.528 216.722 393.296 217.127C392.064 217.533 390.928 218.186 389.957 219.046L379.085 228.6L368.213 238.154C366.539 239.63 365.435 241.646 365.093 243.852C364.75 246.057 365.191 248.313 366.338 250.228L368.696 254.149L371.053 258.076C372.362 260.507 373.199 263.163 373.52 265.904C373.969 270.307 372.841 275.655 366.684 279.426C364.405 280.913 361.952 282.116 359.38 283.007C355.154 284.491 350.656 285.041 346.198 284.617C339.043 283.938 331.249 279.786 325.419 273.922C319.589 268.058 315.709 260.455 316.368 252.81C316.623 249.986 317.488 247.25 318.902 244.792C320.323 242.358 322.075 240.133 324.107 238.181Z" fill="#FFF8F8" stroke="black" stroke-width="2.03848" stroke-miterlimit="10" stroke-linecap="round"/>
<path d="M404.016 194.489C404.012 195.471 403.669 196.422 403.044 197.179C402.419 197.936 401.55 198.453 400.587 198.642C399.623 198.831 398.624 198.681 397.759 198.216C396.894 197.751 396.217 197.001 395.843 196.093C395.468 195.185 395.42 194.176 395.707 193.237C395.993 192.297 396.596 191.486 397.413 190.942C398.23 190.397 399.21 190.152 400.187 190.249C401.165 190.346 402.078 190.778 402.772 191.472C403.168 191.868 403.482 192.339 403.695 192.857C403.909 193.374 404.018 193.929 404.016 194.489Z" fill="black" stroke="black" stroke-width="2.03848" stroke-miterlimit="10" stroke-linecap="round"/>
<path d="M353.896 238.928C353.898 239.916 353.557 240.873 352.932 241.638C352.307 242.402 351.436 242.926 350.467 243.12C349.499 243.314 348.493 243.166 347.622 242.702C346.75 242.237 346.067 241.485 345.688 240.573C345.309 239.661 345.259 238.645 345.545 237.7C345.831 236.755 346.436 235.938 347.256 235.389C348.077 234.84 349.063 234.593 350.046 234.689C351.029 234.785 351.948 235.22 352.646 235.918C353.042 236.313 353.356 236.782 353.571 237.299C353.785 237.815 353.896 238.369 353.896 238.928Z" fill="black" stroke="black" stroke-width="2.03848" stroke-miterlimit="10" stroke-linecap="round"/>
<path d="M417.531 163.715L411.728 170.666L405.918 177.611C404.962 178.652 404.327 179.947 404.09 181.341C403.867 182.588 404.085 183.874 404.709 184.976C405.166 185.688 405.774 186.29 406.491 186.74C407.207 187.19 408.014 187.476 408.854 187.579C409.823 187.715 410.81 187.651 411.754 187.393C412.697 187.135 413.579 186.687 414.344 186.077C415.323 185.207 416.315 184.249 417.32 183.223C418.326 182.197 419.359 181.09 420.405 179.928C422.159 177.978 423.808 175.937 425.345 173.812C426.879 171.719 428.178 169.463 429.218 167.085C428.205 166.309 427.101 165.661 425.929 165.155C423.301 163.96 420.408 163.464 417.531 163.715Z" fill="black" stroke="black" stroke-width="2.03848" stroke-miterlimit="10" stroke-linecap="round"/>
<path d="M317.326 248.278L324.923 245.037L332.519 241.802C333.284 241.471 334.095 241.26 334.925 241.177C335.75 241.092 336.584 241.161 337.385 241.381C338.109 241.572 338.797 241.88 339.423 242.292C340.025 242.693 340.548 243.202 340.965 243.793C341.614 244.744 341.981 245.858 342.025 247.007C342.079 248.096 341.894 249.183 341.483 250.192C341.072 251.202 340.446 252.109 339.647 252.851C338.942 253.505 338.131 254.036 337.249 254.421L327.627 258.681L318.005 262.935C317.369 261.532 316.912 260.055 316.646 258.538C315.94 255.12 316.175 251.574 317.326 248.278Z" fill="black" stroke="black" stroke-width="2.03848" stroke-miterlimit="10" stroke-linecap="round"/>
<path d="M403.554 162.784L398.43 169.538L393.307 176.286C393.016 176.672 392.651 176.996 392.234 177.241C391.817 177.486 391.355 177.646 390.876 177.713C390.397 177.779 389.91 177.75 389.442 177.628C388.974 177.505 388.535 177.291 388.15 176.999C387.765 176.705 387.442 176.338 387.2 175.919C386.958 175.5 386.8 175.038 386.737 174.558C386.674 174.078 386.706 173.591 386.832 173.123C386.958 172.656 387.175 172.218 387.47 171.835L392.546 165.087L397.662 158.333C398.259 157.561 399.137 157.057 400.105 156.929C401.072 156.802 402.05 157.063 402.827 157.654C403.6 158.248 404.105 159.125 404.233 160.092C404.36 161.059 404.099 162.037 403.506 162.811L403.554 162.784Z" fill="black" stroke="black" stroke-width="2.03848" stroke-miterlimit="10" stroke-linecap="round"/>
<path d="M340.177 217.837L332.839 222.077L325.5 226.31C325.081 226.552 324.618 226.709 324.138 226.771C323.658 226.834 323.171 226.801 322.704 226.675C322.237 226.548 321.799 226.331 321.416 226.035C321.033 225.74 320.712 225.371 320.472 224.951C320.231 224.532 320.075 224.069 320.013 223.589C319.951 223.11 319.984 222.622 320.11 222.155C320.236 221.688 320.453 221.251 320.748 220.868C321.044 220.485 321.411 220.164 321.831 219.923L329.169 215.683L336.515 211.449C336.934 211.209 337.397 211.053 337.876 210.99C338.356 210.928 338.843 210.961 339.31 211.088C339.777 211.214 340.215 211.431 340.598 211.726C340.981 212.021 341.302 212.389 341.543 212.808C341.785 213.228 341.942 213.69 342.004 214.17C342.067 214.65 342.034 215.138 341.908 215.605C341.781 216.072 341.564 216.51 341.268 216.893C340.973 217.276 340.604 217.596 340.184 217.837H340.177Z" fill="black" stroke="black" stroke-width="2.03848" stroke-miterlimit="10" stroke-linecap="round"/>
<path d="M338.404 226.5L335.788 228.559L333.178 230.618L331.357 227.295L329.543 223.972L332.22 222.43L334.898 220.888L336.651 223.694L338.404 226.5Z" fill="black" stroke="black" stroke-width="2.03848" stroke-miterlimit="10" stroke-linecap="round"/>
<path d="M404.417 171.162L401.957 173.343L399.497 175.525L397.846 174.104L396.195 172.684L398.063 170.218L399.932 167.758L402.174 169.457L404.417 171.162Z" fill="black" stroke="black" stroke-width="2.03848" stroke-miterlimit="10" stroke-linecap="round"/>
<path d="M313.358 206.36C316.911 208.715 320.72 210.659 324.712 212.156C331.222 214.575 339.396 216.043 346.055 212.231C347.408 211.413 348.465 210.185 349.072 208.725C349.402 208.015 349.574 207.241 349.574 206.459C349.574 205.676 349.402 204.902 349.072 204.192C348.474 203.017 347.21 202.1 345.824 201.325C344.438 200.55 342.922 199.905 341.822 199.286C338.601 197.431 335.292 195.556 332.098 193.524C328.898 191.533 325.866 189.284 323.034 186.797C321.714 185.614 320.28 184.564 318.753 183.665C317.221 182.774 315.588 182.072 313.888 181.572C309.943 180.459 305.791 180.299 301.772 181.103C296.955 182.021 291.417 184.338 285.322 188.985C283.025 190.738 280.724 192.482 278.418 194.217C276.108 195.943 273.784 197.656 271.433 199.327L250.307 214.344L229.182 229.361L253.929 265.102L278.622 300.857L292.293 305.192L303.05 308.59C308.859 310.452 313.813 312.048 318.488 312.816C323.058 313.675 327.768 313.412 332.214 312.048L332.893 311.831C333.192 311.722 333.634 311.566 334.388 311.281C351.328 305.029 360.657 301.088 366.8 298.37C372.943 295.652 375.912 293.967 380.118 292.255C380.179 292.255 380.465 292.112 380.899 291.901C381.465 291.628 382.016 291.327 382.551 290.998C383.545 290.423 384.486 289.761 385.364 289.02C386.19 288.334 386.77 287.396 387.015 286.35C387.166 285.476 387.069 284.577 386.736 283.754C386.577 283.34 386.37 282.945 386.118 282.579C385.268 281.522 384.058 280.816 382.72 280.595C381.346 280.349 379.951 280.239 378.555 280.269C377.875 280.261 377.194 280.291 376.517 280.357C375.837 280.425 375.076 280.534 374.179 280.683C370.021 281.363 367.323 282.171 365.02 282.722C362.84 283.343 360.563 283.555 358.306 283.347C357.831 283.299 357.362 283.238 356.805 283.129C356.247 283.02 355.615 282.871 354.807 282.66C348.386 280.968 342.223 278.108 335.781 274.989C329.339 271.87 322.687 268.486 315.247 265.755C311.39 264.369 307.665 262.64 304.117 260.59C301.236 258.939 298.769 257.315 295.507 255.65C294.152 254.954 293.092 253.795 292.518 252.384C291.945 250.973 291.896 249.403 292.382 247.959L298.721 229.184L305.054 210.41C305.334 209.589 305.773 208.832 306.347 208.182C306.921 207.533 307.618 207.003 308.397 206.624C309.177 206.245 310.024 206.024 310.889 205.974C311.754 205.924 312.621 206.046 313.439 206.333L313.358 206.36Z" fill="#FFC0C0" stroke="black" stroke-width="2.03848" stroke-miterlimit="10" stroke-linecap="round"/>
<path d="M302.105 295.714C302.105 295.714 310.089 299.356 318.902 302.835C327.715 306.314 337.378 309.63 340.734 308.95" stroke="black" stroke-width="2.03848" stroke-miterlimit="10" stroke-linecap="round"/>
<path d="M312.08 284.379C312.08 284.379 320.995 289.55 331.391 294.259C341.788 298.968 353.59 303.201 359.421 301.319" stroke="black" stroke-width="2.03848" stroke-miterlimit="10" stroke-linecap="round"/>
<path d="M457.485 354.163L451.75 350.875L446.008 347.586C425.321 375.516 394.885 394.642 360.745 401.164C361.518 402.344 362.357 403.478 363.26 404.562C365.65 407.449 368.282 410.127 371.128 412.566C385.753 410.705 399.952 406.359 413.114 399.717C429.809 391.135 446.905 377.096 457.485 354.163Z" fill="#F9851C" stroke="black" stroke-width="2.03848" stroke-miterlimit="10" stroke-linecap="round"/>
<path d="M563.948 377.654C559.124 383.157 549.543 394.342 539.446 407.511C529.348 420.679 518.741 435.825 511.858 449.259C514.012 449.238 516.161 449.031 518.279 448.64C520.607 448.212 522.893 447.577 525.108 446.744L547.735 415.311L570.356 383.885C569.931 383.216 569.449 382.587 568.915 382.002C567.435 380.364 565.768 378.904 563.948 377.654Z" fill="#F9851C" stroke="black" stroke-width="2.03848" stroke-miterlimit="10" stroke-linecap="round"/>
<path d="M563.948 377.654C564.111 377.463 561.658 376.369 559.069 375.296C556.481 374.222 553.756 373.155 553.382 373.019C549.461 371.609 545.426 370.54 541.321 369.826C537.215 369.133 533.048 368.86 528.886 369.01C524.232 369.167 519.584 369.602 514.943 369.969C510.303 370.392 505.644 370.564 500.986 370.485H500.191H499.41C494.377 370.207 489.396 369.32 484.576 367.842C479.755 366.363 475.114 364.348 470.742 361.835L464.117 358.037L457.485 354.231C446.899 377.164 429.809 391.203 413.114 399.758C399.953 406.4 385.753 410.745 371.128 412.607C376.187 416.952 381.798 420.607 387.817 423.479C399.78 429.109 412.879 431.913 426.099 431.673C430.359 431.587 434.608 431.222 438.819 430.579C445.295 429.54 451.87 429.266 458.409 429.764C464.948 430.247 471.344 431.923 477.279 434.711C479.9 436.056 482.401 437.625 484.753 439.399C487.095 441.17 489.551 442.784 492.105 444.23C495.136 445.862 498.347 447.134 501.673 448.022C504.997 448.905 508.425 449.341 511.865 449.32C518.748 435.886 529.355 420.74 539.452 407.572C549.55 394.403 559.124 383.157 563.948 377.654Z" fill="#14AF6C" stroke="black" stroke-width="2.03848" stroke-miterlimit="10" stroke-linecap="round"/>
<path d="M518.966 402.013C518.707 406.593 514.325 410.5 507.455 413.123C500.585 415.746 491.229 417.078 481.002 416.521C470.776 415.963 461.623 413.572 455.093 410.195C448.563 406.818 444.649 402.442 444.901 397.862C445.152 393.282 449.542 389.389 456.418 386.732C463.295 384.075 472.651 382.777 482.878 383.334C493.104 383.891 502.257 386.283 508.787 389.66C515.317 393.037 519.224 397.441 518.966 402.013Z" fill="#F7CE21" stroke="black" stroke-width="2.03848" stroke-miterlimit="10" stroke-linecap="round"/>
<path d="M401.04 354.517C401.107 355.196 400.543 355.93 399.579 356.494C397.145 357.738 394.329 358.008 391.703 357.248C390.65 356.881 389.971 356.297 389.903 355.584C389.835 354.87 390.392 354.17 391.357 353.606C393.791 352.363 396.607 352.093 399.232 352.852C400.285 353.219 400.972 353.803 401.04 354.517Z" fill="#F7CE21" stroke="black" stroke-width="2.03848" stroke-miterlimit="10" stroke-linecap="round"/>
<path d="M349.344 421.032C340.915 418.822 331.985 419.558 324.032 423.118C322.424 423.898 320.995 425.001 319.833 426.36C318.635 427.691 317.963 429.413 317.944 431.204C317.95 431.725 318.027 432.241 318.175 432.74C318.34 433.288 318.615 433.797 318.984 434.235C320.343 435.839 322.381 436.226 324.549 436.07C326.606 435.846 328.625 435.358 330.556 434.615C331.321 434.344 332.101 434.117 332.893 433.936C333.846 433.722 334.814 433.576 335.788 433.501C337.119 433.399 338.457 433.426 339.783 433.583C340.779 433.705 341.764 433.898 342.732 434.16C344.806 434.834 347.014 434.986 349.16 434.602C351.033 434.277 352.737 433.317 353.985 431.884C355.962 429.526 356.023 427.175 354.956 425.225C353.687 423.164 351.68 421.665 349.344 421.032Z" fill="#F7CE21" stroke="black" stroke-width="2.03848" stroke-miterlimit="10" stroke-linecap="round"/>
<path d="M257.456 379.182H129.724H2V294.096V209.003H129.724H257.456V294.096V379.182Z" fill="#D1B7E5" stroke="black" stroke-width="2.03848" stroke-miterlimit="10" stroke-linecap="round"/>
<path d="M387.966 381.493C386.43 382.057 384.874 382.6 383.318 383.13C381.762 383.66 380.199 384.183 378.63 384.7C375.688 385.658 370.136 387.418 365.842 390.136C361.547 392.854 358.524 396.374 360.61 400.94L360.664 401.055L360.718 401.171C362.281 404.33 365.753 405.173 369.484 405.085C373.214 404.996 377.203 403.97 379.792 403.379C390.855 400.84 401.451 396.577 411.191 390.747C420.944 384.946 429.74 377.669 437.263 369.173C440.308 365.821 443.078 362.228 445.546 358.431C448.455 353.674 450.051 348.979 446.008 347.559C443.229 346.601 440.219 347.559 437.433 349.223C434.852 350.867 432.421 352.736 430.169 354.809C427.017 357.527 423.884 360.326 420.656 363.017C417.473 365.732 414.146 368.272 410.688 370.628C407.177 372.954 403.487 374.999 399.653 376.743C395.835 378.516 391.866 380.066 387.966 381.493Z" fill="black" stroke="black" stroke-width="2.03848" stroke-miterlimit="10" stroke-linecap="round"/>
<path d="M408.854 392.106C408.854 385.835 409.751 380.27 411.375 376.043C412.999 371.817 415.37 368.942 418.36 368.059C418.802 367.924 419.258 367.835 419.719 367.794C420.252 367.737 420.789 367.737 421.322 367.794C421.725 367.799 422.126 367.847 422.518 367.937C422.84 368.01 423.154 368.115 423.456 368.249C425.033 369.034 426.249 370.394 426.853 372.048C427.654 374.106 428.003 376.312 427.879 378.517C427.879 378.517 424.659 381.099 420.67 384.088C416.681 387.078 411.939 390.489 408.854 392.106Z" fill="#F7CE21" stroke="black" stroke-width="2.03848" stroke-miterlimit="10" stroke-linecap="round"/>
<path d="M404.817 393.805C404.817 393.805 403.255 392.446 400.978 390.625C398.702 388.804 395.733 386.548 392.906 384.686C390.079 382.825 386.396 380.433 382.748 378.931C379.099 377.429 375.409 376.791 372.29 378.252C371.607 378.592 370.969 379.014 370.388 379.509C369.316 380.379 368.523 381.543 368.104 382.859C367.666 384.626 367.909 386.494 368.784 388.091C369.682 389.803 370.743 391.425 371.95 392.935C373.933 395.524 376.196 397.885 378.698 399.975C380.736 401.708 382.245 402.693 382.272 402.747C384.208 402.292 386.294 401.728 388.496 401.021C390.698 400.315 393.008 399.472 395.407 398.467C397.18 397.712 398.858 396.938 400.421 396.149C401.984 395.361 403.458 394.593 404.817 393.805Z" fill="#F7CE21" stroke="black" stroke-width="2.03848" stroke-miterlimit="10" stroke-linecap="round"/>
<path d="M69.1 379.182L78.7488 349.726L88.3908 320.264H129.69H170.997L180.673 349.726L190.356 379.182" stroke="black" stroke-width="2.03848" stroke-miterlimit="10" stroke-linecap="round"/>
<path d="M170.012 308.189H89.444C88.4078 308.189 87.414 307.777 86.6813 307.045C85.9486 306.312 85.5369 305.318 85.5369 304.282C85.536 303.768 85.6364 303.259 85.8324 302.785C86.0283 302.31 86.316 301.878 86.6789 301.515C87.0418 301.151 87.4728 300.863 87.9473 300.666C88.4218 300.469 88.9304 300.368 89.444 300.368H170.012C170.525 300.368 171.034 300.469 171.508 300.666C171.983 300.863 172.414 301.151 172.777 301.515C173.14 301.878 173.427 302.31 173.623 302.785C173.819 303.259 173.92 303.768 173.919 304.282V304.282C173.919 305.318 173.507 306.312 172.774 307.045C172.042 307.777 171.048 308.189 170.012 308.189Z" stroke="black" stroke-width="2.03848" stroke-miterlimit="10" stroke-linecap="round"/>
<path d="M144.361 424.416H129.724H115.088V401.803V379.182H129.724H144.361V401.803V424.416Z" fill="#D1B7E5" stroke="black" stroke-width="2.03848" stroke-miterlimit="10" stroke-linecap="round"/>
<path d="M66.7693 424.416H129.724H192.686" fill="#D1B7E5"/>
<path d="M66.7693 424.416H129.724H192.686" stroke="black" stroke-width="2.03848" stroke-miterlimit="10" stroke-linecap="round"/>
<path d="M319.677 50.8239L300.739 48.962L281.788 47.073C281.588 52.196 282.065 57.3231 283.208 62.3209C285.626 73.1307 291.51 82.8542 299.965 90.0103C302.346 92.0357 304.905 93.8436 307.609 95.4122C310.127 92.0319 312.292 88.4026 314.071 84.5811C317.463 77.2769 319.454 69.4012 319.942 61.3628C320.151 57.8486 320.062 54.3231 319.677 50.8239Z" fill="black" stroke="black" stroke-width="2.03848" stroke-miterlimit="10" stroke-linecap="round"/>
<path d="M294.658 84.785C293.328 83.2763 292.091 81.6879 290.955 80.0285C289.322 77.6428 287.893 75.1244 286.681 72.4998C286.11 71.2563 285.498 69.7818 284.907 68.1374C284.257 66.3085 283.712 64.4436 283.276 62.552C282.978 61.2745 282.706 59.8951 282.475 58.4206C282.244 56.9461 282.047 55.3697 281.924 53.705C281.836 52.5023 281.788 51.3539 281.768 50.2463C281.748 49.1388 281.768 48.0855 281.768 47.0867L249.451 43.8795L217.135 40.6791C216.709 41.8478 216.312 43.0369 215.945 44.2464C215.585 45.4559 215.266 46.6858 214.96 47.9361C211.284 63.6052 213.737 79.152 220.682 91.6139C227.626 104.076 239.062 113.46 253.331 116.81C263.355 119.139 273.856 118.284 283.372 114.363C293.031 110.38 301.414 103.826 307.609 95.4123C305.919 94.417 304.282 93.3352 302.703 92.1711C301.297 91.1247 300.114 90.1326 299.143 89.2833C298.055 88.332 297.104 87.4282 296.384 86.6536C295.664 85.879 295.052 85.2335 294.658 84.785Z" fill="#FFC0C0" stroke="black" stroke-width="2.03848" stroke-miterlimit="10" stroke-linecap="round"/>
<path d="M279.322 80.9323C278.71 82.5689 277.55 83.9427 276.039 84.8194C274.528 85.6962 272.759 86.0217 271.035 85.7404C269.311 85.4591 267.737 84.5884 266.583 83.2767C265.429 81.9651 264.765 80.2938 264.706 78.5477C264.646 76.8016 265.194 75.0889 266.256 73.7015C267.317 72.3141 268.828 71.3379 270.529 70.9395C272.23 70.541 274.016 70.7449 275.584 71.5164C277.151 72.2879 278.403 73.5792 279.125 75.1702C279.535 76.0706 279.763 77.0429 279.797 78.0316C279.831 79.0203 279.669 80.006 279.322 80.9323Z" fill="#EF3F3F" stroke="black" stroke-width="2.03848" stroke-miterlimit="10" stroke-linecap="round"/>
<path d="M239.612 91.4236C239.214 93.1193 238.241 94.6246 236.857 95.6829C235.474 96.7413 233.766 97.2873 232.026 97.2278C230.285 97.1684 228.618 96.5072 227.31 95.3569C226.003 94.2067 225.134 92.6385 224.853 90.9195C224.571 89.2006 224.895 87.4373 225.768 85.9301C226.64 84.4229 228.009 83.2649 229.64 82.6536C231.271 82.0423 233.063 82.0153 234.712 82.5774C236.361 83.1395 237.763 84.2559 238.681 85.7362C239.203 86.5765 239.553 87.5113 239.713 88.4872C239.873 89.4631 239.838 90.4609 239.612 91.4236Z" fill="#EF3F3F" stroke="black" stroke-width="2.03848" stroke-miterlimit="10" stroke-linecap="round"/>
<path d="M232.403 73.6684C232.312 74.053 232.145 74.4155 231.912 74.7342C231.678 75.0529 231.383 75.3213 231.044 75.5234C230.71 75.7302 230.339 75.8691 229.952 75.932C229.565 75.995 229.169 75.9808 228.788 75.8903C228.403 75.7999 228.041 75.633 227.722 75.3996C227.403 75.1661 227.135 74.8708 226.933 74.5313C226.673 74.1145 226.521 73.6401 226.489 73.1502C226.457 72.6603 226.546 72.1701 226.749 71.723C226.952 71.2759 227.262 70.8859 227.652 70.5874C228.042 70.2889 228.499 70.0912 228.983 70.0118C229.468 69.9325 229.965 69.974 230.429 70.1326C230.894 70.2912 231.312 70.562 231.647 70.921C231.982 71.28 232.223 71.7161 232.349 72.1906C232.475 72.6651 232.481 73.1634 232.369 73.6412L232.403 73.6684Z" fill="black"/>
<path d="M263.17 68.2392C262.986 69.0097 262.505 69.6762 261.832 70.0936C261.159 70.5111 260.348 70.6456 259.576 70.468C258.802 70.2783 258.135 69.7896 257.721 69.109C257.461 68.6924 257.308 68.2183 257.276 67.7285C257.243 67.2388 257.332 66.7486 257.535 66.3015C257.737 65.8543 258.047 65.464 258.436 65.1651C258.825 64.8663 259.282 64.6681 259.767 64.5882C260.251 64.5083 260.747 64.5491 261.212 64.7071C261.677 64.865 262.095 65.1352 262.431 65.4936C262.766 65.852 263.008 66.2877 263.134 66.7619C263.261 67.2361 263.269 67.7342 263.157 68.2121L263.17 68.2392Z" fill="black"/>
<path d="M230.82 56.3549L247.481 53.6777L264.142 51.0073" stroke="black" stroke-width="2.03848" stroke-miterlimit="10" stroke-linecap="round"/>
<path d="M239.334 54.9892L241.026 69.0344L242.711 83.0863L244.674 82.6922L246.631 82.2913" stroke="black" stroke-width="2.03848" stroke-miterlimit="10" stroke-linecap="round"/>
<path d="M279.988 3.29332C266.853 0.208414 253.603 2.7837 242.412 9.51069C230.679 16.7002 221.769 27.6973 217.168 40.6655L268.423 45.7413L319.677 50.8239C318.52 39.6769 314.158 29.1037 307.12 20.3826C300.217 11.8394 290.674 5.82879 279.988 3.29332Z" fill="#F9851C" stroke="black" stroke-width="2.03848" stroke-miterlimit="10" stroke-linecap="round"/>
<path d="M236.629 42.5952C236.378 48.077 234.484 53.3565 231.193 57.7479C228.057 61.9438 223.632 64.9964 218.595 66.4386C216.715 66.9651 214.773 67.2393 212.82 67.254C206.584 67.2941 200.577 64.9059 196.07 60.595C192.883 57.5376 190.715 53.5733 189.86 49.2406C189.484 47.3215 189.374 45.3597 189.533 43.4106C189.689 41.4642 190.126 39.5507 190.831 37.73C192.426 33.7666 195.086 30.3214 198.516 27.7754C201.989 25.2205 206.195 23.7596 210.584 24.4119C213.21 24.8328 215.686 25.9129 217.78 27.5512C219.161 28.6141 220.403 29.8469 221.476 31.2204C220.969 32.1264 220.466 33.0664 219.968 34.0403C219.465 35.0324 218.976 36.0788 218.5 37.1864C218.249 37.7844 218.004 38.3755 217.78 38.9531C217.556 39.5307 217.345 40.1014 217.141 40.6654L226.885 41.6303L236.629 42.5952Z" fill="black" stroke="black" stroke-width="2.03848" stroke-miterlimit="10" stroke-linecap="round"/>
<path d="M226.043 24.276L270.923 29.7255L315.804 35.1683" stroke="black" stroke-width="2.03848" stroke-miterlimit="10" stroke-linecap="round"/>
<path d="M239.619 25.9205L237.676 34.2103L235.732 42.5069" stroke="black" stroke-width="2.03848" stroke-miterlimit="10" stroke-linecap="round"/>
<path d="M257.327 28.1967L255.485 36.0312L253.651 43.8658" stroke="black" stroke-width="2.03848" stroke-miterlimit="10" stroke-linecap="round"/>
<path d="M278.934 31.0303L277.127 38.7289L275.32 46.4276" stroke="black" stroke-width="2.03848" stroke-miterlimit="10" stroke-linecap="round"/>
<path d="M300.998 33.687L299.292 40.9712L297.58 48.2486" stroke="black" stroke-width="2.03848" stroke-miterlimit="10" stroke-linecap="round"/>
<path d="M271.419 2.39633C277.358 4.52672 282.828 7.7846 287.53 11.9908C290.571 14.7186 293.256 17.8189 295.521 21.2183C297.293 23.8722 298.804 26.6917 300.033 29.6372C301.201 32.3989 302.111 35.2627 302.751 38.1921C303.231 40.4003 303.561 42.6388 303.736 44.8919L311.258 44.9666L318.787 45.0346C318.597 44.0901 318.338 42.9485 317.985 41.6371C317.632 40.3257 317.197 38.8716 316.626 37.3019C314.835 32.2754 312.356 27.5213 309.26 23.1753C307.633 20.8699 305.815 18.706 303.824 16.7065C301.658 14.5569 299.307 12.6016 296.798 10.8628C295.405 9.88713 293.958 8.99103 292.463 8.17882C288.673 6.1344 284.626 4.60777 280.429 3.63981C277.471 2.94786 274.455 2.53158 271.419 2.39633Z" fill="#D1B7E5" stroke="black" stroke-width="2.03848" stroke-miterlimit="10" stroke-linecap="round"/>
<path d="M266.982 93.9378C267.998 96.7796 267.977 99.8894 266.921 102.717C266.479 104 265.751 105.165 264.791 106.125C263.832 107.085 262.666 107.813 261.384 108.255C260.101 108.697 258.734 108.841 257.387 108.676C256.04 108.511 254.748 108.042 253.61 107.303C251.059 105.697 249.134 103.269 248.153 100.419C247.172 97.5692 247.194 94.4699 248.215 91.6343C248.656 90.351 249.384 89.1852 250.344 88.2256C251.304 87.2659 252.469 86.5377 253.753 86.0962C255.036 85.6546 256.403 85.5114 257.75 85.6775C259.097 85.8436 260.388 86.3145 261.526 87.0545C264.102 88.631 266.035 91.07 266.982 93.9378Z" fill="black" stroke="black" stroke-width="2.03848" stroke-miterlimit="10" stroke-linecap="round"/>
<path d="M266.982 93.9377C266.901 93.6931 266.806 93.4553 266.71 93.2243C266.615 92.9932 266.513 92.7622 266.405 92.5448C266.106 92.4568 265.802 92.3886 265.494 92.3409C265.179 92.2919 264.861 92.2669 264.543 92.2662C263.564 92.2765 262.6 92.4965 261.713 92.9115C260.827 93.3264 260.04 93.9266 259.406 94.6716C258.01 96.286 257.252 98.3541 257.272 100.488C257.264 102.119 257.701 103.721 258.536 105.122C259.304 106.414 260.436 107.449 261.791 108.098C263.001 107.584 264.09 106.821 264.987 105.859C265.884 104.897 266.568 103.757 266.996 102.513C267.979 99.7383 267.975 96.7092 266.982 93.9377Z" fill="#EF3F3F" stroke="black" stroke-width="2.03848" stroke-miterlimit="10" stroke-linecap="round"/>
<path d="M321.104 95.7521H300.135C297.804 95.7503 295.569 94.8231 293.922 93.1744C292.274 91.5256 291.349 89.2902 291.349 86.9594V54.0923C291.349 51.7615 292.274 49.5261 293.922 47.8774C295.569 46.2286 297.804 45.3015 300.135 45.2997H321.104C322.259 45.2997 323.402 45.5271 324.469 45.969C325.535 46.4108 326.505 47.0585 327.321 47.875C328.138 48.6914 328.785 49.6607 329.227 50.7275C329.669 51.7943 329.897 52.9376 329.897 54.0923V86.9594C329.897 89.2914 328.97 91.5278 327.321 93.1768C325.672 94.8257 323.436 95.7521 321.104 95.7521Z" fill="#D1B7E5" stroke="black" stroke-width="2.03848" stroke-miterlimit="10" stroke-linecap="round"/>
<path d="M314.567 84.4588H306.678C305.838 84.4597 305.006 84.295 304.229 83.974C303.453 83.6531 302.747 83.1823 302.153 82.5884C301.558 81.9946 301.086 81.2894 300.765 80.5132C300.443 79.737 300.277 78.905 300.277 78.0648V62.9868C300.277 62.1466 300.443 61.3145 300.765 60.5383C301.086 59.7621 301.558 59.057 302.153 58.4631C302.747 57.8693 303.453 57.3985 304.229 57.0775C305.006 56.7566 305.838 56.5919 306.678 56.5928H314.567C315.407 56.591 316.24 56.7551 317.016 57.0758C317.793 57.3965 318.498 57.8674 319.092 58.4615C319.686 59.0556 320.157 59.7612 320.478 60.5378C320.799 61.3144 320.963 62.1466 320.961 62.9868V78.0648C320.963 78.9049 320.799 79.7372 320.478 80.5138C320.157 81.2903 319.686 81.9959 319.092 82.59C318.498 83.1841 317.793 83.655 317.016 83.9757C316.24 84.2964 315.407 84.4606 314.567 84.4588Z" fill="#D1B7E5" stroke="black" stroke-width="2.03848" stroke-miterlimit="10" stroke-linecap="round"/>
<path d="M219.914 379.237H235.352H250.79C250.79 379.237 250.178 383.667 249.084 391.529C247.99 399.391 246.414 410.704 244.498 424.471H167.633C169.373 423.615 171.466 422.507 173.803 421.107C176.426 419.542 178.964 417.838 181.407 416.004C182.766 414.971 184.077 413.911 185.613 412.573C187.148 411.234 188.936 409.617 191.293 407.477C192.734 406.172 194.283 404.759 195.968 403.209C197.653 401.66 199.474 399.955 201.452 398.059C202.811 396.788 203.946 395.66 204.849 394.763C205.753 393.866 206.433 393.2 206.772 392.867C210.319 389.348 213.567 385.95 216 383.436C218.432 380.922 219.914 379.237 219.914 379.237Z" fill="black" stroke="black" stroke-width="2.03848" stroke-miterlimit="10" stroke-linecap="round"/>
</svg>
