<svg width="655" height="535" viewBox="0 0 655 535" fill="none" xmlns="http://www.w3.org/2000/svg">
<path d="M653.46 463.118C650.892 453.687 648.317 444.253 645.734 434.817C643.152 425.381 640.582 415.95 638.022 406.523L629.019 376.204C626.025 366.093 623.024 355.985 620.016 345.878C621.524 343.554 623.073 340.959 624.595 338.098C626.118 335.237 627.619 332.105 629.026 328.701L629.087 328.544C629.087 328.49 629.134 328.442 629.155 328.388C631.9 321.641 633.728 314.556 634.591 307.324C635.456 300.097 635.392 292.79 634.401 285.58C633.925 282.083 633.395 278.54 632.811 274.953C632.226 271.365 631.59 267.741 630.901 264.081C626.211 239.221 619.352 214.82 610.401 191.158C602.761 170.997 593.696 151.405 583.275 132.531C572.804 113.539 557.251 101.634 539.265 94.4792C521.278 87.3241 500.866 84.9255 480.679 84.9662C455.537 84.9662 430.349 86.9028 405.683 91.4282C381.017 95.9536 356.861 103.075 333.847 113.62C322.676 118.723 310.955 124.193 300.463 131.124C289.972 138.055 280.71 146.447 274.466 157.38C268.276 168.211 264.416 179.993 261.277 192.034C258.138 204.075 255.732 216.36 252.443 228.204L224.584 205.339L196.725 182.48L172.848 228.686L149.025 274.783L192.736 317.373L236.448 359.957C242.532 365.926 249.633 370.758 257.417 374.227C270.029 379.744 286.894 381.993 303.922 368.947L303.487 419.175L303.045 469.403L351.514 468.547L400.009 467.671L462.93 466.543L525.845 465.415L589.656 464.239L653.46 463.118Z" fill="#B00808" stroke="black" stroke-width="2.03848" stroke-miterlimit="10" stroke-linecap="round"/>
<path d="M525.845 465.415L495.077 392.179L464.316 318.95L429.757 329.326L395.205 339.708L397.611 403.689L400.009 467.671L462.93 466.543L525.845 465.415Z" fill="#14AF6C" stroke="black" stroke-width="2.03848" stroke-miterlimit="10" stroke-linecap="round"/>
<path d="M620.016 345.878L602.199 405.123C596.26 424.856 590.319 444.593 584.376 464.334L541.833 464.783L499.283 465.238C507.94 458.776 515.897 452.484 523.133 446.511C530.37 440.538 536.907 434.838 542.723 429.585C554.329 419.162 564.297 409.418 572.403 401.101C580.51 392.784 586.775 385.894 590.967 381.178C596.981 374.417 602.41 367.996 607.275 362.064C612.14 356.132 616.353 350.703 620.016 345.878Z" fill="black" stroke="black" stroke-width="2.03848" stroke-miterlimit="10" stroke-linecap="round"/>
<path d="M359.022 103.537L373.291 119.899L387.561 136.254L391.291 114.891L395.001 93.5277C391.889 94.1121 388.648 94.7848 385.291 95.5662C381.935 96.3476 378.496 97.2446 374.915 98.2842C372.062 99.1086 369.307 99.9625 366.653 100.846C363.998 101.729 361.455 102.626 359.022 103.537Z" fill="#FFF8F8" stroke="black" stroke-width="2.03848" stroke-miterlimit="10" stroke-linecap="round"/>
<path d="M305.043 280.606L304.438 328.422L303.834 376.231" stroke="black" stroke-width="2.03848" stroke-miterlimit="10" stroke-linecap="round"/>
<path d="M252.45 228.163L262.398 235.929L272.346 243.723C272.437 243.794 272.55 243.832 272.665 243.832C272.781 243.832 272.893 243.794 272.985 243.723C273.081 243.656 273.151 243.558 273.183 243.445C273.215 243.333 273.207 243.212 273.161 243.105L265.734 224.222L258.314 205.352L255.379 216.747C254.4 220.557 253.424 224.362 252.45 228.163Z" fill="black" stroke="black" stroke-width="2.03848" stroke-miterlimit="10" stroke-linecap="round"/>
<path d="M333.847 113.62L336.891 148.682L339.962 183.717L363.745 159.982L387.527 136.254L373.257 119.899L358.988 103.537C358.988 103.537 353.62 105.426 347.783 107.614C341.946 109.802 335.695 112.329 333.847 113.62Z" fill="#B00808" stroke="black" stroke-width="2.03848" stroke-miterlimit="10" stroke-linecap="round"/>
<path d="M395.001 93.5278L391.271 114.891L387.54 136.254L419.884 146.603L452.228 156.959L440.086 122.488L427.95 88.0239C427.95 88.0239 422.031 88.7918 414.958 89.8586C407.884 90.9254 399.663 92.3047 395.001 93.5278Z" fill="#B00808" stroke="black" stroke-width="2.03848" stroke-miterlimit="10" stroke-linecap="round"/>
<path d="M413.212 39.7391L394.077 42.2736L374.949 44.8081C375.937 49.9115 377.593 54.8624 379.876 59.5327C384.773 69.6428 392.834 77.8802 402.836 82.9956C405.654 84.4411 408.594 85.6348 411.622 86.563C413.326 82.6404 414.624 78.5534 415.495 74.3661C417.155 66.371 417.295 58.1349 415.909 50.0878C415.3 46.569 414.398 43.1073 413.212 39.7391Z" fill="black" stroke="black" stroke-width="2.03848" stroke-miterlimit="10" stroke-linecap="round"/>
<path d="M396.36 79.0613C395.205 78.2323 394.322 77.5121 393.642 76.9141C392.963 76.3162 392.467 75.8337 392.134 75.494C391.801 75.1542 391.658 75.0047 391.454 74.8145L390.924 74.2097L391.427 74.2981C391.604 74.2981 391.801 74.3592 392.018 74.3864C392.018 74.3864 392.222 74.3864 392.528 74.434C392.834 74.4815 393.248 74.4883 393.656 74.4883C395.923 74.5176 398.163 73.9969 400.185 72.9707C402.206 71.9446 403.949 70.4436 405.264 68.5965C406.578 66.7493 407.425 64.611 407.732 62.3647C408.04 60.1185 407.798 57.8312 407.027 55.699C406.257 53.5668 404.981 51.6531 403.309 50.1219C401.637 48.5907 399.619 47.4877 397.427 46.9073C395.236 46.3269 392.936 46.2865 390.725 46.7896C388.515 47.2926 386.459 48.324 384.734 49.7955C382.171 51.972 380.434 54.9637 379.815 58.2688C379.278 57.3515 378.714 56.3119 378.157 55.1499C377.564 53.8921 377.037 52.6038 376.58 51.2904C376.159 50.0877 375.826 48.9326 375.554 47.8454C375.282 46.7582 375.079 45.7322 374.929 44.7877L342.313 49.1092L309.664 53.4308C309.514 54.6856 309.399 55.9517 309.317 57.2292C309.242 58.5066 309.195 59.7977 309.195 61.0955C309.195 77.4034 315.222 92.2027 324.966 102.898C334.71 113.593 348.164 120.211 363.018 120.211C373.455 120.191 383.626 116.915 392.113 110.841C400.712 104.674 407.458 96.2705 411.622 86.5425C409.723 85.9628 407.856 85.2823 406.029 84.5041C404.399 83.8246 402.999 83.1043 401.844 82.4656C401.164 82.119 400.383 81.6638 399.452 81.1066C398.521 80.5494 397.481 79.8563 396.36 79.0613Z" fill="#FFC0C0" stroke="black" stroke-width="2.03848" stroke-miterlimit="10" stroke-linecap="round"/>
<path d="M379.427 78.8576C379.429 80.5966 378.828 82.2823 377.726 83.6276C376.624 84.9728 375.089 85.8943 373.384 86.2348C371.679 86.5754 369.908 86.3141 368.374 85.4953C366.839 84.6766 365.637 83.3512 364.97 81.7449C364.304 80.1387 364.215 78.351 364.719 76.6867C365.223 75.0224 366.289 73.5844 367.735 72.6178C369.18 71.6513 370.916 71.2159 372.647 71.386C374.378 71.5561 375.996 72.3212 377.226 73.5507C377.924 74.2463 378.479 75.0734 378.857 75.9842C379.234 76.895 379.428 77.8715 379.427 78.8576Z" fill="#EF3F3F" stroke="black" stroke-width="2.03848" stroke-miterlimit="10" stroke-linecap="round"/>
<path d="M343.74 98.1959C343.742 99.9349 343.141 101.621 342.039 102.966C340.937 104.311 339.402 105.233 337.697 105.573C335.992 105.914 334.221 105.652 332.687 104.834C331.153 104.015 329.95 102.69 329.283 101.083C328.617 99.477 328.528 97.6894 329.033 96.0251C329.537 94.3607 330.602 92.9227 332.048 91.9562C333.493 90.9896 335.23 90.5543 336.96 90.7244C338.691 90.8945 340.309 91.6595 341.539 92.8891C342.238 93.5847 342.792 94.4117 343.17 95.3225C343.548 96.2333 343.741 97.2099 343.74 98.1959Z" fill="#EF3F3F" stroke="black" stroke-width="2.03848" stroke-miterlimit="10" stroke-linecap="round"/>
<path d="M347.545 99.7384C349.555 100.287 351.671 100.315 353.695 99.82C356.977 98.991 360.68 96.4225 362.345 89.4101" stroke="black" stroke-width="2.03848" stroke-miterlimit="10" stroke-linecap="round"/>
<path d="M332.338 82.4995C332.34 83.2007 332.098 83.8806 331.654 84.4234C331.21 84.9661 330.591 85.3381 329.904 85.476C329.216 85.6138 328.502 85.509 327.883 85.1794C327.264 84.8497 326.779 84.3157 326.51 83.6683C326.24 83.0208 326.204 82.3001 326.407 81.6288C326.609 80.9575 327.038 80.3773 327.621 79.9869C328.203 79.5966 328.903 79.4204 329.601 79.4883C330.299 79.5561 330.952 79.8639 331.448 80.3591C331.731 80.6392 331.955 80.9726 332.108 81.34C332.261 81.7074 332.339 82.1016 332.338 82.4995Z" fill="black"/>
<path d="M361.448 70.0172C361.448 70.6153 361.27 71.1999 360.938 71.6971C360.606 72.1944 360.134 72.5819 359.581 72.8108C359.029 73.0397 358.421 73.0995 357.834 72.9829C357.248 72.8662 356.709 72.5782 356.286 72.1553C355.863 71.7325 355.575 71.1937 355.458 70.6071C355.342 70.0206 355.402 69.4126 355.63 68.8601C355.859 68.3076 356.247 67.8353 356.744 67.5031C357.241 67.1708 357.826 66.9935 358.424 66.9935C358.821 66.9926 359.215 67.0702 359.582 67.2218C359.95 67.3735 360.283 67.5962 360.564 67.8771C360.845 68.1581 361.068 68.4918 361.219 68.859C361.371 69.2263 361.449 69.6199 361.448 70.0172Z" fill="black"/>
<path d="M326.76 65.7705L342.592 59.2745L358.424 52.7785" stroke="black" stroke-width="2.03848" stroke-miterlimit="10" stroke-linecap="round"/>
<path d="M334.852 62.4545L339.772 75.9289L344.691 89.41L346.54 88.5674L348.381 87.7249" stroke="black" stroke-width="2.03848" stroke-miterlimit="10" stroke-linecap="round"/>
<path d="M363.018 1.99997C349.339 1.99997 336.85 7.6058 327.358 16.8401C317.439 26.6549 311.189 39.5758 309.65 53.4444L361.428 46.5884L413.212 39.7391C409.491 28.9892 402.733 19.5484 393.758 12.5593C384.963 5.73343 374.151 2.01954 363.018 1.99997Z" fill="#F9851C" stroke="black" stroke-width="2.03848" stroke-miterlimit="10" stroke-linecap="round"/>
<path d="M389.287 65.1385L393.676 61.4828L398.072 57.8339" stroke="black" stroke-width="2.03848" stroke-miterlimit="10" stroke-linecap="round"/>
<path d="M329.308 50.842C330.323 56.3193 329.667 61.9754 327.425 67.0751C325.31 71.9352 321.661 75.9686 317.036 78.5586C315.301 79.5117 313.448 80.2335 311.525 80.7058C305.372 82.1794 298.886 81.2049 293.437 77.9878C290.66 76.3489 288.283 74.1117 286.478 71.4389C284.674 68.7661 283.488 65.7248 283.007 62.5361C282.718 60.5762 282.718 58.5844 283.007 56.6245C283.657 52.3425 285.482 48.3249 288.28 45.0187C291.12 41.6892 294.932 39.277 299.417 38.9033C302.107 38.7076 304.803 39.1986 307.251 40.3302C308.863 41.0591 310.374 41.9907 311.75 43.1026C311.457 44.0946 311.172 45.1411 310.907 46.235C310.642 47.329 310.404 48.4842 310.194 49.6801C310.078 50.3596 309.983 50.9711 309.895 51.5962C309.806 52.2214 309.725 52.8261 309.657 53.4241L319.496 52.1263L329.308 50.842Z" fill="black" stroke="black" stroke-width="2.03848" stroke-miterlimit="10" stroke-linecap="round"/>
<path d="M314.617 35.2069L360.191 30.1922L405.764 25.1776" stroke="black" stroke-width="2.03848" stroke-miterlimit="10" stroke-linecap="round"/>
<path d="M328.404 33.6917V42.328V50.9644" stroke="black" stroke-width="2.03848" stroke-miterlimit="10" stroke-linecap="round"/>
<path d="M346.411 31.8365V39.9972V48.1579" stroke="black" stroke-width="2.03848" stroke-miterlimit="10" stroke-linecap="round"/>
<path d="M368.399 29.6281V37.6461V45.671" stroke="black" stroke-width="2.03848" stroke-miterlimit="10" stroke-linecap="round"/>
<path d="M390.802 27.1412V34.7244V42.3143" stroke="black" stroke-width="2.03848" stroke-miterlimit="10" stroke-linecap="round"/>
<path d="M196.759 182.44L176.931 166.662L157.097 150.884C150.33 145.491 142.845 141.068 134.857 137.742C126.875 134.42 118.447 132.288 109.845 131.416L108.961 131.335L108.065 131.26C99.0437 130.55 89.9798 131.909 81.5643 135.235C73.1454 138.567 65.5654 143.715 59.3652 150.313L36.1265 174.972L12.8811 199.604C10.1979 202.44 7.93067 205.643 6.14728 209.116C4.37215 212.597 3.14372 216.331 2.5052 220.185C1.75559 224.692 1.84081 229.299 2.75661 233.775C3.96969 239.437 6.31571 244.795 9.65347 249.526L27.7552 273.233L45.8569 296.907C47.4921 299.326 49.373 301.568 51.4695 303.6C54.7311 306.705 58.944 309.315 62.6268 307.358C63.9479 309.125 65.5259 310.685 67.3085 311.985C70.1352 314.023 73.9472 315.416 77.8679 313.018C78.9742 314.201 80.3046 315.153 81.7817 315.817C84.1464 316.857 87.3332 317.176 90.6152 314.275C90.6152 314.275 91.6412 313.697 92.2392 311.632C92.8371 309.566 93.007 306.012 91.2879 300.08C90.7307 298.123 90.1667 296.166 89.6163 294.203C89.0659 292.239 88.5359 290.282 88.0263 288.311L82.2642 265.888L76.4953 243.465C76.0439 241.732 76.2197 239.896 76.9913 238.28L84.5677 222.339L92.144 206.337C92.6403 205.13 93.5541 204.142 94.7186 203.554C95.8831 202.965 97.2206 202.815 98.4867 203.13C99.7528 203.446 100.863 204.207 101.615 205.273C102.367 206.34 102.709 207.641 102.581 208.94L97.9469 246.094C96.4022 258.484 94.8575 270.869 93.3128 283.249C92.5961 287.003 92.4063 290.838 92.7488 294.644C93.0885 297.675 93.9107 299.795 95.0523 300.583C95.6811 301.016 96.3672 301.359 97.0907 301.602C97.408 301.71 97.7328 301.794 98.0624 301.854C98.4067 301.902 98.7544 301.923 99.102 301.915C99.9313 301.904 100.755 301.775 101.548 301.534C102.866 301.127 104.558 299.659 106.345 297.328C108.496 294.42 110.291 291.265 111.693 287.931C114.166 282.364 116.635 276.796 119.1 271.229L126.513 254.52L137.738 264.679L149.024 274.783L172.909 228.611L196.759 182.44Z" fill="#FFC0C0" stroke="black" stroke-width="2.03848" stroke-miterlimit="10" stroke-linecap="round"/>
<path d="M126.547 254.473L128.633 250.341L130.726 246.203" stroke="black" stroke-width="2.03848" stroke-miterlimit="10" stroke-linecap="round"/>
<path d="M46.7878 237.968L62.3279 275.489L77.8679 313.018" stroke="black" stroke-width="2.03848" stroke-miterlimit="10" stroke-linecap="round"/>
<path d="M26.2876 246.828L44.4573 277.093L62.6269 307.358" stroke="black" stroke-width="2.03848" stroke-miterlimit="10" stroke-linecap="round"/>
<path d="M374.616 470.661L235.565 446.409L96.5336 422.151C95.6564 422.004 94.7572 422.058 93.9038 422.309C93.0505 422.559 92.2653 423.001 91.6075 423.6C90.9498 424.199 90.4368 424.939 90.1071 425.765C89.7775 426.591 89.6399 427.482 89.7047 428.369L91.0637 446.715L92.4227 465.061C92.6645 467.829 93.8156 470.438 95.6963 472.482C97.577 474.526 100.081 475.89 102.819 476.361L177.353 489.686L251.886 503.018C254.282 503.446 256.751 503.171 258.993 502.224C261.235 501.277 263.154 499.7 264.518 497.684L270.654 488.545L276.844 479.406L317.444 485.134L358.05 490.862L366.313 480.765L374.616 470.661Z" fill="#D1B7E5" stroke="black" stroke-width="2.03848" stroke-miterlimit="10" stroke-linecap="round"/>
<path d="M387.663 139.067L391.434 239.388L395.205 339.708L429.757 329.326L464.31 318.95L426.482 228.896L388.648 138.85C388.604 138.737 388.52 138.644 388.413 138.588C388.306 138.532 388.182 138.516 388.064 138.544C387.946 138.571 387.842 138.638 387.769 138.734C387.696 138.829 387.658 138.947 387.663 139.067Z" fill="#FFF8F8" stroke="black" stroke-width="2.03848" stroke-miterlimit="10" stroke-linecap="round"/>
<path d="M368.779 229.923C368.783 230.846 368.466 231.742 367.882 232.458C367.299 233.173 366.485 233.664 365.58 233.847C364.675 234.03 363.734 233.893 362.919 233.459C362.104 233.026 361.464 232.323 361.109 231.471C360.754 230.618 360.706 229.669 360.972 228.785C361.239 227.901 361.804 227.137 362.571 226.623C363.339 226.109 364.26 225.878 365.179 225.968C366.098 226.057 366.958 226.463 367.611 227.116C367.981 227.484 368.274 227.921 368.475 228.403C368.676 228.884 368.779 229.401 368.779 229.923Z" fill="black" stroke="black" stroke-width="2.03848" stroke-miterlimit="10" stroke-linecap="round"/>
<path d="M368.779 297.138C368.783 298.061 368.466 298.957 367.882 299.673C367.299 300.389 366.485 300.88 365.58 301.062C364.675 301.245 363.734 301.108 362.919 300.675C362.104 300.241 361.464 299.539 361.109 298.686C360.754 297.834 360.706 296.885 360.972 296.001C361.239 295.116 361.804 294.352 362.571 293.839C363.339 293.325 364.26 293.093 365.179 293.183C366.098 293.273 366.958 293.679 367.611 294.332C367.981 294.7 368.274 295.137 368.475 295.618C368.676 296.1 368.779 296.616 368.779 297.138Z" fill="black" stroke="black" stroke-width="2.03848" stroke-miterlimit="10" stroke-linecap="round"/>
<path d="M368.779 364.354C368.781 365.277 368.463 366.172 367.878 366.886C367.294 367.601 366.48 368.091 365.575 368.272C364.67 368.454 363.73 368.316 362.915 367.881C362.101 367.447 361.462 366.744 361.107 365.892C360.753 365.039 360.706 364.09 360.973 363.207C361.24 362.323 361.806 361.56 362.573 361.046C363.34 360.533 364.262 360.302 365.18 360.392C366.099 360.482 366.958 360.888 367.611 361.54C367.982 361.909 368.276 362.347 368.476 362.83C368.677 363.313 368.78 363.831 368.779 364.354Z" fill="black" stroke="black" stroke-width="2.03848" stroke-miterlimit="10" stroke-linecap="round"/>
<path d="M96.5335 422.151C96.5335 422.151 92.0149 415.173 89.9084 403.968C87.802 392.763 88.033 377.325 97.5663 360.413C98.3973 358.929 99.3568 357.522 100.434 356.206C101.504 354.888 102.711 353.688 104.035 352.626C105.464 351.44 107.068 350.484 108.792 349.792C110.527 349.073 112.444 348.912 114.275 349.33C115.375 349.603 116.403 350.113 117.285 350.825C118.169 351.533 118.9 352.414 119.432 353.414C119.933 354.361 120.259 355.389 120.397 356.451C120.555 357.823 120.421 359.212 120.003 360.528C120.428 359.146 121.148 357.873 122.113 356.797C123.079 355.721 124.267 354.868 125.595 354.297C126.925 353.719 128.359 353.42 129.808 353.42C131.258 353.42 132.692 353.719 134.021 354.297C138.098 356.084 140.816 360.08 142.603 364.619C144.204 369.002 145.256 373.567 145.736 378.208C145.926 379.846 146.041 381.504 146.082 383.155C146.123 384.806 146.082 386.464 145.96 388.115C145.915 388.795 145.853 389.474 145.776 390.154C145.702 390.833 145.62 391.513 145.525 392.192C145.477 392.519 145.45 393.232 145.376 393.918C145.376 394.475 145.229 395.021 144.947 395.502C146.597 394 148.628 392.979 150.818 392.553C154.216 392.002 158.558 393.3 162.288 400.706C165.277 406.93 168.71 412.93 172.562 418.659C178.793 427.873 187.226 437.569 196.025 439.499L146.293 430.822L96.5335 422.151Z" fill="#F7CE21" stroke="black" stroke-width="2.03848" stroke-miterlimit="10" stroke-linecap="round"/>
<path d="M109.315 349.602C105 357.563 101.92 366.135 100.182 375.022C97.3149 389.76 97.8246 408.541 111.36 424.733" stroke="black" stroke-width="2.03848" stroke-miterlimit="10" stroke-linecap="round"/>
<path d="M119.976 360.555C117.773 365.657 116.176 371.001 115.22 376.476C112.705 390.435 114.777 404.833 121.124 417.517C122.882 421.032 124.942 424.388 127.281 427.547" stroke="black" stroke-width="2.03848" stroke-miterlimit="10" stroke-linecap="round"/>
<path d="M138.547 357.701C136.211 362.459 134.447 367.477 133.294 372.65C129.647 388.692 132.226 405.519 140.51 419.732C142.915 423.877 145.761 427.75 148.997 431.284" stroke="black" stroke-width="2.03848" stroke-miterlimit="10" stroke-linecap="round"/>
<path d="M153.271 392.532C152.832 395.38 152.652 398.261 152.735 401.141C152.99 410.456 156.021 419.483 161.439 427.064C163.398 429.819 165.644 432.359 168.139 434.64" stroke="black" stroke-width="2.03848" stroke-miterlimit="10" stroke-linecap="round"/>
<path d="M178.807 360.813C178.807 362.788 178.123 364.701 176.87 366.228C175.618 367.755 173.875 368.8 171.939 369.185C170.002 369.571 167.992 369.273 166.25 368.343C164.509 367.412 163.144 365.907 162.388 364.082C161.632 362.258 161.532 360.229 162.105 358.339C162.678 356.449 163.888 354.817 165.53 353.72C167.171 352.622 169.142 352.128 171.107 352.322C173.073 352.515 174.91 353.383 176.306 354.779C177.907 356.38 178.806 358.55 178.807 360.813Z" fill="#F9851C" stroke="black" stroke-width="2.03848" stroke-miterlimit="10" stroke-linecap="round"/>
<path d="M217.653 423.184C218.19 424.339 217.844 425.78 216.845 427.166C215.577 428.743 213.965 430.009 212.132 430.868C210.3 431.727 208.295 432.155 206.272 432.12C204.566 431.99 203.234 431.338 202.698 430.183C202.161 429.028 202.501 427.587 203.499 426.201C204.77 424.626 206.384 423.361 208.217 422.504C210.051 421.647 212.056 421.219 214.079 421.254C215.771 421.377 217.096 422.029 217.653 423.184Z" fill="#EF3F3F" stroke="black" stroke-width="2.03848" stroke-miterlimit="10" stroke-linecap="round"/>
<path d="M190.868 388.034C190.817 388.012 190.763 388.001 190.708 388.001C190.653 388.001 190.599 388.012 190.548 388.034C190.499 388.056 190.454 388.088 190.416 388.128C190.379 388.167 190.35 388.214 190.331 388.265L189.298 390.983L188.265 393.701C187.552 395.57 188.462 397.153 189.876 398.457C191.297 399.636 192.852 400.641 194.51 401.454C197.333 402.926 200.344 404.005 203.459 404.661C206.999 405.341 210.369 405.062 211.375 402.201L212.285 399.619L213.196 397.031C213.237 396.93 213.237 396.818 213.196 396.718C213.15 396.619 213.067 396.541 212.965 396.501L201.923 392.288L190.868 388.034Z" fill="#14AF6C" stroke="black" stroke-width="2.03848" stroke-miterlimit="10" stroke-linecap="round"/>
<path d="M132.037 338.771C131.965 338.855 131.928 338.965 131.935 339.076C131.938 339.131 131.952 339.185 131.977 339.234C132.001 339.283 132.036 339.326 132.078 339.362L134.245 341.264L136.413 343.167C137.915 344.492 139.722 344.186 141.428 343.31C143.026 342.385 144.511 341.277 145.851 340.007C148.211 337.871 150.269 335.423 151.967 332.73C153.822 329.638 154.739 326.39 152.408 324.447L150.295 322.694L148.189 320.947C148.149 320.911 148.101 320.883 148.05 320.867C147.998 320.851 147.943 320.846 147.89 320.852C147.781 320.859 147.678 320.908 147.604 320.988L139.824 329.883L132.037 338.771Z" fill="#14AF6C" stroke="black" stroke-width="2.03848" stroke-miterlimit="10" stroke-linecap="round"/>
<path d="M236.781 424.652L232.093 421.608L227.404 418.57L231.828 411.748L236.251 404.926L240.94 407.97L245.628 411.008L241.205 417.83L236.781 424.652Z" fill="#F7CE21" stroke="black" stroke-width="2.03848" stroke-miterlimit="10" stroke-linecap="round"/>
<path d="M462.74 350.451L455.802 356.947L448.858 363.436L413.449 371.828L378.014 380.152C374.858 380.591 371.788 381.508 368.908 382.87C361.822 386.125 355.765 391.263 351.398 397.724L333.283 418.713L315.14 439.655C313.957 441.712 313.141 443.958 312.728 446.294C312.184 449.868 312.966 453.965 318.252 456.038C318.252 456.038 319.808 457.077 323.77 455.725C327.731 454.373 334.112 450.649 343.754 441.109L350.182 435.306L356.61 429.497C357.459 428.17 358.674 427.117 360.109 426.466C362.678 425.196 366.904 424.428 373.407 426.385L385.746 428.878L398.086 431.365C398.086 431.365 400.233 431.583 401.089 433.295C401.946 435.007 401.504 438.201 396.333 444.167L377.205 467.535L358.084 490.903L319.944 491.779L281.797 492.656H279.793H277.754C275.382 492.625 273.028 493.088 270.844 494.015C268.377 495.197 266.346 497.358 266.611 501.326C266.646 501.875 266.735 502.419 266.876 502.95C267.07 503.688 267.363 504.396 267.745 505.056C268.063 505.597 268.439 506.101 268.867 506.558C269.244 506.956 269.658 507.318 270.103 507.639C270.596 507.997 271.127 508.3 271.687 508.542C272.243 508.786 272.821 508.977 273.412 509.113L313.7 518.721L353.987 528.322C354.811 528.599 355.65 528.826 356.501 529.002C357.47 529.196 358.45 529.326 359.436 529.389C362.573 529.572 365.713 529.109 368.664 528.03C370.674 527.301 372.588 526.332 374.365 525.142C375.771 527.641 377.713 529.797 380.052 531.455C383.783 533.996 389.293 535.301 396.401 530.388L396.598 530.51L397.175 530.843C401.272 533.119 405.966 534.089 410.629 533.622C415.301 533.175 419.729 531.331 423.336 528.329L483.682 478.169L544.034 428.009L503.387 389.23L462.74 350.451Z" fill="#FFC0C0" stroke="black" stroke-width="2.03848" stroke-miterlimit="10" stroke-linecap="round"/>
<path d="M434.12 469.417L404.249 497.269L374.379 525.115" stroke="black" stroke-width="2.03848" stroke-miterlimit="10" stroke-linecap="round"/>
<path d="M452.69 479.406L424.552 504.88L396.415 530.361" stroke="black" stroke-width="2.03848" stroke-miterlimit="10" stroke-linecap="round"/>
<path d="M213.332 396.602C212.856 397.846 211.151 398.485 208.772 398.505C202.86 398.259 197.189 396.096 192.614 392.342C190.854 390.738 190.005 389.128 190.48 387.885C190.956 386.641 192.662 386.009 195.04 385.982C200.954 386.224 206.628 388.391 211.198 392.152C212.958 393.755 213.807 395.366 213.332 396.602Z" fill="white" stroke="black" stroke-width="2.03848" stroke-miterlimit="10" stroke-linecap="round"/>
<path d="M147.883 320.683C148.882 321.559 148.889 323.401 148.08 325.622C145.798 331.082 141.8 335.649 136.692 338.635C134.578 339.729 132.771 339.994 131.772 339.09C130.773 338.186 130.767 336.372 131.568 334.15C133.856 328.692 137.855 324.126 142.963 321.138C145.077 320.044 146.884 319.806 147.883 320.683Z" fill="white" stroke="black" stroke-width="2.03848" stroke-miterlimit="10" stroke-linecap="round"/>
<path d="M276.858 479.405L283.884 467.732L290.903 456.058" fill="#D1B7E5"/>
<path d="M276.858 479.405L283.884 467.732L290.903 456.058" stroke="black" stroke-width="2.03848" stroke-miterlimit="10" stroke-linecap="round"/>
<path d="M490.742 234.448C493.659 245.682 496.576 256.914 499.494 268.144L508.239 301.84L485.489 326.146L462.74 350.451L503.394 389.23L544.041 428.009C556.666 416.561 569.022 404.412 581.108 391.561C593.194 378.709 604.901 365.11 616.231 350.764C616.869 349.962 617.504 349.156 618.133 348.345C618.763 347.534 619.39 346.723 620.016 345.912" fill="#B00808"/>
<path d="M490.742 234.448C493.659 245.682 496.576 256.914 499.494 268.144L508.239 301.84L485.489 326.146L462.74 350.451L503.394 389.23L544.041 428.009C556.666 416.561 569.022 404.412 581.108 391.561C593.194 378.709 604.901 365.11 616.231 350.764C616.869 349.962 617.504 349.156 618.133 348.345C618.763 347.534 619.39 346.723 620.016 345.912" stroke="black" stroke-width="2.03848" stroke-miterlimit="10" stroke-linecap="round"/>
</svg>
