<svg width="370" height="570" viewBox="0 0 370 570" fill="none" xmlns="http://www.w3.org/2000/svg">
<path d="M120.707 260.3L118.413 281.448L116.119 302.596C115.606 307.907 115.379 313.241 115.437 318.577C115.506 327.751 116.417 339.329 119.749 348.87C120.15 350.017 120.558 351.164 120.953 352.311C121.349 353.458 121.75 354.605 122.1 355.751L130.174 380.506L138.248 405.266L174.218 397.147L210.183 389.027L198.674 354.954L187.223 320.893C186.347 318.283 186.104 315.502 186.512 312.779L191.163 282.113L195.825 251.447C195.84 251.316 195.904 251.197 196.004 251.112C196.104 251.027 196.232 250.983 196.364 250.988C196.495 250.986 196.623 251.033 196.721 251.12C196.82 251.207 196.883 251.327 196.897 251.458L203.17 298.622L209.437 345.78C211.515 361.304 215.618 376.489 221.64 390.948C224.652 398.192 227.737 405.486 230.895 412.83C234.052 420.173 237.285 427.565 240.591 435.004C244.192 443.058 247.811 451.023 251.446 458.898C255.082 466.773 258.713 474.53 262.341 482.167L297.893 472.62L333.445 463.067L314.064 417.228L294.716 371.394C293.493 368.531 292.719 365.497 292.423 362.397L284.79 280.221L277.124 198.038L202.757 197.224L128.396 196.41L124.56 228.355L120.707 260.3Z" fill="#14AF6C" stroke="black" stroke-width="1.72026" stroke-miterlimit="10" stroke-linecap="round"/>
<path d="M367.965 522.846L281.952 540.255L195.939 557.664C198.074 561.598 201.413 564.743 205.467 566.639C209.521 568.535 214.076 569.081 218.463 568.198L250.523 561.77L282.577 555.313C284.548 554.911 286.471 554.3 288.312 553.489C290.158 552.68 291.912 551.672 293.541 550.485L295.021 549.407L296.494 548.334C296.684 548.194 296.905 548.101 297.138 548.063C297.372 548.025 297.611 548.044 297.835 548.117C298.06 548.191 298.263 548.317 298.429 548.486C298.595 548.654 298.718 548.86 298.788 549.085C299.023 549.85 299.534 550.5 300.222 550.909C300.91 551.317 301.726 551.454 302.509 551.293L317.309 548.311L332.109 545.33C332.802 545.189 333.434 544.838 333.921 544.325C334.407 543.812 334.724 543.162 334.827 542.463L334.936 541.797L335.039 541.132C335.064 540.971 335.134 540.821 335.24 540.698C335.347 540.575 335.486 540.485 335.642 540.438C335.796 540.391 335.961 540.389 336.116 540.433C336.272 540.477 336.412 540.564 336.519 540.685L337.287 541.786L338.056 542.887C338.278 543.204 338.586 543.451 338.944 543.598C339.308 543.746 339.707 543.782 340.091 543.701L343.148 543.088L346.204 542.468C346.603 542.39 346.969 542.19 347.251 541.897C347.533 541.603 347.718 541.23 347.781 540.828L347.976 539.578L348.171 538.334C348.195 538.173 348.265 538.023 348.371 537.9C348.478 537.777 348.617 537.687 348.773 537.64C348.927 537.593 349.092 537.591 349.248 537.635C349.403 537.678 349.543 537.766 349.65 537.887L350.138 538.58L350.625 539.28C351.042 539.879 351.625 540.343 352.303 540.615C352.98 540.887 353.723 540.955 354.438 540.811L356.566 540.381L358.699 539.951C360.517 539.583 362.232 538.821 363.724 537.718C365.215 536.615 366.447 535.199 367.331 533.568C368.216 531.938 368.732 530.133 368.844 528.281C368.955 526.43 368.659 524.576 367.977 522.852L367.965 522.846Z" fill="#EF3F3F" stroke="black" stroke-width="1.72026" stroke-miterlimit="10" stroke-linecap="round"/>
<path d="M302.98 191.857C306.073 177.495 308.395 162.978 309.935 148.369C312.424 124.446 312.952 96.1876 305.113 78.7384C304.087 76.5005 302.889 74.3456 301.529 72.2932C299.41 69.0955 296.951 66.1366 294.195 63.4683C292.566 61.8799 288.616 58.2559 280.754 54.7179C272.892 51.1799 261.114 47.7279 243.826 46.5008C235.586 45.9274 226.159 46.6728 213.492 48.6167C200.825 50.5606 184.93 53.7201 163.713 57.8717C156.666 59.2594 150.634 60.5266 144.957 62.3444C139.104 64.1806 133.521 66.7877 128.356 70.097C118.443 76.4264 110.132 84.9686 104.078 95.0522C100.568 100.901 97.8675 107.199 96.05 113.774C92.2501 127.536 88.4522 141.314 84.6562 155.106C80.8601 168.899 77.0603 182.676 73.2566 196.438C74.1798 197.321 78.9564 201.903 85.1034 207.333C91.2505 212.764 98.8081 219.117 105.225 223.452C107.046 224.743 108.996 225.841 111.045 226.726C113.453 227.751 116.073 228.182 118.683 227.982C119.904 227.878 121.109 227.639 122.278 227.271C123.213 226.978 124.122 226.608 124.996 226.164L122.863 243.224L120.707 260.3L144.71 260.633L168.714 260.965C169.478 250.208 170.231 239.449 170.973 228.688C171.715 217.926 172.468 207.167 173.232 196.41C177.556 196.484 185.945 196.76 194.334 197.029C202.723 197.299 211.107 197.574 215.43 197.648C216.577 208.322 217.743 218.993 218.928 229.662C220.113 240.332 221.279 251.005 222.426 261.682L267.153 256.235L311.879 250.787L307.424 221.325L302.98 191.857Z" fill="#B00808" stroke="black" stroke-width="1.72026" stroke-miterlimit="10" stroke-linecap="round"/>
<path d="M244.663 226.319L293.765 244.267L310.394 250.351C310.519 250.375 310.645 250.388 310.772 250.391C310.986 250.411 311.2 250.365 311.386 250.26C311.461 250.196 311.522 250.117 311.565 250.028C311.607 249.939 311.63 249.842 311.632 249.744C311.647 249.585 311.647 249.426 311.632 249.268C311.558 248.499 309.712 236.268 307.745 223.315C305.778 210.361 303.691 196.679 303.129 192.998C302.677 194.991 302.115 196.957 301.443 198.887C300.582 201.347 299.541 203.741 298.329 206.049C297.301 208.059 296.152 210.004 294.889 211.875C293.171 214.406 291.166 216.731 288.914 218.802C286.005 221.479 282.721 223.716 279.165 225.442C274.624 227.656 269.718 229.028 264.687 229.49C261.483 229.783 258.256 229.702 255.07 229.25C253.068 228.963 251.09 228.527 249.153 227.948C247.627 227.49 246.128 226.946 244.663 226.319Z" fill="black" stroke="black" stroke-width="1.72026" stroke-miterlimit="10" stroke-linecap="round"/>
<path d="M128.763 186.318L151.316 185.939L173.868 185.561L173.06 198.124C172.788 202.31 172.521 206.498 172.257 210.688L150.524 198.503L128.763 186.318Z" fill="black" stroke="black" stroke-width="1.72026" stroke-miterlimit="10" stroke-linecap="round"/>
<path d="M276.367 493.997H171.947H67.5278V488.085V482.167H171.947H276.367V488.085V493.997Z" fill="#D1B7E5" stroke="black" stroke-width="1.72026" stroke-miterlimit="10" stroke-linecap="round"/>
<path d="M73.2448 486.554C73.2517 493.131 70.9774 499.508 66.8095 504.596C62.6416 509.684 56.8381 513.17 50.3881 514.458C43.9382 515.746 37.241 514.758 31.4382 511.661C25.6354 508.565 21.086 503.551 18.5657 497.476C16.0453 491.401 15.7098 484.639 17.6165 478.344C19.5231 472.05 23.5539 466.611 29.0217 462.955C34.4895 459.299 41.056 457.653 47.6018 458.296C54.1476 458.94 60.2676 461.834 64.9187 466.484C67.5588 469.117 69.6533 472.245 71.0821 475.689C72.5109 479.133 73.2458 482.825 73.2448 486.554Z" fill="black" stroke="black" stroke-width="1.72026" stroke-miterlimit="10" stroke-linecap="round"/>
<path d="M192.556 83.1135L185.251 68.629L177.94 54.1788C180.582 52.5655 183.398 51.2574 186.335 50.2796C192.864 47.9566 199.861 47.2599 206.72 48.2496L200.412 65.6357L194.07 83.0275C194.014 83.176 193.916 83.3052 193.789 83.3992C193.661 83.4932 193.508 83.5481 193.35 83.5572C193.191 83.5663 193.034 83.5292 192.896 83.4505C192.758 83.3717 192.646 83.2547 192.574 83.1135H192.556Z" fill="#FFF8F8" stroke="black" stroke-width="1.72026" stroke-miterlimit="10" stroke-linecap="round"/>
<path d="M173.697 196.771L194.34 197.396L214.983 198.021C215.051 198.024 215.118 198.011 215.18 197.983C215.241 197.955 215.296 197.913 215.338 197.86C215.383 197.809 215.415 197.748 215.433 197.683C215.45 197.617 215.454 197.549 215.442 197.482L204.34 139.354L193.239 81.2442C193.221 81.1394 193.166 81.0447 193.084 80.9772C193.002 80.9098 192.898 80.8743 192.792 80.8772C192.685 80.8773 192.582 80.9155 192.501 80.9849C192.42 81.0543 192.366 81.1503 192.35 81.2557L182.808 138.741L173.261 196.243C173.25 196.307 173.253 196.372 173.27 196.435C173.287 196.497 173.317 196.555 173.358 196.605C173.4 196.655 173.451 196.695 173.51 196.724C173.568 196.753 173.632 196.769 173.697 196.771Z" fill="#FFF8F8" stroke="black" stroke-width="1.72026" stroke-miterlimit="10" stroke-linecap="round"/>
<path d="M137.33 118.115L131.16 172.154L124.996 226.187" stroke="black" stroke-width="1.72026" stroke-miterlimit="10" stroke-linecap="round"/>
<path d="M164.786 57.3268L163.714 78.6007L162.647 99.8745L177.934 91.4625L193.216 83.0504L184.873 66.8513L176.518 50.6465L170.652 53.9895L164.786 57.3268Z" fill="#B00808" stroke="black" stroke-width="1.72026" stroke-miterlimit="10" stroke-linecap="round"/>
<path d="M193.221 83.0504C194.854 77.1671 196.486 71.2877 198.118 65.4121L203.021 47.7737H218.28L223.922 70.8137L229.507 93.8594L211.364 88.4578L193.221 83.0504Z" fill="#B00808" stroke="black" stroke-width="1.72026" stroke-miterlimit="10" stroke-linecap="round"/>
<path d="M302.979 191.857C302.486 194.009 301.947 196.048 301.362 197.975C300.778 199.902 300.147 201.725 299.47 203.446C297.462 208.605 294.431 213.304 290.558 217.26C286.685 221.216 282.05 224.346 276.935 226.463C271.82 228.599 266.328 229.688 260.785 229.664C255.242 229.641 249.759 228.505 244.663 226.325C240.236 224.44 235.675 222.338 230.981 220.017C226.287 217.697 221.508 215.161 216.646 212.408C211.565 209.541 206.777 206.576 202.276 203.635C197.774 200.693 193.565 197.757 189.66 194.861C193.841 191.119 197.606 186.935 200.888 182.384C208.175 172.35 212.731 160.595 214.111 148.271C214.48 144.963 214.625 141.633 214.547 138.305L228.418 145.158L242.272 152.027L245.139 136.12C246.083 130.818 247.039 125.514 248.006 120.208" fill="#B00808"/>
<path d="M302.979 191.857C302.486 194.009 301.947 196.048 301.362 197.975C300.778 199.902 300.147 201.725 299.47 203.446C297.462 208.605 294.431 213.304 290.558 217.26C286.685 221.216 282.05 224.346 276.935 226.463C271.82 228.599 266.328 229.688 260.785 229.664C255.242 229.641 249.759 228.505 244.663 226.325C240.236 224.44 235.675 222.338 230.981 220.017C226.287 217.697 221.508 215.161 216.646 212.408C211.565 209.541 206.777 206.576 202.276 203.635C197.774 200.693 193.565 197.757 189.66 194.861C193.841 191.119 197.606 186.935 200.888 182.384C208.175 172.35 212.731 160.595 214.111 148.271C214.48 144.963 214.625 141.633 214.547 138.305L228.418 145.158L242.272 152.027L245.139 136.12C246.083 130.818 247.039 125.514 248.006 120.208" stroke="black" stroke-width="1.72026" stroke-miterlimit="10" stroke-linecap="round"/>
<path d="M214.507 138.328L202.064 132.078L189.621 125.828C188.554 125.403 187.229 124.91 185.675 124.411C184.121 123.912 182.332 123.408 180.343 122.96C179.482 122.771 178.708 122.616 178.015 122.496C177.321 122.376 176.713 122.267 176.18 122.186C169.562 121.171 163.748 120.277 158.197 120.048C152.664 119.735 147.119 120.355 141.792 121.882C140.817 122.169 139.842 122.456 138.804 122.823C137.648 123.235 136.518 123.717 135.421 124.268C129.004 127.496 124.87 133.001 121.407 141.591C117.943 150.181 115.162 161.85 111.446 177.407C111.215 178.321 111.08 179.257 111.045 180.199C110.939 182.097 111.528 183.968 112.702 185.463C113.288 186.205 114.02 186.82 114.852 187.269C116.121 187.933 117.56 188.195 118.981 188.021C119.769 187.94 120.541 187.747 121.275 187.447C122.35 188.899 123.796 190.036 125.461 190.739C126.972 191.384 128.653 191.519 130.249 191.123C131.197 190.866 132.081 190.415 132.846 189.798C133.38 189.376 133.86 188.888 134.274 188.347C134.683 189.027 135.193 189.64 135.788 190.165C136.947 191.235 138.426 191.893 139.996 192.038C141.567 192.182 143.141 191.804 144.475 190.962C145.161 190.548 145.78 190.032 146.31 189.431C146.864 190.503 147.676 191.419 148.673 192.098C149.638 192.754 150.764 193.133 151.93 193.193C153.453 193.243 154.945 192.756 156.144 191.817C157.418 190.829 158.335 189.451 158.753 187.894L168.301 187.046L177.9 186.18L183.783 190.538L189.643 194.884C189.643 194.884 195.859 189.804 202.081 180.193C210.199 167.741 214.517 153.194 214.507 138.328Z" fill="#FFC0C0" stroke="black" stroke-width="1.72026" stroke-miterlimit="10" stroke-linecap="round"/>
<path d="M161.362 177.04C162.182 172.452 163.082 167.825 164.011 163.215C164.94 158.604 165.84 153.994 166.66 149.384C166.746 148.504 167.155 147.687 167.807 147.09C168.435 146.519 169.252 146.2 170.101 146.195C170.535 146.196 170.963 146.294 171.354 146.484C171.744 146.674 172.086 146.949 172.355 147.291C172.915 148.032 173.191 148.949 173.134 149.877C173.088 150.783 172.836 153.088 172.269 157.446C171.701 161.804 170.829 168.203 169.533 177.321L165.428 177.172L161.362 177.04Z" fill="black" stroke="black" stroke-width="1.72026" stroke-miterlimit="10" stroke-linecap="round"/>
<path d="M121.252 187.453L125.793 169.889L130.329 152.325" stroke="black" stroke-width="1.72026" stroke-miterlimit="10" stroke-linecap="round"/>
<path d="M134.217 188.823L138.328 171.42L142.439 154.011" stroke="black" stroke-width="1.72026" stroke-miterlimit="10" stroke-linecap="round"/>
<path d="M146.287 189.437L150.146 172.085L154.005 154.734" stroke="black" stroke-width="1.72026" stroke-miterlimit="10" stroke-linecap="round"/>
<path d="M8.27661 180.044C6.26967 179.964 4.37673 179.09 3.01347 177.615C1.65021 176.14 0.928081 174.184 1.00566 172.177L1.30384 164.574L1.60202 156.976C1.68258 154.97 2.55553 153.078 4.02935 151.715C5.50317 150.352 7.4575 149.629 9.46359 149.705C10.4576 149.744 11.4341 149.978 12.3375 150.395C13.2409 150.812 14.0533 151.402 14.7285 152.133C15.4037 152.863 15.9283 153.719 16.2725 154.653C16.6167 155.586 16.7737 156.578 16.7345 157.572L16.4364 165.17L16.1382 172.773C16.0991 173.767 15.8645 174.744 15.448 175.647C15.0314 176.551 14.441 177.363 13.7104 178.038C12.9799 178.714 12.1235 179.238 11.1902 179.582C10.2569 179.927 9.26488 180.084 8.27088 180.044H8.27661Z" fill="#14AF6C" stroke="black" stroke-width="1.72026" stroke-miterlimit="10" stroke-linecap="round"/>
<path d="M61.2488 486.554C61.2497 490.355 59.9326 494.039 57.5219 496.978C55.1112 499.916 51.756 501.928 48.0281 502.67C44.3002 503.413 40.4303 502.839 37.0779 501.048C33.7254 499.256 31.0979 496.358 29.643 492.847C28.1881 489.335 27.9958 485.428 29.099 481.79C30.2022 478.153 32.5326 475.01 35.693 472.899C38.8534 470.787 42.6483 469.836 46.431 470.209C50.2138 470.582 53.7502 472.254 56.4378 474.942C57.9651 476.465 59.1764 478.275 60.002 480.268C60.8277 482.261 61.2514 484.397 61.2488 486.554Z" fill="#F9851C" stroke="black" stroke-width="1.72026" stroke-miterlimit="10" stroke-linecap="round"/>
<path d="M242.249 152.027L247.283 154.734L252.324 157.44" stroke="black" stroke-width="1.72026" stroke-miterlimit="10" stroke-linecap="round"/>
<path d="M350.384 479.828C348.199 476.032 345.567 471.364 342.591 465.917C339.615 460.469 336.284 454.242 332.769 447.304C331.941 445.445 330.623 443.847 328.955 442.682C328.075 442.076 327.092 441.635 326.054 441.38C325.015 441.128 323.937 441.071 322.877 441.214C320.147 441.588 317.449 442.163 314.803 442.934C312.782 443.52 310.796 444.225 308.857 445.044C306.723 445.9 304.643 446.886 302.63 447.997C300.262 449.337 298.083 450.986 296.15 452.9C293.748 455.278 291.733 458.018 290.181 461.02C290.181 461.02 289.275 455.859 286.385 451.942C283.495 448.026 278.626 445.314 270.708 450.222L262.381 455.578L254.061 460.934C253.381 461.372 252.794 461.94 252.333 462.605C251.873 463.27 251.547 464.019 251.377 464.81C251.206 465.601 251.192 466.417 251.337 467.213C251.482 468.009 251.782 468.769 252.22 469.449L256.412 475.934L260.621 482.408C261.83 484.25 262.48 486.403 262.49 488.607C262.49 492.288 260.684 497.134 253.316 501.796L239.462 509.68L225.602 517.565C223.309 518.857 221.025 520.13 218.75 521.384C216.475 522.637 214.182 523.88 211.869 525.111C207.855 527.267 201.215 531.373 196.931 536.963C192.648 542.554 190.664 549.636 195.951 557.756L282.021 540.375L368.091 522.995C365.144 511.704 360.717 500.912 357.024 492.948C353.331 484.983 350.384 479.828 350.384 479.828Z" fill="#F9851C" stroke="black" stroke-width="1.72026" stroke-miterlimit="10" stroke-linecap="round"/>
<path d="M290.181 461.008C290.27 464.886 290.001 468.763 289.378 472.591C288.346 478.899 286.047 486.353 281 490.654" stroke="black" stroke-width="1.72026" stroke-miterlimit="10" stroke-linecap="round"/>
<path d="M259.91 495.952L266.791 498.189L273.672 500.419" stroke="black" stroke-width="1.72026" stroke-miterlimit="10" stroke-linecap="round"/>
<path d="M244.927 506.807L251.314 509.8L257.697 512.794" stroke="black" stroke-width="1.72026" stroke-miterlimit="10" stroke-linecap="round"/>
<path d="M314.391 465.034C314.5 466.395 314.133 467.752 313.353 468.873C312.574 469.994 311.429 470.81 310.115 471.182C308.801 471.554 307.399 471.458 306.148 470.912C304.896 470.365 303.873 469.402 303.253 468.185C302.632 466.969 302.453 465.575 302.745 464.241C303.038 462.907 303.784 461.716 304.856 460.87C305.929 460.025 307.261 459.578 308.627 459.605C309.992 459.632 311.306 460.132 312.343 461.02C312.933 461.52 313.417 462.133 313.769 462.822C314.12 463.511 314.331 464.263 314.391 465.034Z" fill="#14AF6C" stroke="black" stroke-width="1.72026" stroke-miterlimit="10" stroke-linecap="round"/>
<path d="M226.371 417.893C224.65 413.879 222.58 408.925 220.27 403.167C217.959 397.41 215.407 390.827 212.706 383.522C212.463 382.754 212.143 382.012 211.749 381.309C211.144 380.249 210.369 379.296 209.455 378.487C208.653 377.78 207.728 377.226 206.725 376.853C205.723 376.476 204.659 376.293 203.589 376.314C200.835 376.36 198.089 376.609 195.372 377.06C193.296 377.406 191.242 377.872 189.219 378.453C187 379.055 184.819 379.791 182.688 380.655C180.177 381.705 177.819 383.085 175.675 384.761C173.014 386.844 170.692 389.328 168.794 392.123C168.794 392.123 168.496 386.905 166.087 382.668C163.679 378.43 159.166 375.167 150.725 379.09L141.837 383.436L132.944 387.771C132.212 388.127 131.558 388.624 131.02 389.233C130.481 389.843 130.068 390.553 129.805 391.322C129.542 392.092 129.433 392.906 129.486 393.717C129.538 394.529 129.751 395.322 130.111 396.051L133.511 402.99L136.917 409.922C137.908 411.89 138.306 414.103 138.064 416.293C137.646 419.951 135.266 424.55 127.416 428.335L112.708 434.47L98.0166 440.669C95.6082 441.682 93.1903 442.678 90.7628 443.657C88.3354 444.635 85.906 445.591 83.4747 446.524C79.2142 448.192 72.1611 451.489 67.2469 456.536C62.3327 461.582 59.5574 468.388 63.8465 477.064L151.362 469.925L238.883 462.786C237.283 451.226 234.152 439.992 231.428 431.649C228.705 423.306 226.371 417.893 226.371 417.893Z" fill="#F9851C" stroke="black" stroke-width="1.72026" stroke-miterlimit="10" stroke-linecap="round"/>
<path d="M168.8 392.123C168.43 395.976 167.706 399.786 166.638 403.506C164.866 409.67 161.718 416.763 156.196 420.462" stroke="black" stroke-width="1.72026" stroke-miterlimit="10" stroke-linecap="round"/>
<path d="M134.629 423.266L141.218 426.293L147.807 429.31" fill="#14AF6C"/>
<path d="M134.629 423.266L141.218 426.293L147.807 429.31" stroke="black" stroke-width="1.72026" stroke-miterlimit="10" stroke-linecap="round"/>
<path d="M118.476 432.286L124.463 436.007L130.449 439.734" fill="#14AF6C"/>
<path d="M118.476 432.286L124.463 436.007L130.449 439.734" stroke="black" stroke-width="1.72026" stroke-miterlimit="10" stroke-linecap="round"/>
<path d="M192.384 398.97C192.328 400.332 191.801 401.633 190.894 402.65C189.986 403.668 188.754 404.339 187.407 404.55C186.06 404.761 184.682 404.499 183.507 403.808C182.332 403.117 181.432 402.04 180.962 400.76C180.491 399.481 180.479 398.078 180.927 396.79C181.375 395.502 182.255 394.41 183.418 393.698C184.581 392.987 185.955 392.7 187.305 392.888C188.656 393.075 189.9 393.725 190.825 394.727C191.352 395.296 191.761 395.964 192.029 396.692C192.296 397.421 192.417 398.195 192.384 398.97Z" fill="#14AF6C" stroke="black" stroke-width="1.72026" stroke-miterlimit="10" stroke-linecap="round"/>
<path d="M160.984 223.498C160.982 224.019 160.8 224.524 160.468 224.926C160.137 225.327 159.676 225.602 159.165 225.702C158.653 225.803 158.123 225.723 157.664 225.476C157.205 225.23 156.845 224.832 156.647 224.35C156.448 223.868 156.423 223.332 156.575 222.834C156.727 222.335 157.047 221.905 157.48 221.616C157.914 221.327 158.434 221.197 158.953 221.249C159.471 221.3 159.956 221.53 160.324 221.898C160.534 222.108 160.701 222.358 160.814 222.632C160.927 222.907 160.985 223.201 160.984 223.498Z" fill="black" stroke="black" stroke-width="1.72026" stroke-miterlimit="10" stroke-linecap="round"/>
<path d="M112.444 149.596L101.658 139.985L90.8892 130.369C89.5941 129.096 88.2064 127.922 86.7376 126.854C84.8317 125.472 82.7892 124.288 80.6422 123.322C78.1112 122.193 75.4272 121.445 72.6774 121.103C69.7472 120.69 66.3239 120.529 61.7824 120.26C56.5146 119.923 51.2276 120.036 45.979 120.598C43.7649 120.835 41.5756 121.265 39.4363 121.882C38.9087 122.037 37.9626 122.313 36.8215 122.708C35.539 123.146 34.2863 123.667 33.0713 124.268C26.6548 127.496 22.5147 133.001 19.057 141.591C15.5993 150.181 12.8067 161.85 9.09668 177.407C8.85977 178.32 8.72325 179.256 8.68955 180.199C8.63699 181.532 8.90647 182.858 9.47514 184.064C9.71486 184.561 10.0091 185.031 10.3525 185.463C10.9351 186.207 11.6652 186.822 12.4971 187.269C13.7654 187.932 15.2052 188.194 16.6257 188.021C17.4137 187.94 18.1861 187.747 18.9194 187.447C19.9961 188.898 21.4413 190.035 23.1053 190.739C24.619 191.384 26.3019 191.519 27.8991 191.123C28.8468 190.865 29.7311 190.414 30.4967 189.798C31.0294 189.374 31.5088 188.887 31.9245 188.347C32.3323 189.026 32.8408 189.639 33.4326 190.165C34.5921 191.236 36.0723 191.894 37.6439 192.038C39.2155 192.182 40.7908 191.804 42.1256 190.962C42.8102 190.549 43.4271 190.032 43.9548 189.431C44.5082 190.503 45.3203 191.419 46.3173 192.098C47.2827 192.753 48.4091 193.132 49.5743 193.193C51.0972 193.243 52.5891 192.756 53.789 191.817C55.0631 190.829 55.9794 189.451 56.398 187.894L65.9856 187.04L75.4986 186.18L80.8314 189.466L86.1585 192.746C88.2343 190.773 90.4477 188.497 92.7069 185.865C98.8623 178.742 103.947 170.76 107.799 162.171C109.634 158.091 111.186 153.889 112.444 149.596Z" fill="#FFC0C0" stroke="black" stroke-width="1.72026" stroke-miterlimit="10" stroke-linecap="round"/>
<path d="M18.8506 187.453L23.3921 169.889L27.9278 152.325" stroke="black" stroke-width="1.72026" stroke-miterlimit="10" stroke-linecap="round"/>
<path d="M31.8154 188.823L35.9326 171.42L40.044 154.011" stroke="black" stroke-width="1.72026" stroke-miterlimit="10" stroke-linecap="round"/>
<path d="M43.886 189.437L47.7451 172.085L51.6042 154.734" stroke="black" stroke-width="1.72026" stroke-miterlimit="10" stroke-linecap="round"/>
<path d="M44.3161 493.997C43.3345 493.999 42.3638 493.792 41.4684 493.39C40.573 492.987 39.7734 492.399 39.1226 491.665C38.4718 490.93 37.9848 490.065 37.6939 489.128C37.4029 488.19 37.3147 487.201 37.435 486.227L56.679 330.578L75.9229 174.935H89.8685L70.5328 331.433L51.1856 487.925C50.9783 489.603 50.164 491.147 48.8963 492.265C47.6286 493.384 45.9953 494 44.3046 493.997H44.3161Z" fill="#D1B7E5" stroke="black" stroke-width="1.72026" stroke-miterlimit="10" stroke-linecap="round"/>
<path d="M213.412 23.1626L202.178 24.6478L190.945 26.1329C191.518 29.1284 192.482 32.0357 193.812 34.7801C195.677 38.5975 198.315 41.9855 201.559 44.7289C203.318 46.2188 205.242 47.502 207.293 48.5536C208.948 49.4021 210.675 50.1025 212.454 50.6466C213.462 48.3463 214.231 45.9482 214.748 43.4903C215.28 40.9308 215.547 38.3233 215.545 35.709C215.541 33.5385 215.349 31.3724 214.971 29.2351C214.624 27.1705 214.102 25.139 213.412 23.1626Z" fill="black" stroke="black" stroke-width="1.72026" stroke-miterlimit="10" stroke-linecap="round"/>
<path d="M203.526 46.2657C202.849 45.7783 202.322 45.354 201.92 45.0042C201.519 44.6544 201.227 44.3734 201.032 44.1727C200.837 43.972 200.751 43.886 200.636 43.7599L200.338 43.4273L200.63 43.4789L200.98 43.5305H201.278C201.462 43.5305 201.702 43.5305 201.943 43.5305C203.278 43.5529 204.597 43.2508 205.789 42.65C206.98 42.0493 208.008 41.1679 208.783 40.0819C209.559 38.9959 210.058 37.7377 210.24 36.4157C210.421 35.0936 210.278 33.7473 209.824 32.4927C209.369 31.2381 208.617 30.1127 207.631 29.2135C206.645 28.3143 205.455 27.6681 204.164 27.3307C202.873 26.9933 201.519 26.9746 200.219 27.2764C198.92 27.5782 197.713 28.1914 196.702 29.0631C195.204 30.3447 194.192 32.1018 193.835 34.0404C193.514 33.5014 193.187 32.8936 192.86 32.2055C192.51 31.458 192.2 30.6924 191.931 29.9118C191.685 29.2065 191.49 28.5299 191.358 27.8876C191.226 27.2454 191.083 26.6491 190.991 26.0928L171.822 28.6331L152.652 31.1676C152.566 31.9073 152.497 32.6528 152.451 33.3982C152.406 34.1436 152.377 34.9063 152.377 35.6919C152.303 44.74 155.605 53.4907 161.638 60.2342C167.372 66.5418 175.256 70.4009 184.001 70.4009C190.127 70.3895 196.096 68.4672 201.077 64.9018C206.133 61.2817 210.099 56.3455 212.546 50.6294C211.432 50.2829 210.338 49.8791 209.266 49.4195C208.308 49.0067 207.483 48.5938 206.806 48.2325C206.427 48.0261 205.952 47.7623 205.401 47.4298C204.851 47.0972 204.174 46.713 203.526 46.2657Z" fill="#FFC0C0" stroke="black" stroke-width="1.72026" stroke-miterlimit="10" stroke-linecap="round"/>
<path d="M193.577 46.128C193.578 47.1499 193.225 48.1406 192.577 48.9312C191.93 49.7218 191.028 50.2633 190.026 50.4633C189.024 50.6634 187.983 50.5096 187.082 50.0282C186.18 49.5469 185.474 48.7677 185.083 47.8236C184.691 46.8795 184.64 45.829 184.937 44.8511C185.233 43.8732 185.86 43.0286 186.71 42.4612C187.56 41.8938 188.581 41.6388 189.597 41.7396C190.614 41.8405 191.565 42.291 192.287 43.0143C192.696 43.4228 193.021 43.9082 193.242 44.4425C193.464 44.9768 193.578 45.5496 193.577 46.128Z" fill="#EF3F3F" stroke="black" stroke-width="1.72026" stroke-miterlimit="10" stroke-linecap="round"/>
<path d="M172.624 57.4817C172.625 58.5006 172.271 59.488 171.625 60.2757C170.979 61.0634 170.08 61.6026 169.08 61.8015C168.081 62.0004 167.044 61.8467 166.145 61.3665C165.246 60.8864 164.542 60.1095 164.152 59.1682C163.762 58.2269 163.71 57.1796 164.006 56.2045C164.302 55.2295 164.926 54.3872 165.773 53.821C166.621 53.2549 167.638 52.9999 168.652 53.0997C169.666 53.1994 170.614 53.6477 171.334 54.3681C171.744 54.7765 172.068 55.2619 172.29 55.7962C172.511 56.3305 172.625 56.9033 172.624 57.4817Z" fill="#EF3F3F" stroke="black" stroke-width="1.72026" stroke-miterlimit="10" stroke-linecap="round"/>
<path d="M174.855 58.3878C176.035 58.7099 177.278 58.7277 178.468 58.4394C180.394 57.952 182.567 56.4324 183.548 52.3268" stroke="black" stroke-width="1.72026" stroke-miterlimit="10" stroke-linecap="round"/>
<path d="M165.927 48.2669C165.926 48.7399 165.739 49.1934 165.405 49.5284C165.071 49.8597 164.62 50.0456 164.149 50.0456C163.679 50.0456 163.227 49.8597 162.893 49.5284C162.728 49.3633 162.597 49.1671 162.507 48.9511C162.417 48.7352 162.371 48.5036 162.371 48.2698C162.371 48.0359 162.417 47.8044 162.507 47.5884C162.597 47.3724 162.728 47.1763 162.893 47.0111C163.142 46.763 163.459 46.5941 163.803 46.5257C164.148 46.4573 164.505 46.4925 164.829 46.6268C165.154 46.7612 165.431 46.9887 165.627 47.2806C165.822 47.5724 165.926 47.9157 165.927 48.2669Z" fill="black"/>
<path d="M183.02 40.9387C183.02 41.4116 182.832 41.8652 182.498 42.2002C182.164 42.5315 181.713 42.7173 181.243 42.7173C180.772 42.7173 180.321 42.5315 179.987 42.2002C179.74 41.9508 179.571 41.634 179.503 41.2894C179.435 40.9449 179.471 40.5879 179.605 40.2633C179.739 39.9388 179.966 39.661 180.257 39.4649C180.549 39.2688 180.891 39.1631 181.243 39.1611C181.714 39.1626 182.165 39.3504 182.498 39.6834C182.831 40.0164 183.019 40.4677 183.02 40.9387Z" fill="black"/>
<path d="M162.652 38.4443L171.947 34.631L181.243 30.8178" stroke="black" stroke-width="1.72026" stroke-miterlimit="10" stroke-linecap="round"/>
<path d="M167.406 36.5003L170.29 44.4135L173.18 52.3267L174.264 51.8278L175.348 51.3347" stroke="black" stroke-width="1.72026" stroke-miterlimit="10" stroke-linecap="round"/>
<path d="M183.943 1C176.09 1.0443 168.568 4.17482 163.002 9.71597C157.178 15.4779 153.508 23.0646 152.606 31.2077L182.997 27.1938L213.388 23.1799C211.204 16.8729 207.236 11.3353 201.966 7.2388C196.814 3.22238 190.476 1.02821 183.943 1Z" fill="#F9851C" stroke="black" stroke-width="1.72026" stroke-miterlimit="10" stroke-linecap="round"/>
<path d="M199.363 38.0715L201.943 35.9269L204.523 33.7823" stroke="black" stroke-width="1.72026" stroke-miterlimit="10" stroke-linecap="round"/>
<path d="M164.149 29.6825C164.746 32.8983 164.36 36.2192 163.043 39.2127C161.8 42.0668 159.657 44.4353 156.941 45.9561C155.923 46.5146 154.836 46.9368 153.707 47.2119C152.695 47.4597 151.658 47.5924 150.617 47.6075C147.966 47.6684 145.351 46.9829 143.07 45.6292C141.439 44.6678 140.043 43.3546 138.984 41.7853C137.924 40.216 137.228 38.4301 136.946 36.5578C136.78 35.417 136.78 34.258 136.946 33.1172C137.328 30.6021 138.4 28.2421 140.043 26.2993C140.844 25.3006 141.834 24.4695 142.957 23.8536C144.08 23.2377 145.313 22.849 146.585 22.7097C148.161 22.5992 149.739 22.8892 151.173 23.5526C152.117 23.9794 153.004 24.5247 153.811 25.1754C153.639 25.7488 153.472 26.3738 153.317 27.0161C153.163 27.6583 153.025 28.3349 152.899 29.0402C152.83 29.4187 152.773 29.7971 152.721 30.1871C152.669 30.577 152.624 30.9096 152.583 31.2594L158.364 30.4967L164.149 29.6825Z" fill="black" stroke="black" stroke-width="1.72026" stroke-miterlimit="10" stroke-linecap="round"/>
<path d="M155.519 20.502L182.281 17.5546L209.036 14.6129" stroke="black" stroke-width="1.72026" stroke-miterlimit="10" stroke-linecap="round"/>
<path d="M163.616 19.6132V24.6822V29.7512" stroke="black" stroke-width="1.72026" stroke-miterlimit="10" stroke-linecap="round"/>
<path d="M174.19 18.5237V23.3118V28.1056" stroke="black" stroke-width="1.72026" stroke-miterlimit="10" stroke-linecap="round"/>
<path d="M187.103 17.2278V21.9356V26.6433" stroke="black" stroke-width="1.72026" stroke-miterlimit="10" stroke-linecap="round"/>
<path d="M200.251 15.7655V20.221V24.6707" stroke="black" stroke-width="1.72026" stroke-miterlimit="10" stroke-linecap="round"/>
<path d="M238.952 462.746L151.328 469.759L63.7092 476.772C65.3687 480.934 68.3166 484.457 72.1217 486.823C75.9269 489.19 80.3895 490.277 84.8569 489.926L117.507 487.34L150.158 484.754C154.196 484.436 158.118 483.248 161.655 481.273L163.249 480.378L164.849 479.49C165.054 479.376 165.283 479.312 165.517 479.304C165.752 479.296 165.985 479.344 166.197 479.443C166.409 479.543 166.595 479.692 166.738 479.877C166.882 480.063 166.979 480.28 167.022 480.51C167.167 481.298 167.599 482.004 168.235 482.491C168.871 482.978 169.664 483.212 170.463 483.148L185.538 481.95L200.613 480.757C201.315 480.702 201.984 480.433 202.529 479.986C203.073 479.539 203.467 478.935 203.658 478.257L203.841 477.609L204.025 476.961C204.068 476.804 204.156 476.663 204.277 476.555C204.398 476.446 204.547 476.374 204.707 476.347C204.866 476.318 205.03 476.335 205.179 476.396C205.329 476.457 205.457 476.559 205.55 476.691L206.187 477.878L206.817 479.065C207.001 479.408 207.28 479.691 207.62 479.879C207.96 480.064 208.347 480.146 208.733 480.115L211.846 479.868L214.96 479.621C215.366 479.588 215.752 479.431 216.068 479.173C216.383 478.915 216.613 478.568 216.726 478.176L217.064 476.961L217.409 475.745C217.453 475.59 217.541 475.45 217.662 475.342C217.782 475.235 217.931 475.164 218.091 475.137C218.25 475.106 218.414 475.123 218.564 475.184C218.713 475.245 218.842 475.348 218.934 475.481L219.335 476.233L219.737 476.984C220.08 477.628 220.604 478.159 221.245 478.509C221.886 478.86 222.615 479.015 223.343 478.956L225.517 478.784L227.69 478.612C229.54 478.466 231.335 477.915 232.949 477C234.563 476.084 235.957 474.825 237.031 473.312C238.106 471.799 238.835 470.068 239.168 468.243C239.501 466.417 239.429 464.541 238.958 462.746H238.952Z" fill="#EF3F3F" stroke="black" stroke-width="1.72026" stroke-miterlimit="10" stroke-linecap="round"/>
<path d="M112.449 149.596L115.122 150.961L117.794 152.325" stroke="black" stroke-width="1.72026" stroke-miterlimit="10" stroke-linecap="round"/>
<path d="M58.8752 174.935C59.7086 170.68 60.5439 166.422 61.3811 162.159C62.2183 157.897 63.0536 153.638 63.8869 149.384C63.9727 148.504 64.3812 147.687 65.0338 147.09C65.6706 146.511 66.5012 146.192 67.3618 146.195C68.1718 146.209 68.9497 146.514 69.5523 147.056C70.161 147.601 70.5655 148.337 70.6991 149.143C70.7313 149.332 70.7429 149.524 70.7335 149.716C70.724 149.909 70.701 150.1 70.6647 150.29L68.5316 162.572C67.8168 166.667 67.1038 170.761 66.3928 174.855H62.6197L58.8752 174.935Z" fill="black" stroke="black" stroke-width="1.72026" stroke-miterlimit="10" stroke-linecap="round"/>
<path d="M173.066 152.234C171.955 152.227 170.86 152.495 169.878 153.013C169.281 153.316 168.721 153.685 168.209 154.114C167.205 154.974 166.428 156.067 165.944 157.297C165.657 158.002 165.464 158.743 165.371 159.499L163.364 168.272L161.357 177.04L164.797 177.166L168.238 177.292C168.547 177.484 168.867 177.661 169.195 177.819C169.619 178.021 170.058 178.187 170.508 178.318C170.508 178.318 170.761 178.399 171.139 178.479C171.582 178.581 172.033 178.641 172.487 178.657C174.291 178.698 176.038 178.021 177.344 176.775C178.649 175.529 179.406 173.815 179.448 172.011L179.597 165.606L179.746 159.195C179.788 157.39 179.111 155.644 177.865 154.338C176.618 153.033 174.905 152.276 173.1 152.234H173.066Z" fill="#14AF6C" stroke="black" stroke-width="1.72026" stroke-miterlimit="10" stroke-linecap="round"/>
<path d="M162.148 172.642L160.513 179.953L158.879 187.269" stroke="black" stroke-width="1.72026" stroke-miterlimit="10" stroke-linecap="round"/>
<path d="M58.8751 174.935L57.6021 181.421L56.3291 187.9" stroke="black" stroke-width="1.72026" stroke-miterlimit="10" stroke-linecap="round"/>
<path d="M111.664 174.935H85.2697H58.8752L60.4292 167.005L61.9832 159.08H88.7733H115.558L113.614 167.005L111.664 174.935Z" fill="#D1B7E5" stroke="black" stroke-width="1.72026" stroke-miterlimit="10" stroke-linecap="round"/>
</svg>
